<svg width="20" height="20" viewBox="0 0 20 20" fill="none" xmlns="http://www.w3.org/2000/svg">
<g clip-path="url(#clip0_464_5780)">
<path d="M9.16643 19.1533C4.11242 19.1533 0 15.041 0 9.98699C0 4.93298 4.11242 0.820557 9.16643 0.820557C10.9239 0.820557 12.6337 1.32133 14.1112 2.26964C14.4013 2.4564 14.4862 2.84305 14.2995 3.13387C14.1121 3.42469 13.7262 3.50877 13.4354 3.32216C12.1604 2.50294 10.6839 2.07052 9.16643 2.07052C4.80149 2.07052 1.24996 5.62204 1.24996 9.98699C1.24996 14.3518 4.80149 17.9033 9.16643 17.9033C13.5312 17.9033 17.0828 14.3518 17.0828 9.98699C17.0828 9.72607 17.0702 9.46775 17.0461 9.2137C17.0129 8.86947 17.2645 8.56446 17.6078 8.53119C17.9528 8.49946 18.2569 8.74954 18.2903 9.09285C18.3185 9.38703 18.3327 9.68533 18.3327 9.98699C18.3327 15.041 14.2204 19.1533 9.16643 19.1533Z" fill="#FC2F58"/>
<path d="M10.2066 12.0701C10.0467 12.0701 9.88662 12.0093 9.76501 11.8869L6.01513 8.137C5.771 7.89272 5.771 7.49692 6.01513 7.25279C6.25926 7.00865 6.65506 7.00865 6.8992 7.25279L10.2075 10.5611L18.9313 1.83715C19.1756 1.59302 19.5714 1.59302 19.8155 1.83715C20.0596 2.08129 20.0596 2.47709 19.8155 2.72122L10.6491 11.8877C10.5266 12.0093 10.3666 12.0701 10.2066 12.0701Z" fill="#FC2F58"/>
</g>
<defs>
<clipPath id="clip0_464_5780">
<rect width="20" height="19.9994" fill="white"/>
</clipPath>
</defs>
</svg>
