<svg width="287" height="32" viewBox="0 0 287 32" fill="none" xmlns="http://www.w3.org/2000/svg">
<path d="M10.972 25.208C9.152 25.208 7.50533 24.8093 6.032 24.012C4.576 23.1973 3.432 22.088 2.6 20.684C1.768 19.2627 1.352 17.668 1.352 15.9C1.352 14.132 1.768 12.546 2.6 11.142C3.432 9.72067 4.58467 8.61133 6.058 7.814C7.53133 6.99933 9.178 6.592 10.998 6.592C12.4193 6.592 13.7193 6.83467 14.898 7.32C16.0767 7.788 17.082 8.49 17.914 9.426L16.224 11.064C14.8547 9.62533 13.1473 8.906 11.102 8.906C9.75 8.906 8.528 9.20933 7.436 9.816C6.344 10.4227 5.486 11.2633 4.862 12.338C4.25533 13.3953 3.952 14.5827 3.952 15.9C3.952 17.2173 4.25533 18.4133 4.862 19.488C5.486 20.5453 6.344 21.3773 7.436 21.984C8.528 22.5907 9.75 22.894 11.102 22.894C13.13 22.894 14.8373 22.166 16.224 20.71L17.914 22.348C17.082 23.284 16.068 23.9947 14.872 24.48C13.6933 24.9653 12.3933 25.208 10.972 25.208ZM26.3981 25.156C25.0288 25.156 23.7981 24.8527 22.7061 24.246C21.6141 23.6393 20.7561 22.8073 20.1321 21.75C19.5255 20.6753 19.2221 19.462 19.2221 18.11C19.2221 16.758 19.5255 15.5533 20.1321 14.496C20.7561 13.4213 21.6141 12.5893 22.7061 12C23.7981 11.3933 25.0288 11.09 26.3981 11.09C27.7675 11.09 28.9895 11.3933 30.0641 12C31.1561 12.5893 32.0055 13.4213 32.6121 14.496C33.2361 15.5533 33.5481 16.758 33.5481 18.11C33.5481 19.462 33.2361 20.6753 32.6121 21.75C32.0055 22.8073 31.1561 23.6393 30.0641 24.246C28.9895 24.8527 27.7675 25.156 26.3981 25.156ZM26.3981 22.972C27.2821 22.972 28.0708 22.7727 28.7641 22.374C29.4748 21.958 30.0295 21.386 30.4281 20.658C30.8268 19.9127 31.0261 19.0633 31.0261 18.11C31.0261 17.1567 30.8268 16.316 30.4281 15.588C30.0295 14.8427 29.4748 14.2707 28.7641 13.872C28.0708 13.4733 27.2821 13.274 26.3981 13.274C25.5141 13.274 24.7168 13.4733 24.0061 13.872C23.3128 14.2707 22.7581 14.8427 22.3421 15.588C21.9435 16.316 21.7441 17.1567 21.7441 18.11C21.7441 19.0633 21.9435 19.9127 22.3421 20.658C22.7581 21.386 23.3128 21.958 24.0061 22.374C24.7168 22.7727 25.5141 22.972 26.3981 22.972ZM44.462 17.824C45.3807 18.0667 46.0914 18.4567 46.594 18.994C47.0967 19.5313 47.348 20.1987 47.348 20.996C47.348 21.8107 47.0707 22.5387 46.516 23.18C45.9614 23.804 45.19 24.298 44.202 24.662C43.2314 25.0087 42.1394 25.182 40.926 25.182C39.9034 25.182 38.898 25.052 37.91 24.792C36.9394 24.5147 36.0727 24.1247 35.31 23.622L36.064 21.724C36.7227 22.14 37.4767 22.4693 38.326 22.712C39.1754 22.9373 40.0334 23.05 40.9 23.05C42.0787 23.05 43.0147 22.8507 43.708 22.452C44.4187 22.036 44.774 21.4813 44.774 20.788C44.774 20.1467 44.488 19.6527 43.916 19.306C43.3614 18.9593 42.5727 18.786 41.55 18.786H39.028V16.992H41.368C42.304 16.992 43.0407 16.8273 43.578 16.498C44.1154 16.1687 44.384 15.718 44.384 15.146C44.384 14.522 44.0634 14.0367 43.422 13.69C42.798 13.3433 41.9487 13.17 40.874 13.17C39.5047 13.17 38.0574 13.5253 36.532 14.236L35.856 12.312C37.5374 11.4627 39.2967 11.038 41.134 11.038C42.2434 11.038 43.24 11.194 44.124 11.506C45.008 11.818 45.7014 12.26 46.204 12.832C46.7067 13.404 46.958 14.054 46.958 14.782C46.958 15.458 46.7327 16.0647 46.282 16.602C45.8314 17.1393 45.2247 17.5467 44.462 17.824ZM64.2466 11.22V23.128C64.2466 25.5373 63.6486 27.314 62.4526 28.458C61.2566 29.6193 59.4713 30.2 57.0966 30.2C55.7966 30.2 54.5573 30.018 53.3786 29.654C52.1999 29.3073 51.2466 28.8047 50.5186 28.146L51.7146 26.222C52.3559 26.7767 53.1446 27.21 54.0806 27.522C55.0339 27.8513 56.0133 28.016 57.0186 28.016C58.6306 28.016 59.8179 27.6347 60.5806 26.872C61.3606 26.1093 61.7506 24.948 61.7506 23.388V22.296C61.1613 23.0067 60.4333 23.544 59.5666 23.908C58.7173 24.2547 57.7899 24.428 56.7846 24.428C55.4673 24.428 54.2713 24.1507 53.1966 23.596C52.1393 23.024 51.3073 22.2353 50.7006 21.23C50.0939 20.2073 49.7906 19.046 49.7906 17.746C49.7906 16.446 50.0939 15.2933 50.7006 14.288C51.3073 13.2653 52.1393 12.4767 53.1966 11.922C54.2713 11.3673 55.4673 11.09 56.7846 11.09C57.8246 11.09 58.7866 11.2807 59.6706 11.662C60.5719 12.0433 61.3086 12.6067 61.8806 13.352V11.22H64.2466ZM57.0706 22.244C57.9719 22.244 58.7779 22.0533 59.4886 21.672C60.2166 21.2907 60.7799 20.762 61.1786 20.086C61.5946 19.3927 61.8026 18.6127 61.8026 17.746C61.8026 16.4113 61.3606 15.3367 60.4766 14.522C59.5926 13.69 58.4573 13.274 57.0706 13.274C55.6666 13.274 54.5226 13.69 53.6386 14.522C52.7546 15.3367 52.3126 16.4113 52.3126 17.746C52.3126 18.6127 52.5119 19.3927 52.9106 20.086C53.3266 20.762 53.8899 21.2907 54.6006 21.672C55.3286 22.0533 56.1519 22.244 57.0706 22.244ZM82.0672 11.22V25H79.6752V22.816C79.1205 23.5787 78.4185 24.1593 77.5692 24.558C76.7198 24.9567 75.7838 25.156 74.7612 25.156C73.4265 25.156 72.2305 24.8613 71.1732 24.272C70.1158 23.6827 69.2838 22.8593 68.6772 21.802C68.0878 20.7273 67.7932 19.4967 67.7932 18.11C67.7932 16.7233 68.0878 15.5013 68.6772 14.444C69.2838 13.3867 70.1158 12.5633 71.1732 11.974C72.2305 11.3847 73.4265 11.09 74.7612 11.09C75.7492 11.09 76.6592 11.2807 77.4912 11.662C78.3232 12.026 79.0165 12.572 79.5712 13.3V11.22H82.0672ZM74.9692 22.972C75.8358 22.972 76.6245 22.7727 77.3352 22.374C78.0458 21.958 78.6005 21.386 78.9992 20.658C79.3978 19.9127 79.5972 19.0633 79.5972 18.11C79.5972 17.1567 79.3978 16.316 78.9992 15.588C78.6005 14.8427 78.0458 14.2707 77.3352 13.872C76.6245 13.4733 75.8358 13.274 74.9692 13.274C74.0852 13.274 73.2878 13.4733 72.5772 13.872C71.8838 14.2707 71.3292 14.8427 70.9132 15.588C70.5145 16.316 70.3152 17.1567 70.3152 18.11C70.3152 19.0633 70.5145 19.9127 70.9132 20.658C71.3292 21.386 71.8838 21.958 72.5772 22.374C73.2878 22.7727 74.0852 22.972 74.9692 22.972ZM86.8418 11.22H89.3378V17.07H97.1898V11.22H99.6858V25H97.1898V19.228H89.3378V25H86.8418V11.22ZM110.441 25.156C109.072 25.156 107.841 24.8527 106.749 24.246C105.657 23.6393 104.799 22.8073 104.175 21.75C103.568 20.6753 103.265 19.462 103.265 18.11C103.265 16.758 103.568 15.5533 104.175 14.496C104.799 13.4213 105.657 12.5893 106.749 12C107.841 11.3933 109.072 11.09 110.441 11.09C111.81 11.09 113.032 11.3933 114.107 12C115.199 12.5893 116.048 13.4213 116.655 14.496C117.279 15.5533 117.591 16.758 117.591 18.11C117.591 19.462 117.279 20.6753 116.655 21.75C116.048 22.8073 115.199 23.6393 114.107 24.246C113.032 24.8527 111.81 25.156 110.441 25.156ZM110.441 22.972C111.325 22.972 112.114 22.7727 112.807 22.374C113.518 21.958 114.072 21.386 114.471 20.658C114.87 19.9127 115.069 19.0633 115.069 18.11C115.069 17.1567 114.87 16.316 114.471 15.588C114.072 14.8427 113.518 14.2707 112.807 13.872C112.114 13.4733 111.325 13.274 110.441 13.274C109.557 13.274 108.76 13.4733 108.049 13.872C107.356 14.2707 106.801 14.8427 106.385 15.588C105.986 16.316 105.787 17.1567 105.787 18.11C105.787 19.0633 105.986 19.9127 106.385 20.658C106.801 21.386 107.356 21.958 108.049 22.374C108.76 22.7727 109.557 22.972 110.441 22.972ZM137.564 17.85C139.349 18.3007 140.242 19.4187 140.242 21.204C140.242 22.4173 139.782 23.3533 138.864 24.012C137.962 24.6707 136.61 25 134.808 25H128.178V11.22H134.574C136.203 11.22 137.477 11.532 138.396 12.156C139.314 12.7627 139.774 13.6293 139.774 14.756C139.774 15.484 139.574 16.1167 139.176 16.654C138.794 17.174 138.257 17.5727 137.564 17.85ZM130.622 17.148H134.366C135.319 17.148 136.038 16.9747 136.524 16.628C137.026 16.2813 137.278 15.7787 137.278 15.12C137.278 13.8027 136.307 13.144 134.366 13.144H130.622V17.148ZM134.626 23.076C135.666 23.076 136.446 22.9113 136.966 22.582C137.486 22.2527 137.746 21.7413 137.746 21.048C137.746 20.3373 137.503 19.8087 137.018 19.462C136.55 19.1153 135.804 18.942 134.782 18.942H130.622V23.076H134.626Z" fill="white"/>
<path d="M168.466 1.99973L165.824 4.59473L167.852 6.65907L170.494 4.06407L168.466 1.99973Z" fill="#EC9A29"/>
<path d="M152.002 3.51758H155.776V15.6777C155.776 19.0511 158.84 21.3716 162.646 21.3716H164.471V25.1465H162.398C156.642 25.1465 152 21.0007 152 15.8632V3.51758H152.002Z" fill="white"/>
<path d="M170.044 9.67578V25.148H166.27V9.67578H170.044Z" fill="white"/>
<path d="M172.623 6.55078H176.398V11.5335H178.626V15.2471H176.398V18.4335C176.398 20.0735 177.759 21.4345 179.399 21.4345H180.327V25.1481H179.399C175.654 25.1481 172.621 22.0537 172.621 18.34V6.55078H172.623Z" fill="white"/>
<path d="M182.025 6.55078H185.8V11.5335H188.028V15.2471H185.8V18.4335C185.8 20.0735 187.161 21.4345 188.801 21.4345H189.73V25.1481H188.801C185.057 25.1481 182.023 22.0537 182.023 18.34V6.55078H182.025Z" fill="white"/>
<path d="M191.297 25.1474V3.48633H195.102V25.1474H191.297Z" fill="white"/>
<path d="M205.834 8.83984C206.484 8.83984 207.072 8.90114 207.629 9.02529L207.938 9.0866C208.032 9.11725 208.155 9.1479 208.248 9.18009C211.683 10.1702 214.189 13.2953 214.189 17.0089C214.189 17.225 214.158 17.4427 214.158 17.6588C214.097 18.278 213.973 18.865 213.787 19.4229C212.394 18.7424 210.847 18.4021 209.207 18.4021C207.568 18.4021 206.02 18.7424 204.567 19.3922V15.7721C206.3 15.277 207.877 15.1222 209.177 15.1222C209.456 15.1222 209.703 15.1529 209.981 15.1529C209.393 13.8225 207.908 12.5535 205.836 12.5535C203.33 12.5535 201.287 14.5643 201.287 17.0089C201.287 19.4842 203.391 21.4337 205.836 21.4337C207.105 21.4337 208.187 21 209.085 20.1034C209.735 20.8145 210.849 22.0223 211.684 22.9189C210.23 24.2799 208.188 25.1474 205.836 25.1474C201.132 25.1474 197.512 21.4337 197.512 17.0089C197.51 12.46 201.224 8.83984 205.834 8.83984Z" fill="white"/>
<path d="M216.73 3.05273H220.464V16.0497C220.464 18.9281 222.82 21.434 225.911 21.434C228.941 21.434 231.358 19.0507 231.358 16.0497V3.05273H235.092V16.0497C235.092 18.9281 237.417 21.434 240.508 21.434C243.538 21.434 245.955 19.0507 245.955 16.0497V3.05273H249.689V16.0497C249.689 21.155 245.528 25.1476 240.508 25.1476C237.539 25.1476 234.908 23.7866 233.225 21.5581C231.511 23.7866 228.88 25.1476 225.911 25.1476C220.832 25.1476 216.73 21.0937 216.73 16.0497V3.05273Z" fill="white"/>
<path d="M259.736 8.83984C260.386 8.83984 260.975 8.90114 261.531 9.02529L261.841 9.0866C261.934 9.11725 262.057 9.1479 262.15 9.18009C265.585 10.1702 268.091 13.2953 268.091 17.0089C268.091 17.225 268.06 17.4427 268.06 17.6588C267.999 18.278 267.875 18.865 267.689 19.4229C266.296 18.7424 264.75 18.4021 263.11 18.4021C261.47 18.4021 259.922 18.7424 258.469 19.3922V15.7721C260.202 15.277 261.779 15.1222 263.079 15.1222C263.358 15.1222 263.605 15.1529 263.884 15.1529C263.295 13.8225 261.81 12.5535 259.738 12.5535C257.232 12.5535 255.189 14.5643 255.189 17.0089C255.189 19.4842 257.293 21.4337 259.738 21.4337C261.007 21.4337 262.089 21 262.987 20.1034C263.637 20.8145 264.751 22.0223 265.587 22.9189C264.132 24.2799 262.091 25.1474 259.738 25.1474C255.034 25.1474 251.414 21.4337 251.414 17.0089C251.413 12.46 255.126 8.83984 259.736 8.83984Z" fill="white"/>
<path d="M274.095 3.11523V16.9782C274.095 19.8243 276.045 21.7739 278.644 21.7739C281.274 21.7739 283.193 19.3599 283.193 16.9782C283.193 14.6271 281.368 12.1825 278.644 12.1825C277.994 12.1825 277.375 12.3066 276.819 12.5227C276.571 11.9342 275.705 9.79919 275.55 9.39763C276.509 9.02672 277.53 8.84127 278.644 8.84127C283.44 8.84127 286.999 12.5856 286.999 16.9797C286.999 21.5593 283.193 25.1488 278.644 25.1488C274.034 25.1488 270.32 21.5287 270.32 16.9797V3.11677H274.095V3.11523Z" fill="white"/>
</svg>
