<svg width="60" height="60" viewBox="0 0 60 60" fill="none" xmlns="http://www.w3.org/2000/svg">
<path d="M23.6266 39.25L46.3141 16.5625C46.6919 16.1875 47.1405 16 47.66 16C48.1794 16 48.6266 16.1886 49.0016 16.5658C49.3766 16.943 49.5641 17.3909 49.5641 17.9096C49.5641 18.4282 49.3766 18.875 49.0016 19.25L24.9391 43.3125C24.5641 43.6875 24.1266 43.875 23.6266 43.875C23.1266 43.875 22.6891 43.6875 22.3141 43.3125L10.9391 31.9375C10.5641 31.5597 10.3871 31.1111 10.4079 30.5917C10.4287 30.0722 10.6277 29.625 11.005 29.25C11.3821 28.875 11.83 28.6875 12.3487 28.6875C12.8673 28.6875 13.3141 28.875 13.6891 29.25L23.6266 39.25Z" fill="#36B12C"/>
</svg>
