<svg width="60" height="60" viewBox="0 0 60 60" fill="none" xmlns="http://www.w3.org/2000/svg">
<path d="M30 32.625L16.875 45.75C16.5 46.125 16.0625 46.3125 15.5625 46.3125C15.0625 46.3125 14.625 46.125 14.25 45.75C13.875 45.375 13.6875 44.9375 13.6875 44.4375C13.6875 43.9375 13.875 43.5 14.25 43.125L27.375 30L14.25 16.875C13.875 16.5 13.6875 16.0625 13.6875 15.5625C13.6875 15.0625 13.875 14.625 14.25 14.25C14.625 13.875 15.0625 13.6875 15.5625 13.6875C16.0625 13.6875 16.5 13.875 16.875 14.25L30 27.375L43.125 14.25C43.5 13.875 43.9375 13.6875 44.4375 13.6875C44.9375 13.6875 45.375 13.875 45.75 14.25C46.125 14.625 46.3125 15.0625 46.3125 15.5625C46.3125 16.0625 46.125 16.5 45.75 16.875L32.625 30L45.75 43.125C46.125 43.5 46.3125 43.9375 46.3125 44.4375C46.3125 44.9375 46.125 45.375 45.75 45.75C45.375 46.125 44.9375 46.3125 44.4375 46.3125C43.9375 46.3125 43.5 46.125 43.125 45.75L30 32.625Z" fill="#FC2F58"/>
</svg>
