<svg width="20" height="20" fill="none" xmlns="http://www.w3.org/2000/svg">
    <g clip-path="url(#a)" fill="#FC2F58">
        <path d="M9.166 19.153C4.112 19.153 0 15.041 0 9.987S4.112.821 9.166.821c1.758 0 3.468.5 4.945 1.449a.626.626 0 0 1-.676 1.052 7.882 7.882 0 0 0-4.269-1.251c-4.365 0-7.916 3.551-7.916 7.916s3.551 7.916 7.916 7.916 7.917-3.551 7.917-7.916c0-.26-.013-.52-.037-.773a.625.625 0 1 1 1.244-.121c.029.294.043.592.043.894 0 5.054-4.113 9.166-9.167 9.166Z"/>
        <path d="M10.207 12.07a.62.62 0 0 1-.442-.183l-3.75-3.75a.625.625 0 0 1 .884-.884l3.308 3.308 8.724-8.724a.625.625 0 0 1 .884.884l-9.166 9.167a.626.626 0 0 1-.442.182Z"/>
    </g>
    <defs>
        <clipPath id="a">
            <path fill="#fff" d="M0 0h20v19.999H0z"/>
        </clipPath>
    </defs>
</svg>
