<svg width="287" height="32" fill="none" xmlns="http://www.w3.org/2000/svg">
    <path d="M10.972 25.208c-1.82 0-3.467-.399-4.94-1.196A9.045 9.045 0 0 1 2.6 20.684c-.832-1.421-1.248-3.016-1.248-4.784 0-1.768.416-3.354 1.248-4.758a8.753 8.753 0 0 1 3.458-3.328c1.473-.815 3.12-1.222 4.94-1.222 1.421 0 2.721.243 3.9.728a7.856 7.856 0 0 1 3.016 2.106l-1.69 1.638c-1.37-1.439-3.077-2.158-5.122-2.158-1.352 0-2.574.303-3.666.91a6.665 6.665 0 0 0-2.574 2.522c-.607 1.057-.91 2.245-.91 3.562 0 1.317.303 2.513.91 3.588a6.721 6.721 0 0 0 2.574 2.496c1.092.607 2.314.91 3.666.91 2.028 0 3.735-.728 5.122-2.184l1.69 1.638a8.066 8.066 0 0 1-3.042 2.132c-1.179.485-2.479.728-3.9.728Zm15.426-.052c-1.37 0-2.6-.303-3.692-.91a6.721 6.721 0 0 1-2.574-2.496c-.607-1.075-.91-2.288-.91-3.64 0-1.352.303-2.557.91-3.614A6.482 6.482 0 0 1 22.706 12c1.092-.607 2.323-.91 3.692-.91 1.37 0 2.591.303 3.666.91a6.307 6.307 0 0 1 2.548 2.496c.624 1.057.936 2.262.936 3.614 0 1.352-.312 2.565-.936 3.64a6.534 6.534 0 0 1-2.548 2.496c-1.075.607-2.297.91-3.666.91Zm0-2.184c.884 0 1.673-.2 2.366-.598a4.399 4.399 0 0 0 1.664-1.716c.399-.745.598-1.595.598-2.548 0-.953-.2-1.794-.598-2.522a4.18 4.18 0 0 0-1.664-1.716c-.693-.399-1.482-.598-2.366-.598-.884 0-1.681.2-2.392.598-.693.399-1.248.97-1.664 1.716-.398.728-.598 1.569-.598 2.522 0 .953.2 1.803.598 2.548.416.728.97 1.3 1.664 1.716.71.399 1.508.598 2.392.598Zm18.064-5.148c.919.243 1.63.633 2.132 1.17.503.537.754 1.205.754 2.002 0 .815-.277 1.543-.832 2.184-.555.624-1.326 1.118-2.314 1.482-.97.347-2.063.52-3.276.52-1.023 0-2.028-.13-3.016-.39a9.364 9.364 0 0 1-2.6-1.17l.754-1.898a8.674 8.674 0 0 0 2.262.988 10 10 0 0 0 2.574.338c1.179 0 2.115-.2 2.808-.598.71-.416 1.066-.97 1.066-1.664 0-.641-.286-1.135-.858-1.482-.555-.347-1.343-.52-2.366-.52h-2.522v-1.794h2.34c.936 0 1.673-.165 2.21-.494.537-.33.806-.78.806-1.352 0-.624-.32-1.11-.962-1.456-.624-.347-1.473-.52-2.548-.52-1.37 0-2.817.355-4.342 1.066l-.676-1.924a11.559 11.559 0 0 1 5.278-1.274c1.11 0 2.106.156 2.99.468.884.312 1.577.754 2.08 1.326.503.572.754 1.222.754 1.95 0 .676-.225 1.283-.676 1.82-.45.537-1.057.945-1.82 1.222Zm19.785-6.604v11.908c0 2.41-.598 4.186-1.794 5.33-1.196 1.161-2.982 1.742-5.356 1.742-1.3 0-2.54-.182-3.718-.546-1.18-.347-2.132-.85-2.86-1.508l1.196-1.924c.64.555 1.43.988 2.366 1.3.953.33 1.932.494 2.938.494 1.612 0 2.799-.381 3.562-1.144.78-.763 1.17-1.924 1.17-3.484v-1.092a5.619 5.619 0 0 1-2.184 1.612c-.85.347-1.777.52-2.782.52-1.318 0-2.514-.277-3.588-.832A6.43 6.43 0 0 1 50.7 21.23c-.607-1.023-.91-2.184-.91-3.484 0-1.3.303-2.453.91-3.458a6.19 6.19 0 0 1 2.496-2.366c1.074-.555 2.27-.832 3.588-.832 1.04 0 2.002.19 2.886.572a5.365 5.365 0 0 1 2.21 1.69V11.22h2.366ZM57.07 22.244c.9 0 1.707-.19 2.418-.572a4.15 4.15 0 0 0 1.69-1.586c.416-.693.624-1.473.624-2.34 0-1.335-.442-2.41-1.326-3.224-.884-.832-2.02-1.248-3.406-1.248-1.404 0-2.548.416-3.432 1.248-.884.815-1.326 1.89-1.326 3.224 0 .867.199 1.647.598 2.34.416.676.979 1.205 1.69 1.586.728.381 1.55.572 2.47.572ZM82.067 11.22V25h-2.392v-2.184a5.405 5.405 0 0 1-2.106 1.742c-.85.399-1.785.598-2.808.598-1.334 0-2.53-.295-3.588-.884a6.448 6.448 0 0 1-2.496-2.47c-.59-1.075-.884-2.305-.884-3.692s.295-2.609.884-3.666a6.448 6.448 0 0 1 2.496-2.47c1.058-.59 2.254-.884 3.588-.884.988 0 1.898.19 2.73.572.832.364 1.525.91 2.08 1.638v-2.08h2.496ZM74.97 22.972c.867 0 1.656-.2 2.366-.598A4.4 4.4 0 0 0 79 20.658c.399-.745.598-1.595.598-2.548 0-.953-.2-1.794-.598-2.522a4.18 4.18 0 0 0-1.664-1.716 4.752 4.752 0 0 0-2.366-.598c-.884 0-1.681.2-2.392.598-.693.399-1.248.97-1.664 1.716-.398.728-.598 1.569-.598 2.522 0 .953.2 1.803.598 2.548.416.728.97 1.3 1.664 1.716.71.399 1.508.598 2.392.598ZM86.842 11.22h2.496v5.85h7.852v-5.85h2.496V25H97.19v-5.772h-7.852V25h-2.496V11.22Zm23.599 13.936c-1.369 0-2.6-.303-3.692-.91a6.721 6.721 0 0 1-2.574-2.496c-.607-1.075-.91-2.288-.91-3.64 0-1.352.303-2.557.91-3.614A6.482 6.482 0 0 1 106.749 12c1.092-.607 2.323-.91 3.692-.91 1.369 0 2.591.303 3.666.91a6.31 6.31 0 0 1 2.548 2.496c.624 1.057.936 2.262.936 3.614 0 1.352-.312 2.565-.936 3.64a6.537 6.537 0 0 1-2.548 2.496c-1.075.607-2.297.91-3.666.91Zm0-2.184c.884 0 1.673-.2 2.366-.598a4.4 4.4 0 0 0 1.664-1.716c.399-.745.598-1.595.598-2.548 0-.953-.199-1.794-.598-2.522a4.18 4.18 0 0 0-1.664-1.716c-.693-.399-1.482-.598-2.366-.598-.884 0-1.681.2-2.392.598-.693.399-1.248.97-1.664 1.716-.399.728-.598 1.569-.598 2.522 0 .953.199 1.803.598 2.548.416.728.971 1.3 1.664 1.716.711.399 1.508.598 2.392.598Zm27.123-5.122c1.785.45 2.678 1.569 2.678 3.354 0 1.213-.46 2.15-1.378 2.808-.902.659-2.254.988-4.056.988h-6.63V11.22h6.396c1.629 0 2.903.312 3.822.936.918.607 1.378 1.473 1.378 2.6 0 .728-.2 1.36-.598 1.898-.382.52-.919.919-1.612 1.196Zm-6.942-.702h3.744c.953 0 1.672-.173 2.158-.52.502-.347.754-.85.754-1.508 0-1.317-.971-1.976-2.912-1.976h-3.744v4.004Zm4.004 5.928c1.04 0 1.82-.165 2.34-.494.52-.33.78-.84.78-1.534 0-.71-.243-1.24-.728-1.586-.468-.347-1.214-.52-2.236-.52h-4.16v4.134h4.004Z" fill="#fff"/>
    <path d="m168.466 2-2.642 2.595 2.028 2.064 2.642-2.595L168.466 2Z" fill="#EC9A29"/>
    <path d="M152.002 3.518h3.774v12.16c0 3.373 3.064 5.694 6.87 5.694h1.825v3.774h-2.073c-5.756 0-10.398-4.145-10.398-9.283V3.518h.002ZM170.044 9.676v15.472h-3.774V9.676h3.774ZM172.623 6.55h3.775v4.984h2.228v3.713h-2.228v3.186c0 1.64 1.361 3.002 3.001 3.002h.928v3.713h-.928c-3.745 0-6.778-3.094-6.778-6.808V6.55h.002ZM182.025 6.55h3.775v4.984h2.228v3.713H185.8v3.186c0 1.64 1.361 3.002 3.001 3.002h.929v3.713h-.929c-3.744 0-6.778-3.094-6.778-6.808V6.55h.002ZM191.297 25.147V3.487h3.805v21.66h-3.805ZM205.834 8.84c.65 0 1.238.061 1.795.185l.309.062c.094.03.217.06.31.093 3.435.99 5.941 4.115 5.941 7.829 0 .216-.031.434-.031.65a8.051 8.051 0 0 1-.371 1.764c-1.393-.68-2.94-1.02-4.58-1.02-1.639 0-3.187.34-4.64.99v-3.62c1.733-.496 3.31-.65 4.61-.65.279 0 .526.03.804.03-.588-1.33-2.073-2.6-4.145-2.6-2.506 0-4.549 2.011-4.549 4.456 0 2.475 2.104 4.425 4.549 4.425 1.269 0 2.351-.434 3.249-1.33.65.71 1.764 1.918 2.599 2.815-1.454 1.36-3.496 2.228-5.848 2.228-4.704 0-8.324-3.713-8.324-8.138-.002-4.549 3.712-8.17 8.322-8.17ZM216.73 3.053h3.734V16.05c0 2.878 2.356 5.384 5.447 5.384 3.03 0 5.447-2.383 5.447-5.384V3.053h3.734V16.05a5.397 5.397 0 0 0 5.416 5.384c3.03 0 5.447-2.383 5.447-5.384V3.053h3.734V16.05c0 5.105-4.161 9.098-9.181 9.098-2.969 0-5.6-1.361-7.283-3.59a9.143 9.143 0 0 1-7.314 3.59c-5.079 0-9.181-4.054-9.181-9.098V3.053ZM259.736 8.84c.65 0 1.239.061 1.795.185l.31.062c.093.03.216.06.309.093 3.435.99 5.941 4.115 5.941 7.829 0 .216-.031.434-.031.65a8.051 8.051 0 0 1-.371 1.764c-1.393-.68-2.939-1.02-4.579-1.02-1.64 0-3.188.34-4.641.99v-3.62c1.733-.496 3.31-.65 4.61-.65.279 0 .526.03.805.03-.589-1.33-2.074-2.6-4.146-2.6-2.506 0-4.549 2.011-4.549 4.456 0 2.475 2.104 4.425 4.549 4.425 1.269 0 2.351-.434 3.249-1.33.65.71 1.764 1.918 2.6 2.815-1.455 1.36-3.496 2.228-5.849 2.228-4.704 0-8.324-3.713-8.324-8.138-.001-4.549 3.712-8.17 8.322-8.17ZM274.095 3.115v13.863c0 2.846 1.95 4.796 4.549 4.796 2.63 0 4.549-2.414 4.549-4.796 0-2.35-1.825-4.796-4.549-4.796-.65 0-1.269.125-1.825.34a238.991 238.991 0 0 1-1.269-3.124 8.463 8.463 0 0 1 3.094-.557c4.796 0 8.355 3.745 8.355 8.139 0 4.58-3.806 8.169-8.355 8.169-4.61 0-8.324-3.62-8.324-8.17V3.118h3.775v-.002Z" fill="#fff"/>
</svg>
