<svg width="876" height="833" fill="none" xmlns="http://www.w3.org/2000/svg">
    <path opacity=".03" fill-rule="evenodd" clip-rule="evenodd" d="M729.345 682.149c-5.657-5.189-14.38-4.918-19.484.588-130.093 140.322-349.534 161.924-510.442 50.248C20.723 608.964-25.974 365.876 95.322 191.107 204.073 34.414 417.09-17.58 590.822 70.161c6.845 3.457 15.107.81 18.45-5.911 3.343-6.722.504-14.99-6.343-18.435-89.791-45.35-192.743-57.534-289.898-34.31-98.098 23.45-183.522 81.607-240.538 163.758-62.897 90.625-85.947 200.87-64.9 310.428 21.046 109.557 83.668 205.311 176.33 269.622 84.257 58.477 186.248 84.951 287.185 74.539 99.996-10.31 192.061-55.896 259.238-128.358 5.105-5.502 4.657-14.166-1.001-19.345ZM547.402 124.73c-141.911-63.928-308.046-19.358-395.03 105.972-99.945 144.006-61.466 344.3 85.771 446.488 128.897 89.459 301.703 76.253 410.896-31.403 5.348-5.273 5.284-13.94-.143-19.358-5.428-5.41-14.162-5.534-19.51-.261-99.846 98.439-257.87 110.507-375.748 28.696C118.988 561.411 83.8 378.242 175.2 246.548c79.548-114.617 231.467-155.381 361.232-96.929 6.992 3.15 15.115.131 18.145-6.743 3.027-6.873-.184-14.991-7.175-18.146Zm-48.048 97.216c-2.4 7.125-10.208 10.848-17.44 8.315-83.864-29.366-177.143.129-226.833 71.722-61.503 88.616-37.826 211.869 52.781 274.753 73.844 51.251 172.745 47.887 240.51-8.176 5.79-4.792 14.505-3.939 19.452 1.913 4.95 5.848 4.268 14.474-1.523 19.265-77.189 63.861-189.835 67.697-273.936 9.327-103.195-71.62-130.162-211.997-60.115-312.925 56.59-81.537 162.832-115.125 258.36-81.676 7.23 2.533 11.145 10.36 8.744 17.482Zm144.345-31.561c-5.483-5.357-14.217-5.382-19.508-.051-5.288 5.333-5.128 14.001.356 19.36 89.017 86.98 114.96 219.98 64.554 330.954-2.768 6.089-.593 13.23 4.834 16.997.665.461 1.38.871 2.139 1.225 6.959 3.225 15.115.296 18.221-6.543 55.129-121.365 26.758-266.819-70.596-361.942Zm65.479-117.892C878.284 214.538 924.373 454.462 818.77 642.977c-7.075 12.636-19.336 21.668-33.639 24.787-14.327 3.122-29.536.062-41.727-8.399L552.317 526.743c-13.978-9.701-18.569-28.062-10.678-42.711.308-.574.611-1.146.909-1.716 29.275-56.246 15.945-125.641-32.42-168.755-.489-.438-.986-.873-1.486-1.308-12.85-11.144-15.379-29.854-5.892-43.525L632.458 81.84c8.274-11.922 21.387-19.774 35.974-21.545 14.564-1.764 29.419 2.684 40.746 12.198Zm49.725 564.544c5.861 4.067 12.884 5.482 19.775 3.978 6.866-1.498 12.516-5.657 15.909-11.715 99.232-177.141 55.923-402.586-102.979-536.061a26.466 26.466 0 0 0-1.917-1.468c-5.083-3.528-11.158-5.045-17.35-4.295-7.017.85-13.072 4.476-17.05 10.208L525.582 284.575c-1.575 2.27-1.158 5.377.97 7.224a196.96 196.96 0 0 1 1.778 1.564c57.869 51.587 73.818 134.618 38.791 201.917a117.176 117.176 0 0 1-1.088 2.052c-1.306 2.425-.541 5.47 1.783 7.083l191.087 132.622Z" fill="#8794BA"/>
</svg>
