<svg width="60" height="60" fill="none" xmlns="http://www.w3.org/2000/svg">
    <path d="M30 32.625 16.875 45.75c-.375.375-.813.563-1.313.563s-.937-.188-1.312-.563c-.375-.375-.563-.813-.563-1.313s.188-.937.563-1.312L27.375 30 14.25 16.875c-.375-.375-.563-.813-.563-1.313s.188-.937.563-1.312c.375-.375.813-.563 1.313-.563s.937.188 1.312.563L30 27.375 43.125 14.25c.375-.375.813-.563 1.313-.563s.937.188 1.312.563c.375.375.563.813.563 1.313s-.188.937-.563 1.312L32.625 30 45.75 43.125c.375.375.563.813.563 1.313s-.188.937-.563 1.312c-.375.375-.813.563-1.313.563s-.937-.188-1.312-.563L30 32.625Z" fill="#FC2F58"/>
</svg>
