<svg width="515" height="205" fill="none" xmlns="http://www.w3.org/2000/svg">
    <g clip-path="url(#a)">
        <path d="M214.86 117.037c-8.05-4.327-14.377-10.33-18.982-18.006-4.607-7.677-6.908-16.353-6.908-26.032 0-9.677 2.301-18.354 6.908-26.032 4.605-7.676 10.932-13.678 18.982-18.005 8.048-4.327 17.099-6.49 27.148-6.49 8.466 0 16.123 1.49 22.962 4.466 6.838 2.979 12.584 7.259 17.237 12.843l-14.515 13.398c-6.609-7.629-14.797-11.445-24.566-11.445-6.051 0-11.446 1.325-16.192 3.977s-8.444 6.352-11.098 11.098c-2.65 4.745-3.976 10.144-3.976 16.19 0 6.05 1.326 11.446 3.976 16.192 2.654 4.746 6.352 8.444 11.098 11.096 4.746 2.652 10.141 3.978 16.192 3.978 9.769 0 17.957-3.86 24.566-11.584l14.515 13.4c-4.653 5.676-10.421 10.002-17.308 12.98-6.887 2.976-14.564 4.466-23.031 4.466-9.957 0-18.96-2.164-27.008-6.49ZM356.27 46.968c-3.538-2.931-8.702-4.397-15.494-4.397h-18.424V76.63h18.424c6.792 0 11.956-1.488 15.494-4.467 3.536-2.977 5.304-7.165 5.304-12.563 0-5.489-1.768-9.7-5.304-12.631Zm5.722 74.885-18.844-27.219h-20.796v27.219H299.74V24.147h42.291c8.656 0 16.168 1.444 22.544 4.327 6.372 2.885 11.281 6.979 14.725 12.283 3.442 5.304 5.164 11.585 5.164 18.842 0 7.26-1.745 13.52-5.233 18.774-3.489 5.258-8.445 9.282-14.867 12.074l21.915 31.406h-24.287ZM493.56 121.853l-.138-58.624-28.754 48.294h-10.19l-28.614-47.038v57.368h-21.216V24.147h18.704l36.57 60.718 36.012-60.717h18.564l.278 97.705H493.56Z" fill="#FC2F58"/>
        <path d="M213.568 183.205c1.854-1.894 2.782-4.387 2.782-7.478 0-3.09-.928-5.582-2.782-7.478-1.854-1.895-4.205-2.843-7.046-2.843-2.843 0-5.183.948-7.015 2.843-1.833 1.896-2.751 4.388-2.751 7.478 0 3.091.918 5.584 2.751 7.478 1.832 1.897 4.172 2.844 7.015 2.844 2.841 0 5.192-.947 7.046-2.844Zm10.383-23.98v33.005h-7.356v-4.265a11.926 11.926 0 0 1-4.728 3.522c-1.875.783-3.945 1.175-6.211 1.175-3.214 0-6.086-.7-8.622-2.101-2.534-1.4-4.511-3.379-5.934-5.934-1.42-2.554-2.13-5.521-2.13-8.9 0-3.378.71-6.334 2.13-8.869 1.423-2.533 3.4-4.501 5.934-5.903 2.536-1.4 5.408-2.101 8.622-2.101 2.143 0 4.11.371 5.903 1.113a12.95 12.95 0 0 1 4.665 3.275v-4.017h7.727ZM265.156 162.501c2.514 2.432 3.77 6.036 3.77 10.816v18.913H261.2v-17.924c0-2.884-.679-5.057-2.039-6.521-1.359-1.462-3.298-2.194-5.808-2.194-2.844 0-5.091.855-6.738 2.564-1.648 1.712-2.473 4.174-2.473 7.387v16.688h-7.725v-33.005h7.354v4.264c1.278-1.523 2.884-2.676 4.82-3.46 1.938-.783 4.12-1.175 6.552-1.175 4.163 0 7.499 1.216 10.013 3.647ZM303.272 183.205c1.855-1.894 2.782-4.387 2.782-7.478 0-3.09-.927-5.582-2.782-7.478-1.854-1.895-4.204-2.843-7.046-2.843-2.843 0-5.183.948-7.015 2.843-1.833 1.896-2.751 4.388-2.751 7.478 0 3.091.918 5.584 2.751 7.478 1.832 1.897 4.172 2.844 7.015 2.844 2.842 0 5.192-.947 7.046-2.844Zm10.383-23.98v33.005H306.3v-4.265a11.933 11.933 0 0 1-4.728 3.522c-1.876.783-3.946 1.175-6.212 1.175-3.214 0-6.088-.7-8.621-2.101-2.535-1.4-4.512-3.379-5.933-5.934-1.423-2.554-2.132-5.521-2.132-8.9 0-3.378.709-6.334 2.132-8.869 1.421-2.533 3.398-4.501 5.933-5.903 2.533-1.4 5.407-2.101 8.621-2.101 2.143 0 4.111.371 5.903 1.113a12.95 12.95 0 0 1 4.665 3.275v-4.017h7.727ZM329.601 189.85c-1.914-1.875-2.872-4.521-2.872-7.941v-34.388h7.725v33.83c0 3.298 1.546 4.944 4.635 4.944 1.03 0 1.957-.204 2.779-.617l.373 6.18c-1.442.536-2.989.804-4.636.804-3.418 0-6.086-.937-8.004-2.812ZM383.664 159.225v27.998c0 11.619-5.708 17.43-17.12 17.43-3.009 0-5.882-.402-8.622-1.206-2.74-.804-4.998-1.968-6.77-3.492l3.463-5.809c1.401 1.195 3.112 2.141 5.129 2.841 2.018.702 4.142 1.052 6.367 1.052 3.377 0 5.861-.814 7.448-2.441 1.585-1.628 2.379-4.131 2.379-7.509v-1.546c-1.236 1.36-2.742 2.4-4.514 3.122-1.77.721-3.686 1.081-5.745 1.081-4.411 0-7.88-1.215-10.415-3.647-2.534-2.429-3.801-6.077-3.801-10.94v-16.934h7.725v15.946c0 2.926.671 5.12 2.008 6.583 1.339 1.463 3.246 2.193 5.719 2.193 2.76 0 4.953-.844 6.581-2.534 1.628-1.688 2.442-4.14 2.442-7.355v-14.833h7.726ZM416.558 190.437c-.908.742-2.01 1.298-3.308 1.669a14.87 14.87 0 0 1-4.11.556c-3.626 0-6.426-.947-8.405-2.843-1.979-1.894-2.968-4.656-2.968-8.282v-29.606h7.727v7.542h8.837v6.18h-8.837v15.698c0 1.607.401 2.834 1.205 3.679.804.844 1.927 1.265 3.368 1.265 1.732 0 3.173-.452 4.328-1.358l2.163 5.5ZM427.141 159.225h7.724v33.005h-7.724v-33.005Zm.37-6.768c-.948-.886-1.421-1.987-1.421-3.307 0-1.317.473-2.419 1.421-3.305.947-.886 2.122-1.33 3.522-1.33 1.188 0 2.213.304 3.074.91 1.346.945 2.047 2.661 1.822 4.29a4.583 4.583 0 0 1-1.342 2.682c-.926.926-2.112 1.389-3.554 1.389-1.4 0-2.575-.443-3.522-1.329ZM455.15 190.499c-2.72-1.442-4.843-3.45-6.366-6.026-1.526-2.575-2.286-5.491-2.286-8.746 0-3.254.76-6.158 2.286-8.714 1.523-2.555 3.635-4.554 6.335-5.995 2.699-1.443 5.78-2.164 9.24-2.164 3.255 0 6.109.66 8.56 1.979 2.451 1.318 4.295 3.213 5.532 5.685l-5.935 3.463c-.948-1.526-2.132-2.668-3.553-3.431-1.421-.763-2.977-1.144-4.665-1.144-2.886 0-5.275.937-7.17 2.812-1.896 1.875-2.844 4.377-2.844 7.509 0 3.132.938 5.635 2.812 7.51 1.875 1.876 4.275 2.812 7.202 2.812 1.688 0 3.244-.38 4.665-1.143 1.421-.763 2.605-1.905 3.553-3.431l5.935 3.462c-1.277 2.472-3.144 4.378-5.593 5.716-2.454 1.34-5.284 2.009-8.499 2.009-3.42 0-6.491-.721-9.209-2.163ZM491.69 191.611c-2.556-.7-4.595-1.585-6.119-2.657l2.966-5.872c1.485.988 3.265 1.784 5.348 2.38 2.078.597 4.129.896 6.149.896 4.613 0 6.921-1.215 6.921-3.647 0-1.153-.588-1.956-1.761-2.41-1.173-.454-3.059-.886-5.656-1.298-2.719-.412-4.933-.885-6.643-1.421-1.709-.536-3.194-1.473-4.45-2.812-1.256-1.339-1.886-3.204-1.886-5.593 0-3.132 1.307-5.635 3.926-7.511 2.614-1.875 6.149-2.812 10.598-2.812 2.267 0 4.534.257 6.8.773 2.264.516 4.119 1.206 5.563 2.071l-2.969 5.871c-2.802-1.647-5.951-2.472-9.454-2.472-2.268 0-3.986.34-5.162 1.02-1.174.68-1.762 1.576-1.762 2.688 0 1.236.628 2.112 1.886 2.626 1.257.516 3.205 1 5.841 1.454 2.637.412 4.8.886 6.489 1.421a10.16 10.16 0 0 1 4.358 2.72c1.214 1.277 1.822 3.091 1.822 5.439 0 3.089-1.338 5.562-4.018 7.416-2.676 1.854-6.324 2.781-10.939 2.781-2.677 0-5.295-.351-7.848-1.051Z" fill="#fff"/>
        <path d="M9.074 56.736 157.91 9.025c.772-.248 1.356.71.783 1.284L86.778 82.225a6.188 6.188 0 0 0-1.45 6.467l23.634 65.847c.278.778-.692 1.392-1.276.808L9.074 56.735Zm-8.166.74 110.619 110.618c1.636 1.637 4.427.963 5.133-1.243L168.85 4.043c.768-2.396-1.494-4.66-3.891-3.89L2.151 52.343c-2.205.706-2.881 3.495-1.243 5.134Z" fill="#FC2F58"/>
    </g>
    <defs>
        <clipPath id="a">
            <path fill="#fff" d="M0 0h515v205H0z"/>
        </clipPath>
    </defs>
</svg>
