<svg width="80" height="80" fill="none" xmlns="http://www.w3.org/2000/svg">
    <g opacity=".7" clip-path="url(#a)" fill="#FC2F58">
        <path d="M45.8 20.328a1 1 0 0 0-.763-.672l-5.76-1.107-2.833-5.136c-.352-.638-1.4-.638-1.751 0l-2.833 5.136-5.76 1.107a1 1 0 0 0-.541 1.665l4.01 4.28-.727 5.821a1 1 0 0 0 1.416 1.03l5.31-2.491 5.31 2.49a.999.999 0 0 0 1.418-1.028l-.728-5.821 4.01-4.28c.25-.267.334-.647.221-.994Zm-6.013 4.249a.999.999 0 0 0-.262.807l.561 4.487-4.093-1.92a1.001 1.001 0 0 0-.85 0l-4.092 1.92.56-4.487a.999.999 0 0 0-.262-.807l-3.09-3.3 4.439-.852a1 1 0 0 0 .687-.5l2.183-3.959 2.184 3.96a1 1 0 0 0 .686.499l4.44.853-3.09 3.299Z"/>
        <path d="M75.766.027H22.402a4.24 4.24 0 0 0-4.234 4.235v12a4.205 4.205 0 0 0-3.574 2.627L.314 54.079a4.207 4.207 0 0 0 .023 3.242 4.207 4.207 0 0 0 2.308 2.275L52.09 79.662a4.242 4.242 0 0 0 5.516-2.331L70.13 46.475h5.637A4.24 4.24 0 0 0 80 42.24V4.262A4.24 4.24 0 0 0 75.766.027ZM55.754 76.58c-.224.553-.65.985-1.2 1.218a2.21 2.21 0 0 1-1.71.012L3.395 57.742a2.217 2.217 0 0 1-1.217-1.2 2.22 2.22 0 0 1-.013-1.71L16.447 19.64a2.224 2.224 0 0 1 1.72-1.36V42.24a4.24 4.24 0 0 0 4.235 4.235H67.97L55.754 76.579ZM78 42.239a2.237 2.237 0 0 1-2.234 2.236H22.402a2.237 2.237 0 0 1-2.234-2.235V4.262a2.237 2.237 0 0 1 2.235-2.235h53.363A2.237 2.237 0 0 1 78 4.262V42.24Z"/>
        <path d="m10.217 54.574-2.302-.933a1 1 0 1 0-.752 1.853l2.302.934a1 1 0 1 0 .752-1.854ZM17.226 57.419l-2.301-.934a1 1 0 0 0-.752 1.853l2.3.934a1.001 1.001 0 1 0 .753-1.853ZM24.235 60.264l-2.301-.935a1 1 0 1 0-.752 1.854l2.301.934a1 1 0 1 0 .752-1.853ZM31.244 63.108l-2.301-.934a.999.999 0 1 0-.752 1.853l2.301.934a1 1 0 1 0 .752-1.853ZM38.253 65.953l-2.301-.935a1 1 0 0 0-.752 1.854l2.301.934a1 1 0 1 0 .752-1.853ZM45.262 68.797l-2.301-.934a1 1 0 1 0-.752 1.854l2.301.933a1.001 1.001 0 1 0 .752-1.853ZM52.271 71.641l-2.3-.934a1 1 0 1 0-.753 1.854l2.301.934a.999.999 0 1 0 .752-1.854ZM53.086 63.966 36.664 57.3a1 1 0 0 0-.752 1.854l16.422 6.664a1 1 0 1 0 .752-1.853ZM56.49 56.518l-16.423-6.665a1 1 0 1 0-.752 1.854l16.423 6.664a1 1 0 1 0 .752-1.853ZM70.655 13.74H53.042a1 1 0 0 0 0 2h17.613a1 1 0 0 0 0-2ZM70.655 22.25H53.042a1 1 0 0 0 0 2h17.613a1 1 0 0 0 0-2ZM70.655 30.761H53.042a1 1 0 0 0 0 2h17.613a1 1 0 0 0 0-2ZM27.53 38.975h-2.483a1 1 0 1 0 0 2h2.484a1 1 0 1 0 0-2ZM35.095 38.975h-2.484a1 1 0 0 0 0 2h2.484a1 1 0 1 0 0-2ZM42.66 38.975h-2.484a1 1 0 1 0 0 2h2.483a1 1 0 1 0 0-2ZM50.224 38.975H47.74a1 1 0 1 0 0 2h2.484a1 1 0 1 0 0-2ZM57.788 38.975h-2.483a1 1 0 1 0 0 2h2.483a1 1 0 0 0 0-2ZM65.352 38.975H62.87a1 1 0 0 0 0 2h2.483a1 1 0 1 0 0-2ZM72.917 38.975h-2.484a1 1 0 1 0 0 2h2.484a1 1 0 1 0 0-2ZM27.53 5.642h-2.483a1 1 0 1 0 0 2h2.484a1 1 0 1 0 0-2ZM35.095 5.642h-2.484a1 1 0 0 0 0 2h2.484a1 1 0 1 0 0-2ZM42.66 5.642h-2.484a1 1 0 1 0 0 2h2.483a1 1 0 1 0 0-2ZM50.224 5.642H47.74a1 1 0 1 0 0 2h2.484a1 1 0 1 0 0-2ZM57.788 5.642h-2.483a1 1 0 1 0 0 2h2.483a1 1 0 0 0 0-2ZM65.352 5.642H62.87a1 1 0 0 0 0 2h2.483a1 1 0 1 0 0-2ZM72.917 5.642h-2.484a1 1 0 1 0 0 2h2.484a1 1 0 1 0 0-2Z"/>
    </g>
    <defs>
        <clipPath id="a">
            <path fill="#fff" d="M0 0h80v80H0z"/>
        </clipPath>
    </defs>
</svg>
