<svg width="40" height="40" viewBox="0 0 40 40" fill="none" xmlns="http://www.w3.org/2000/svg">
<g clip-path="url(#clip0_49_947)">
<path d="M39.045 30.7933L33.2941 25.0291C32.6871 24.4033 31.8489 24.0553 30.9773 24.0671H30.9757C30.1054 24.0598 29.2694 24.406 28.6591 25.0264L25.8047 27.8807C25.2516 28.4466 24.3799 28.5526 23.7073 28.1359C18.8499 25.2167 14.7832 21.1501 11.8641 16.2925C11.4474 15.6199 11.5534 14.7481 12.1193 14.1951L14.9736 11.3407C15.5945 10.73 15.9407 9.8934 15.9329 9.02255C15.9446 8.15073 15.5967 7.31276 14.9709 6.70572L9.20656 0.954958C7.92591 -0.319371 5.85588 -0.318157 4.57669 0.95763L3.04681 2.48742C0.131028 5.40329 -0.7131 9.5462 0.605683 14.4681C1.92536 19.3929 5.43385 24.9693 10.2324 29.7676C15.0309 34.5659 20.6074 38.0747 25.5319 39.3943C27.0424 39.7989 28.4789 40 29.8296 39.9999C32.8804 39.9999 35.4914 38.9739 37.5125 36.953L39.0423 35.4233C40.3182 34.144 40.3194 32.0739 39.045 30.7933ZM37.9375 34.3183L36.4077 35.848C33.251 39.0048 28.971 38.698 25.9364 37.8848C16.1037 35.25 4.74989 23.8963 2.11499 14.0637C1.30188 11.029 0.995237 6.74895 4.15183 3.59236L5.68154 2.06249C6.35053 1.3952 7.43312 1.39463 8.10291 2.06119L13.8671 7.81211C14.5368 8.48045 14.538 9.56514 13.8697 10.2349C13.8693 10.2353 13.8689 10.2357 13.8684 10.2362L11.0142 13.0905C9.94631 14.1549 9.74485 15.8116 10.5266 17.1009C13.5761 22.1755 17.8245 26.4239 22.8991 29.4734C24.1884 30.2551 25.8451 30.0537 26.9095 28.9859L29.7638 26.1316C30.0801 25.8028 30.5192 25.6208 30.9753 25.6298H30.9763C31.4327 25.6212 31.8719 25.8036 32.1879 26.1329L37.9387 31.8972C38.6053 32.5666 38.6047 33.6492 37.9375 34.3183Z" fill="#FC2F58"/>
<path d="M21.2506 3.75258C28.9977 4.92108 35.0788 11.002 36.2472 18.7492C36.3045 19.1314 36.6325 19.4143 37.0189 19.4147C37.0581 19.4147 37.0973 19.4118 37.136 19.4061C37.5627 19.342 37.8568 18.9443 37.7928 18.5176C36.5225 10.0914 29.9084 3.47736 21.4824 2.20724C21.0557 2.1432 20.6579 2.43736 20.594 2.864C20.5299 3.2908 20.8239 3.68854 21.2506 3.75258Z" fill="#FC2F58"/>
<path d="M20.3153 7.8995C26.4688 8.68598 31.3137 13.531 32.1002 19.6845C32.1567 20.1123 32.5492 20.4132 32.9769 20.3568C33.4018 20.3007 33.7022 19.9128 33.6502 19.4873C32.7739 12.627 27.3725 7.22574 20.5123 6.34955C20.0847 6.29222 19.6915 6.59238 19.6342 7.02007C19.5769 7.44768 19.877 7.84088 20.3047 7.89813C20.3081 7.89869 20.3117 7.89918 20.3153 7.8995Z" fill="#FC2F58"/>
<path d="M19.3916 12.0604C23.9407 12.4509 27.5486 16.0588 27.939 20.6079C27.9735 21.0117 28.3112 21.3222 28.7165 21.3227C28.7388 21.3227 28.7614 21.3216 28.784 21.3198C29.2139 21.283 29.5326 20.9048 29.4959 20.4748C29.0407 15.1678 24.8317 10.9588 19.5247 10.5036C19.0949 10.4669 18.7166 10.7857 18.6799 11.2157C18.6432 11.6456 18.962 12.0238 19.3919 12.0605L19.3916 12.0604Z" fill="#FC2F58"/>
</g>
<defs>
<clipPath id="clip0_49_947">
<rect width="40" height="40" fill="white"/>
</clipPath>
</defs>
</svg>
