<svg width="876" height="833" viewBox="0 0 876 833" fill="none" xmlns="http://www.w3.org/2000/svg">
<path opacity="0.03" fill-rule="evenodd" clip-rule="evenodd" d="M729.345 682.149C723.688 676.96 714.965 677.231 709.861 682.737C579.768 823.059 360.327 844.661 199.419 732.985C20.7228 608.964 -25.9741 365.876 95.3221 191.107C204.073 34.4136 417.09 -17.5801 590.822 70.1608C597.667 73.6185 605.929 70.9715 609.272 64.2497C612.615 57.5278 609.776 49.2593 602.929 45.8151C513.138 0.465203 410.186 -11.7195 313.031 11.5048C214.933 34.9545 129.509 93.1116 72.493 175.263C9.5959 265.888 -13.4538 376.133 7.59264 485.691C28.6391 595.248 91.2609 691.002 183.923 755.313C268.18 813.79 370.171 840.264 471.108 829.852C571.104 819.542 663.169 773.956 730.346 701.494C735.451 695.992 735.003 687.328 729.345 682.149ZM547.402 124.73C405.491 60.8021 239.356 105.372 152.372 230.702C52.4272 374.708 90.9058 575.002 238.143 677.19C367.04 766.649 539.846 753.443 649.039 645.787C654.387 640.514 654.323 631.847 648.896 626.429C643.468 621.019 634.734 620.895 629.386 626.168C529.54 724.607 371.516 736.675 253.638 654.864C118.988 561.411 83.7999 378.242 175.2 246.548C254.748 131.931 406.667 91.1667 536.432 149.619C543.424 152.769 551.547 149.75 554.577 142.876C557.604 136.003 554.393 127.885 547.402 124.73ZM499.354 221.946C496.954 229.071 489.146 232.794 481.914 230.261C398.05 200.895 304.771 230.39 255.081 301.983C193.578 390.599 217.255 513.852 307.862 576.736C381.706 627.987 480.607 624.623 548.372 568.56C554.162 563.768 562.877 564.621 567.824 570.473C572.774 576.321 572.092 584.947 566.301 589.738C489.112 653.599 376.466 657.435 292.365 599.065C189.17 527.445 162.203 387.068 232.25 286.14C288.84 204.603 395.082 171.015 490.61 204.464C497.84 206.997 501.755 214.824 499.354 221.946ZM643.699 190.385C638.216 185.028 629.482 185.003 624.191 190.334C618.903 195.667 619.063 204.335 624.547 209.694C713.564 296.674 739.507 429.674 689.101 540.648C686.333 546.737 688.508 553.878 693.935 557.645C694.6 558.106 695.315 558.516 696.074 558.87C703.033 562.095 711.189 559.166 714.295 552.327C769.424 430.962 741.053 285.508 643.699 190.385ZM709.178 72.4933C878.284 214.538 924.373 454.462 818.77 642.977C811.695 655.613 799.434 664.645 785.131 667.764C770.804 670.886 755.595 667.826 743.404 659.365L552.317 526.743C538.339 517.042 533.748 498.681 541.639 484.032C541.947 483.458 542.25 482.886 542.548 482.316C571.823 426.07 558.493 356.675 510.128 313.561C509.639 313.123 509.142 312.688 508.642 312.253C495.792 301.109 493.263 282.399 502.75 268.728L632.458 81.8396C640.732 69.9176 653.845 62.0659 668.432 60.2955C682.996 58.5314 697.851 62.9791 709.178 72.4933ZM758.903 637.037C764.764 641.104 771.787 642.519 778.678 641.015C785.544 639.517 791.194 635.358 794.587 629.3C893.819 452.159 850.51 226.714 691.608 93.2387C690.986 92.7173 690.348 92.2269 689.691 91.7712C684.608 88.2433 678.533 86.726 672.341 87.4762C665.324 88.3255 659.269 91.952 655.291 97.6844L525.582 284.575C524.007 286.845 524.424 289.952 526.552 291.799C527.146 292.314 527.739 292.838 528.33 293.363C586.199 344.95 602.148 427.981 567.121 495.28C566.919 495.67 566.714 496.059 566.508 496.446C566.351 496.742 566.192 497.038 566.033 497.332C564.727 499.757 565.492 502.802 567.816 504.415L758.903 637.037Z" fill="#8794BA"/>
</svg>
