<svg width="16" height="17" viewBox="0 0 16 17" fill="none" xmlns="http://www.w3.org/2000/svg">
<path d="M13.6085 2.3215C12.8749 1.58246 12.0018 0.996644 11.0399 0.598105C10.0779 0.199566 9.04625 -0.0037208 8.005 5.15546e-05C6.61303 0.00141241 5.24576 0.368482 4.04024 1.0645C2.83471 1.76051 1.83323 2.76105 1.13605 3.96589C0.438875 5.17074 0.0705041 6.53765 0.0678024 7.92962C0.0651107 9.32169 0.428197 10.6899 1.1207 11.8975L0 16.0101L4.20263 14.9094C5.3631 15.555 6.66707 15.8991 7.995 15.91C10.106 15.9101 12.1316 15.0763 13.6307 13.5902C15.13 12.1041 15.9815 10.086 16 7.97505C15.993 6.92169 15.7781 5.88008 15.3677 4.90993C14.9573 3.93977 14.3595 3.06016 13.6085 2.3215ZM8.005 14.5391C6.82196 14.5399 5.66055 14.222 4.6429 13.6186L4.40275 13.4685L1.91119 14.1289L2.57161 11.6974L2.41151 11.4472C1.56022 10.0731 1.24252 8.43433 1.51857 6.84154C1.79462 5.24879 2.64526 3.81259 3.90934 2.80503C5.17343 1.79746 6.76313 1.28852 8.37734 1.3746C9.99154 1.46067 11.5182 2.13581 12.6679 3.2721C13.9247 4.50105 14.6442 6.17742 14.6692 7.93502C14.6534 9.69202 13.9442 11.3717 12.6961 12.6085C11.4482 13.8453 9.7621 14.5392 8.005 14.5391ZM11.6173 9.59606C11.4171 9.496 10.4465 9.0157 10.2664 8.95566C10.0863 8.89562 9.94622 8.8556 9.81614 9.05572C9.62041 9.32399 9.40988 9.58115 9.18574 9.8262C9.07567 9.96629 8.9556 9.9763 8.75547 9.8262C7.61446 9.37532 6.66387 8.5448 6.06379 7.47473C5.85366 7.12451 6.26392 7.14453 6.64415 6.39406C6.67227 6.33992 6.68688 6.27989 6.68688 6.21895C6.68688 6.15801 6.67227 6.09797 6.64415 6.04384C6.64415 5.94377 6.19387 4.96315 6.03377 4.57291C5.87367 4.18267 5.71357 4.2427 5.58349 4.2327H5.19325C5.09213 4.23425 4.99252 4.25737 4.90106 4.30051C4.80961 4.34365 4.72842 4.40582 4.66291 4.48285C4.43839 4.70117 4.26327 4.96507 4.14935 5.25678C4.03543 5.54848 3.98536 5.86121 4.0025 6.17392C4.06524 6.92249 4.34715 7.63593 4.81301 8.2252C5.66574 9.5018 6.83437 10.5359 8.20513 11.2271C8.92408 11.6467 9.7596 11.8223 10.5866 11.7274C10.862 11.6728 11.1229 11.5608 11.3521 11.3987C11.5814 11.2367 11.7741 11.0282 11.9174 10.7868C12.0503 10.4922 12.0922 10.1647 12.0375 9.84622C11.9475 9.74615 11.8174 9.69612 11.6173 9.59606Z" fill="black"/>
</svg>
