<svg width="40" height="40" viewBox="0 0 40 40" fill="none" xmlns="http://www.w3.org/2000/svg">
<g clip-path="url(#clip0_348_527)">
<path d="M39.7336 38.1464C39.6965 38.1031 39.6561 38.0627 39.6127 38.0256L21.5674 19.9693L39.6238 1.92398C40.0582 1.48959 40.0582 0.785323 39.6238 0.350936C39.1894 -0.0834501 38.4851 -0.0834501 38.0507 0.350936L20.0054 18.4073L1.96021 0.350936C1.52583 -0.0834501 0.821556 -0.0834501 0.38717 0.350936C-0.0472166 0.785323 -0.0472166 1.48959 0.38717 1.92398L18.4435 19.9693L0.387248 38.0146C-0.0774375 38.4125 -0.13157 39.1118 0.266364 39.5765C0.664299 40.0412 1.36359 40.0953 1.82827 39.6974C1.87158 39.6603 1.912 39.6199 1.94915 39.5765L20.0055 21.5312L38.0508 39.5875C38.4488 40.0522 39.148 40.1064 39.6127 39.7084C40.0774 39.3104 40.1315 38.6111 39.7336 38.1464Z" fill="#8794BA"/>
</g>
<defs>
<clipPath id="clip0_348_527">
<rect width="40" height="40" fill="white"/>
</clipPath>
</defs>
</svg>
