<svg width="16" height="15" viewBox="0 0 16 15" fill="none" xmlns="http://www.w3.org/2000/svg">
<path d="M14.8157 0.00133867C14.6089 0.0109562 14.4141 0.0710656 14.241 0.138388H14.2386C14.0631 0.208115 13.2288 0.559156 11.9617 1.09052C10.6946 1.6243 9.04996 2.31676 7.41738 3.00441C4.15704 4.37732 0.951996 5.72858 0.951996 5.72858L0.990466 5.71415C0.990466 5.71415 0.769262 5.78628 0.538442 5.94497C0.420627 6.02191 0.29079 6.12771 0.177784 6.29361C0.0647782 6.45951 -0.0265886 6.71438 0.00707307 6.97645C0.062374 7.42126 0.3509 7.68815 0.557677 7.83482C0.766858 7.98389 0.966422 8.05362 0.966422 8.05362H0.971231L3.97671 9.06586C4.11136 9.49865 4.89278 12.0665 5.08032 12.658C5.19092 13.0115 5.29912 13.2327 5.43377 13.401C5.49868 13.4875 5.57562 13.5597 5.66699 13.6174C5.70306 13.639 5.74153 13.6558 5.78 13.6703C5.79202 13.6775 5.80404 13.6799 5.81847 13.6823L5.78721 13.6751C5.79683 13.6775 5.80404 13.6847 5.81125 13.6871C5.8353 13.6943 5.85213 13.6967 5.88339 13.7015C6.35945 13.8458 6.74175 13.55 6.74175 13.55L6.76339 13.5332L8.53782 11.9175L11.512 14.1992L11.5794 14.2281C12.1997 14.4998 12.8272 14.3483 13.159 14.0814C13.4933 13.8121 13.6231 13.4683 13.6231 13.4683L13.6447 13.413L15.9433 1.63872C16.0082 1.34779 16.0251 1.0761 15.9529 0.811616C15.8808 0.547134 15.6957 0.299482 15.4721 0.167241C15.2461 0.0325955 15.0224 -0.00827886 14.8157 0.00133867ZM14.7532 1.26364C14.7508 1.30211 14.758 1.2973 14.7411 1.37184V1.37905L12.4642 13.0307C12.4546 13.0475 12.4377 13.0836 12.3921 13.1197C12.344 13.1581 12.3055 13.1822 12.1059 13.1028L8.4681 10.3137L6.27049 12.3166L6.73213 9.36882C6.73213 9.36882 12.4305 4.05753 12.6758 3.82912C12.921 3.6007 12.8393 3.55261 12.8393 3.55261C12.8561 3.2737 12.469 3.47086 12.469 3.47086L4.97453 8.11373L4.97212 8.10171L1.37998 6.8923V6.8899C1.37757 6.8899 1.37276 6.88749 1.37036 6.88749C1.37276 6.88749 1.38959 6.88028 1.38959 6.88028L1.40883 6.87066L1.42806 6.86345C1.42806 6.86345 4.63551 5.51218 7.89585 4.13928C9.52843 3.45163 11.173 2.75917 12.4377 2.22539C13.7024 1.69402 14.6377 1.30451 14.6906 1.28287C14.7411 1.26364 14.7171 1.26364 14.7532 1.26364Z" fill="black"/>
</svg>
