<svg width="515" height="205" viewBox="0 0 515 205" fill="none" xmlns="http://www.w3.org/2000/svg">
<g clip-path="url(#clip0_135_90)">
<path d="M214.86 117.037C206.81 112.71 200.483 106.707 195.878 99.0314C191.271 91.354 188.97 82.678 188.97 72.9993C188.97 63.322 191.271 54.6447 195.878 46.9674C200.483 39.2914 206.81 33.2887 214.86 28.962C222.908 24.6354 231.959 22.4727 242.008 22.4727C250.474 22.4727 258.131 23.962 264.97 26.938C271.808 29.9167 277.554 34.1967 282.207 39.7807L267.692 53.1793C261.083 45.55 252.895 41.734 243.126 41.734C237.075 41.734 231.68 43.0594 226.934 45.7114C222.188 48.3634 218.49 52.0634 215.836 56.8087C213.186 61.554 211.86 66.9527 211.86 72.9993C211.86 79.0487 213.186 84.4447 215.836 89.1914C218.49 93.9367 222.188 97.6354 226.934 100.287C231.68 102.939 237.075 104.265 243.126 104.265C252.895 104.265 261.083 100.405 267.692 92.6807L282.207 106.081C277.554 111.757 271.786 116.083 264.899 119.061C258.012 122.037 250.335 123.527 241.868 123.527C231.911 123.527 222.908 121.363 214.86 117.037Z" fill="#FC2F58"/>
<path d="M356.27 46.9675C352.732 44.0368 347.568 42.5714 340.776 42.5714H322.352V76.6288H340.776C347.568 76.6288 352.732 75.1408 356.27 72.1621C359.806 69.1848 361.574 64.9968 361.574 59.5994C361.574 54.1101 359.806 49.8995 356.27 46.9675ZM361.992 121.853L343.148 94.6341H322.352V121.853H299.74V24.1475H342.031C350.687 24.1475 358.199 25.5914 364.575 28.4741C370.947 31.3594 375.856 35.4528 379.3 40.7568C382.742 46.0608 384.464 52.3421 384.464 59.5994C384.464 66.8581 382.719 73.1181 379.231 78.3728C375.742 83.6315 370.786 87.6554 364.364 90.4474L386.279 121.853H361.992Z" fill="#FC2F58"/>
<path d="M493.56 121.853L493.422 63.2288L464.668 111.523H454.478L425.864 64.4848V121.853H404.648V24.1475H423.352L459.922 84.8648L495.934 24.1475H514.498L514.776 121.853H493.56Z" fill="#FC2F58"/>
<path d="M213.568 183.205C215.422 181.311 216.35 178.818 216.35 175.727C216.35 172.637 215.422 170.145 213.568 168.249C211.714 166.354 209.363 165.406 206.522 165.406C203.679 165.406 201.339 166.354 199.507 168.249C197.674 170.145 196.756 172.637 196.756 175.727C196.756 178.818 197.674 181.311 199.507 183.205C201.339 185.102 203.679 186.049 206.522 186.049C209.363 186.049 211.714 185.102 213.568 183.205ZM223.951 159.225V192.23H216.595V187.965C215.318 189.531 213.742 190.706 211.867 191.487C209.992 192.27 207.922 192.662 205.656 192.662C202.442 192.662 199.57 191.962 197.034 190.561C194.5 189.161 192.523 187.182 191.1 184.627C189.68 182.073 188.97 179.106 188.97 175.727C188.97 172.349 189.68 169.393 191.1 166.858C192.523 164.325 194.5 162.357 197.034 160.955C199.57 159.555 202.442 158.854 205.656 158.854C207.799 158.854 209.766 159.225 211.559 159.967C213.352 160.707 214.906 161.801 216.224 163.242V159.225H223.951Z" fill="white"/>
<path d="M265.156 162.501C267.67 164.933 268.926 168.537 268.926 173.317V192.23H261.2V174.306C261.2 171.422 260.521 169.249 259.161 167.785C257.802 166.323 255.863 165.591 253.353 165.591C250.509 165.591 248.262 166.446 246.615 168.155C244.967 169.867 244.142 172.329 244.142 175.542V192.23H236.417V159.225H243.771V163.489C245.049 161.966 246.655 160.813 248.591 160.029C250.529 159.246 252.711 158.854 255.143 158.854C259.306 158.854 262.642 160.07 265.156 162.501Z" fill="white"/>
<path d="M303.272 183.205C305.127 181.311 306.054 178.818 306.054 175.727C306.054 172.637 305.127 170.145 303.272 168.249C301.418 166.354 299.068 165.406 296.226 165.406C293.383 165.406 291.043 166.354 289.211 168.249C287.378 170.145 286.46 172.637 286.46 175.727C286.46 178.818 287.378 181.311 289.211 183.205C291.043 185.102 293.383 186.049 296.226 186.049C299.068 186.049 301.418 185.102 303.272 183.205ZM313.655 159.225V192.23H306.3V187.965C305.023 189.531 303.446 190.706 301.572 191.487C299.696 192.27 297.626 192.662 295.36 192.662C292.146 192.662 289.272 191.962 286.739 190.561C284.204 189.161 282.227 187.182 280.806 184.627C279.383 182.073 278.674 179.106 278.674 175.727C278.674 172.349 279.383 169.393 280.806 166.858C282.227 164.325 284.204 162.357 286.739 160.955C289.272 159.555 292.146 158.854 295.36 158.854C297.503 158.854 299.471 159.225 301.263 159.967C303.056 160.707 304.61 161.801 305.928 163.242V159.225H313.655Z" fill="white"/>
<path d="M329.601 189.85C327.687 187.975 326.729 185.329 326.729 181.909V147.521H334.454V181.351C334.454 184.649 336 186.295 339.089 186.295C340.119 186.295 341.046 186.091 341.868 185.678L342.241 191.858C340.799 192.394 339.252 192.662 337.605 192.662C334.187 192.662 331.519 191.725 329.601 189.85Z" fill="white"/>
<path d="M383.664 159.225V187.223C383.664 198.842 377.956 204.653 366.544 204.653C363.535 204.653 360.662 204.251 357.922 203.447C355.182 202.643 352.924 201.479 351.152 199.955L354.615 194.146C356.016 195.341 357.727 196.287 359.744 196.987C361.762 197.689 363.886 198.039 366.111 198.039C369.488 198.039 371.972 197.225 373.559 195.598C375.144 193.97 375.938 191.467 375.938 188.089V186.543C374.702 187.903 373.196 188.943 371.424 189.665C369.654 190.386 367.738 190.746 365.679 190.746C361.268 190.746 357.799 189.531 355.264 187.099C352.73 184.67 351.463 181.022 351.463 176.159V159.225H359.188V175.171C359.188 178.097 359.859 180.291 361.196 181.754C362.535 183.217 364.442 183.947 366.915 183.947C369.675 183.947 371.868 183.103 373.496 181.413C375.124 179.725 375.938 177.273 375.938 174.058V159.225H383.664Z" fill="white"/>
<path d="M416.558 190.437C415.65 191.179 414.548 191.735 413.25 192.106C411.954 192.477 410.583 192.662 409.14 192.662C405.514 192.662 402.714 191.715 400.735 189.819C398.756 187.925 397.767 185.163 397.767 181.537V151.931H405.494V159.473H414.331V165.653H405.494V181.351C405.494 182.958 405.895 184.185 406.699 185.03C407.503 185.874 408.626 186.295 410.067 186.295C411.799 186.295 413.24 185.843 414.395 184.937L416.558 190.437Z" fill="white"/>
<path d="M427.141 159.225H434.865V192.23H427.141V159.225ZM427.511 152.457C426.563 151.571 426.09 150.47 426.09 149.15C426.09 147.833 426.563 146.731 427.511 145.845C428.458 144.959 429.633 144.515 431.033 144.515C432.221 144.515 433.246 144.819 434.107 145.425C435.453 146.37 436.154 148.086 435.929 149.715C435.787 150.751 435.339 151.645 434.587 152.397C433.661 153.323 432.475 153.786 431.033 153.786C429.633 153.786 428.458 153.343 427.511 152.457Z" fill="white"/>
<path d="M455.15 190.499C452.43 189.057 450.307 187.049 448.784 184.473C447.258 181.898 446.498 178.982 446.498 175.727C446.498 172.473 447.258 169.569 448.784 167.013C450.307 164.458 452.419 162.459 455.119 161.018C457.818 159.575 460.899 158.854 464.359 158.854C467.614 158.854 470.468 159.514 472.919 160.833C475.37 162.151 477.214 164.046 478.451 166.518L472.516 169.981C471.568 168.455 470.384 167.313 468.963 166.55C467.542 165.787 465.986 165.406 464.298 165.406C461.412 165.406 459.023 166.343 457.128 168.218C455.232 170.093 454.284 172.595 454.284 175.727C454.284 178.859 455.222 181.362 457.096 183.237C458.971 185.113 461.371 186.049 464.298 186.049C465.986 186.049 467.542 185.669 468.963 184.906C470.384 184.143 471.568 183.001 472.516 181.475L478.451 184.937C477.174 187.409 475.307 189.315 472.858 190.653C470.404 191.993 467.574 192.662 464.359 192.662C460.939 192.662 457.868 191.941 455.15 190.499Z" fill="white"/>
<path d="M491.69 191.611C489.134 190.911 487.095 190.026 485.571 188.954L488.537 183.082C490.022 184.07 491.802 184.866 493.885 185.462C495.963 186.059 498.014 186.358 500.034 186.358C504.647 186.358 506.955 185.143 506.955 182.711C506.955 181.558 506.367 180.755 505.194 180.301C504.021 179.847 502.135 179.415 499.538 179.003C496.819 178.591 494.605 178.118 492.895 177.582C491.186 177.046 489.701 176.109 488.445 174.77C487.189 173.431 486.559 171.566 486.559 169.177C486.559 166.045 487.866 163.542 490.485 161.666C493.099 159.791 496.634 158.854 501.083 158.854C503.35 158.854 505.617 159.111 507.883 159.627C510.147 160.143 512.002 160.833 513.446 161.698L510.477 167.569C507.675 165.922 504.526 165.097 501.023 165.097C498.755 165.097 497.037 165.437 495.861 166.117C494.687 166.797 494.099 167.693 494.099 168.805C494.099 170.041 494.727 170.917 495.985 171.431C497.242 171.947 499.19 172.431 501.826 172.885C504.463 173.297 506.626 173.771 508.315 174.306C510.005 174.842 511.458 175.749 512.673 177.026C513.887 178.303 514.495 180.117 514.495 182.465C514.495 185.554 513.157 188.027 510.477 189.881C507.801 191.735 504.153 192.662 499.538 192.662C496.861 192.662 494.243 192.311 491.69 191.611Z" fill="white"/>
<path d="M9.07381 56.7355L157.911 9.02488C158.683 8.77688 159.267 9.73419 158.694 10.3088L86.7778 82.2249C85.0831 83.9182 84.5205 86.4368 85.3285 88.6915L108.962 154.539C109.24 155.317 108.27 155.931 107.686 155.347L9.07381 56.7355ZM0.908475 57.4768L111.527 168.094C113.163 169.731 115.954 169.057 116.66 166.851L168.85 4.0435C169.618 1.6475 167.356 -0.616458 164.959 0.152876L2.15115 52.3422C-0.0541825 53.0488 -0.730192 55.8381 0.908475 57.4768Z" fill="#FC2F58"/>
</g>
<defs>
<clipPath id="clip0_135_90">
<rect width="515" height="205" fill="white"/>
</clipPath>
</defs>
</svg>
