<svg width="40" height="40" viewBox="0 0 40 40" fill="none" xmlns="http://www.w3.org/2000/svg">
<path d="M20 0C8.97231 0 0 8.97154 0 20C0 31.0285 8.97231 40 20 40C31.0277 40 40 31.0285 40 20C40 8.97154 31.0277 0 20 0ZM20 38.4615C9.82077 38.4615 1.53846 30.1792 1.53846 20C1.53846 9.82077 9.82077 1.53846 20 1.53846C30.1792 1.53846 38.4615 9.82077 38.4615 20C38.4615 30.1792 30.1792 38.4615 20 38.4615Z" fill="#172755"/>
<path d="M29.6172 19.2308H20.771V10.7692C20.771 10.3438 20.4264 10 20.0018 10C19.5772 10 19.2326 10.3438 19.2326 10.7692V19.2308H10.3864C9.9618 19.2308 9.61719 19.5746 9.61719 20C9.61719 20.4254 9.9618 20.7692 10.3864 20.7692H19.2326V30C19.2326 30.4254 19.5772 30.7692 20.0018 30.7692C20.4264 30.7692 20.771 30.4254 20.771 30V20.7692H29.6172C30.0418 20.7692 30.3864 20.4254 30.3864 20C30.3864 19.5746 30.0418 19.2308 29.6172 19.2308Z" fill="#172755"/>
</svg>
