<svg width="24" height="24" viewBox="0 0 24 24" fill="none" xmlns="http://www.w3.org/2000/svg">
<path d="M19.0781 2.13281H4.92188C2.20789 2.13281 0 4.3407 0 7.05469V14.6565C0 16.8221 1.42181 18.7083 3.48212 19.312L5.85919 21.6892C5.99121 21.821 6.16992 21.8952 6.35651 21.8952C6.54291 21.8952 6.7218 21.821 6.85364 21.6892L9.03424 19.5084H19.0781C21.7921 19.5084 24 17.3005 24 14.5865V7.05469C24 4.3407 21.7921 2.13281 19.0781 2.13281ZM6.8324 12.0634C6.8324 11.675 7.14716 11.3602 7.53552 11.3602H16.4645C16.8528 11.3602 17.1676 11.675 17.1676 12.0634C17.1676 12.4517 16.8528 12.7665 16.4645 12.7665H7.53552C7.14716 12.7665 6.8324 12.4517 6.8324 12.0634ZM16.4645 10.281H7.53552C7.14716 10.281 6.8324 9.96625 6.8324 9.57788C6.8324 9.1897 7.14716 8.87476 7.53552 8.87476H16.4645C16.8528 8.87476 17.1676 9.1897 17.1676 9.57788C17.1676 9.96625 16.8528 10.281 16.4645 10.281Z" fill="white"/>
</svg>
