<svg width="40" height="40" viewBox="0 0 40 40" fill="none" xmlns="http://www.w3.org/2000/svg">
<path d="M39.9251 18.4392C39.9251 17.4029 39.5728 16.4185 38.9587 15.7381C38.9349 15.7117 38.9093 15.6869 38.8821 15.664L36.7254 13.8476V8.22782C36.7254 7.7964 36.3756 7.4466 35.9442 7.4466H29.1258L20.5031 0.183704C20.2122 -0.0612347 19.7872 -0.0612347 19.4964 0.183704L10.8737 7.4466H4.05543C3.62401 7.4466 3.27421 7.7964 3.27421 8.22782V13.8473L1.11746 15.6641C1.09025 15.687 1.06466 15.7118 1.04086 15.7382C0.426526 16.4187 0.0742188 17.4032 0.0742188 18.4392V36.0682C0.0766479 38.2386 1.83551 39.9976 4.00595 40H35.9932C38.1636 39.9976 39.9226 38.2387 39.9251 36.0682V18.4392ZM26.927 27.2536L38.2681 17.7013C38.331 17.9422 38.3628 18.1903 38.3627 18.4393V36.0682C38.3628 36.3134 38.3247 36.5572 38.2497 36.7906L26.927 27.2536ZM37.3592 16.424L36.7256 16.9576V15.8906L37.3592 16.424ZM19.9998 1.80273L26.7002 7.4466H13.2991L19.9998 1.80273ZM11.1585 9.00903H35.1629V18.2734L25.7142 26.2321L20.5033 21.8429C20.2125 21.598 19.7875 21.598 19.4967 21.8429L14.2858 26.2322L4.83672 18.2734V9.00903H11.1585ZM1.74976 36.7906C1.6747 36.5571 1.63664 36.3134 1.63673 36.0682V18.4392C1.63664 18.1902 1.66855 17.9422 1.73146 17.7012L13.0726 27.2536L1.74976 36.7906ZM3.27421 16.9577L2.64037 16.424L3.27405 15.8902L3.27421 16.9577ZM4.00603 38.4375C3.5385 38.438 3.08142 38.2993 2.69292 38.039L19.9998 23.4619L37.3067 38.039C36.9181 38.2992 36.461 38.4379 35.9934 38.4375H4.00603Z" fill="#FC2F58"/>
</svg>
