<svg width="40" height="40" viewBox="0 0 40 40" fill="none" xmlns="http://www.w3.org/2000/svg">
<g clip-path="url(#clip0_78_3780)">
<path d="M30.0004 20C30.0004 20.2075 29.923 20.4151 29.7693 20.5762L11.4358 39.743C11.1176 40.075 10.5903 40.0872 10.2575 39.769C9.92467 39.4516 9.91162 38.9243 10.2315 38.5906L28.014 20.0001L10.2315 1.40953C9.91327 1.07508 9.92631 0.548515 10.2575 0.231171C10.5903 -0.0870323 11.1176 -0.0748444 11.4358 0.257187L29.7693 19.4238C29.9231 19.585 30.0004 19.7925 30.0004 20Z" fill="#172755"/>
<path d="M30.0004 20C30.0004 20.2075 29.923 20.4151 29.7693 20.5762L11.4358 39.743C11.1176 40.075 10.5903 40.0872 10.2575 39.769C9.92467 39.4516 9.91162 38.9243 10.2315 38.5906L28.014 20.0001L10.2315 1.40953C9.91327 1.07508 9.92631 0.548515 10.2575 0.231171C10.5903 -0.0870323 11.1176 -0.0748444 11.4358 0.257187L29.7693 19.4238C29.9231 19.585 30.0004 19.7925 30.0004 20Z" fill="url(#paint0_linear_78_3780)"/>
</g>
<defs>
<linearGradient id="paint0_linear_78_3780" x1="7.00007" y1="38.2979" x2="22.3878" y2="5.30083" gradientUnits="userSpaceOnUse">
<stop stop-color="white" stop-opacity="0.2"/>
<stop offset="1" stop-color="white" stop-opacity="0"/>
</linearGradient>
<clipPath id="clip0_78_3780">
<rect width="40" height="40" fill="white" transform="matrix(0 -1 1 0 0 40)"/>
</clipPath>
</defs>
</svg>
