<svg width="40" height="40" viewBox="0 0 40 40" fill="none" xmlns="http://www.w3.org/2000/svg">
<path d="M6.1189 17.6641C5.38604 17.9243 4.75163 18.4049 4.30265 19.0399C3.85367 19.6749 3.61211 20.4332 3.61108 21.2109V28.0859C3.61222 29.0837 4.00907 30.0402 4.71458 30.7457C5.42009 31.4512 6.37663 31.8481 7.37437 31.8492H9.55296C9.97309 31.8488 10.3759 31.6817 10.673 31.3846C10.9701 31.0875 11.1372 30.6847 11.1376 30.2646V19.0328C11.1372 18.6127 10.9701 18.2099 10.673 17.9128C10.3759 17.6158 9.97309 17.4487 9.55296 17.4482H9.36866V13.8811C9.36866 8.01883 14.138 3.24945 20.0002 3.24945C25.8625 3.24945 30.6316 8.01875 30.6316 13.881V17.4482H30.4473C30.0271 17.4487 29.6243 17.6158 29.3272 17.9128C29.0302 18.2099 28.863 18.6127 28.8626 19.0328V30.2645C28.863 30.6846 29.0302 31.0874 29.3272 31.3844C29.6243 31.6815 30.0271 31.8486 30.4473 31.8491H31.6073V35.7285C31.6068 36.1813 31.4267 36.6153 31.1065 36.9355C30.7864 37.2556 30.3524 37.4357 29.8996 37.4362H26.1901V36.7474C26.1901 36.5817 26.1243 36.4227 26.0071 36.3055C25.8899 36.1883 25.7309 36.1224 25.5651 36.1224H21.6238C21.1118 36.1257 20.6218 36.3314 20.2608 36.6946C19.8999 37.0578 19.6973 37.5491 19.6973 38.0612C19.6973 38.5733 19.8999 39.0646 20.2608 39.4278C20.6218 39.7911 21.1118 39.9967 21.6238 40H25.5651C25.7309 40 25.8899 39.9342 26.0071 39.8169C26.1243 39.6997 26.1901 39.5408 26.1901 39.375V38.6862H29.8996C30.6838 38.6854 31.4356 38.3735 31.99 37.819C32.5445 37.2645 32.8564 36.5127 32.8573 35.7285V31.8412C33.813 31.7813 34.71 31.3597 35.3661 30.6622C36.0221 29.9646 36.3879 29.0434 36.3891 28.0858V21.2115C36.3881 20.4338 36.1465 19.6755 35.6975 19.0405C35.2486 18.4055 34.6142 17.9249 33.8813 17.6646V13.881C33.881 6.22695 27.6541 0 20 0C12.3459 0 6.1189 6.22703 6.1189 13.8811V17.6641ZM24.9401 38.75H21.6238C21.4424 38.7481 21.2691 38.6746 21.1415 38.5457C21.0139 38.4167 20.9423 38.2426 20.9423 38.0612C20.9423 37.8798 21.0139 37.7057 21.1415 37.5767C21.2691 37.4478 21.4424 37.3744 21.6238 37.3724H24.9401V38.75ZM4.86085 28.0859V21.2115C4.86161 20.5452 5.12665 19.9063 5.59782 19.4352C6.06898 18.964 6.7078 18.699 7.37413 18.6982H8.11843V30.5991H7.37413C6.70783 30.5983 6.06903 30.3333 5.59787 29.8621C5.12671 29.391 4.86166 28.7522 4.86085 28.0859ZM9.55272 18.6984C9.64144 18.6985 9.7265 18.7337 9.78924 18.7965C9.85198 18.8592 9.88729 18.9442 9.88741 19.033V30.2645C9.88729 30.3532 9.85198 30.4382 9.78924 30.5009C9.7265 30.5637 9.64144 30.599 9.55272 30.5991H9.36843V18.6982L9.55272 18.6984ZM30.1126 30.2645V19.0328C30.1127 18.9441 30.148 18.859 30.2107 18.7963C30.2735 18.7336 30.3585 18.6983 30.4473 18.6982H30.6316V30.5991H30.4473C30.3585 30.599 30.2735 30.5637 30.2107 30.5009C30.148 30.4382 30.1127 30.3532 30.1126 30.2645ZM35.1391 21.2115V28.0859C35.1384 28.7523 34.8733 29.3911 34.4022 29.8623C33.931 30.3334 33.2922 30.5985 32.6258 30.5992H31.8816V18.6982H32.6258C33.2922 18.699 33.931 18.964 34.4022 19.4352C34.8733 19.9063 35.1384 20.5452 35.1391 21.2115ZM20 1.25C26.9647 1.25 32.631 6.91625 32.631 13.881V17.4483H31.8816V13.8811C31.8816 10.7299 30.6297 7.70779 28.4015 5.47956C26.1733 3.25134 23.1512 1.99953 20 1.99953C16.8488 1.99953 13.8267 3.25134 11.5985 5.47956C9.37023 7.70779 8.11843 10.7299 8.11843 13.8811V17.4482H7.37413H7.3689V13.8811C7.3689 6.91625 13.0352 1.25 20 1.25Z" fill="#FC2F58"/>
</svg>
