<svg width="28" height="40" viewBox="0 0 28 40" fill="none" xmlns="http://www.w3.org/2000/svg">
<path d="M27.1364 13.2033C27.2264 9.61874 25.9567 6.4064 23.4639 3.91421C20.9428 1.40723 17.532 0 13.9767 0C10.4213 0 7.0105 1.40723 4.48948 3.91421C-0.976069 9.37976 0.326978 17.5678 4.43893 22.8314L8.99776 28.6673C5.22596 29.6582 2.84151 31.7037 2.84151 34.0258C2.8412 37.3755 7.73245 39.9998 13.9766 39.9998C20.2207 39.9998 25.112 37.3755 25.112 34.0255C25.112 31.7034 22.7273 29.6583 18.9557 28.667L23.5146 22.8311C25.7667 19.948 27.0531 16.5287 27.1364 13.2033ZM23.8621 34.0255C23.8621 36.5863 19.3351 38.7498 13.9766 38.7498C8.61807 38.7498 4.09112 36.5863 4.09112 34.0255C4.09112 32.2244 6.38573 30.5294 9.84112 29.7467L13.4841 34.4102C13.5425 34.4851 13.6173 34.5456 13.7026 34.5872C13.788 34.6288 13.8817 34.6505 13.9766 34.6505C14.0716 34.6505 14.1653 34.6288 14.2506 34.5872C14.336 34.5456 14.4107 34.4851 14.4692 34.4102L18.1121 29.7467C21.5674 30.5294 23.8621 32.2244 23.8621 34.0255ZM13.9767 33.0098L5.42393 22.0617C1.65049 17.2312 0.421196 9.74999 5.37338 4.79788C7.65997 2.52532 10.7528 1.24977 13.9767 1.24977C17.2005 1.24977 20.2934 2.52532 22.5799 4.79788C27.0212 9.23913 27.0003 16.3383 22.5294 22.0617L13.9767 33.0098ZM23.0349 10.2018C22.9582 10.2312 22.8765 10.2452 22.7945 10.243C22.7124 10.2408 22.6316 10.2224 22.5566 10.1889C22.4817 10.1555 22.414 10.1075 22.3576 10.0479C22.3012 9.98827 22.2571 9.9181 22.2278 9.8414C21.8159 8.77612 21.1828 7.81028 20.3703 7.00757C19.6031 6.23893 18.7021 5.61676 17.7116 5.17163C17.5607 5.10348 17.443 4.97822 17.3843 4.82335C17.3257 4.66849 17.3309 4.49668 17.3988 4.34565C17.4667 4.19462 17.5918 4.07673 17.7466 4.01785C17.9014 3.95897 18.0732 3.96393 18.2243 4.03163C19.3531 4.53885 20.3799 5.24781 21.2542 6.12367C22.1911 7.05041 22.9208 8.1653 23.3953 9.39476C23.4545 9.54957 23.4498 9.72156 23.3822 9.87291C23.3146 10.0243 23.1897 10.1426 23.0349 10.2018ZM14 7.40406C12.8045 7.40406 11.6357 7.75858 10.6416 8.42281C9.64756 9.08703 8.87277 10.0311 8.41525 11.1357C7.95772 12.2403 7.83801 13.4557 8.07125 14.6283C8.3045 15.8009 8.88022 16.878 9.72562 17.7234C10.571 18.5688 11.6481 19.1445 12.8207 19.3777C13.9933 19.611 15.2088 19.4913 16.3133 19.0338C17.4179 18.5762 18.362 17.8014 19.0262 16.8074C19.6904 15.8133 20.0449 14.6446 20.0449 13.449C20.0431 11.8463 19.4057 10.3098 18.2724 9.17656C17.1392 8.04331 15.6027 7.40586 14 7.40406ZM14 18.2439C13.0517 18.2439 12.1246 17.9627 11.3361 17.4358C10.5476 16.9089 9.93301 16.1601 9.57009 15.2839C9.20718 14.4078 9.11222 13.4437 9.29724 12.5135C9.48225 11.5834 9.93892 10.729 10.6095 10.0585C11.2801 9.38787 12.1345 8.9312 13.0646 8.74619C13.9947 8.56118 14.9588 8.65613 15.835 9.01905C16.7111 9.38196 17.46 9.99654 17.9869 10.7851C18.5137 11.5736 18.7949 12.5006 18.7949 13.449C18.7935 14.7202 18.2879 15.939 17.389 16.8379C16.4901 17.7368 15.2713 18.2425 14 18.2439Z" fill="#FC2F58"/>
</svg>
