<svg width="300" height="300" preserveAspectRatio="xMinYMin" viewBox="0 0 300 300" fill="none" xmlns="http://www.w3.org/2000/svg">
<mask id="mask0_237_53799" style="mask-type:luminance" maskUnits="userSpaceOnUse" x="36" y="36" width="220" height="202">
<path d="M65.0192 237.078C64.09 236.289 63.1704 235.465 62.2629 234.607C24.4446 198.843 30.2689 124.088 66.4719 80.0756C71.1031 74.4453 102.978 36.9365 152.694 36.9365C153.026 36.9365 153.359 36.9381 153.693 36.9422C177.811 37.1855 197.218 46.1934 208.622 53.1078C203.95 61.5901 199.106 72.9647 196.802 86.4344H179.081L178.424 81.9087L84.8777 80.716L65.0192 237.078ZM239.704 199.057L236.636 138.807C242.967 128.321 247.263 117.071 250.33 105.964C258.572 131.497 257.054 161.111 246.412 185.986C244.449 190.574 242.202 194.929 239.704 199.057ZM223.868 76.8573C222.805 71.3936 222.003 66.5638 221.405 62.321C223.173 63.8622 225.406 65.9282 227.881 68.5214C226.432 71.1154 225.083 73.8906 223.868 76.8573Z" fill="white"/>
</mask>
<g mask="url(#mask0_237_53799)">
<path d="M65.0192 237.078C64.09 236.289 63.1704 235.465 62.2629 234.607C24.4446 198.843 30.2689 124.088 66.4719 80.0756C71.1031 74.4453 102.978 36.9365 152.694 36.9365C153.026 36.9365 153.359 36.9381 153.693 36.9422C177.811 37.1855 197.218 46.1934 208.622 53.1078C203.95 61.5901 199.106 72.9647 196.802 86.4344H179.081L178.424 81.9087L84.8777 80.716L65.0192 237.078ZM239.704 199.057L236.636 138.807C242.967 128.321 247.263 117.071 250.33 105.964C258.572 131.497 257.054 161.111 246.412 185.986C244.449 190.574 242.202 194.929 239.704 199.057ZM223.868 76.8573C222.805 71.3936 222.003 66.5638 221.405 62.321C223.173 63.8622 225.406 65.9282 227.881 68.5214C226.432 71.1154 225.083 73.8906 223.868 76.8573Z" fill="url(#paint0_linear_237_53799)"/>
</g>
<path d="M263.398 38.5133C263.911 37.4896 262.557 36.4052 261.443 36.9405C250.125 42.3727 221.846 59.9777 217.937 101.584C213.032 153.786 196.459 169.312 178.615 176.941C178.615 176.941 200.701 176.616 218.26 161.038C261.369 122.79 254.275 56.7166 263.398 38.5133Z" fill="#BDD0FB"/>
<path d="M234.729 101.36L234.49 96.6723C234.456 96.0108 234.364 95.3664 234.217 94.7429C234.374 94.2165 234.535 93.6901 234.696 93.1645C235.121 91.7511 235.577 90.3474 236.031 88.9428C236.499 87.5431 236.977 86.1458 237.468 84.7534C239.445 79.187 241.619 73.6877 243.993 68.2684C246.397 62.8605 248.968 57.5196 251.777 52.2887C251.832 52.1861 251.949 52.127 252.073 52.127C252.129 52.127 252.186 52.1391 252.241 52.1642C252.412 52.2426 252.49 52.4213 252.421 52.5685C249.895 57.9077 247.494 63.2955 245.327 68.7657C243.127 74.223 241.121 79.7474 239.319 85.3308C237.634 90.632 236.059 95.9655 234.729 101.36Z" fill="#DCE6FD"/>
<path d="M209.752 153.546C210.62 155.058 212.751 155.19 213.818 153.811C219.709 146.208 234.421 123.205 226.877 90.8688C220.507 63.5622 219.647 48.1502 219.742 41.1267C219.762 39.6413 217.874 38.9936 216.977 40.1774C207.067 53.2291 178.259 98.7915 209.752 153.546Z" fill="#91B3FA"/>
<path d="M216.97 86.4344H215.603C215.172 81.7995 214.549 77.1363 213.689 72.52C213.621 72.1496 213.865 71.7947 214.234 71.7259C214.276 71.7178 214.318 71.7146 214.359 71.7146C214.681 71.7146 214.967 71.9434 215.028 72.2701C215.903 76.9705 216.535 81.7179 216.97 86.4344Z" fill="#C0D6FC"/>
<mask id="mask1_237_53799" style="mask-type:luminance" maskUnits="userSpaceOnUse" x="79" y="38" width="66" height="56">
<path d="M80.5714 93.7427C80.5625 93.7427 80.5536 93.7419 80.5448 93.7419C80.1639 93.7273 79.8668 93.4071 79.8814 93.0263C79.8849 92.9349 80.2561 83.7588 82.5677 73.1119C85.6865 58.7414 90.6602 48.6654 97.3498 43.1628C102.138 39.2257 107.774 37.7347 114.101 38.73C121.39 39.8775 127.524 43.4782 132.333 49.4311C136.15 54.1582 139.137 60.3683 141.211 67.89C144.726 80.6392 144.396 92.9503 144.392 93.0732C144.381 93.454 144.073 93.7532 143.681 93.7419C143.3 93.7305 143.001 93.412 143.013 93.0311C143.017 92.9106 143.338 80.7799 139.873 68.228C137.848 60.8971 134.947 54.8609 131.249 50.2866C126.664 44.6151 120.822 41.1858 113.886 40.0934C107.964 39.161 102.696 40.5526 98.2264 44.2294C90.2001 50.8308 86.014 63.7386 83.9157 73.4046C81.6305 83.9343 81.2643 92.9883 81.2602 93.0788C81.2465 93.4508 80.9408 93.7427 80.5714 93.7427Z" fill="white"/>
</mask>
<g mask="url(#mask1_237_53799)">
<path d="M80.5714 93.7427C80.5625 93.7427 80.5536 93.7419 80.5448 93.7419C80.1639 93.7273 79.8668 93.4071 79.8814 93.0263C79.8849 92.9349 80.2561 83.7588 82.5677 73.1119C85.6865 58.7414 90.6602 48.6654 97.3498 43.1628C102.138 39.2257 107.774 37.7347 114.101 38.73C121.39 39.8775 127.524 43.4782 132.333 49.4311C136.15 54.1582 139.137 60.3683 141.211 67.89C144.726 80.6392 144.396 92.9503 144.392 93.0732C144.381 93.454 144.073 93.7532 143.681 93.7419C143.3 93.7305 143.001 93.412 143.013 93.0311C143.017 92.9106 143.338 80.7799 139.873 68.228C137.848 60.8971 134.947 54.8609 131.249 50.2866C126.664 44.6151 120.822 41.1858 113.886 40.0934C107.964 39.161 102.696 40.5526 98.2264 44.2294C90.2001 50.8308 86.014 63.7386 83.9157 73.4046C81.6305 83.9343 81.2643 92.9883 81.2602 93.0788C81.2465 93.4508 80.9408 93.7427 80.5714 93.7427Z" fill="url(#paint1_linear_237_53799)"/>
</g>
<mask id="mask2_237_53799" style="mask-type:luminance" maskUnits="userSpaceOnUse" x="62" y="80" width="118" height="176">
<path d="M109.529 255.909L62.6367 255.83L65.0182 237.078L84.8768 80.716L178.423 81.9087L179.08 86.4345H129.58C125.547 85.9558 122.259 85.528 119.916 85.2102C119.753 85.1884 119.591 85.1779 119.432 85.1779C118.178 85.1779 117.055 85.8401 116.422 86.8492C111.198 88.2473 107.353 93.0133 107.353 98.6775V250.606C107.353 252.674 108.184 254.547 109.529 255.909Z" fill="white"/>
</mask>
<g mask="url(#mask2_237_53799)">
<path d="M109.529 255.909L62.6367 255.83L65.0182 237.078L84.8768 80.716L178.423 81.9087L179.08 86.4345H129.58C125.547 85.9558 122.259 85.528 119.916 85.2102C119.753 85.1884 119.591 85.1779 119.432 85.1779C118.178 85.1779 117.055 85.8401 116.422 86.8492C111.198 88.2473 107.353 93.0133 107.353 98.6775V250.606C107.353 252.674 108.184 254.547 109.529 255.909Z" fill="url(#paint2_linear_237_53799)"/>
</g>
<mask id="mask3_237_53799" style="mask-type:luminance" maskUnits="userSpaceOnUse" x="38" y="80" width="47" height="177">
<path d="M67.7481 82.199L84.8776 80.716L62.6376 255.83L42.261 256.052C38.7479 256.052 37.963 255.07 38.6792 251.571L67.7481 82.199Z" fill="white"/>
</mask>
<g mask="url(#mask3_237_53799)">
<path d="M67.7481 82.199L84.8776 80.716L62.6376 255.83L42.261 256.052C38.7479 256.052 37.963 255.07 38.6792 251.571L67.7481 82.199Z" fill="url(#paint3_linear_237_53799)"/>
</g>
<mask id="mask4_237_53799" style="mask-type:luminance" maskUnits="userSpaceOnUse" x="99" y="38" width="65" height="56">
<path d="M99.8825 93.3642H99.855C99.4749 93.3497 99.1774 93.0295 99.1919 92.6486C99.196 92.5572 99.5671 83.3812 101.878 72.7343C104.998 58.3638 109.971 48.2877 116.661 42.7852C121.449 38.8481 127.086 37.357 133.412 38.3524C140.702 39.4998 146.835 43.1005 151.644 49.0535C155.461 53.7806 158.448 59.9907 160.522 67.5123C164.037 80.2616 163.707 92.5726 163.703 92.6955C163.692 93.0764 163.388 93.3747 162.992 93.3642C162.612 93.3529 162.312 93.0343 162.324 92.6535C162.328 92.5322 162.65 80.4023 159.184 67.8503C157.159 60.5195 154.258 54.4833 150.56 49.909C145.975 44.2374 140.133 40.8073 133.197 39.7157C127.277 38.7834 122.008 40.175 117.539 43.8501C109.516 50.4483 105.33 63.3464 103.232 73.0052C100.943 83.5372 100.575 92.6106 100.571 92.7012C100.557 93.0723 100.251 93.3642 99.8825 93.3642Z" fill="white"/>
</mask>
<g mask="url(#mask4_237_53799)">
<path d="M99.8825 93.3642H99.855C99.4749 93.3497 99.1774 93.0295 99.1919 92.6486C99.196 92.5572 99.5671 83.3812 101.878 72.7343C104.998 58.3638 109.971 48.2877 116.661 42.7852C121.449 38.8481 127.086 37.357 133.412 38.3524C140.702 39.4998 146.835 43.1005 151.644 49.0535C155.461 53.7806 158.448 59.9907 160.522 67.5123C164.037 80.2616 163.707 92.5726 163.703 92.6955C163.692 93.0764 163.388 93.3747 162.992 93.3642C162.612 93.3529 162.312 93.0343 162.324 92.6535C162.328 92.5322 162.65 80.4023 159.184 67.8503C157.159 60.5195 154.258 54.4833 150.56 49.909C145.975 44.2374 140.133 40.8073 133.197 39.7157C127.277 38.7834 122.008 40.175 117.539 43.8501C109.516 50.4483 105.33 63.3464 103.232 73.0052C100.943 83.5372 100.575 92.6106 100.571 92.7012C100.557 93.0723 100.251 93.3642 99.8825 93.3642Z" fill="url(#paint4_linear_237_53799)"/>
</g>
<mask id="mask5_237_53799" style="mask-type:luminance" maskUnits="userSpaceOnUse" x="107" y="86" width="136" height="173">
<path d="M114.901 258.156C112.802 258.156 110.899 257.297 109.529 255.909C108.185 254.547 107.354 252.674 107.354 250.606V98.6776C107.354 93.0133 111.199 88.2474 116.423 86.8493C116.078 87.3991 115.879 88.0525 115.883 88.7576L116.82 248.021C116.83 249.55 117.983 250.83 119.503 250.989C125.599 251.627 134.371 251.878 144.409 251.878C175.493 251.878 218.647 249.469 231.499 248.709C233.578 248.586 235.166 246.808 235.055 244.729L226.996 93.1006C226.903 91.3403 225.445 89.9891 223.712 89.9891C223.627 89.9891 223.541 89.9923 223.455 89.9988C215.367 90.6198 206.944 90.8778 198.523 90.8778C171.792 90.8778 145.127 88.2773 129.581 86.4345H223.717C224.47 86.4345 225.207 86.5113 225.918 86.6593C230.003 87.5059 233.26 90.6667 234.217 94.7429C234.364 95.3663 234.457 96.0108 234.49 96.6722L234.729 101.36L236.636 138.807L239.704 199.057L242.176 247.627C242.404 252.117 238.871 255.904 234.376 255.985L115.041 258.155C114.994 258.156 114.947 258.156 114.901 258.156Z" fill="white"/>
</mask>
<g mask="url(#mask5_237_53799)">
<path d="M114.901 258.156C112.802 258.156 110.899 257.297 109.529 255.909C108.185 254.547 107.354 252.674 107.354 250.606V98.6776C107.354 93.0133 111.199 88.2474 116.423 86.8493C116.078 87.3991 115.879 88.0525 115.883 88.7576L116.82 248.021C116.83 249.55 117.983 250.83 119.503 250.989C125.599 251.627 134.371 251.878 144.409 251.878C175.493 251.878 218.647 249.469 231.499 248.709C233.578 248.586 235.166 246.808 235.055 244.729L226.996 93.1006C226.903 91.3403 225.445 89.9891 223.712 89.9891C223.627 89.9891 223.541 89.9923 223.455 89.9988C215.367 90.6198 206.944 90.8778 198.523 90.8778C171.792 90.8778 145.127 88.2773 129.581 86.4345H223.717C224.47 86.4345 225.207 86.5113 225.918 86.6593C230.003 87.5059 233.26 90.6667 234.217 94.7429C234.364 95.3663 234.457 96.0108 234.49 96.6722L234.729 101.36L236.636 138.807L239.704 199.057L242.176 247.627C242.404 252.117 238.871 255.904 234.376 255.985L115.041 258.155C114.994 258.156 114.947 258.156 114.901 258.156Z" fill="url(#paint5_linear_237_53799)"/>
</g>
<path d="M115.883 88.7576C115.87 86.5938 117.773 84.92 119.916 85.2103C134.135 87.1388 183.029 93.1023 223.454 89.9988C225.298 89.8573 226.898 91.2538 226.996 93.1007L235.054 244.729C235.165 246.808 233.578 248.586 231.499 248.709C214.497 249.715 144.478 253.605 119.502 250.989C117.983 250.83 116.829 249.55 116.819 248.021L115.883 88.7576Z" fill="#7D97F4"/>
<path d="M117.559 92.5572C117.547 90.4751 119.377 88.8635 121.441 89.1433C135.124 90.999 182.177 96.7385 221.08 93.7515C222.854 93.6157 224.393 94.9596 224.488 96.7369L232.243 242.655C232.35 244.656 230.822 246.367 228.821 246.486C212.46 247.454 145.076 251.197 121.042 248.679C119.579 248.526 118.469 247.294 118.46 245.824L117.559 92.5572Z" fill="#BDD0FB"/>
<path d="M218.079 106.797H179.758C179.553 106.797 179.331 106.639 179.264 106.447L178.52 104.335C178.453 104.145 178.561 103.992 178.76 103.992H178.767L218.017 104.691C218.222 104.694 218.393 104.864 218.399 105.069L218.438 106.426C218.445 106.629 218.282 106.797 218.079 106.797ZM218.079 115.553H179.758C179.553 115.553 179.331 115.395 179.264 115.203L178.52 113.091C178.453 112.901 178.561 112.748 178.761 112.748H178.767L218.017 113.448C218.222 113.451 218.393 113.621 218.399 113.825L218.438 115.182C218.445 115.386 218.282 115.553 218.079 115.553ZM217.813 132.979H179.492C179.288 132.979 179.065 132.822 178.998 132.629L178.254 130.517C178.187 130.327 178.295 130.174 178.495 130.174H178.501L217.751 130.874C217.956 130.877 218.127 131.047 218.134 131.251L218.173 132.608C218.179 132.812 218.017 132.979 217.813 132.979ZM218.079 124.66H179.758C179.553 124.66 179.331 124.503 179.264 124.31L178.52 122.198C178.453 122.008 178.561 121.855 178.761 121.855H178.767L218.017 122.555C218.222 122.558 218.393 122.728 218.399 122.932L218.438 124.289C218.445 124.493 218.282 124.66 218.079 124.66ZM220.397 153.46H129.373C129.169 153.46 128.896 153.331 128.766 153.174L126.912 150.934C126.783 150.778 126.842 150.651 127.043 150.651H127.047L220.253 151.358C220.457 151.359 220.635 151.527 220.649 151.731L220.742 153.089C220.757 153.293 220.601 153.46 220.397 153.46ZM220.397 162.482H129.373C129.169 162.482 128.896 162.353 128.766 162.196L126.912 159.956C126.783 159.8 126.842 159.673 127.043 159.673H127.047L220.253 160.38C220.457 160.381 220.635 160.55 220.649 160.753L220.742 162.112C220.757 162.316 220.601 162.482 220.397 162.482ZM129.644 197.618C128.808 197.618 128.075 197.055 127.862 196.245C127.553 195.075 128.436 193.93 129.644 193.93C129.647 193.93 129.65 193.931 129.653 193.931L198.353 194.244C199.109 194.247 199.724 194.852 199.741 195.607C199.758 196.385 199.136 197.026 198.359 197.032L129.66 197.618C129.654 197.618 129.65 197.618 129.644 197.618ZM129.461 183.947C128.625 183.947 127.892 183.385 127.678 182.574C127.37 181.404 128.252 180.26 129.461 180.26H129.469L198.17 180.574C198.926 180.577 199.541 181.182 199.557 181.937C199.574 182.714 198.953 183.356 198.176 183.362L129.476 183.947H129.461ZM129.644 213.532C128.808 213.532 128.075 212.968 127.862 212.158C127.553 210.989 128.436 209.845 129.644 209.845H129.653L198.353 210.158C199.109 210.162 199.724 210.766 199.741 211.522C199.758 212.299 199.136 212.939 198.359 212.946L129.66 213.532H129.644ZM130.441 229.445C129.605 229.445 128.872 228.882 128.659 228.072C128.351 226.902 129.233 225.758 130.441 225.758H130.45L199.151 226.072C199.907 226.075 200.522 226.68 200.538 227.435C200.555 228.212 199.933 228.853 199.156 228.86L130.457 229.445H130.441Z" fill="#E5ECFD"/>
<path d="M209.087 176.783C208.792 176.811 208.528 176.951 208.36 177.164C208.221 177.339 208.16 177.551 208.188 177.761L209.031 183.968C209.121 184.635 209.771 185.126 210.542 185.109L217.966 184.953H217.98C218.7 184.931 219.28 184.406 219.277 183.777C219.262 180.935 219.216 178.274 218.808 176.93C218.625 176.327 217.98 175.924 217.255 175.944C215.901 176.003 213.476 176.284 211.528 176.51C210.595 176.618 209.715 176.72 209.087 176.783ZM217.998 185.523L217.978 185.523L210.554 185.679C209.493 185.701 208.596 184.999 208.466 184.044L207.624 177.838C207.574 177.473 207.676 177.108 207.912 176.811C208.175 176.477 208.583 176.26 209.03 176.216C209.654 176.153 210.532 176.051 211.462 175.944C213.42 175.717 215.857 175.434 217.231 175.375C218.228 175.339 219.091 175.903 219.353 176.765C219.784 178.182 219.832 180.889 219.847 183.774C219.851 184.711 219.024 185.491 217.998 185.523Z" fill="white"/>
<path d="M211.061 184.509C210.347 184.509 209.743 184.036 209.658 183.4L208.984 178.44C208.915 177.927 209.329 177.458 209.905 177.401C211.461 177.247 214.838 176.799 216.445 176.73C216.469 176.729 216.493 176.728 216.517 176.728C217.168 176.728 217.742 177.114 217.914 177.679C218.259 178.817 218.288 181.104 218.299 183.216C218.302 183.848 217.737 184.37 217.028 184.385L211.095 184.509H211.061Z" fill="#E5ECFD"/>
<path d="M210.708 192.112C210.414 192.141 210.149 192.28 209.981 192.493C209.842 192.668 209.781 192.881 209.81 193.09L210.652 199.297C210.743 199.963 211.393 200.454 212.164 200.438L219.587 200.283L219.602 200.282C220.322 200.26 220.901 199.735 220.898 199.106C220.884 196.265 220.837 193.604 220.429 192.259C220.246 191.657 219.591 191.24 218.877 191.273C217.523 191.332 215.098 191.613 213.149 191.839C212.217 191.948 211.336 192.05 210.708 192.112ZM219.62 200.852L219.6 200.853L212.176 201.008C211.115 201.031 210.217 200.327 210.088 199.374L209.245 193.167C209.195 192.802 209.298 192.438 209.533 192.139C209.797 191.806 210.204 191.589 210.651 191.544C211.276 191.483 212.154 191.381 213.084 191.273C215.041 191.045 217.478 190.763 218.852 190.703C218.862 190.703 218.872 190.702 218.881 190.702C219.857 190.673 220.715 191.241 220.975 192.093C221.405 193.512 221.454 196.218 221.468 199.103C221.473 200.04 220.646 200.821 219.62 200.852Z" fill="white"/>
<path d="M212.683 199.839C211.969 199.839 211.365 199.365 211.279 198.729L210.605 193.769C210.536 193.256 210.95 192.787 211.527 192.73C213.083 192.576 216.46 192.128 218.067 192.059C218.091 192.058 218.115 192.058 218.138 192.058C218.79 192.058 219.364 192.443 219.536 193.009C219.881 194.146 219.91 196.433 219.92 198.544C219.924 199.177 219.358 199.699 218.649 199.714L212.717 199.839H212.683Z" fill="#E5ECFD"/>
<path d="M211.196 208.018C210.902 208.047 210.637 208.186 210.469 208.399C210.33 208.574 210.27 208.787 210.298 208.996L211.141 215.203C211.231 215.87 211.88 216.361 212.652 216.344L220.076 216.189L220.09 216.188C220.809 216.166 221.39 215.642 221.386 215.012C221.372 212.171 221.325 209.51 220.917 208.165C220.734 207.564 220.08 207.144 219.364 207.179C218.011 207.238 215.586 207.519 213.638 207.745C212.705 207.854 211.825 207.956 211.196 208.018ZM220.107 216.758L220.087 216.759L212.663 216.914C211.603 216.937 210.706 216.234 210.575 215.28L209.733 209.073C209.683 208.709 209.786 208.344 210.021 208.045C210.285 207.712 210.693 207.495 211.14 207.45C211.764 207.389 212.642 207.287 213.571 207.179C215.53 206.951 217.966 206.669 219.34 206.61C219.35 206.609 219.36 206.609 219.37 206.609C220.346 206.579 221.204 207.147 221.462 208C221.893 209.418 221.942 212.124 221.956 215.009C221.961 215.946 221.133 216.727 220.107 216.758Z" fill="white"/>
<path d="M213.169 215.745C212.454 215.745 211.852 215.271 211.765 214.636L211.092 209.676C211.022 209.162 211.436 208.694 212.013 208.637C213.568 208.482 216.947 208.034 218.553 207.965C218.577 207.965 218.601 207.964 218.625 207.964C219.276 207.964 219.85 208.349 220.022 208.915C220.367 210.052 220.395 212.339 220.406 214.451C220.409 215.084 219.845 215.605 219.136 215.62L213.203 215.745H213.169Z" fill="#E5ECFD"/>
<path d="M211.682 223.924C211.388 223.953 211.123 224.092 210.955 224.305C210.816 224.48 210.755 224.693 210.784 224.902L211.627 231.109C211.718 231.776 212.367 232.267 213.137 232.25L220.561 232.095L220.577 232.094C221.295 232.072 221.875 231.548 221.872 230.918C221.857 228.077 221.811 225.416 221.403 224.071C221.22 223.47 220.565 223.048 219.85 223.085C218.497 223.144 216.072 223.425 214.123 223.651C213.192 223.76 212.311 223.862 211.682 223.924ZM220.594 232.664L220.573 232.665L213.15 232.82C212.089 232.843 211.191 232.14 211.062 231.186L210.219 224.979C210.17 224.615 210.272 224.25 210.507 223.951C210.771 223.618 211.178 223.402 211.626 223.356C212.25 223.295 213.128 223.193 214.058 223.085C216.015 222.857 218.452 222.575 219.826 222.516C219.836 222.515 219.846 222.515 219.856 222.515C220.832 222.485 221.69 223.054 221.949 223.906C222.379 225.324 222.428 228.03 222.442 230.915C222.447 231.852 221.62 232.633 220.594 232.664Z" fill="white"/>
<path d="M213.655 231.651C212.94 231.651 212.338 231.177 212.251 230.542L211.578 225.582C211.508 225.068 211.922 224.6 212.499 224.543C214.055 224.388 217.433 223.94 219.039 223.871C219.063 223.871 219.087 223.87 219.11 223.87C219.762 223.87 220.336 224.255 220.507 224.821C220.853 225.958 220.882 228.245 220.892 230.357C220.895 230.99 220.33 231.512 219.622 231.526L213.689 231.651H213.655Z" fill="#E5ECFD"/>
<path d="M160.153 130.848H160.137L139.402 130.57C139.043 130.565 138.726 130.333 138.621 129.996L132.349 109.954L128.883 110.036C128.875 110.037 128.868 110.037 128.861 110.037C128.436 110.037 128.096 109.755 128.096 109.328C128.096 108.893 128.448 108.591 128.883 108.58L132.939 108.473H132.961C133.303 108.473 133.603 108.682 133.704 109.006L134.451 111.376L163.992 110.756C164.003 110.756 164.013 110.756 164.023 110.756C164.336 110.756 164.628 110.857 164.818 111.089C165.013 111.329 165.074 111.632 164.983 111.927L161.492 123.215C161.365 123.625 160.967 123.922 160.514 123.922H160.513L138.392 123.888L140.007 129.092L160.137 129.309C160.623 129.314 161.019 129.629 161.019 130.089C161.019 130.545 160.632 130.848 160.153 130.848ZM142.52 137.856C142.492 137.856 142.464 137.855 142.436 137.854C140.729 137.81 139.349 136.424 139.349 134.766C139.349 133.123 140.703 131.805 142.385 131.805C142.402 131.805 142.419 131.805 142.436 131.806C144.152 131.833 145.556 133.219 145.556 134.896C145.556 136.544 144.198 137.856 142.52 137.856ZM142.408 133.418C141.623 133.418 140.991 134.033 140.991 134.8C140.991 135.576 141.638 136.223 142.436 136.241C142.448 136.242 142.459 136.242 142.471 136.242C143.254 136.242 143.888 135.629 143.888 134.86C143.888 134.081 143.235 133.434 142.436 133.419C142.426 133.418 142.417 133.418 142.408 133.418ZM156.349 138.219C156.318 138.219 156.288 138.218 156.258 138.218C154.467 138.171 153.019 136.751 153.019 135.052C153.019 133.37 154.438 132.02 156.204 132.02H156.258C158.059 132.049 159.533 133.469 159.533 135.188C159.533 136.877 158.109 138.219 156.349 138.219ZM156.228 133.673C155.405 133.673 154.742 134.301 154.742 135.087C154.742 135.882 155.421 136.545 156.258 136.565C156.27 136.566 156.283 136.566 156.296 136.566C157.117 136.566 157.782 135.938 157.782 135.151C157.782 134.352 157.097 133.689 156.258 133.673H156.228Z" fill="#F2F6FE"/>
<path d="M147.9 145.749C133.652 145.749 122.061 134.158 122.061 119.91C122.061 105.661 133.652 94.0701 147.9 94.0701C162.147 94.0701 173.738 105.661 173.738 119.91C173.738 134.158 162.147 145.749 147.9 145.749ZM147.9 96.2784C134.87 96.2784 124.268 106.879 124.268 119.91C124.268 132.94 134.87 143.541 147.9 143.541C160.93 143.541 171.531 132.94 171.531 119.91C171.531 106.879 160.93 96.2784 147.9 96.2784Z" fill="#F3F6FE"/>
<mask id="mask6_237_53799" style="mask-type:luminance" maskUnits="userSpaceOnUse" x="165" y="63" width="17" height="18">
<path d="M172.92 74.5941C171.294 74.5941 169.974 73.2753 169.974 71.6483C169.974 70.0214 171.294 68.7026 172.92 68.7026C174.547 68.7026 175.866 70.0214 175.866 71.6483C175.866 73.2753 174.547 74.5941 172.92 74.5941ZM178.115 65.8523C174.355 63.2356 171.085 63.2874 168.782 63.9666C166.682 64.586 165.322 66.614 165.521 68.794L166.513 79.6301L178.327 80.6788C178.327 80.6788 185.491 70.9837 178.115 65.8523Z" fill="white"/>
</mask>
<g mask="url(#mask6_237_53799)">
<path d="M172.92 74.5941C171.294 74.5941 169.974 73.2753 169.974 71.6483C169.974 70.0214 171.294 68.7026 172.92 68.7026C174.547 68.7026 175.866 70.0214 175.866 71.6483C175.866 73.2753 174.547 74.5941 172.92 74.5941ZM178.115 65.8523C174.355 63.2356 171.085 63.2874 168.782 63.9666C166.682 64.586 165.322 66.614 165.521 68.794L166.513 79.6301L178.327 80.6788C178.327 80.6788 185.491 70.9837 178.115 65.8523Z" fill="url(#paint6_linear_237_53799)"/>
</g>
<path d="M167.384 71.6903C167.237 71.6903 167.113 71.5787 167.1 71.4308L166.979 70.1208C166.789 68.0435 168.096 66.1101 170.087 65.5223C171.497 65.1058 172.95 65.046 174.405 65.3452C174.559 65.3759 174.659 65.5271 174.627 65.6816C174.595 65.8352 174.446 65.9339 174.291 65.9031C172.927 65.6242 171.568 65.68 170.248 66.0689C168.518 66.5799 167.382 68.2618 167.547 70.0691L167.667 71.379C167.682 71.5359 167.566 71.675 167.409 71.6887C167.401 71.6895 167.392 71.6903 167.384 71.6903ZM167.693 75.0719C167.548 75.0719 167.423 74.9611 167.409 74.8131L167.252 73.0868C167.237 72.9307 167.353 72.7916 167.509 72.7771C167.669 72.7625 167.805 72.8782 167.819 73.035L167.977 74.7614C167.992 74.9175 167.876 75.0565 167.719 75.0711C167.71 75.0719 167.701 75.0719 167.693 75.0719Z" fill="white"/>
<mask id="mask7_237_53799" style="mask-type:luminance" maskUnits="userSpaceOnUse" x="150" y="77" width="45" height="11">
<path d="M150.389 86.6334V81.185C150.389 79.3042 151.948 77.7986 153.828 77.8625L191.39 79.1498C193.057 79.2072 194.407 80.5228 194.507 82.1877L194.821 87.4226L150.389 86.6334Z" fill="white"/>
</mask>
<g mask="url(#mask7_237_53799)">
<path d="M150.389 86.6334V81.185C150.389 79.3042 151.948 77.7986 153.828 77.8625L191.39 79.1498C193.057 79.2072 194.407 80.5228 194.507 82.1877L194.821 87.4226L150.389 86.6334Z" fill="url(#paint7_linear_237_53799)"/>
</g>
<path d="M164.395 79.9155H162.78C162.622 79.9155 162.494 79.7877 162.494 79.63C162.494 79.4732 162.622 79.3454 162.78 79.3454H164.395C164.552 79.3454 164.68 79.4732 164.68 79.63C164.68 79.7877 164.552 79.9155 164.395 79.9155ZM152.422 84.9224C152.264 84.9224 152.137 84.7954 152.137 84.6377V82.4335C152.137 80.7305 153.522 79.3454 155.225 79.3454H161.164C161.322 79.3454 161.449 79.4732 161.449 79.63C161.449 79.7877 161.322 79.9155 161.164 79.9155H155.225C153.836 79.9155 152.707 81.0451 152.707 82.4335V84.6377C152.707 84.7954 152.579 84.9224 152.422 84.9224Z" fill="white"/>
<path d="M135.083 88.0088C135.175 86.1223 136.731 84.6393 138.62 84.6393L204.304 84.6377C206.666 84.6377 208.685 86.3374 209.088 88.6646L209.144 88.9856C209.585 91.5351 207.623 93.8663 205.036 93.8663H137.647C136.098 93.8663 134.864 92.5717 134.939 91.0257L135.083 88.0088Z" fill="#7D97F4"/>
<mask id="mask8_237_53799" style="mask-type:luminance" maskUnits="userSpaceOnUse" x="121" y="149" width="24" height="9">
<path d="M129.025 154.246C129.025 154.246 127.791 150.998 126.35 151.296C124.909 151.593 123.333 152.7 123.333 152.7L121.018 155.831C121.018 155.831 127.517 158.391 129.802 156.925C129.802 156.925 136.441 158.071 144.825 156.696C143.611 154.134 142.887 151.568 142.463 149.578C138.217 151.981 133.643 153.776 129.025 154.246Z" fill="white"/>
</mask>
<g mask="url(#mask8_237_53799)">
<path d="M129.025 154.246C129.025 154.246 127.791 150.998 126.35 151.296C124.909 151.593 123.333 152.7 123.333 152.7L121.018 155.831C121.018 155.831 127.517 158.391 129.802 156.925C129.802 156.925 136.441 158.071 144.825 156.696C143.611 154.134 142.887 151.568 142.463 149.578C138.217 151.981 133.643 153.776 129.025 154.246Z" fill="url(#paint8_linear_237_53799)"/>
</g>
<mask id="mask9_237_53799" style="mask-type:luminance" maskUnits="userSpaceOnUse" x="142" y="130" width="23" height="27">
<path d="M164.189 130.688C164.189 130.688 154.684 142.659 142.461 149.578C142.885 151.568 143.609 154.134 144.823 156.696C151.163 155.655 158.502 153.173 164.723 147.655L164.189 130.688Z" fill="white"/>
</mask>
<g mask="url(#mask9_237_53799)">
<path d="M164.189 130.688C164.189 130.688 154.684 142.659 142.461 149.578C142.885 151.568 143.609 154.134 144.823 156.696C151.163 155.655 158.502 153.173 164.723 147.655L164.189 130.688Z" fill="url(#paint9_linear_237_53799)"/>
</g>
<mask id="mask10_237_53799" style="mask-type:luminance" maskUnits="userSpaceOnUse" x="163" y="128" width="37" height="57">
<path d="M176.043 183.748C174.184 174.918 172.325 169.807 166.101 153.072C164.143 147.805 162.365 142.476 163.224 136.924L164.19 130.688C164.19 130.688 176.285 126.595 189.692 130.516C189.692 130.516 207.984 138.462 195.559 177.707C189.959 183.972 183.405 185.758 176.043 183.748Z" fill="white"/>
</mask>
<g mask="url(#mask10_237_53799)">
<path d="M176.043 183.748C174.184 174.918 172.325 169.807 166.101 153.072C164.143 147.805 162.365 142.476 163.224 136.924L164.19 130.688C164.19 130.688 176.285 126.595 189.692 130.516C189.692 130.516 207.984 138.462 195.559 177.707C189.959 183.972 183.405 185.758 176.043 183.748Z" fill="url(#paint10_linear_237_53799)"/>
</g>
<mask id="mask11_237_53799" style="mask-type:luminance" maskUnits="userSpaceOnUse" x="166" y="120" width="14" height="12">
<path d="M166.248 122.728L169.385 130.263C169.583 130.739 170.01 131.078 170.519 131.165C172.327 131.475 176.7 131.96 179.572 130.071C179.915 129.846 180.002 129.381 179.768 129.045L173.973 120.726L166.248 122.728Z" fill="white"/>
</mask>
<g mask="url(#mask11_237_53799)">
<path d="M166.248 122.728L169.385 130.263C169.583 130.739 170.01 131.078 170.519 131.165C172.327 131.475 176.7 131.96 179.572 130.071C179.915 129.846 180.002 129.381 179.768 129.045L173.973 120.726L166.248 122.728Z" fill="url(#paint11_linear_237_53799)"/>
</g>
<mask id="mask12_237_53799" style="mask-type:luminance" maskUnits="userSpaceOnUse" x="163" y="110" width="14" height="15">
<path d="M169.491 111.2C169.359 111.324 163.932 121.982 163.932 121.982L170.084 124.952L176.728 115.615C176.728 115.615 171.696 109.125 169.491 111.2Z" fill="white"/>
</mask>
<g mask="url(#mask12_237_53799)">
<path d="M169.491 111.2C169.359 111.324 163.932 121.982 163.932 121.982L170.084 124.952L176.728 115.615C176.728 115.615 171.696 109.125 169.491 111.2Z" fill="url(#paint12_linear_237_53799)"/>
</g>
<mask id="mask13_237_53799" style="mask-type:luminance" maskUnits="userSpaceOnUse" x="162" y="106" width="19" height="22">
<path d="M173.934 116.734L170.866 121.849C170.819 121.927 170.764 121.997 170.698 122.058C170.332 122.398 169.083 123.387 168.117 122.041C167.294 120.893 166.521 119.85 165.693 119.42C165.21 119.169 164.615 119.37 164.37 119.856C163.864 120.858 162.885 122.9 162.27 124.837C162.116 125.322 162.366 125.843 162.838 126.034C164.084 126.539 166.546 127.452 168.731 127.753C169.089 127.803 169.445 127.651 169.658 127.359C170.598 126.071 173.247 122.473 174.151 121.572C174.991 120.735 176.541 121.051 177.24 121.251C177.505 121.328 177.787 121.291 178.023 121.149C178.732 120.722 179.969 119.659 178.837 117.859C178.556 117.412 178.7 116.815 179.141 116.525C179.932 116.005 180.791 115.028 179.973 113.446C179.145 111.844 177.666 111.7 176.659 111.823C176.213 111.878 175.761 111.644 175.59 111.229C175.514 111.044 175.364 110.887 175.084 110.83C174.556 110.723 174.209 110.241 174.313 109.712C174.49 108.805 174.357 107.628 172.909 106.832C170.256 105.373 167.931 107.751 167.34 109.758C166.748 111.765 169.715 113.184 171.583 113.42C172.954 113.595 173.705 115.091 174.008 115.873C174.118 116.157 174.091 116.473 173.934 116.734Z" fill="white"/>
</mask>
<g mask="url(#mask13_237_53799)">
<path d="M173.934 116.734L170.866 121.849C170.819 121.927 170.764 121.997 170.698 122.058C170.332 122.398 169.083 123.387 168.117 122.041C167.294 120.893 166.521 119.85 165.693 119.42C165.21 119.169 164.615 119.37 164.37 119.856C163.864 120.858 162.885 122.9 162.27 124.837C162.116 125.322 162.366 125.843 162.838 126.034C164.084 126.539 166.546 127.452 168.731 127.753C169.089 127.803 169.445 127.651 169.658 127.359C170.598 126.071 173.247 122.473 174.151 121.572C174.991 120.735 176.541 121.051 177.24 121.251C177.505 121.328 177.787 121.291 178.023 121.149C178.732 120.722 179.969 119.659 178.837 117.859C178.556 117.412 178.7 116.815 179.141 116.525C179.932 116.005 180.791 115.028 179.973 113.446C179.145 111.844 177.666 111.7 176.659 111.823C176.213 111.878 175.761 111.644 175.59 111.229C175.514 111.044 175.364 110.887 175.084 110.83C174.556 110.723 174.209 110.241 174.313 109.712C174.49 108.805 174.357 107.628 172.909 106.832C170.256 105.373 167.931 107.751 167.34 109.758C166.748 111.765 169.715 113.184 171.583 113.42C172.954 113.595 173.705 115.091 174.008 115.873C174.118 116.157 174.091 116.473 173.934 116.734Z" fill="url(#paint13_linear_237_53799)"/>
</g>
<mask id="mask14_237_53799" style="mask-type:luminance" maskUnits="userSpaceOnUse" x="172" y="120" width="6" height="5">
<path d="M172.857 123.103C172.857 123.103 174.178 119.997 175.688 120.124C177.199 120.251 178.388 121.756 176.516 123.448C174.187 125.552 172.857 123.103 172.857 123.103Z" fill="white"/>
</mask>
<g mask="url(#mask14_237_53799)">
<path d="M172.857 123.103C172.857 123.103 174.178 119.997 175.688 120.124C177.199 120.251 178.388 121.756 176.516 123.448C174.187 125.552 172.857 123.103 172.857 123.103Z" fill="url(#paint14_linear_237_53799)"/>
</g>
<mask id="mask15_237_53799" style="mask-type:luminance" maskUnits="userSpaceOnUse" x="174" y="261" width="18" height="3">
<path d="M174.853 261.559C177.774 261.811 182.844 262.221 186.841 262.397C189.243 262.503 190.627 262.268 191.423 261.949C191.422 262.039 191.419 262.123 191.416 262.203C191.397 262.623 191.055 262.959 190.631 262.983C183.078 263.405 177.071 263.129 174.933 262.999C174.491 262.972 174.227 262.491 174.454 262.114C174.567 261.926 174.704 261.742 174.853 261.559Z" fill="white"/>
</mask>
<g mask="url(#mask15_237_53799)">
<path d="M174.853 261.559C177.774 261.811 182.844 262.221 186.841 262.397C189.243 262.503 190.627 262.268 191.423 261.949C191.422 262.039 191.419 262.123 191.416 262.203C191.397 262.623 191.055 262.959 190.631 262.983C183.078 263.405 177.071 263.129 174.933 262.999C174.491 262.972 174.227 262.491 174.454 262.114C174.567 261.926 174.704 261.742 174.853 261.559Z" fill="url(#paint15_linear_237_53799)"/>
</g>
<mask id="mask16_237_53799" style="mask-type:luminance" maskUnits="userSpaceOnUse" x="174" y="255" width="18" height="8">
<path d="M186.84 262.397C182.843 262.221 177.773 261.811 174.852 261.559C177.724 258.035 186.84 255.66 186.84 255.66H189.415C191.185 258.213 191.442 260.643 191.422 261.949C190.626 262.268 189.242 262.503 186.84 262.397Z" fill="white"/>
</mask>
<g mask="url(#mask16_237_53799)">
<path d="M186.84 262.397C182.843 262.221 177.773 261.811 174.852 261.559C177.724 258.035 186.84 255.66 186.84 255.66H189.415C191.185 258.213 191.442 260.643 191.422 261.949C190.626 262.268 189.242 262.503 186.84 262.397Z" fill="url(#paint16_linear_237_53799)"/>
</g>
<mask id="mask17_237_53799" style="mask-type:luminance" maskUnits="userSpaceOnUse" x="185" y="251" width="5" height="7">
<path d="M189.848 251.457L189.607 256.225C189.581 256.741 189.195 257.175 188.678 257.249C188.163 257.323 187.474 257.332 186.744 257.089C186.294 256.939 185.96 256.56 185.878 256.098L185.045 251.457H189.848Z" fill="white"/>
</mask>
<g mask="url(#mask17_237_53799)">
<path d="M189.848 251.457L189.607 256.225C189.581 256.741 189.195 257.175 188.678 257.249C188.163 257.323 187.474 257.332 186.744 257.089C186.294 256.939 185.96 256.56 185.878 256.098L185.045 251.457H189.848Z" fill="url(#paint17_linear_237_53799)"/>
</g>
<mask id="mask18_237_53799" style="mask-type:luminance" maskUnits="userSpaceOnUse" x="218" y="260" width="8" height="4">
<path d="M223.29 262.362C224.557 262.185 225.13 261.527 225.37 260.823L225.375 260.842C225.561 261.585 225.129 262.354 224.266 262.719C223.222 263.162 222.08 263.237 221.194 263.2C220.243 263.162 219.37 262.768 218.89 262.138L218.883 262.128C219.838 262.6 221.178 262.656 223.29 262.362Z" fill="white"/>
</mask>
<g mask="url(#mask18_237_53799)">
<path d="M223.29 262.362C224.557 262.185 225.13 261.527 225.37 260.823L225.375 260.842C225.561 261.585 225.129 262.354 224.266 262.719C223.222 263.162 222.08 263.237 221.194 263.2C220.243 263.162 219.37 262.768 218.89 262.138L218.883 262.128C219.838 262.6 221.178 262.656 223.29 262.362Z" fill="url(#paint18_linear_237_53799)"/>
</g>
<mask id="mask19_237_53799" style="mask-type:luminance" maskUnits="userSpaceOnUse" x="215" y="251" width="11" height="12">
<path d="M217.318 251.426H219.441C222.675 251.36 224.706 258.181 225.371 260.823C225.131 261.527 224.558 262.185 223.29 262.362C221.178 262.656 219.838 262.6 218.884 262.128C217.137 259.829 216.27 256.461 215.854 254.497C215.381 252.262 217.318 251.426 217.318 251.426Z" fill="white"/>
</mask>
<g mask="url(#mask19_237_53799)">
<path d="M217.318 251.426H219.441C222.675 251.36 224.706 258.181 225.371 260.823C225.131 261.527 224.558 262.185 223.29 262.362C221.178 262.656 219.838 262.6 218.884 262.128C217.137 259.829 216.27 256.461 215.854 254.497C215.381 252.262 217.318 251.426 217.318 251.426Z" fill="url(#paint19_linear_237_53799)"/>
</g>
<mask id="mask20_237_53799" style="mask-type:luminance" maskUnits="userSpaceOnUse" x="214" y="247" width="7" height="7">
<path d="M219.168 247.001L220.347 251.691C220.492 252.266 220.217 252.86 219.685 253.132C219.025 253.471 218.096 253.827 217.243 253.724C216.842 253.676 216.508 253.393 216.376 253.015L214.645 248.081L219.168 247.001Z" fill="white"/>
</mask>
<g mask="url(#mask20_237_53799)">
<path d="M219.168 247.001L220.347 251.691C220.492 252.266 220.217 252.86 219.685 253.132C219.025 253.471 218.096 253.827 217.243 253.724C216.842 253.676 216.508 253.393 216.376 253.015L214.645 248.081L219.168 247.001Z" fill="url(#paint20_linear_237_53799)"/>
</g>
<mask id="mask21_237_53799" style="mask-type:luminance" maskUnits="userSpaceOnUse" x="175" y="177" width="46" height="77">
<path d="M220.574 248.357C219.107 249.658 214.336 249.829 214.336 249.829C197.148 208.579 189.983 197.223 189.983 197.223C192.465 212.793 190.519 252.758 190.519 252.758C187.682 254.01 184.026 252.758 184.026 252.758C183.795 227.268 180.207 199.879 175.578 182.354C187.195 182.093 193.507 179.56 195.525 177.965C205.208 193.576 220.574 248.357 220.574 248.357Z" fill="white"/>
</mask>
<g mask="url(#mask21_237_53799)">
<path d="M220.574 248.357C219.107 249.658 214.336 249.829 214.336 249.829C197.148 208.579 189.983 197.223 189.983 197.223C192.465 212.793 190.519 252.758 190.519 252.758C187.682 254.01 184.026 252.758 184.026 252.758C183.795 227.268 180.207 199.879 175.578 182.354C187.195 182.093 193.507 179.56 195.525 177.965C205.208 193.576 220.574 248.357 220.574 248.357Z" fill="url(#paint21_linear_237_53799)"/>
</g>
<mask id="mask22_237_53799" style="mask-type:luminance" maskUnits="userSpaceOnUse" x="172" y="188" width="43" height="23">
<path d="M172.652 193.88L174.789 207.175C175.162 209.494 177.31 211.101 179.652 210.816L211.643 206.913C213.208 206.723 214.395 205.416 214.426 203.846C214.494 200.411 214.359 194.298 212.918 188.728L172.652 193.88Z" fill="white"/>
</mask>
<g mask="url(#mask22_237_53799)">
<path d="M172.652 193.88L174.789 207.175C175.162 209.494 177.31 211.101 179.652 210.816L211.643 206.913C213.208 206.723 214.395 205.416 214.426 203.846C214.494 200.411 214.359 194.298 212.918 188.728L172.652 193.88Z" fill="url(#paint22_linear_237_53799)"/>
</g>
<path d="M209.105 189.311C209.058 189.311 209.017 189.276 209.011 189.228C209.004 189.176 209.041 189.129 209.093 189.122L209.845 189.025C209.902 189.018 209.945 189.056 209.951 189.108C209.958 189.16 209.921 189.207 209.869 189.214L209.117 189.31L209.105 189.311ZM212.054 189.35C212.011 189.35 211.972 189.321 211.962 189.278C211.936 189.17 211.908 189.063 211.881 188.956L211.624 188.989C211.569 188.996 211.525 188.958 211.518 188.907C211.512 188.855 211.548 188.808 211.6 188.801L212.023 188.747L212.043 188.828C212.079 188.962 212.113 189.097 212.146 189.232C212.158 189.283 212.127 189.334 212.076 189.347C212.069 189.349 212.061 189.35 212.054 189.35ZM206.597 189.632C206.55 189.632 206.509 189.596 206.503 189.549C206.496 189.497 206.533 189.449 206.585 189.443L207.337 189.346C207.395 189.34 207.437 189.377 207.443 189.429C207.45 189.481 207.413 189.528 207.361 189.535L206.609 189.631L206.597 189.632ZM204.09 189.953C204.042 189.953 204.002 189.917 203.995 189.87C203.989 189.818 204.026 189.77 204.078 189.764L204.83 189.667C204.888 189.66 204.929 189.698 204.936 189.749C204.943 189.802 204.906 189.849 204.854 189.856L204.102 189.952L204.09 189.953ZM201.582 190.273C201.535 190.273 201.494 190.238 201.488 190.191C201.481 190.139 201.518 190.091 201.569 190.085L202.322 189.989C202.38 189.98 202.422 190.018 202.428 190.07C202.435 190.122 202.398 190.17 202.346 190.176L201.594 190.272L201.582 190.273ZM199.075 190.594C199.027 190.594 198.987 190.559 198.98 190.512C198.974 190.46 199.01 190.412 199.062 190.406L199.815 190.31C199.873 190.303 199.914 190.339 199.921 190.391C199.927 190.443 199.891 190.491 199.839 190.497L199.086 190.593L199.075 190.594ZM196.567 190.915C196.52 190.915 196.478 190.88 196.473 190.833C196.465 190.78 196.503 190.733 196.554 190.726L197.306 190.63C197.366 190.623 197.406 190.66 197.413 190.712C197.42 190.764 197.382 190.812 197.331 190.818L196.579 190.914L196.567 190.915ZM194.059 191.236C194.012 191.236 193.971 191.201 193.965 191.153C193.958 191.101 193.995 191.054 194.047 191.047L194.799 190.951C194.859 190.943 194.898 190.981 194.906 191.033C194.912 191.085 194.875 191.133 194.823 191.139L194.071 191.235L194.059 191.236ZM191.552 191.557C191.505 191.557 191.463 191.522 191.458 191.474C191.45 191.422 191.488 191.374 191.539 191.368L192.291 191.272C192.352 191.265 192.391 191.302 192.398 191.354C192.405 191.406 192.367 191.453 192.316 191.46L191.564 191.556L191.552 191.557ZM212.574 191.823C212.529 191.823 212.49 191.791 212.481 191.745C212.437 191.497 212.391 191.249 212.342 191.002C212.332 190.95 212.366 190.901 212.417 190.89C212.469 190.88 212.518 190.914 212.528 190.964C212.577 191.214 212.624 191.463 212.668 191.712C212.677 191.763 212.643 191.813 212.591 191.822L212.574 191.823ZM189.044 191.877C188.997 191.877 188.956 191.843 188.95 191.795C188.943 191.743 188.98 191.695 189.032 191.689L189.784 191.593C189.841 191.585 189.883 191.624 189.891 191.674C189.897 191.727 189.86 191.774 189.808 191.781L189.056 191.877H189.044ZM186.537 192.198C186.49 192.198 186.448 192.164 186.443 192.116C186.436 192.064 186.473 192.016 186.524 192.01L187.276 191.914C187.334 191.907 187.377 191.944 187.383 191.995C187.39 192.047 187.352 192.095 187.301 192.101L186.549 192.198L186.537 192.198ZM184.029 192.519C183.981 192.519 183.941 192.485 183.935 192.437C183.928 192.385 183.965 192.337 184.017 192.331L184.769 192.235C184.827 192.228 184.868 192.265 184.875 192.316C184.882 192.368 184.845 192.416 184.793 192.422L184.041 192.519L184.029 192.519ZM181.522 192.84C181.474 192.84 181.433 192.806 181.427 192.758C181.421 192.705 181.458 192.659 181.51 192.651L182.262 192.555C182.32 192.548 182.361 192.586 182.367 192.637C182.375 192.689 182.338 192.737 182.286 192.743L181.534 192.84L181.522 192.84ZM179.014 193.161C178.966 193.161 178.926 193.127 178.92 193.079C178.913 193.026 178.95 192.98 179.001 192.972L179.754 192.876C179.813 192.87 179.853 192.907 179.86 192.959C179.867 193.01 179.83 193.058 179.778 193.064L179.026 193.161L179.014 193.161ZM176.506 193.482C176.459 193.482 176.419 193.447 176.412 193.399C176.406 193.347 176.442 193.3 176.495 193.293L177.247 193.197C177.306 193.19 177.346 193.228 177.352 193.28C177.36 193.331 177.323 193.379 177.271 193.385L176.518 193.482L176.506 193.482ZM173.998 193.804C173.951 193.804 173.91 193.768 173.905 193.72C173.897 193.668 173.934 193.621 173.986 193.614L174.738 193.518C174.799 193.51 174.838 193.549 174.845 193.6C174.851 193.652 174.814 193.699 174.763 193.706L174.011 193.803L173.998 193.804ZM212.95 194.324C212.904 194.324 212.862 194.289 212.857 194.241C212.825 193.992 212.793 193.741 212.758 193.49C212.751 193.438 212.786 193.39 212.838 193.383C212.893 193.377 212.938 193.412 212.946 193.464C212.98 193.716 213.014 193.967 213.044 194.218C213.051 194.269 213.014 194.317 212.962 194.323L212.95 194.324ZM173.753 194.599C173.706 194.599 173.667 194.565 173.659 194.519L173.538 193.77C173.53 193.719 173.565 193.67 173.617 193.662C173.672 193.653 173.717 193.689 173.726 193.74L173.846 194.489C173.854 194.541 173.82 194.589 173.768 194.598L173.753 194.599ZM213.204 196.839C213.154 196.839 213.113 196.802 213.109 196.752C213.089 196.503 213.068 196.251 213.045 195.997C213.04 195.945 213.078 195.899 213.131 195.895C213.184 195.888 213.229 195.929 213.234 195.98C213.257 196.235 213.278 196.487 213.298 196.737C213.302 196.79 213.263 196.835 213.211 196.839H213.204ZM174.154 197.095C174.108 197.095 174.067 197.061 174.06 197.015L173.94 196.267C173.931 196.215 173.967 196.165 174.019 196.157C174.071 196.149 174.119 196.185 174.127 196.236L174.247 196.985C174.256 197.037 174.221 197.086 174.169 197.094L174.154 197.095ZM213.35 199.363C213.299 199.363 213.257 199.324 213.255 199.273C213.246 199.025 213.235 198.772 213.222 198.516C213.219 198.463 213.259 198.419 213.312 198.417C213.366 198.417 213.409 198.454 213.411 198.506C213.424 198.763 213.435 199.017 213.445 199.266C213.447 199.318 213.406 199.362 213.353 199.363H213.35ZM174.555 199.591C174.509 199.591 174.469 199.558 174.462 199.511L174.341 198.763C174.332 198.711 174.368 198.662 174.42 198.654C174.474 198.643 174.52 198.681 174.528 198.732L174.648 199.481C174.657 199.532 174.622 199.581 174.57 199.59L174.555 199.591ZM213.4 201.892C213.348 201.892 213.305 201.85 213.305 201.797C213.305 201.553 213.304 201.3 213.3 201.04C213.3 200.988 213.341 200.944 213.394 200.944C213.445 200.947 213.489 200.985 213.49 201.037C213.493 201.298 213.495 201.552 213.495 201.797C213.495 201.85 213.453 201.892 213.4 201.892ZM174.957 202.087C174.91 202.087 174.871 202.054 174.863 202.007L174.742 201.258C174.734 201.206 174.769 201.158 174.821 201.15C174.874 201.14 174.921 201.176 174.929 201.228L175.05 201.977C175.058 202.029 175.023 202.077 174.972 202.085L174.957 202.087ZM213.171 204.392C213.159 204.392 213.148 204.39 213.136 204.385C213.087 204.366 213.064 204.311 213.083 204.262C213.175 204.034 213.238 203.796 213.268 203.554C213.276 203.502 213.322 203.465 213.375 203.472C213.427 203.478 213.463 203.526 213.457 203.578C213.424 203.837 213.357 204.091 213.259 204.332C213.244 204.37 213.208 204.392 213.171 204.392ZM175.358 204.583C175.312 204.583 175.271 204.55 175.264 204.503L175.143 203.754C175.135 203.702 175.17 203.654 175.222 203.646C175.276 203.637 175.323 203.673 175.331 203.724L175.451 204.473C175.46 204.525 175.424 204.573 175.372 204.581L175.358 204.583ZM211.404 206.094C211.365 206.094 211.328 206.071 211.315 206.032C211.297 205.983 211.323 205.929 211.371 205.911C211.603 205.827 211.822 205.715 212.024 205.577C212.067 205.547 212.126 205.558 212.156 205.601C212.185 205.645 212.174 205.704 212.131 205.733C211.915 205.88 211.682 206 211.436 206.089C211.425 206.093 211.415 206.094 211.404 206.094ZM208.91 206.476C208.862 206.476 208.822 206.441 208.815 206.393C208.809 206.341 208.846 206.293 208.898 206.287L209.651 206.195C209.707 206.188 209.75 206.226 209.757 206.278C209.763 206.33 209.726 206.377 209.674 206.384L208.921 206.475L208.91 206.476ZM206.4 206.782C206.353 206.782 206.312 206.747 206.306 206.698C206.3 206.647 206.337 206.6 206.389 206.593L207.141 206.502C207.198 206.494 207.241 206.532 207.247 206.584C207.254 206.636 207.217 206.683 207.165 206.689L206.412 206.782L206.4 206.782ZM175.798 207.07C175.758 207.07 175.721 207.044 175.708 207.003C175.65 206.815 175.604 206.62 175.573 206.422L175.544 206.25C175.536 206.199 175.571 206.15 175.623 206.141C175.675 206.131 175.723 206.169 175.732 206.22L175.76 206.392C175.79 206.58 175.834 206.768 175.889 206.947C175.905 206.998 175.877 207.051 175.827 207.066C175.817 207.069 175.808 207.07 175.798 207.07ZM203.891 207.088C203.843 207.088 203.803 207.053 203.797 207.005C203.791 206.953 203.828 206.906 203.88 206.9L204.632 206.807C204.689 206.801 204.732 206.838 204.737 206.89C204.744 206.942 204.707 206.989 204.655 206.996L203.902 207.087L203.891 207.088ZM201.382 207.395C201.334 207.395 201.293 207.359 201.287 207.311C201.281 207.26 201.318 207.212 201.37 207.205L202.122 207.113C202.179 207.106 202.222 207.145 202.228 207.196C202.235 207.248 202.198 207.295 202.146 207.302L201.393 207.394L201.382 207.395ZM198.872 207.7C198.824 207.7 198.784 207.665 198.778 207.617C198.772 207.565 198.809 207.517 198.861 207.512L199.613 207.42C199.67 207.412 199.713 207.45 199.718 207.502C199.725 207.555 199.688 207.602 199.636 207.608L198.883 207.699L198.872 207.7ZM196.363 208.007C196.315 208.007 196.275 207.971 196.268 207.923C196.262 207.871 196.299 207.824 196.351 207.817L197.103 207.726C197.16 207.719 197.203 207.757 197.209 207.809C197.216 207.86 197.179 207.907 197.127 207.914L196.374 208.006L196.363 208.007ZM193.853 208.312C193.805 208.312 193.765 208.278 193.759 208.229C193.753 208.177 193.79 208.13 193.842 208.124L194.594 208.032C194.651 208.024 194.694 208.062 194.699 208.114C194.706 208.167 194.669 208.214 194.617 208.22L193.864 208.312L193.853 208.312ZM191.344 208.619C191.296 208.619 191.256 208.583 191.249 208.535C191.243 208.484 191.28 208.436 191.332 208.43L192.084 208.338C192.142 208.33 192.184 208.368 192.19 208.421C192.197 208.472 192.16 208.52 192.108 208.526L191.355 208.618L191.344 208.619ZM188.834 208.924C188.787 208.924 188.746 208.89 188.74 208.841C188.734 208.789 188.771 208.742 188.823 208.736L189.575 208.644C189.632 208.637 189.675 208.675 189.681 208.726C189.688 208.779 189.651 208.826 189.599 208.832L188.846 208.924H188.834ZM177.215 209.116C177.195 209.116 177.175 209.11 177.157 209.097C176.953 208.938 176.763 208.759 176.592 208.567C176.556 208.528 176.56 208.468 176.599 208.434C176.638 208.399 176.697 208.402 176.733 208.442C176.896 208.625 177.078 208.795 177.273 208.947C177.314 208.979 177.323 209.038 177.29 209.08C177.271 209.104 177.243 209.116 177.215 209.116ZM186.325 209.231C186.277 209.231 186.237 209.195 186.231 209.148C186.224 209.096 186.262 209.048 186.313 209.042L187.066 208.95C187.123 208.943 187.166 208.981 187.171 209.033C187.178 209.085 187.141 209.132 187.089 209.139L186.336 209.23L186.325 209.231ZM183.816 209.537C183.768 209.537 183.728 209.502 183.721 209.453C183.715 209.401 183.752 209.355 183.804 209.348L184.556 209.256C184.614 209.25 184.656 209.287 184.662 209.338C184.669 209.391 184.632 209.438 184.58 209.444L183.827 209.537H183.816ZM181.306 209.843C181.259 209.843 181.218 209.807 181.212 209.76C181.205 209.708 181.243 209.66 181.294 209.654L182.047 209.562C182.104 209.555 182.147 209.593 182.153 209.645C182.16 209.697 182.122 209.744 182.071 209.75L181.318 209.842L181.306 209.843ZM179.545 209.991H179.54C179.283 209.976 179.025 209.938 178.774 209.878C178.723 209.865 178.692 209.814 178.704 209.763C178.717 209.712 178.768 209.681 178.819 209.693C179.059 209.752 179.304 209.788 179.55 209.802C179.603 209.804 179.643 209.849 179.64 209.901C179.638 209.952 179.596 209.991 179.545 209.991Z" fill="white"/>
<mask id="mask23_237_53799" style="mask-type:luminance" maskUnits="userSpaceOnUse" x="180" y="180" width="7" height="3">
<path d="M180.78 182.991L180.744 181.949C180.821 181.689 181.024 181.487 181.285 181.41C182.26 181.124 184.695 180.529 185.998 181.266L186.328 182.439L180.78 182.991Z" fill="white"/>
</mask>
<g mask="url(#mask23_237_53799)">
<path d="M180.78 182.991L180.744 181.949C180.821 181.689 181.024 181.487 181.285 181.41C182.26 181.124 184.695 180.529 185.998 181.266L186.328 182.439L180.78 182.991Z" fill="url(#paint23_linear_237_53799)"/>
</g>
<mask id="mask24_237_53799" style="mask-type:luminance" maskUnits="userSpaceOnUse" x="182" y="177" width="3" height="5">
<path d="M183.765 181.602C183.543 181.687 183.313 181.716 183.076 181.69C182.789 181.657 182.56 181.433 182.524 181.147L182.111 177.923L183.752 177.714L184.164 180.935C184.201 181.222 184.036 181.498 183.765 181.602Z" fill="white"/>
</mask>
<g mask="url(#mask24_237_53799)">
<path d="M183.765 181.602C183.543 181.687 183.313 181.716 183.076 181.69C182.789 181.657 182.56 181.433 182.524 181.147L182.111 177.923L183.752 177.714L184.164 180.935C184.201 181.222 184.036 181.498 183.765 181.602Z" fill="url(#paint24_linear_237_53799)"/>
</g>
<mask id="mask25_237_53799" style="mask-type:luminance" maskUnits="userSpaceOnUse" x="196" y="178" width="7" height="3">
<path d="M196.67 180.957L196.635 179.916C196.712 179.656 196.915 179.453 197.177 179.376C198.152 179.091 200.586 178.496 201.889 179.232L202.22 180.406L196.67 180.957Z" fill="white"/>
</mask>
<g mask="url(#mask25_237_53799)">
<path d="M196.67 180.957L196.635 179.916C196.712 179.656 196.915 179.453 197.177 179.376C198.152 179.091 200.586 178.496 201.889 179.232L202.22 180.406L196.67 180.957Z" fill="url(#paint25_linear_237_53799)"/>
</g>
<mask id="mask26_237_53799" style="mask-type:luminance" maskUnits="userSpaceOnUse" x="197" y="175" width="4" height="5">
<path d="M199.654 179.569C199.432 179.654 199.202 179.683 198.965 179.656C198.677 179.623 198.449 179.399 198.413 179.114L197.957 175.55L199.598 175.341L200.053 178.902C200.09 179.188 199.925 179.464 199.654 179.569Z" fill="white"/>
</mask>
<g mask="url(#mask26_237_53799)">
<path d="M199.654 179.569C199.432 179.654 199.202 179.683 198.965 179.656C198.677 179.623 198.449 179.399 198.413 179.114L197.957 175.55L199.598 175.341L200.053 178.902C200.09 179.188 199.925 179.464 199.654 179.569Z" fill="url(#paint26_linear_237_53799)"/>
</g>
<mask id="mask27_237_53799" style="mask-type:luminance" maskUnits="userSpaceOnUse" x="180" y="171" width="21" height="8">
<path d="M182.046 178.735L199.614 175.893C200.015 175.828 200.319 175.494 200.338 175.091C200.364 174.526 200.344 173.689 200.107 172.848C199.838 171.891 198.906 171.275 197.914 171.378C194.612 171.72 186.234 172.795 181.849 175.213C181.385 175.468 181.076 175.932 181.018 176.456C180.961 176.957 180.966 177.614 181.205 178.254C181.331 178.594 181.686 178.793 182.046 178.735Z" fill="white"/>
</mask>
<g mask="url(#mask27_237_53799)">
<path d="M182.046 178.735L199.614 175.893C200.015 175.828 200.319 175.494 200.338 175.091C200.364 174.526 200.344 173.689 200.107 172.848C199.838 171.891 198.906 171.275 197.914 171.378C194.612 171.72 186.234 172.795 181.849 175.213C181.385 175.468 181.076 175.932 181.018 176.456C180.961 176.957 180.966 177.614 181.205 178.254C181.331 178.594 181.686 178.793 182.046 178.735Z" fill="url(#paint27_linear_237_53799)"/>
</g>
<path d="M181.612 178.032C181.497 178.032 181.393 177.953 181.366 177.837C181.359 177.808 181.203 177.122 181.298 176.431C181.376 175.869 181.75 175.377 182.273 175.148C183.227 174.73 185.058 173.993 186.607 173.751C186.745 173.728 186.874 173.824 186.896 173.962C186.917 174.099 186.823 174.229 186.685 174.251C185.137 174.493 183.225 175.282 182.476 175.611C182.107 175.772 181.854 176.105 181.799 176.499C181.716 177.1 181.857 177.716 181.859 177.723C181.89 177.859 181.805 177.994 181.67 178.026C181.65 178.03 181.631 178.032 181.612 178.032Z" fill="#BDD0FB"/>
<mask id="mask28_237_53799" style="mask-type:luminance" maskUnits="userSpaceOnUse" x="171" y="179" width="44" height="20">
<path d="M172.543 183.637C178.234 182.835 202.859 179.421 210.133 179.368C210.759 179.363 211.32 179.751 211.531 180.337C212.199 182.197 213.619 186.533 214.082 190.952C214.145 191.552 213.77 192.115 213.193 192.303L197.238 197.488L191.431 198.231L173.566 196.998C172.936 196.954 172.417 196.492 172.306 195.874C171.909 193.672 171.067 188.493 171.237 185.068C171.274 184.34 171.819 183.74 172.543 183.637Z" fill="white"/>
</mask>
<g mask="url(#mask28_237_53799)">
<path d="M172.543 183.637C178.234 182.835 202.859 179.421 210.133 179.368C210.759 179.363 211.32 179.751 211.531 180.337C212.199 182.197 213.619 186.533 214.082 190.952C214.145 191.552 213.77 192.115 213.193 192.303L197.238 197.488L191.431 198.231L173.566 196.998C172.936 196.954 172.417 196.492 172.306 195.874C171.909 193.672 171.067 188.493 171.237 185.068C171.274 184.34 171.819 183.74 172.543 183.637Z" fill="url(#paint28_linear_237_53799)"/>
</g>
<path d="M207.317 181.007C207.268 181.007 207.226 180.968 207.223 180.918C207.22 180.866 207.259 180.821 207.311 180.817C207.575 180.799 207.827 180.784 208.069 180.77C208.132 180.765 208.166 180.808 208.169 180.859C208.172 180.912 208.132 180.956 208.08 180.96C207.838 180.973 207.587 180.989 207.324 181.006L207.317 181.007ZM204.796 181.204C204.748 181.204 204.706 181.167 204.702 181.117C204.698 181.065 204.736 181.019 204.789 181.015C205.047 180.992 205.299 180.97 205.545 180.95C205.603 180.943 205.643 180.985 205.647 181.037C205.651 181.089 205.612 181.135 205.56 181.139C205.315 181.159 205.063 181.18 204.805 181.203L204.796 181.204ZM210.325 181.286C210.287 181.286 210.249 181.262 210.236 181.222C210.194 181.1 210.153 180.987 210.116 180.884C210.029 180.884 209.938 180.885 209.844 180.887C209.8 180.889 209.749 180.846 209.747 180.794C209.746 180.741 209.789 180.698 209.841 180.698C209.945 180.696 210.045 180.694 210.142 180.694C210.206 180.694 210.262 180.73 210.282 180.784C210.323 180.898 210.367 181.023 210.415 181.16C210.432 181.209 210.406 181.264 210.357 181.281C210.346 181.285 210.336 181.286 210.325 181.286ZM202.28 181.438C202.231 181.438 202.19 181.402 202.185 181.353C202.18 181.301 202.218 181.255 202.27 181.249C202.526 181.224 202.779 181.2 203.026 181.175C203.075 181.172 203.124 181.209 203.129 181.261C203.135 181.314 203.096 181.36 203.044 181.365C202.797 181.388 202.545 181.412 202.29 181.438H202.28ZM199.764 181.698C199.717 181.698 199.675 181.661 199.67 181.613C199.665 181.56 199.703 181.514 199.755 181.509L200.509 181.429C200.564 181.425 200.608 181.461 200.613 181.513C200.618 181.565 200.581 181.612 200.528 181.617L199.775 181.697L199.764 181.698ZM197.252 181.974C197.204 181.974 197.163 181.939 197.157 181.89C197.152 181.839 197.189 181.792 197.241 181.785L197.995 181.701C198.048 181.695 198.094 181.733 198.099 181.784C198.105 181.836 198.068 181.883 198.016 181.889L197.262 181.974L197.252 181.974ZM194.74 182.265C194.693 182.265 194.651 182.229 194.646 182.181C194.64 182.129 194.677 182.082 194.729 182.075L195.483 181.987C195.536 181.98 195.581 182.018 195.588 182.071C195.593 182.122 195.556 182.169 195.505 182.176L194.751 182.264L194.74 182.265ZM192.23 182.565C192.183 182.565 192.142 182.53 192.136 182.481C192.129 182.43 192.167 182.383 192.218 182.376L192.971 182.285C193.024 182.278 193.071 182.316 193.077 182.367C193.083 182.42 193.046 182.467 192.994 182.473L192.242 182.564L192.23 182.565ZM189.721 182.874C189.674 182.874 189.633 182.84 189.627 182.792C189.62 182.739 189.657 182.692 189.709 182.686L190.462 182.592C190.515 182.585 190.562 182.623 190.568 182.675C190.574 182.726 190.537 182.773 190.485 182.78L189.733 182.874L189.721 182.874ZM187.213 183.192C187.165 183.192 187.125 183.157 187.118 183.109C187.112 183.057 187.149 183.009 187.201 183.003L187.954 182.908C188.008 182.899 188.052 182.937 188.06 182.989C188.066 183.041 188.029 183.089 187.977 183.095L187.225 183.191L187.213 183.192ZM184.705 183.516C184.658 183.516 184.617 183.481 184.611 183.433C184.605 183.381 184.641 183.334 184.693 183.327L185.445 183.229C185.498 183.221 185.545 183.259 185.551 183.311C185.558 183.363 185.521 183.41 185.47 183.417L184.717 183.515L184.705 183.516ZM211.101 183.694C211.06 183.694 211.022 183.668 211.01 183.626C210.935 183.374 210.862 183.132 210.79 182.901C210.774 182.852 210.803 182.798 210.852 182.783C210.902 182.768 210.955 182.795 210.971 182.845C211.043 183.077 211.117 183.319 211.192 183.572C211.207 183.622 211.179 183.676 211.128 183.69C211.119 183.693 211.11 183.694 211.101 183.694ZM182.197 183.846C182.15 183.846 182.11 183.811 182.103 183.763C182.097 183.711 182.133 183.664 182.185 183.657L182.937 183.558C182.988 183.551 183.037 183.588 183.044 183.639C183.05 183.691 183.014 183.739 182.962 183.745L182.21 183.845L182.197 183.846ZM179.691 184.181C179.645 184.181 179.603 184.146 179.597 184.099C179.59 184.047 179.627 183.999 179.678 183.993L180.43 183.891C180.485 183.883 180.53 183.921 180.537 183.972C180.544 184.024 180.507 184.072 180.456 184.079L179.704 184.18L179.691 184.181ZM177.186 184.521C177.139 184.521 177.098 184.488 177.091 184.44C177.084 184.388 177.121 184.34 177.172 184.333L177.924 184.23C177.982 184.223 178.024 184.259 178.031 184.311C178.038 184.363 178.001 184.411 177.95 184.418L177.198 184.521L177.186 184.521ZM174.68 184.868C174.633 184.868 174.592 184.833 174.586 184.785C174.579 184.733 174.615 184.686 174.667 184.678L175.418 184.574C175.47 184.568 175.518 184.603 175.525 184.655C175.532 184.707 175.496 184.755 175.444 184.762L174.693 184.866L174.68 184.868ZM172.64 185.666H172.637C172.585 185.665 172.543 185.621 172.545 185.569C172.548 185.421 172.554 185.276 172.56 185.134C172.565 185.039 172.634 184.963 172.728 184.95L172.913 184.923C172.967 184.917 173.012 184.952 173.02 185.004C173.027 185.056 172.991 185.104 172.939 185.112L172.754 185.138C172.743 185.284 172.738 185.427 172.734 185.573C172.733 185.625 172.691 185.666 172.64 185.666ZM211.761 186.135C211.718 186.135 211.679 186.106 211.669 186.063C211.608 185.814 211.546 185.569 211.484 185.328C211.47 185.278 211.501 185.227 211.551 185.213C211.604 185.201 211.654 185.231 211.667 185.281C211.73 185.522 211.792 185.768 211.853 186.018C211.866 186.069 211.834 186.121 211.783 186.133C211.776 186.135 211.768 186.135 211.761 186.135ZM172.712 188.193C172.662 188.193 172.62 188.155 172.617 188.105C172.599 187.85 172.585 187.596 172.572 187.346C172.57 187.293 172.61 187.249 172.663 187.246H172.667C172.718 187.246 172.759 187.286 172.762 187.337C172.774 187.585 172.788 187.838 172.806 188.092C172.809 188.145 172.771 188.19 172.718 188.193H172.712ZM212.291 188.608C212.247 188.608 212.206 188.576 212.198 188.531C212.152 188.281 212.104 188.032 212.054 187.787C212.045 187.736 212.078 187.686 212.129 187.675C212.182 187.665 212.23 187.698 212.24 187.749C212.29 187.996 212.339 188.245 212.385 188.496C212.394 188.548 212.36 188.597 212.308 188.607L212.291 188.608ZM172.951 190.711C172.903 190.711 172.862 190.676 172.856 190.628C172.827 190.378 172.799 190.126 172.772 189.873C172.767 189.82 172.805 189.774 172.856 189.769C172.91 189.762 172.955 189.801 172.961 189.853C172.987 190.105 173.016 190.356 173.045 190.605C173.051 190.658 173.014 190.705 172.961 190.711H172.951ZM212.627 191.087C212.586 191.087 212.549 191.062 212.536 191.022C212.526 190.99 212.534 190.955 212.555 190.93C212.53 190.711 212.504 190.492 212.475 190.274C212.468 190.222 212.505 190.174 212.556 190.167C212.607 190.158 212.656 190.197 212.663 190.249C212.695 190.49 212.724 190.732 212.75 190.973L212.759 191.049L212.656 191.083C212.646 191.087 212.636 191.087 212.627 191.087ZM210.222 191.869C210.182 191.869 210.145 191.843 210.132 191.804C210.116 191.754 210.143 191.7 210.193 191.684L210.914 191.45C210.964 191.434 211.018 191.461 211.034 191.51C211.05 191.56 211.022 191.614 210.973 191.63L210.252 191.864C210.242 191.868 210.232 191.869 210.222 191.869ZM207.818 192.65C207.778 192.65 207.741 192.625 207.728 192.585C207.711 192.536 207.739 192.481 207.789 192.465L208.51 192.231C208.559 192.215 208.614 192.242 208.629 192.292C208.646 192.342 208.618 192.395 208.568 192.411L207.847 192.646C207.837 192.649 207.828 192.65 207.818 192.65ZM173.29 193.219C173.243 193.219 173.203 193.185 173.196 193.138C173.159 192.895 173.122 192.644 173.086 192.386C173.079 192.334 173.114 192.287 173.166 192.279C173.215 192.271 173.266 192.308 173.274 192.359C173.31 192.616 173.346 192.867 173.384 193.11C173.391 193.161 173.355 193.21 173.303 193.217L173.29 193.219ZM205.414 193.432C205.374 193.432 205.337 193.406 205.324 193.366C205.307 193.317 205.335 193.263 205.385 193.247L206.105 193.013C206.155 192.996 206.209 193.024 206.225 193.073C206.241 193.123 206.214 193.177 206.164 193.193L205.443 193.427C205.433 193.431 205.424 193.432 205.414 193.432ZM203.01 194.213C202.97 194.213 202.932 194.188 202.919 194.148C202.903 194.098 202.931 194.044 202.98 194.028L203.701 193.794C203.751 193.778 203.805 193.805 203.821 193.854C203.837 193.905 203.81 193.958 203.76 193.974L203.039 194.209C203.029 194.212 203.02 194.213 203.01 194.213ZM200.605 194.995C200.566 194.995 200.528 194.969 200.515 194.929C200.498 194.88 200.527 194.826 200.576 194.81L201.297 194.576C201.347 194.56 201.401 194.586 201.417 194.636C201.433 194.686 201.406 194.74 201.356 194.756L200.635 194.99C200.625 194.993 200.615 194.995 200.605 194.995ZM173.734 195.68H173.727L173.616 195.672L173.603 195.599C173.565 195.391 173.523 195.152 173.477 194.889C173.468 194.837 173.503 194.788 173.555 194.779C173.609 194.771 173.656 194.805 173.665 194.856C173.705 195.093 173.743 195.309 173.777 195.502C173.81 195.519 173.831 195.553 173.828 195.592C173.825 195.642 173.783 195.68 173.734 195.68ZM198.201 195.776C198.161 195.776 198.124 195.751 198.111 195.711C198.094 195.661 198.122 195.607 198.171 195.591L198.893 195.357C198.943 195.341 198.996 195.368 199.012 195.417C199.028 195.468 199.001 195.521 198.952 195.537L198.23 195.772C198.221 195.775 198.211 195.776 198.201 195.776ZM176.256 195.854H176.249L175.492 195.802C175.441 195.798 175.401 195.753 175.404 195.7C175.408 195.649 175.454 195.609 175.505 195.612L176.262 195.665C176.315 195.669 176.353 195.714 176.35 195.766C176.347 195.816 176.306 195.854 176.256 195.854ZM178.778 196.029L178.771 196.028L178.014 195.976C177.963 195.972 177.923 195.927 177.927 195.875C177.93 195.823 177.977 195.784 178.028 195.787L178.784 195.839C178.837 195.843 178.876 195.888 178.872 195.94C178.869 195.99 178.827 196.029 178.778 196.029ZM181.3 196.203H181.293L180.537 196.15C180.485 196.147 180.445 196.102 180.449 196.049C180.452 195.997 180.5 195.958 180.55 195.961L181.306 196.013C181.359 196.017 181.398 196.063 181.394 196.114C181.391 196.165 181.35 196.203 181.3 196.203ZM195.748 196.342C195.701 196.342 195.661 196.307 195.654 196.258C195.648 196.207 195.684 196.159 195.736 196.152L196.489 196.056C196.548 196.051 196.588 196.087 196.595 196.139C196.601 196.19 196.565 196.238 196.513 196.245L195.76 196.341L195.748 196.342ZM183.822 196.377L183.815 196.376L183.059 196.325C183.007 196.321 182.967 196.275 182.971 196.224C182.974 196.171 183.023 196.133 183.072 196.135L183.828 196.187C183.881 196.191 183.92 196.237 183.916 196.289C183.913 196.338 183.872 196.377 183.822 196.377ZM186.344 196.551H186.337L185.58 196.499C185.529 196.495 185.489 196.45 185.492 196.397C185.496 196.346 185.546 196.308 185.593 196.309L186.35 196.362C186.403 196.365 186.442 196.41 186.438 196.463C186.435 196.512 186.393 196.551 186.344 196.551ZM193.24 196.663C193.194 196.663 193.153 196.627 193.147 196.579C193.14 196.528 193.177 196.48 193.228 196.473L193.981 196.377C194.041 196.371 194.081 196.408 194.087 196.459C194.093 196.511 194.057 196.558 194.005 196.566L193.253 196.662L193.24 196.663ZM188.866 196.725H188.859L188.103 196.673C188.051 196.669 188.011 196.624 188.014 196.571C188.018 196.52 188.062 196.482 188.115 196.484L188.872 196.536C188.925 196.54 188.964 196.585 188.96 196.637C188.957 196.687 188.915 196.725 188.866 196.725ZM191.4 196.899L190.625 196.847C190.573 196.843 190.533 196.798 190.536 196.746C190.54 196.693 190.585 196.654 190.638 196.658L191.394 196.71L191.474 196.698C191.53 196.691 191.573 196.728 191.58 196.78C191.586 196.832 191.55 196.879 191.498 196.886L191.4 196.899Z" fill="white"/>
<mask id="mask29_237_53799" style="mask-type:luminance" maskUnits="userSpaceOnUse" x="189" y="192" width="10" height="9">
<path d="M197.003 199.997L191.915 200.648C191.248 200.732 190.623 200.309 190.46 199.659L189.245 194.839C189.052 194.071 189.576 193.306 190.365 193.205L196.477 192.423C197.251 192.325 197.942 192.907 197.972 193.682L198.162 198.634C198.188 199.318 197.685 199.909 197.003 199.997Z" fill="white"/>
</mask>
<g mask="url(#mask29_237_53799)">
<path d="M197.003 199.997L191.915 200.648C191.248 200.732 190.623 200.309 190.46 199.659L189.245 194.839C189.052 194.071 189.576 193.306 190.365 193.205L196.477 192.423C197.251 192.325 197.942 192.907 197.972 193.682L198.162 198.634C198.188 199.318 197.685 199.909 197.003 199.997Z" fill="url(#paint29_linear_237_53799)"/>
</g>
<mask id="mask30_237_53799" style="mask-type:luminance" maskUnits="userSpaceOnUse" x="190" y="193" width="8" height="7">
<path d="M196.261 199.176L192.389 199.672C191.882 199.736 191.406 199.414 191.281 198.92L190.357 195.25C190.21 194.666 190.609 194.084 191.209 194.007L195.862 193.412C196.45 193.337 196.976 193.78 196.999 194.37L197.143 198.139C197.164 198.659 196.78 199.11 196.261 199.176Z" fill="white"/>
</mask>
<g mask="url(#mask30_237_53799)">
<path d="M196.261 199.176L192.389 199.672C191.882 199.736 191.406 199.414 191.281 198.92L190.357 195.25C190.21 194.666 190.609 194.084 191.209 194.007L195.862 193.412C196.45 193.337 196.976 193.78 196.999 194.37L197.143 198.139C197.164 198.659 196.78 199.11 196.261 199.176Z" fill="url(#paint30_linear_237_53799)"/>
</g>
<mask id="mask31_237_53799" style="mask-type:luminance" maskUnits="userSpaceOnUse" x="186" y="159" width="17" height="22">
<path d="M193.235 160.159C194.435 165.118 194.466 169.97 194.284 171.736C194.215 172.402 193.68 172.922 193.012 172.969C192.253 173.022 191.221 173.092 190.298 173.144C189.284 173.204 188.158 172.562 187.405 172.026C187.021 171.753 186.523 172.179 186.738 172.599C187.108 173.322 187.75 173.892 188.388 174.377C188.771 174.668 190.046 175.186 189.958 175.76C189.929 175.941 189.82 176.098 189.703 176.239C188.994 177.089 187.922 177.543 186.865 177.868C186.732 177.909 186.592 177.952 186.498 178.054C186.472 178.739 188.576 179.499 189.12 179.679C189.933 179.949 190.796 180.064 191.651 179.973C193.768 179.751 195.724 178.289 196.864 176.527C199.913 171.816 201.489 166.127 202.065 161.776C199.229 158.941 194.947 159.66 193.235 160.159Z" fill="white"/>
</mask>
<g mask="url(#mask31_237_53799)">
<path d="M193.235 160.159C194.435 165.118 194.466 169.97 194.284 171.736C194.215 172.402 193.68 172.922 193.012 172.969C192.253 173.022 191.221 173.092 190.298 173.144C189.284 173.204 188.158 172.562 187.405 172.026C187.021 171.753 186.523 172.179 186.738 172.599C187.108 173.322 187.75 173.892 188.388 174.377C188.771 174.668 190.046 175.186 189.958 175.76C189.929 175.941 189.82 176.098 189.703 176.239C188.994 177.089 187.922 177.543 186.865 177.868C186.732 177.909 186.592 177.952 186.498 178.054C186.472 178.739 188.576 179.499 189.12 179.679C189.933 179.949 190.796 180.064 191.651 179.973C193.768 179.751 195.724 178.289 196.864 176.527C199.913 171.816 201.489 166.127 202.065 161.776C199.229 158.941 194.947 159.66 193.235 160.159Z" fill="url(#paint31_linear_237_53799)"/>
</g>
<mask id="mask32_237_53799" style="mask-type:luminance" maskUnits="userSpaceOnUse" x="183" y="132" width="20" height="31">
<path d="M202.065 162.224C204.326 145.138 191.16 132.001 191.16 132.001L183.326 141.134C189.273 148.547 192.101 155.341 193.392 160.677C195.105 160.178 199.229 159.389 202.065 162.224Z" fill="white"/>
</mask>
<g mask="url(#mask32_237_53799)">
<path d="M202.065 162.224C204.326 145.138 191.16 132.001 191.16 132.001L183.326 141.134C189.273 148.547 192.101 155.341 193.392 160.677C195.105 160.178 199.229 159.389 202.065 162.224Z" fill="url(#paint32_linear_237_53799)"/>
</g>
<mask id="mask33_237_53799" style="mask-type:luminance" maskUnits="userSpaceOnUse" x="182" y="140" width="12" height="21">
<path d="M193.206 160.592C192.987 160.592 192.788 160.444 192.734 160.221C191.142 153.644 187.786 147.133 182.761 140.869C182.594 140.659 182.627 140.354 182.836 140.186C183.045 140.019 183.35 140.052 183.518 140.262C188.633 146.637 192.052 153.277 193.677 159.993C193.74 160.254 193.58 160.516 193.32 160.579C193.282 160.588 193.243 160.592 193.206 160.592Z" fill="white"/>
</mask>
<g mask="url(#mask33_237_53799)">
<path d="M193.206 160.592C192.987 160.592 192.788 160.444 192.734 160.221C191.142 153.644 187.786 147.133 182.761 140.869C182.594 140.659 182.627 140.354 182.836 140.186C183.045 140.019 183.35 140.052 183.518 140.262C188.633 146.637 192.052 153.277 193.677 159.993C193.74 160.254 193.58 160.516 193.32 160.579C193.282 160.588 193.243 160.592 193.206 160.592Z" fill="url(#paint33_linear_237_53799)"/>
</g>
<mask id="mask34_237_53799" style="mask-type:luminance" maskUnits="userSpaceOnUse" x="75" y="253" width="13" height="10">
<path d="M87.1084 261.882C87.1092 261.798 87.1035 261.713 87.0825 261.628C85.8227 256.634 79.5692 253.522 79.5692 253.522L77.0912 253.716C75.6665 258.119 75.8496 260.819 76.0784 262.022C76.0847 262.055 76.0949 262.088 76.1039 262.12C78.148 262.303 82.3554 262.422 87.1084 261.882Z" fill="white"/>
</mask>
<g mask="url(#mask34_237_53799)">
<path d="M87.1084 261.882C87.1092 261.798 87.1035 261.713 87.0825 261.628C85.8227 256.634 79.5692 253.522 79.5692 253.522L77.0912 253.716C75.6665 258.119 75.8496 260.819 76.0784 262.022C76.0847 262.055 76.0949 262.088 76.1039 262.12C78.148 262.303 82.3554 262.422 87.1084 261.882Z" fill="url(#paint34_linear_237_53799)"/>
</g>
<mask id="mask35_237_53799" style="mask-type:luminance" maskUnits="userSpaceOnUse" x="76" y="261" width="12" height="3">
<path d="M76.1035 262.12C76.2139 262.522 76.5103 262.835 76.8898 262.914C79.7975 263.526 84.4194 263.034 86.3592 262.78C86.7878 262.724 87.1007 262.328 87.108 261.882C82.355 262.422 78.1476 262.303 76.1035 262.12Z" fill="white"/>
</mask>
<g mask="url(#mask35_237_53799)">
<path d="M76.1035 262.12C76.2139 262.522 76.5103 262.835 76.8898 262.914C79.7975 263.526 84.4194 263.034 86.3592 262.78C86.7878 262.724 87.1007 262.328 87.108 261.882C82.355 262.422 78.1476 262.303 76.1035 262.12Z" fill="url(#paint35_linear_237_53799)"/>
</g>
<mask id="mask36_237_53799" style="mask-type:luminance" maskUnits="userSpaceOnUse" x="76" y="250" width="5" height="6">
<path d="M76.0957 250.026L77.1452 255.078C77.2221 255.448 77.5066 255.726 77.8511 255.758C78.2729 255.798 78.8733 255.82 79.477 255.732C80.0185 255.652 80.3955 255.102 80.2996 254.512L79.57 250.026H76.0957Z" fill="white"/>
</mask>
<g mask="url(#mask36_237_53799)">
<path d="M76.0957 250.026L77.1452 255.078C77.2221 255.448 77.5066 255.726 77.8511 255.758C78.2729 255.798 78.8733 255.82 79.477 255.732C80.0185 255.652 80.3955 255.102 80.2996 254.512L79.57 250.026H76.0957Z" fill="url(#paint36_linear_237_53799)"/>
</g>
<mask id="mask37_237_53799" style="mask-type:luminance" maskUnits="userSpaceOnUse" x="92" y="261" width="18" height="2">
<path d="M97.8401 262.056C95.1029 261.979 93.6879 261.658 92.9561 261.358C92.9537 261.63 92.9553 261.907 92.9642 262.194C92.9739 262.501 93.2011 262.746 93.4801 262.744L108.506 262.646C108.986 262.643 109.266 262.088 109.059 261.648C107.088 261.81 102.071 262.175 97.8401 262.056Z" fill="white"/>
</mask>
<g mask="url(#mask37_237_53799)">
<path d="M97.8401 262.056C95.1029 261.979 93.6879 261.658 92.9561 261.358C92.9537 261.63 92.9553 261.907 92.9642 262.194C92.9739 262.501 93.2011 262.746 93.4801 262.744L108.506 262.646C108.986 262.643 109.266 262.088 109.059 261.648C107.088 261.81 102.071 262.175 97.8401 262.056Z" fill="url(#paint37_linear_237_53799)"/>
</g>
<mask id="mask38_237_53799" style="mask-type:luminance" maskUnits="userSpaceOnUse" x="92" y="254" width="18" height="9">
<path d="M109.06 261.648C109.041 261.61 109.026 261.57 109 261.535C107.673 259.681 104.293 255.988 97.6146 254.387L94.4101 254.286C94.4101 254.286 92.9837 256.765 92.957 261.358C93.6888 261.658 95.1039 261.979 97.841 262.056C102.072 262.175 107.089 261.81 109.06 261.648Z" fill="white"/>
</mask>
<g mask="url(#mask38_237_53799)">
<path d="M109.06 261.648C109.041 261.61 109.026 261.57 109 261.535C107.673 259.681 104.293 255.988 97.6146 254.387L94.4101 254.286C94.4101 254.286 92.9837 256.765 92.957 261.358C93.6888 261.658 95.1039 261.979 97.841 262.056C102.072 262.175 107.089 261.81 109.06 261.648Z" fill="url(#paint38_linear_237_53799)"/>
</g>
<mask id="mask39_237_53799" style="mask-type:luminance" maskUnits="userSpaceOnUse" x="93" y="248" width="6" height="8">
<path d="M93.6719 249.579C93.7228 249.815 94.3891 253.41 94.647 254.804C94.7085 255.135 94.9664 255.378 95.2737 255.395C95.8228 255.426 96.7074 255.43 97.4683 255.223C97.879 255.111 98.1548 254.693 98.1249 254.228L97.7667 248.542L93.6719 249.579Z" fill="white"/>
</mask>
<g mask="url(#mask39_237_53799)">
<path d="M93.6719 249.579C93.7228 249.815 94.3891 253.41 94.647 254.804C94.7085 255.135 94.9664 255.378 95.2737 255.395C95.8228 255.426 96.7074 255.43 97.4683 255.223C97.879 255.111 98.1548 254.693 98.1249 254.228L97.7667 248.542L93.6719 249.579Z" fill="url(#paint39_linear_237_53799)"/>
</g>
<mask id="mask40_237_53799" style="mask-type:luminance" maskUnits="userSpaceOnUse" x="70" y="178" width="29" height="74">
<path d="M91.2455 183.201C91.2455 183.201 95.6524 213.487 98.8334 249.527C98.8925 250.198 98.3572 250.783 97.6981 250.921C96.7262 251.126 95.2982 251.369 94.116 251.336C93.4845 251.318 92.9573 250.85 92.8506 250.227C91.767 243.873 84.0351 209.77 82.0064 202.264C82.0064 202.264 79.6751 234.146 80.4203 250.688C80.4388 251.099 80.1377 251.455 79.7287 251.503C79.1082 251.575 78.1158 251.629 76.8526 251.495C76.3732 251.444 75.9865 251.082 75.9179 250.605C75.1461 245.227 70.7038 213.216 70.8926 190.156C70.9032 188.856 72.4183 178.172 72.4183 178.172L91.2455 183.201Z" fill="white"/>
</mask>
<g mask="url(#mask40_237_53799)">
<path d="M91.2455 183.201C91.2455 183.201 95.6524 213.487 98.8334 249.527C98.8925 250.198 98.3572 250.783 97.6981 250.921C96.7262 251.126 95.2982 251.369 94.116 251.336C93.4845 251.318 92.9573 250.85 92.8506 250.227C91.767 243.873 84.0351 209.77 82.0064 202.264C82.0064 202.264 79.6751 234.146 80.4203 250.688C80.4388 251.099 80.1377 251.455 79.7287 251.503C79.1082 251.575 78.1158 251.629 76.8526 251.495C76.3732 251.444 75.9865 251.082 75.9179 250.605C75.1461 245.227 70.7038 213.216 70.8926 190.156C70.9032 188.856 72.4183 178.172 72.4183 178.172L91.2455 183.201Z" fill="url(#paint40_linear_237_53799)"/>
</g>
<mask id="mask41_237_53799" style="mask-type:luminance" maskUnits="userSpaceOnUse" x="70" y="127" width="30" height="60">
<path d="M71.7556 184.947C71.3024 184.786 70.9865 184.375 70.9372 183.896C70.3511 178.21 67.5132 142.954 85.4288 128.45C85.4288 128.45 86.4566 125.762 94.9016 132.37C103.347 138.978 98.825 145.903 96.8035 155.457C94.3566 167.017 90.0638 176.466 91.9632 183.58C92.0942 184.071 91.8362 184.586 91.3599 184.762C84.7997 187.18 78.2644 187.26 71.7556 184.947Z" fill="white"/>
</mask>
<g mask="url(#mask41_237_53799)">
<path d="M71.7556 184.947C71.3024 184.786 70.9865 184.375 70.9372 183.896C70.3511 178.21 67.5132 142.954 85.4288 128.45C85.4288 128.45 86.4566 125.762 94.9016 132.37C103.347 138.978 98.825 145.903 96.8035 155.457C94.3566 167.017 90.0638 176.466 91.9632 183.58C92.0942 184.071 91.8362 184.586 91.3599 184.762C84.7997 187.18 78.2644 187.26 71.7556 184.947Z" fill="url(#paint41_linear_237_53799)"/>
</g>
<mask id="mask42_237_53799" style="mask-type:luminance" maskUnits="userSpaceOnUse" x="85" y="117" width="13" height="17">
<path d="M92.4172 117.886C92.4115 118.388 85.2578 128.549 85.2578 128.549C85.2578 128.549 86.5419 131.078 92.6719 133.131L97.9634 122.252L92.4172 117.886Z" fill="white"/>
</mask>
<g mask="url(#mask42_237_53799)">
<path d="M92.4172 117.886C92.4115 118.388 85.2578 128.549 85.2578 128.549C85.2578 128.549 86.5419 131.078 92.6719 133.131L97.9634 122.252L92.4172 117.886Z" fill="url(#paint42_linear_237_53799)"/>
</g>
<mask id="mask43_237_53799" style="mask-type:luminance" maskUnits="userSpaceOnUse" x="87" y="112" width="14" height="15">
<path d="M98.0512 112.063C98.0512 112.063 100.597 117.911 100.767 120.981C100.939 124.049 101.6 126.041 98.0512 126.659C94.5022 127.277 91.5128 125.51 89.8932 122.452C89.8932 122.452 87.3558 117.741 87.925 115.812C88.4943 113.883 98.0512 112.063 98.0512 112.063Z" fill="white"/>
</mask>
<g mask="url(#mask43_237_53799)">
<path d="M98.0512 112.063C98.0512 112.063 100.597 117.911 100.767 120.981C100.939 124.049 101.6 126.041 98.0512 126.659C94.5022 127.277 91.5128 125.51 89.8932 122.452C89.8932 122.452 87.3558 117.741 87.925 115.812C88.4943 113.883 98.0512 112.063 98.0512 112.063Z" fill="url(#paint43_linear_237_53799)"/>
</g>
<mask id="mask44_237_53799" style="mask-type:luminance" maskUnits="userSpaceOnUse" x="83" y="105" width="19" height="19">
<path d="M91.1048 120.254L91.307 120.165C91.5641 120.051 91.6741 119.745 91.5447 119.496C91.0442 118.529 90.069 116.313 91.3288 115.796C92.9533 115.13 99.3866 113.818 100.775 111.535C102.109 109.341 100.927 106.509 99.1505 105.703C99.0316 105.649 98.8917 105.692 98.8303 105.808L98.6823 106.088C98.5812 106.28 98.2974 106.251 98.2375 106.042C98.1793 105.843 97.9133 105.804 97.8033 105.98C97.3764 106.663 96.2249 107.77 93.1441 108.339C88.7664 109.147 85.8715 110.918 85.7996 113.944C85.7947 114.136 85.5902 114.243 85.426 114.143C85.1034 113.946 84.5859 113.853 83.8945 114.435C82.6921 115.446 83.1846 118.068 85.8198 120.225C85.9451 120.328 85.9443 120.524 85.8085 120.612C85.3306 120.923 84.6182 121.663 86.4643 122.649C88.3734 123.67 89.7989 123.587 90.348 123.495C90.4838 123.473 90.572 123.341 90.5421 123.206L89.9566 120.547C89.9235 120.397 90.0383 120.254 90.1919 120.254H91.1048Z" fill="white"/>
</mask>
<g mask="url(#mask44_237_53799)">
<path d="M91.1048 120.254L91.307 120.165C91.5641 120.051 91.6741 119.745 91.5447 119.496C91.0442 118.529 90.069 116.313 91.3288 115.796C92.9533 115.13 99.3866 113.818 100.775 111.535C102.109 109.341 100.927 106.509 99.1505 105.703C99.0316 105.649 98.8917 105.692 98.8303 105.808L98.6823 106.088C98.5812 106.28 98.2974 106.251 98.2375 106.042C98.1793 105.843 97.9133 105.804 97.8033 105.98C97.3764 106.663 96.2249 107.77 93.1441 108.339C88.7664 109.147 85.8715 110.918 85.7996 113.944C85.7947 114.136 85.5902 114.243 85.426 114.143C85.1034 113.946 84.5859 113.853 83.8945 114.435C82.6921 115.446 83.1846 118.068 85.8198 120.225C85.9451 120.328 85.9443 120.524 85.8085 120.612C85.3306 120.923 84.6182 121.663 86.4643 122.649C88.3734 123.67 89.7989 123.587 90.348 123.495C90.4838 123.473 90.572 123.341 90.5421 123.206L89.9566 120.547C89.9235 120.397 90.0383 120.254 90.1919 120.254H91.1048Z" fill="url(#paint44_linear_237_53799)"/>
</g>
<mask id="mask45_237_53799" style="mask-type:luminance" maskUnits="userSpaceOnUse" x="88" y="117" width="4" height="6">
<path d="M91.2153 120.815C91.2153 120.815 90.2442 117.08 88.5696 118.127C86.895 119.174 89.4388 122.312 90.7852 122.452L91.2153 120.815Z" fill="white"/>
</mask>
<g mask="url(#mask45_237_53799)">
<path d="M91.2153 120.815C91.2153 120.815 90.2442 117.08 88.5696 118.127C86.895 119.174 89.4388 122.312 90.7852 122.452L91.2153 120.815Z" fill="url(#paint45_linear_237_53799)"/>
</g>
<mask id="mask46_237_53799" style="mask-type:luminance" maskUnits="userSpaceOnUse" x="97" y="135" width="10" height="15">
<path d="M97.6191 135.436L98.1124 148.683C99.5137 149.165 100.847 149.54 102.117 149.82C102.911 147.263 104.661 144.124 106.093 141.789C100.83 139.929 97.6191 135.436 97.6191 135.436Z" fill="white"/>
</mask>
<g mask="url(#mask46_237_53799)">
<path d="M97.6191 135.436L98.1124 148.683C99.5137 149.165 100.847 149.54 102.117 149.82C102.911 147.263 104.661 144.124 106.093 141.789C100.83 139.929 97.6191 135.436 97.6191 135.436Z" fill="url(#paint46_linear_237_53799)"/>
</g>
<mask id="mask47_237_53799" style="mask-type:luminance" maskUnits="userSpaceOnUse" x="102" y="135" width="24" height="16">
<path d="M123.895 135.211C116.675 143.005 110.832 143.465 106.093 141.789C104.661 144.124 102.911 147.263 102.117 149.82C121.397 154.071 125.936 136.347 125.936 136.347L123.895 135.211Z" fill="white"/>
</mask>
<g mask="url(#mask47_237_53799)">
<path d="M123.895 135.211C116.675 143.005 110.832 143.465 106.093 141.789C104.661 144.124 102.911 147.263 102.117 149.82C121.397 154.071 125.936 136.347 125.936 136.347L123.895 135.211Z" fill="url(#paint47_linear_237_53799)"/>
</g>
<mask id="mask48_237_53799" style="mask-type:luminance" maskUnits="userSpaceOnUse" x="125" y="133" width="8" height="4">
<path d="M125.359 134.383C125.359 134.383 126.191 133.49 127.73 133.77C129.27 134.051 130.64 134.586 131.599 133.77C132.558 132.955 132.895 134.049 132.895 134.049L130.023 136.232L125.359 134.383Z" fill="white"/>
</mask>
<g mask="url(#mask48_237_53799)">
<path d="M125.359 134.383C125.359 134.383 126.191 133.49 127.73 133.77C129.27 134.051 130.64 134.586 131.599 133.77C132.558 132.955 132.895 134.049 132.895 134.049L130.023 136.232L125.359 134.383Z" fill="url(#paint48_linear_237_53799)"/>
</g>
<mask id="mask49_237_53799" style="mask-type:luminance" maskUnits="userSpaceOnUse" x="123" y="133" width="15" height="6">
<path d="M123.641 135.91C123.641 135.91 124.211 133.527 125.927 133.853C127.645 134.18 131.543 136.3 132.548 135.91C133.553 135.519 134.837 134.584 135.496 134.914L134.336 136.358C134.336 136.358 137.321 134.636 137.834 135.694L132.868 138.488C132.868 138.488 125.602 137.761 123.641 135.91Z" fill="white"/>
</mask>
<g mask="url(#mask49_237_53799)">
<path d="M123.641 135.91C123.641 135.91 124.211 133.527 125.927 133.853C127.645 134.18 131.543 136.3 132.548 135.91C133.553 135.519 134.837 134.584 135.496 134.914L134.336 136.358C134.336 136.358 137.321 134.636 137.834 135.694L132.868 138.488C132.868 138.488 125.602 137.761 123.641 135.91Z" fill="url(#paint49_linear_237_53799)"/>
</g>
<mask id="mask50_237_53799" style="mask-type:luminance" maskUnits="userSpaceOnUse" x="89" y="144" width="42" height="19">
<path d="M89.6055 152.774C89.6055 152.774 103.179 164.141 117.835 159.181C118.744 158.873 119.738 158.94 120.586 159.388L124.8 161.614C126.568 162.548 128.759 161.935 129.785 160.218C130.37 159.239 130.87 158.121 130.97 157.049L122.724 153.711L123.332 152.7C123.332 152.7 119.307 152.359 118.254 155.244C118.254 155.244 110.586 158.433 97.6551 144.211C97.6551 144.211 91.7879 149.2 89.6055 152.774Z" fill="white"/>
</mask>
<g mask="url(#mask50_237_53799)">
<path d="M89.6055 152.774C89.6055 152.774 103.179 164.141 117.835 159.181C118.744 158.873 119.738 158.94 120.586 159.388L124.8 161.614C126.568 162.548 128.759 161.935 129.785 160.218C130.37 159.239 130.87 158.121 130.97 157.049L122.724 153.711L123.332 152.7C123.332 152.7 119.307 152.359 118.254 155.244C118.254 155.244 110.586 158.433 97.6551 144.211C97.6551 144.211 91.7879 149.2 89.6055 152.774Z" fill="url(#paint50_linear_237_53799)"/>
</g>
<mask id="mask51_237_53799" style="mask-type:luminance" maskUnits="userSpaceOnUse" x="80" y="142" width="10" height="11">
<path d="M88.873 152.656C88.8286 152.656 88.7833 152.644 88.7437 152.616C83.0284 148.755 80.3398 142.523 80.3133 142.46C80.2634 142.341 80.3186 142.206 80.4365 142.155C80.5549 142.105 80.6908 142.16 80.7412 142.278C80.7671 142.34 83.4061 148.449 89.0032 152.231C89.11 152.303 89.1375 152.447 89.0655 152.554C89.021 152.62 88.9474 152.656 88.873 152.656Z" fill="white"/>
</mask>
<g mask="url(#mask51_237_53799)">
<path d="M88.873 152.656C88.8286 152.656 88.7833 152.644 88.7437 152.616C83.0284 148.755 80.3398 142.523 80.3133 142.46C80.2634 142.341 80.3186 142.206 80.4365 142.155C80.5549 142.105 80.6908 142.16 80.7412 142.278C80.7671 142.34 83.4061 148.449 89.0032 152.231C89.11 152.303 89.1375 152.447 89.0655 152.554C89.021 152.62 88.9474 152.656 88.873 152.656Z" fill="url(#paint51_linear_237_53799)"/>
</g>
<mask id="mask52_237_53799" style="mask-type:luminance" maskUnits="userSpaceOnUse" x="82" y="131" width="16" height="14">
<path d="M97.3871 144.018C97.3111 144.018 97.2359 143.981 97.1915 143.911C97.1745 143.884 95.4279 141.167 92.1029 135.212C91.08 133.381 89.7361 132.222 88.1084 131.766C85.4125 131.013 82.8145 132.458 82.7886 132.472C82.677 132.534 82.5355 132.497 82.4716 132.385C82.4085 132.274 82.4474 132.132 82.5589 132.069C82.6713 132.005 85.343 130.51 88.2289 131.318C89.9827 131.807 91.4229 133.041 92.5088 134.985C95.8257 140.925 97.565 143.633 97.582 143.659C97.6516 143.767 97.6208 143.911 97.5125 143.981C97.4737 144.006 97.43 144.018 97.3871 144.018Z" fill="white"/>
</mask>
<g mask="url(#mask52_237_53799)">
<path d="M97.3871 144.018C97.3111 144.018 97.2359 143.981 97.1915 143.911C97.1745 143.884 95.4279 141.167 92.1029 135.212C91.08 133.381 89.7361 132.222 88.1084 131.766C85.4125 131.013 82.8145 132.458 82.7886 132.472C82.677 132.534 82.5355 132.497 82.4716 132.385C82.4085 132.274 82.4474 132.132 82.5589 132.069C82.6713 132.005 85.343 130.51 88.2289 131.318C89.9827 131.807 91.4229 133.041 92.5088 134.985C95.8257 140.925 97.565 143.633 97.582 143.659C97.6516 143.767 97.6208 143.911 97.5125 143.981C97.4737 144.006 97.43 144.018 97.3871 144.018Z" fill="url(#paint52_linear_237_53799)"/>
</g>
<defs>
<linearGradient id="paint0_linear_237_53799" x1="268.832" y1="285.361" x2="107.288" y2="110.995" gradientUnits="userSpaceOnUse">
<stop stop-color="#DAE3FE"/>
<stop offset="1" stop-color="#E9EFFD"/>
</linearGradient>
<linearGradient id="paint1_linear_237_53799" x1="144.402" y1="66.0868" x2="79.8808" y2="66.0868" gradientUnits="userSpaceOnUse">
<stop stop-color="#2B3582"/>
<stop offset="1" stop-color="#150E42"/>
</linearGradient>
<linearGradient id="paint2_linear_237_53799" x1="60.8319" y1="94.2024" x2="205.461" y2="274.71" gradientUnits="userSpaceOnUse">
<stop stop-color="#4F52FF"/>
<stop offset="1" stop-color="#172755"/>
</linearGradient>
<linearGradient id="paint3_linear_237_53799" x1="258.144" y1="58.3076" x2="145.532" y2="122.892" gradientUnits="userSpaceOnUse">
<stop stop-color="#8794BA"/>
<stop offset="1" stop-color="#4042E2"/>
</linearGradient>
<linearGradient id="paint4_linear_237_53799" x1="163.713" y1="65.7091" x2="99.1917" y2="65.7091" gradientUnits="userSpaceOnUse">
<stop stop-color="#2B3582"/>
<stop offset="1" stop-color="#150E42"/>
</linearGradient>
<linearGradient id="paint5_linear_237_53799" x1="174.785" y1="247.974" x2="165.209" y2="-35.4858" gradientUnits="userSpaceOnUse">
<stop stop-color="#172755"/>
<stop offset="1" stop-color="#1A0F91"/>
</linearGradient>
<linearGradient id="paint6_linear_237_53799" x1="189.76" y1="50.3052" x2="141.869" y2="113.306" gradientUnits="userSpaceOnUse">
<stop stop-color="#09005D"/>
<stop offset="1" stop-color="#1A0F91"/>
</linearGradient>
<linearGradient id="paint7_linear_237_53799" x1="194.967" y1="54.3162" x2="147.075" y2="117.317" gradientUnits="userSpaceOnUse">
<stop stop-color="#09005D"/>
<stop offset="1" stop-color="#1A0F91"/>
</linearGradient>
<linearGradient id="paint8_linear_237_53799" x1="152.114" y1="141.416" x2="124.881" y2="161.472" gradientUnits="userSpaceOnUse">
<stop stop-color="#FEBBBA"/>
<stop offset="1" stop-color="#FF928E"/>
</linearGradient>
<linearGradient id="paint9_linear_237_53799" x1="179.85" y1="89.1693" x2="144.521" y2="169.211" gradientUnits="userSpaceOnUse">
<stop stop-color="#FF928E"/>
<stop offset="1" stop-color="#FC2F58"/>
</linearGradient>
<linearGradient id="paint10_linear_237_53799" x1="203.987" y1="99.7821" x2="168.657" y2="179.824" gradientUnits="userSpaceOnUse">
<stop stop-color="#FF928E"/>
<stop offset="1" stop-color="#FC2F58"/>
</linearGradient>
<linearGradient id="paint11_linear_237_53799" x1="174.277" y1="129.67" x2="170.46" y2="118.217" gradientUnits="userSpaceOnUse">
<stop stop-color="#FEBBBA"/>
<stop offset="1" stop-color="#FF928E"/>
</linearGradient>
<linearGradient id="paint12_linear_237_53799" x1="165.368" y1="115.608" x2="179.089" y2="121.573" gradientUnits="userSpaceOnUse">
<stop stop-color="#FEBBBA"/>
<stop offset="1" stop-color="#FF928E"/>
</linearGradient>
<linearGradient id="paint13_linear_237_53799" x1="175.29" y1="123.84" x2="164.055" y2="111.906" gradientUnits="userSpaceOnUse">
<stop stop-color="#09005D"/>
<stop offset="1" stop-color="#1A0F91"/>
</linearGradient>
<linearGradient id="paint14_linear_237_53799" x1="164.516" y1="117.578" x2="178.237" y2="123.544" gradientUnits="userSpaceOnUse">
<stop stop-color="#FEBBBA"/>
<stop offset="1" stop-color="#FF928E"/>
</linearGradient>
<linearGradient id="paint15_linear_237_53799" x1="191.423" y1="262.384" x2="174.371" y2="262.384" gradientUnits="userSpaceOnUse">
<stop stop-color="#09005D"/>
<stop offset="1" stop-color="#1A0F91"/>
</linearGradient>
<linearGradient id="paint16_linear_237_53799" x1="232.586" y1="246.436" x2="170.841" y2="264.035" gradientUnits="userSpaceOnUse">
<stop stop-color="#4F52FF"/>
<stop offset="1" stop-color="#4042E2"/>
</linearGradient>
<linearGradient id="paint17_linear_237_53799" x1="189.848" y1="254.376" x2="185.045" y2="254.376" gradientUnits="userSpaceOnUse">
<stop stop-color="#FEBBBA"/>
<stop offset="1" stop-color="#FF928E"/>
</linearGradient>
<linearGradient id="paint18_linear_237_53799" x1="225.418" y1="262.016" x2="218.883" y2="262.016" gradientUnits="userSpaceOnUse">
<stop stop-color="#09005D"/>
<stop offset="1" stop-color="#1A0F91"/>
</linearGradient>
<linearGradient id="paint19_linear_237_53799" x1="198.168" y1="242.85" x2="236.646" y2="267.906" gradientUnits="userSpaceOnUse">
<stop stop-color="#4F52FF"/>
<stop offset="1" stop-color="#4042E2"/>
</linearGradient>
<linearGradient id="paint20_linear_237_53799" x1="220.385" y1="250.372" x2="214.644" y2="250.372" gradientUnits="userSpaceOnUse">
<stop stop-color="#FEBBBA"/>
<stop offset="1" stop-color="#FF928E"/>
</linearGradient>
<linearGradient id="paint21_linear_237_53799" x1="194.634" y1="168.807" x2="200.714" y2="251.504" gradientUnits="userSpaceOnUse">
<stop stop-color="#172755"/>
<stop offset="1" stop-color="#172755"/>
</linearGradient>
<linearGradient id="paint22_linear_237_53799" x1="193.546" y1="215.84" x2="193.546" y2="198.313" gradientUnits="userSpaceOnUse">
<stop stop-color="#4F52FF"/>
<stop offset="1" stop-color="#4042E2"/>
</linearGradient>
<linearGradient id="paint23_linear_237_53799" x1="418.48" y1="-300.569" x2="411.981" y2="-287.215" gradientUnits="userSpaceOnUse">
<stop stop-color="#4F52FF"/>
<stop offset="1" stop-color="#4042E2"/>
</linearGradient>
<linearGradient id="paint24_linear_237_53799" x1="417.125" y1="-301.252" x2="410.626" y2="-287.898" gradientUnits="userSpaceOnUse">
<stop stop-color="#4F52FF"/>
<stop offset="1" stop-color="#4042E2"/>
</linearGradient>
<linearGradient id="paint25_linear_237_53799" x1="430.524" y1="-294.708" x2="424.025" y2="-281.354" gradientUnits="userSpaceOnUse">
<stop stop-color="#4F52FF"/>
<stop offset="1" stop-color="#4042E2"/>
</linearGradient>
<linearGradient id="paint26_linear_237_53799" x1="429.083" y1="-295.414" x2="422.584" y2="-282.06" gradientUnits="userSpaceOnUse">
<stop stop-color="#4F52FF"/>
<stop offset="1" stop-color="#4042E2"/>
</linearGradient>
<linearGradient id="paint27_linear_237_53799" x1="421.717" y1="-298.989" x2="415.218" y2="-285.635" gradientUnits="userSpaceOnUse">
<stop stop-color="#4F52FF"/>
<stop offset="1" stop-color="#4042E2"/>
</linearGradient>
<linearGradient id="paint28_linear_237_53799" x1="192.413" y1="175.508" x2="193.546" y2="230.488" gradientUnits="userSpaceOnUse">
<stop stop-color="#4F52FF"/>
<stop offset="1" stop-color="#4042E2"/>
</linearGradient>
<linearGradient id="paint29_linear_237_53799" x1="235.019" y1="144.952" x2="206.314" y2="180.832" gradientUnits="userSpaceOnUse">
<stop stop-color="#09005D"/>
<stop offset="1" stop-color="#1A0F91"/>
</linearGradient>
<linearGradient id="paint30_linear_237_53799" x1="223.421" y1="149.506" x2="197.752" y2="190.216" gradientUnits="userSpaceOnUse">
<stop stop-color="#4F52FF"/>
<stop offset="1" stop-color="#4042E2"/>
</linearGradient>
<linearGradient id="paint31_linear_237_53799" x1="211.987" y1="109.523" x2="190.906" y2="179.793" gradientUnits="userSpaceOnUse">
<stop stop-color="#FEBBBA"/>
<stop offset="1" stop-color="#FF928E"/>
</linearGradient>
<linearGradient id="paint32_linear_237_53799" x1="213.72" y1="104.044" x2="178.39" y2="184.086" gradientUnits="userSpaceOnUse">
<stop stop-color="#FF928E"/>
<stop offset="1" stop-color="#FC2F58"/>
</linearGradient>
<linearGradient id="paint33_linear_237_53799" x1="249.246" y1="77.5985" x2="186.87" y2="151.844" gradientUnits="userSpaceOnUse">
<stop stop-color="#FF928E"/>
<stop offset="1" stop-color="#FE7062"/>
</linearGradient>
<linearGradient id="paint34_linear_237_53799" x1="75.9219" y1="257.898" x2="87.1084" y2="257.898" gradientUnits="userSpaceOnUse">
<stop stop-color="#09005D"/>
<stop offset="1" stop-color="#1A0F91"/>
</linearGradient>
<linearGradient id="paint35_linear_237_53799" x1="103.938" y1="244.681" x2="63.2409" y2="276.636" gradientUnits="userSpaceOnUse">
<stop stop-color="#4F52FF"/>
<stop offset="1" stop-color="#4042E2"/>
</linearGradient>
<linearGradient id="paint36_linear_237_53799" x1="79.0412" y1="245.17" x2="76.9042" y2="263.819" gradientUnits="userSpaceOnUse">
<stop stop-color="#FEBBBA"/>
<stop offset="1" stop-color="#FF928E"/>
</linearGradient>
<linearGradient id="paint37_linear_237_53799" x1="111.161" y1="253.882" x2="70.4645" y2="285.837" gradientUnits="userSpaceOnUse">
<stop stop-color="#4F52FF"/>
<stop offset="1" stop-color="#4042E2"/>
</linearGradient>
<linearGradient id="paint38_linear_237_53799" x1="92.957" y1="258.182" x2="109.06" y2="258.182" gradientUnits="userSpaceOnUse">
<stop stop-color="#09005D"/>
<stop offset="1" stop-color="#1A0F91"/>
</linearGradient>
<linearGradient id="paint39_linear_237_53799" x1="96.1506" y1="247.13" x2="95.1911" y2="265.876" gradientUnits="userSpaceOnUse">
<stop stop-color="#FEBBBA"/>
<stop offset="1" stop-color="#FF928E"/>
</linearGradient>
<linearGradient id="paint40_linear_237_53799" x1="68.7698" y1="272.18" x2="95.5255" y2="179.749" gradientUnits="userSpaceOnUse">
<stop stop-color="#172755"/>
<stop offset="1" stop-color="#172755"/>
</linearGradient>
<linearGradient id="paint41_linear_237_53799" x1="201.863" y1="-26.0395" x2="152.39" y2="53.0592" gradientUnits="userSpaceOnUse">
<stop stop-color="#FF928E"/>
<stop offset="1" stop-color="#FC2F58"/>
</linearGradient>
<linearGradient id="paint42_linear_237_53799" x1="87.5581" y1="136.463" x2="92.521" y2="122.911" gradientUnits="userSpaceOnUse">
<stop stop-color="#FEBBBA"/>
<stop offset="1" stop-color="#FF928E"/>
</linearGradient>
<linearGradient id="paint43_linear_237_53799" x1="97.7385" y1="126.664" x2="90.9304" y2="109.919" gradientUnits="userSpaceOnUse">
<stop stop-color="#FEBBBA"/>
<stop offset="1" stop-color="#FF928E"/>
</linearGradient>
<linearGradient id="paint44_linear_237_53799" x1="120.274" y1="23.7804" x2="100.462" y2="86.9319" gradientUnits="userSpaceOnUse">
<stop stop-color="#09005D"/>
<stop offset="1" stop-color="#1A0F91"/>
</linearGradient>
<linearGradient id="paint45_linear_237_53799" x1="93.0667" y1="128.58" x2="86.2586" y2="111.836" gradientUnits="userSpaceOnUse">
<stop stop-color="#FEBBBA"/>
<stop offset="1" stop-color="#FF928E"/>
</linearGradient>
<linearGradient id="paint46_linear_237_53799" x1="86.6819" y1="158.018" x2="107.658" y2="133.546" gradientUnits="userSpaceOnUse">
<stop stop-color="#FF928E"/>
<stop offset="1" stop-color="#FC2F58"/>
</linearGradient>
<linearGradient id="paint47_linear_237_53799" x1="133.428" y1="134.105" x2="102.209" y2="149.635" gradientUnits="userSpaceOnUse">
<stop stop-color="#FEBBBA"/>
<stop offset="1" stop-color="#FF928E"/>
</linearGradient>
<linearGradient id="paint48_linear_237_53799" x1="132.974" y1="130.211" x2="122.295" y2="141.364" gradientUnits="userSpaceOnUse">
<stop stop-color="#FEBBBA"/>
<stop offset="1" stop-color="#FF928E"/>
</linearGradient>
<linearGradient id="paint49_linear_237_53799" x1="133.577" y1="133.907" x2="102.358" y2="149.436" gradientUnits="userSpaceOnUse">
<stop stop-color="#FEBBBA"/>
<stop offset="1" stop-color="#FF928E"/>
</linearGradient>
<linearGradient id="paint50_linear_237_53799" x1="127.131" y1="163.708" x2="84.0737" y2="141.628" gradientUnits="userSpaceOnUse">
<stop stop-color="#FEBBBA"/>
<stop offset="1" stop-color="#FF928E"/>
</linearGradient>
<linearGradient id="paint51_linear_237_53799" x1="200.244" y1="10.8021" x2="-1.24191" y2="249.271" gradientUnits="userSpaceOnUse">
<stop stop-color="#E1473D"/>
<stop offset="1" stop-color="#E9605A"/>
</linearGradient>
<linearGradient id="paint52_linear_237_53799" x1="198.516" y1="9.57565" x2="-2.96957" y2="248.044" gradientUnits="userSpaceOnUse">
<stop stop-color="#E1473D"/>
<stop offset="1" stop-color="#E9605A"/>
</linearGradient>
</defs>
</svg>
