<svg width="300" height="300" fill="none" xmlns="http://www.w3.org/2000/svg">
    <mask id="a" style="mask-type:luminance" maskUnits="userSpaceOnUse" x="41" y="36" width="219" height="221">
        <path d="M134.383 256.052c-2.215 0-4.409-.058-6.578-.173h13.26c-2.244.115-4.474.173-6.682.173Zm-33.718-4.026c-10.944-2.848-23.132-8.068-33.717-18.078-32.992-31.2-32.68-92.155-7.921-136.317l5.565 37.036a3.373 3.373 0 0 0 3.336 2.872h53.795V91.096H62.951a118.777 118.777 0 0 1 8.195-11.272c4.62-5.616 36.41-43.025 85.995-43.025.331 0 .664.002.997.005 36.721.371 62.496 21.115 65.629 23.698 3.96 3.266 12.692 11.023 20.562 23.33 18.492 28.918 20.117 69.287 6.282 101.623a104.88 104.88 0 0 1-4.013 8.345 16.956 16.956 0 0 0-6.485-1.28c-9.388 0-17 7.612-17 17 0 3.955 1.351 7.594 3.615 10.482-8.21 7.955-17.534 14.556-27.465 19.84l6.346-21.136c8.099-1.3 14.286-8.32 14.286-16.785 0-5.236-2.367-9.919-6.089-13.037l12.473-41.544a.42.42 0 0 0-.545-.516c-7.752 2.761-31.03 4.062-54.861 4.062-24.605 0-49.798-1.388-59.084-3.986a.698.698 0 0 0-.861.873l.746 2.494H79.482c-.998 0-1.763.887-1.614 1.875l6.265 41.695a3.373 3.373 0 0 0 3.335 2.872h39.078a7.674 7.674 0 0 0 4.492 2.139 325.905 325.905 0 0 0 37.268 2.135c5.848 0 11.729-.156 17.647-.473a17.054 17.054 0 0 0 .038 3.228 643.046 643.046 0 0 0-17.744-.234c-22.695 0-40.095.774-40.095 2.096v.01a.634.634 0 0 0-.456.798l.905 3.028h-31.39a2.536 2.536 0 0 0-2.507 2.912l5.961 39.678ZM177.763 40.77c-5.834 0-11.506 3.07-13.168 10.079-1.562 6.585.041 12.23 1.195 15.115.539 1.347.807 2.788.785 4.238-.046 3.017.63 8.229 5.637 9.463a6.751 6.751 0 0 0 1.627.205c2.959 0 4.959-2.135 6.152-4.038a13.024 13.024 0 0 1 4.579-4.412c2.948-1.677 7.186-4.864 9.302-10.104 3.439-8.515-2.386-16.435-9.816-19.35a17.344 17.344 0 0 0-6.293-1.196Z" fill="#fff"/>
    </mask>
    <g mask="url(#a)">
        <path d="M134.383 256.052c-2.215 0-4.409-.058-6.578-.173h13.26c-2.244.115-4.474.173-6.682.173Zm-33.718-4.026c-10.944-2.848-23.132-8.068-33.717-18.078-32.992-31.2-32.68-92.155-7.921-136.317l5.565 37.036a3.373 3.373 0 0 0 3.336 2.872h53.795V91.096H62.951a118.777 118.777 0 0 1 8.195-11.272c4.62-5.616 36.41-43.025 85.995-43.025.331 0 .664.002.997.005 36.721.371 62.496 21.115 65.629 23.698 3.96 3.266 12.692 11.023 20.562 23.33 18.492 28.918 20.117 69.287 6.282 101.623a104.88 104.88 0 0 1-4.013 8.345 16.956 16.956 0 0 0-6.485-1.28c-9.388 0-17 7.612-17 17 0 3.955 1.351 7.594 3.615 10.482-8.21 7.955-17.534 14.556-27.465 19.84l6.346-21.136c8.099-1.3 14.286-8.32 14.286-16.785 0-5.236-2.367-9.919-6.089-13.037l12.473-41.544a.42.42 0 0 0-.545-.516c-7.752 2.761-31.03 4.062-54.861 4.062-24.605 0-49.798-1.388-59.084-3.986a.698.698 0 0 0-.861.873l.746 2.494H79.482c-.998 0-1.763.887-1.614 1.875l6.265 41.695a3.373 3.373 0 0 0 3.335 2.872h39.078a7.674 7.674 0 0 0 4.492 2.139 325.905 325.905 0 0 0 37.268 2.135c5.848 0 11.729-.156 17.647-.473a17.054 17.054 0 0 0 .038 3.228 643.046 643.046 0 0 0-17.744-.234c-22.695 0-40.095.774-40.095 2.096v.01a.634.634 0 0 0-.456.798l.905 3.028h-31.39a2.536 2.536 0 0 0-2.507 2.912l5.961 39.678ZM177.763 40.77c-5.834 0-11.506 3.07-13.168 10.079-1.562 6.585.041 12.23 1.195 15.115.539 1.347.807 2.788.785 4.238-.046 3.017.63 8.229 5.637 9.463a6.751 6.751 0 0 0 1.627.205c2.959 0 4.959-2.135 6.152-4.038a13.024 13.024 0 0 1 4.579-4.412c2.948-1.677 7.186-4.864 9.302-10.104 3.439-8.515-2.386-16.435-9.816-19.35a17.344 17.344 0 0 0-6.293-1.196Z" fill="url(#b)"/>
    </g>
    <mask id="c" style="mask-type:luminance" maskUnits="userSpaceOnUse" x="58" y="91" width="64" height="47">
        <path d="M121.723 137.539H67.928a3.373 3.373 0 0 1-3.336-2.872l-5.565-37.036-.7-4.659a1.633 1.633 0 0 1 1.615-1.876h61.781v46.443Zm-51.098-17.775a.369.369 0 0 0-.364.43l.854 5.092c.03.178.184.308.364.308h30.504a.369.369 0 0 0 .354-.471l-1.437-4.995a.501.501 0 0 0-.483-.364H70.625Zm-1.434-9.057a.449.449 0 0 0-.442.523l1.047 6.197a.448.448 0 0 0 .442.374h30.102a.348.348 0 0 0 .335-.44l-1.725-6.28a.45.45 0 0 0-.441-.374H69.19Zm-1.051-7.453a.736.736 0 0 0-.723.868l.759 4.146c.064.35.368.603.723.603h29.523a.438.438 0 0 0 .425-.545l-1.125-4.46a.736.736 0 0 0-.724-.612H68.14Z" fill="#fff"/>
    </mask>
    <g mask="url(#c)">
        <path d="M121.723 137.539H67.928a3.373 3.373 0 0 1-3.336-2.872l-5.565-37.036-.7-4.659a1.633 1.633 0 0 1 1.615-1.876h61.781v46.443Zm-51.098-17.775a.369.369 0 0 0-.364.43l.854 5.092c.03.178.184.308.364.308h30.504a.369.369 0 0 0 .354-.471l-1.437-4.995a.501.501 0 0 0-.483-.364H70.625Zm-1.434-9.057a.449.449 0 0 0-.442.523l1.047 6.197a.448.448 0 0 0 .442.374h30.102a.348.348 0 0 0 .335-.44l-1.725-6.28a.45.45 0 0 0-.441-.374H69.19Zm-1.051-7.453a.736.736 0 0 0-.723.868l.759 4.146c.064.35.368.603.723.603h29.523a.438.438 0 0 0 .425-.545l-1.125-4.46a.736.736 0 0 0-.724-.612H68.14Z" fill="url(#d)"/>
    </g>
    <mask id="e" style="mask-type:luminance" maskUnits="userSpaceOnUse" x="68" y="110" width="33" height="8">
        <path d="M100.339 117.801H70.237a.448.448 0 0 1-.442-.374l-1.046-6.197a.449.449 0 0 1 .442-.523h29.318a.45.45 0 0 1 .441.374l1.725 6.28a.348.348 0 0 1-.336.44Z" fill="#fff"/>
    </mask>
    <g mask="url(#e)">
        <path d="M100.339 117.801H70.237a.448.448 0 0 1-.442-.374l-1.046-6.197a.449.449 0 0 1 .442-.523h29.318a.45.45 0 0 1 .441.374l1.725 6.28a.348.348 0 0 1-.336.44Z" fill="url(#f)"/>
    </g>
    <mask id="g" style="mask-type:luminance" maskUnits="userSpaceOnUse" x="70" y="119" width="33" height="7">
        <path d="M71.479 125.594a.369.369 0 0 1-.364-.308l-.854-5.092a.369.369 0 0 1 .364-.43h29.792c.224 0 .422.148.483.364l1.437 4.995a.369.369 0 0 1-.354.471H71.479Z" fill="#fff"/>
    </mask>
    <g mask="url(#g)">
        <path d="M71.479 125.594a.369.369 0 0 1-.364-.308l-.854-5.092a.369.369 0 0 1 .364-.43h29.792c.224 0 .422.148.483.364l1.437 4.995a.369.369 0 0 1-.354.471H71.479Z" fill="url(#h)"/>
    </g>
    <mask id="i" style="mask-type:luminance" maskUnits="userSpaceOnUse" x="67" y="103" width="32" height="6">
        <path d="M98.422 108.871H68.9a.735.735 0 0 1-.723-.603l-.76-4.146a.736.736 0 0 1 .723-.868h28.858c.359 0 .664.259.725.612l1.125 4.46a.438.438 0 0 1-.425.545Z" fill="#fff"/>
    </mask>
    <g mask="url(#i)">
        <path d="M98.422 108.871H68.9a.735.735 0 0 1-.723-.603l-.76-4.146a.736.736 0 0 1 .723-.868h28.858c.359 0 .664.259.725.612l1.125 4.46a.438.438 0 0 1-.425.545Z" fill="url(#j)"/>
    </g>
    <path d="M141.262 196.709H87.467a3.373 3.373 0 0 1-3.336-2.872l-6.265-41.695a1.632 1.632 0 0 1 1.615-1.875h61.781v46.442Z" fill="#7D97F4"/>
    <path d="M116.148 176.959H86.046a.447.447 0 0 1-.442-.373l-1.047-6.196a.449.449 0 0 1 .442-.524h29.318c.219 0 .406.158.442.374l1.724 6.28a.347.347 0 0 1-.335.439Zm-28.86 7.794a.369.369 0 0 1-.364-.307l-.855-5.094a.368.368 0 0 1 .364-.429h29.792c.224 0 .421.149.484.364l1.437 4.995a.37.37 0 0 1-.355.471H87.287Zm26.943-16.723H84.707a.735.735 0 0 1-.723-.603l-.759-4.147a.735.735 0 0 1 .723-.867h28.857c.359 0 .665.258.725.612l1.126 4.459a.44.44 0 0 1-.425.546Z" fill="#BDCAF9"/>
    <mask id="k" style="mask-type:luminance" maskUnits="userSpaceOnUse" x="94" y="209" width="50" height="47">
        <path d="M143.549 255.879h-38.688a4.201 4.201 0 0 1-4.155-3.577l-.042-.276-5.962-39.678a2.536 2.536 0 0 1 2.507-2.912H128.6l12.86 43.037a7.758 7.758 0 0 0 2.089 3.406Zm-39.642-17.881a.368.368 0 0 0-.364.429l.855 5.094a.367.367 0 0 0 .363.307h30.503a.37.37 0 0 0 .355-.471l-1.437-4.995a.502.502 0 0 0-.483-.364h-29.792Zm-1.434-9.057a.448.448 0 0 0-.442.523l1.046 6.197a.447.447 0 0 0 .442.373h30.102c.23 0 .397-.218.336-.439l-1.725-6.28a.448.448 0 0 0-.441-.374h-29.318Zm-1.051-7.453a.735.735 0 0 0-.723.867l.758 4.147a.736.736 0 0 0 .724.602h29.523a.438.438 0 0 0 .425-.545l-1.125-4.459a.735.735 0 0 0-.725-.612h-28.857Z" fill="#fff"/>
    </mask>
    <g mask="url(#k)">
        <path d="M143.549 255.879h-38.688a4.201 4.201 0 0 1-4.155-3.577l-.042-.276-5.962-39.678a2.536 2.536 0 0 1 2.507-2.912H128.6l12.86 43.037a7.758 7.758 0 0 0 2.089 3.406Zm-39.642-17.881a.368.368 0 0 0-.364.429l.855 5.094a.367.367 0 0 0 .363.307h30.503a.37.37 0 0 0 .355-.471l-1.437-4.995a.502.502 0 0 0-.483-.364h-29.792Zm-1.434-9.057a.448.448 0 0 0-.442.523l1.046 6.197a.447.447 0 0 0 .442.373h30.102c.23 0 .397-.218.336-.439l-1.725-6.28a.448.448 0 0 0-.441-.374h-29.318Zm-1.051-7.453a.735.735 0 0 0-.723.867l.758 4.147a.736.736 0 0 0 .724.602h29.523a.438.438 0 0 0 .425-.545l-1.125-4.459a.735.735 0 0 0-.725-.612h-28.857Z" fill="url(#l)"/>
    </g>
    <mask id="m" style="mask-type:luminance" maskUnits="userSpaceOnUse" x="102" y="228" width="32" height="9">
        <path d="M133.622 236.035H103.52a.448.448 0 0 1-.442-.374l-1.046-6.197a.448.448 0 0 1 .442-.523h29.318c.218 0 .405.158.441.374l1.725 6.28a.348.348 0 0 1-.336.44Z" fill="#fff"/>
    </mask>
    <g mask="url(#m)">
        <path d="M133.622 236.035H103.52a.448.448 0 0 1-.442-.374l-1.046-6.197a.448.448 0 0 1 .442-.523h29.318c.218 0 .405.158.441.374l1.725 6.28a.348.348 0 0 1-.336.44Z" fill="url(#n)"/>
    </g>
    <mask id="o" style="mask-type:luminance" maskUnits="userSpaceOnUse" x="103" y="237" width="33" height="7">
        <path d="M104.762 243.828a.368.368 0 0 1-.363-.307l-.855-5.094a.368.368 0 0 1 .364-.429H133.7c.224 0 .422.148.484.364l1.436 4.995a.369.369 0 0 1-.354.471h-30.504Z" fill="#fff"/>
    </mask>
    <g mask="url(#o)">
        <path d="M104.762 243.828a.368.368 0 0 1-.363-.307l-.855-5.094a.368.368 0 0 1 .364-.429H133.7c.224 0 .422.148.484.364l1.436 4.995a.369.369 0 0 1-.354.471h-30.504Z" fill="url(#p)"/>
    </g>
    <mask id="q" style="mask-type:luminance" maskUnits="userSpaceOnUse" x="100" y="221" width="33" height="7">
        <path d="M131.705 227.104h-29.523a.736.736 0 0 1-.724-.602l-.758-4.147a.735.735 0 0 1 .723-.867h28.857c.359 0 .664.258.725.612l1.125 4.459a.438.438 0 0 1-.425.545Z" fill="#fff"/>
    </mask>
    <g mask="url(#q)">
        <path d="M131.705 227.104h-29.523a.736.736 0 0 1-.724-.602l-.758-4.147a.735.735 0 0 1 .723-.867h28.857c.359 0 .664.258.725.612l1.125 4.459a.438.438 0 0 1-.425.545Z" fill="url(#r)"/>
    </g>
    <mask id="s" style="mask-type:luminance" maskUnits="userSpaceOnUse" x="128" y="203" width="60" height="6">
        <path d="M168.874 208.619c-13.713 0-27.714-.979-40.47-3.019a.606.606 0 0 0-.252.01v-.01c0-1.322 17.4-2.096 40.095-2.096 6.356 0 12.372.084 17.744.234.159 1.499.514 2.94 1.037 4.297a279.18 279.18 0 0 1-18.154.584Z" fill="#fff"/>
    </mask>
    <g mask="url(#s)">
        <path d="M168.874 208.619c-13.713 0-27.714-.979-40.47-3.019a.606.606 0 0 0-.252.01v-.01c0-1.322 17.4-2.096 40.095-2.096 6.356 0 12.372.084 17.744.234.159 1.499.514 2.94 1.037 4.297a279.18 279.18 0 0 1-18.154.584Z" fill="url(#t)"/>
    </g>
    <path d="M226.296 146.799c0 1.67-28.502 5.793-60.528 5.793-32.026 0-53.981-4.022-53.981-5.693 0-1.67 24.726-2.876 56.751-2.876 32.026 0 57.758 1.106 57.758 2.776Z" fill="#7D97F4"/>
    <path d="M205.438 198.898c-25.426 2.844-50.206 2.733-74.399-.05a7.654 7.654 0 0 1-6.464-5.405l-13.646-45.67a.7.7 0 0 1 .86-.874c18.281 5.117 98.19 5.536 113.945-.075a.42.42 0 0 1 .545.516l-13.691 45.6a8.441 8.441 0 0 1-7.15 5.958Z" fill="#91B3FA"/>
    <mask id="u" style="mask-type:luminance" maskUnits="userSpaceOnUse" x="128" y="205" width="79" height="55">
        <path d="M168.832 259.395c-6.884 0-13.74-.499-20.569-1.489a7.856 7.856 0 0 1-4.296-2.087 7.778 7.778 0 0 1-2.089-3.405l-12.86-43.038-.905-3.028a.634.634 0 0 1 .708-.808c12.757 2.041 26.757 3.019 40.47 3.019 6.156 0 12.252-.197 18.154-.584 2.456 6.369 8.633 10.886 15.867 10.886.924 0 1.83-.073 2.714-.215l-6.346 21.136-3.64 12.126a8.64 8.64 0 0 1-7.073 6.068 144.205 144.205 0 0 1-20.135 1.419Z" fill="#fff"/>
    </mask>
    <g mask="url(#u)">
        <path d="M168.832 259.395c-6.884 0-13.74-.499-20.569-1.489a7.856 7.856 0 0 1-4.296-2.087 7.778 7.778 0 0 1-2.089-3.405l-12.86-43.038-.905-3.028a.634.634 0 0 1 .708-.808c12.757 2.041 26.757 3.019 40.47 3.019 6.156 0 12.252-.197 18.154-.584 2.456 6.369 8.633 10.886 15.867 10.886.924 0 1.83-.073 2.714-.215l-6.346 21.136-3.64 12.126a8.64 8.64 0 0 1-7.073 6.068 144.205 144.205 0 0 1-20.135 1.419Z" fill="url(#v)"/>
    </g>
    <mask id="w" style="mask-type:luminance" maskUnits="userSpaceOnUse" x="95" y="84" width="147" height="8">
        <path d="M241.932 87.567c0 1.95-32.29 3.53-73.305 3.53-41.015 0-73.3-1.58-73.3-3.53 0-1.948 32.285-3.528 73.3-3.528s73.305 1.58 73.305 3.528Z" fill="#fff"/>
    </mask>
    <g mask="url(#w)">
        <path d="M241.932 87.567c0 1.95-32.29 3.53-73.305 3.53-41.015 0-73.3-1.58-73.3-3.53 0-1.948 32.285-3.528 73.3-3.528s73.305 1.58 73.305 3.528Z" fill="url(#x)"/>
    </g>
    <path d="M125.572 95.344a23.99 23.99 0 0 0 14.081 1.132c8.976-1.98 15.668-8.725 18.007-16.99l-23.197-6.543-8.891 22.4Z" fill="#91B3FA"/>
    <path d="M157.66 79.485a23.99 23.99 0 0 0 .336-11.733 24.161 24.161 0 0 0-1.526-4.64l-22.007 9.83 23.197 6.543Z" fill="#7D97F4"/>
    <path d="M156.47 63.112a24.087 24.087 0 0 0-10.929-11.57l-11.078 21.4 22.007-9.83Z" fill="#91B3FA"/>
    <mask id="y" style="mask-type:luminance" maskUnits="userSpaceOnUse" x="108" y="54" width="25" height="42">
        <path d="m132.41 73.396-14.399-19.33c-7.363 5.49-11.24 14.968-9.134 24.52 1.789 8.109 7.468 14.355 14.642 17.21l8.891-22.4Z" fill="#fff"/>
    </mask>
    <g mask="url(#y)">
        <path d="m132.41 73.396-14.399-19.33c-7.363 5.49-11.24 14.968-9.134 24.52 1.789 8.109 7.468 14.355 14.642 17.21l8.891-22.4Z" fill="url(#z)"/>
    </g>
    <path d="M145.541 51.542a24.105 24.105 0 0 0-6.823-2.324c-1.425 9.051-4.255 23.725-4.255 23.725l11.078-21.4Z" fill="#7D97F4"/>
    <path d="M138.718 49.218a24.019 24.019 0 0 0-9.445.192 24.022 24.022 0 0 0-9.209 4.202l14.399 19.33s2.83-14.673 4.255-23.724Z" fill="#7D97F4"/>
    <mask id="A" style="mask-type:luminance" maskUnits="userSpaceOnUse" x="189" y="77" width="17" height="21">
        <path d="M189.688 77.59s5.721 15.088 7.528 18.227c2.099 3.643 8.226 1.322 7.922-1.727-.305-3.05-7.465-15.654-7.465-15.654l-7.985-.846Z" fill="#fff"/>
    </mask>
    <g mask="url(#A)">
        <path d="M189.688 77.59s5.721 15.088 7.528 18.227c2.099 3.643 8.226 1.322 7.922-1.727-.305-3.05-7.465-15.654-7.465-15.654l-7.985-.846Z" fill="url(#B)"/>
    </g>
    <mask id="C" style="mask-type:luminance" maskUnits="userSpaceOnUse" x="196" y="54" width="37" height="34">
        <path d="m197.418 66.599 35.56-12.33-.374 33.365-36.157-8.068.971-12.967Z" fill="#fff"/>
    </mask>
    <g mask="url(#C)">
        <path d="m197.418 66.599 35.56-12.33-.374 33.365-36.157-8.068.971-12.967Z" fill="url(#D)"/>
    </g>
    <path d="M236.505 71.048c0 9.47-1.564 17.146-3.493 17.146-1.93 0-3.494-7.676-3.494-17.146s1.564-17.145 3.494-17.145c1.929 0 3.493 7.676 3.493 17.145Z" fill="#7D97F4"/>
    <mask id="E" style="mask-type:luminance" maskUnits="userSpaceOnUse" x="230" y="54" width="6" height="34">
        <path d="M233.276 87.022c-.316-.322-1.004-1.56-1.593-4.764-.57-3.095-.884-7.11-.884-11.307 0-4.195.314-8.21.884-11.306.589-3.204 1.277-4.443 1.593-4.764.316.321 1.004 1.56 1.593 4.764.57 3.096.884 7.111.884 11.306 0 4.196-.314 8.212-.884 11.307-.589 3.204-1.277 4.443-1.593 4.764Z" fill="#fff"/>
    </mask>
    <g mask="url(#E)">
        <path d="M233.276 87.022c-.316-.322-1.004-1.56-1.593-4.764-.57-3.095-.884-7.11-.884-11.307 0-4.195.314-8.21.884-11.306.589-3.204 1.277-4.443 1.593-4.764.316.321 1.004 1.56 1.593 4.764.57 3.096.884 7.111.884 11.306 0 4.196-.314 8.212-.884 11.307-.589 3.204-1.277 4.443-1.593 4.764Z" fill="url(#F)"/>
    </g>
    <mask id="G" style="mask-type:luminance" maskUnits="userSpaceOnUse" x="230" y="54" width="10" height="34">
        <path d="M233.276 87.022c-.316-.322-1.004-1.56-1.593-4.764-.57-3.095-.884-7.11-.884-11.307 0-4.195.314-8.21.884-11.306.589-3.204 1.277-4.443 1.593-4.764.316.321 1.004 1.56 1.593 4.764.57 3.096 5.068 7.111 5.068 11.306 0 4.196-4.498 8.212-5.068 11.307-.589 3.204-1.277 4.443-1.593 4.764Z" fill="#fff"/>
    </mask>
    <g mask="url(#G)">
        <mask id="H" style="mask-type:luminance" maskUnits="userSpaceOnUse" x="227" y="65" width="11" height="12">
            <path d="M237.754 70.824c0 2.913-1.569 5.275-4.675 5.275s-5.624-2.362-5.624-5.275c0-2.913 2.518-5.275 5.624-5.275s4.675 2.362 4.675 5.275Z" fill="#fff"/>
        </mask>
        <g mask="url(#H)">
            <path d="M232.952 76.105v-.008h-.202v-.008h-.113v-.008h-.114v-.008h-.08v-.008h-.065v-.008h-.065v-.008h-.073v-.008h-.056v-.008h-.049v-.008h-.048v-.009h-.049v-.008h-.04V76h-.049v-.008h-.04v-.008h-.041v-.008h-.032v-.008h-.04v-.008h-.041v-.008h-.032v-.008h-.041v-.008h-.032v-.009h-.032v-.008h-.025v-.008h-.032v-.008h-.032v-.008h-.033v-.008h-.024v-.008h-.032v-.008h-.032v-.008h-.025v-.008h-.024v-.008h-.032v-.008h-.025v-.009h-.024v-.008h-.024v-.008h-.024v-.008h-.025v-.008h-.024v-.008h-.032v-.008h-.016v-.008h-.025v-.008h-.024v-.008h-.024v-.008h-.016v-.008h-.025v-.009h-.024v-.008h-.016v-.008h-.024v-.008h-.016v-.008h-.009v-.13h-.008v-.153h-.008v-.154h-.008v-.153h-.008v-.154h-.008v-.153h-.008v-.195h-.008v-.186h-.008v-.186h-.008v-.194h-.008v-.25h-.009v-.243h-.008v-.242h-.008v-.348h-.008v-.34h-.008v-.51h-.008v-.832h-.008v-.647h.008v-.84h.008v-.51h.008v-.34h.008v-.34h.008v-.25h.008v-.243h.009v-.242h.008v-.194h.008v-.194h.008v-.186h.008v-.195h.008v-.153h.008v-.154h.008v-.153h.008v-.154h.008v-.154h.008v-.13h.009v-.128h.008v-.13h.008v-.008h.016v-.008h.016v-.008h.024v-.008h.025V65.9h.024v-.008h.016v-.008h.024v-.009h.024v-.008h.017v-.008h.032v-.008h.024v-.008h.025v-.008h.024v-.008h.024v-.008h.024v-.008h.025v-.008h.032v-.008h.024v-.009h.024v-.008h.033v-.008h.024v-.008h.032v-.008h.033v-.008h.032v-.008h.024v-.008h.033v-.008h.032v-.008h.032v-.008h.033v-.008h.04v-.008h.032v-.009h.041v-.008h.04v-.008h.033v-.008h.04v-.008h.049v-.008h.04v-.008h.049v-.008h.048v-.008h.049v-.008h.048v-.008h.073v-.008h.065v-.009h.072v-.008h.065v-.008h.105v-.008h.113v-.008h.162v-.008h.412v.008h.162v.008h.105v.008h.105v.008h.065v.008h.065v.009h.064v.008h.065v.008h.049v.008h.048v.008h.041v.008h.048v.008h.041v.008h.048v.008h.032v.008h.033v.008h.032v.008h.041v.008h.032v.009h.032v.008h.033v.008h.032v.008h.024v.008h.033v.008h.024v.008h.024v.008h.032v.008h.025v.008h.032v.008h.024v.008h.025v.009h.016v.008h.024v.008h.024v.008h.024v.008h.025v.008h.016v.008h.024v.008h.024v.008h.025v.008h.016v.008h.024v.009h.016v.008h.016v.008h.025v.008h.016v.008h.016v.008h.024v.008h.016v.008h.025v.008h.016v.008h.016v.008h.016v.008h.016v.009h.017v.008h.016v.008h.016v.008h.016v.008h.016v.008h.016v.008h.017v.008h.016v.008h.024v.008h.016v.008h.016v.009h.009v.008h.016v.008h.016v.008h.016v.008h.008v.008h.016v.008h.016v.008h.017v.008h.008v.008h.016v.008h.016v.008h.016v.009h.008v.008h.016v.008h.017v.008h.008v.008h.016v.008h.008v.008h.016v.008h.016v.008h.008v.008h.017v.009h.008v.008h.016v.008h.008v.008h.016v.008h.008v.008h.016v.008h.008v.008h.017v.008h.008v.008h.016v.008h.008v.008h.008v.008h.016v.009h.008v.008h.016v.008h.009v.008h.008v.008h.016v.008h.008v.008h.008v.008h.016v.008h.008v.008h.008v.008h.017v.008h.008v.009h.008v.008h.016v.008h.008v.008h.008v.008h.008v.008h.008v.008H236v.008h.008v.008h.009v.008h.008v.008h.008v.008h.016v.009h.008v.008h.008v.008h.008v.008h.016v.008h.008v.008h.009v.008h.008v.008h.008v.008h.008v.008h.008v.008h.008v.009h.008v.008h.016v.008h.008v.008h.008v.008h.008v.008h.009v.008h.008v.008h.008v.008h.008v.008h.008v.008h.008v.008h.008v.009h.008v.008h.008v.008h.016v.016h.008v.008h.009v.008h.008v.008h.008v.008h.008v.008h.008v.008h.008v.009h.008v.008h.008v.008h.008v.008h.008v.008h.008v.008h.009v.008h.008v.008h.008v.008h.008v.008h.008v.008h.008v.008h.008v.009h.008v.008h.008v.016h.008v.008h.008v.008h.008v.008h.009v.008h.008v.008h.008v.017h.008v.007h.008v.009h.008v.008h.008v.008h.008v.008h.008v.016h.008v.008h.008v.008h.008v.008h.009v.008h.008v.008h.008v.017h.008v.008h.008v.008h.008v.016h.008v.008h.008v.008h.008v.008h.008v.016h.008v.008h.009v.009h.008v.016h.008v.008h.008v.008h.008v.016h.008v.008h.008v.008h.008v.008h.008v.017h.008v.008h.008v.016h.008v.008h.009v.016h.008v.008h.008v.016h.008v.008h.008v.008h.008v.017h.008v.008h.008v.016h.008v.008h.008v.016h.008v.008h.009v.016h.008v.009h.008v.016h.008v.008h.008v.016h.008v.016h.008v.008h.008v.016h.008v.008h.008v.017h.008v.016h.008v.008h.009v.016h.008v.016h.008v.008h.008v.016h.008v.017h.008v.008h.008v.016h.008v.016h.008v.016h.008v.016h.008v.008h.008v.017h.009v.016h.008v.016h.008v.016h.008v.008h.008v.017h.008v.016h.008v.016h.008v.016h.008v.016h.008v.016h.008v.016h.009v.017h.008v.016h.008v.016h.008v.016h.008v.016h.008v.017h.008v.016h.008v.016h.008v.024h.008v.016h.008v.016h.008v.017h.009v.024h.008v.016h.008v.016h.008v.025h.008v.016h.008v.016h.008v.024h.008v.016h.008v.016h.008v.025h.008v.024h.008v.016h.009v.024h.008v.017h.008v.024h.008v.024h.008v.016h.008v.025h.008v.016h.008v.024h.008v.024h.008v.025h.008v.024h.009v.024h.008v.024h.008v.024h.008v.025h.008v.024h.008v.032h.008v.025h.008v.032h.008v.024h.008v.033h.008v.024h.008v.024h.009v.032h.008v.025h.008v.032h.008v.04h.008v.033h.008v.032h.008v.032h.008v.033h.008v.032h.008v.04h.008v.041h.009v.032h.008v.04h.008v.041h.008v.04h.008v.05h.008v.048h.008v.048h.008v.049h.008v.048h.008v.057h.008v.065h.008v.064h.009v.065h.008v.065h.008v.097h.008v.089h.008v.113h.008v.154h.008v.687h-.008v.161h-.008v.106h-.008v.097h-.008v.089h-.008v.072h-.008v.065h-.009v.065h-.008v.064h-.008v.049h-.008v.056h-.008v.05h-.008v.048h-.008v.048h-.008v.04h-.008v.041h-.008v.04h-.008v.04h-.008v.041h-.009v.04h-.008v.041h-.008v.032h-.008v.033h-.008v.032h-.008v.032h-.008v.033h-.008v.032h-.008v.032h-.008v.033h-.008v.024h-.009v.033h-.008v.024h-.008v.032h-.008v.024h-.008v.033h-.008v.024h-.008v.024h-.008v.024h-.008v.025h-.008v.024h-.008v.024h-.008v.024h-.009v.025h-.008v.024h-.008v.024h-.008v.025h-.008v.024h-.008v.016h-.008v.024h-.008v.025h-.008v.016h-.008v.024h-.008v.024h-.009v.016h-.008v.025h-.008v.016h-.008v.024h-.008v.016h-.008v.016h-.008v.025h-.008v.016h-.008v.016h-.008v.024h-.008v.016h-.008v.017h-.009v.024h-.008v.016h-.008v.016h-.008v.016h-.008v.016h-.008v.017h-.008v.016h-.008v.016h-.008v.016h-.008v.024h-.008v.017h-.008v.016h-.009v.016h-.008v.016h-.008v.016h-.008v.017h-.008v.016h-.008v.008h-.008v.016h-.008v.016h-.008v.016h-.008v.016h-.008v.017h-.009v.008h-.008v.016h-.008v.016h-.008v.016h-.008v.016h-.008v.008h-.008v.017h-.008v.016h-.008v.016h-.008v.008h-.008v.016h-.008v.008h-.009v.017h-.008v.016h-.008v.008h-.008v.016h-.008v.008h-.008v.016h-.008v.016h-.008v.008h-.008v.017h-.008v.016h-.008v.008h-.008v.016h-.009v.008h-.008v.008h-.008v.016h-.008v.008h-.008v.017h-.008v.008h-.008v.016h-.008v.008h-.008v.016h-.008v.008h-.008v.008h-.009v.017h-.008v.008h-.008v.016h-.008v.008h-.008v.016h-.008v.008h-.008v.008h-.008v.008h-.008v.016h-.008v.008h-.008v.009h-.008v.016h-.009v.008h-.008v.008h-.008v.008h-.008v.016h-.008v.008h-.008v.008h-.008v.017h-.008v.008h-.008v.008h-.008v.016h-.008v.008h-.009v.008h-.008v.008h-.008v.008h-.008v.008h-.008v.008h-.008v.017h-.008v.008h-.008v.008h-.008v.008h-.008v.008h-.008v.008h-.008v.016h-.009v.008h-.008v.008h-.008v.009h-.008v.008h-.008v.008h-.008v.016h-.008v.008h-.008v.008h-.008v.008h-.008v.008h-.008v.008h-.008v.008h-.009v.008h-.008v.008h-.008v.009h-.008v.008h-.008v.008h-.008v.008h-.008v.008h-.008v.008h-.008v.008h-.008v.008h-.008v.008h-.009v.008h-.008v.008h-.008v.008h-.008v.009h-.008v.008h-.008v.008h-.008v.008h-.008v.008h-.008v.008h-.008v.008h-.008v.008h-.008v.008h-.017v.008h-.008v.009h-.008v.008h-.008v.008h-.008v.008h-.008v.008h-.008v.008h-.008v.008h-.008v.008h-.008v.008h-.008v.008h-.017v.008h-.008v.008h-.008v.008h-.008v.009h-.008v.008h-.016v.008h-.008v.008h-.008v.008h-.008v.008H236v.008h-.008v.008h-.008v.008h-.008v.008h-.008v.008h-.016v.008h-.008v.009h-.008v.008h-.008v.008h-.017v.008h-.008v.008h-.008v.008h-.016v.008h-.008v.008h-.008v.008h-.016v.008h-.008v.008h-.017v.009h-.008v.008h-.008v.008h-.016v.008h-.008v.008h-.008v.008h-.016v.008h-.008v.008h-.016v.008h-.009v.008h-.016v.008h-.008v.008h-.016v.009h-.008v.008h-.016v.008h-.008v.008h-.016v.008h-.009v.008h-.016v.008h-.016v.008h-.008v.008h-.016v.008h-.008v.008h-.016v.008h-.009v.009h-.016v.008h-.016v.008h-.016v.008h-.008v.008h-.016v.008h-.016v.008h-.017v.008h-.008v.008h-.016v.008h-.016v.008h-.016v.009h-.016v.008h-.008v.008h-.017v.008h-.016v.008h-.016v.008h-.016v.008h-.016v.008h-.017v.008h-.016v.008h-.016v.008h-.016v.008h-.016v.009h-.016v.008h-.017v.008h-.016v.008h-.016v.008h-.024v.008h-.016v.008h-.025v.008h-.016v.008h-.016v.008h-.024v.008h-.016v.009h-.017v.008h-.024v.008h-.016v.008h-.024v.008h-.016v.008h-.025v.008h-.024v.008h-.016v.008h-.024v.008h-.025v.008h-.024v.008h-.024v.009h-.024v.008h-.017v.008h-.024v.008h-.032v.008h-.024v.008h-.025v.008h-.032v.008h-.024v.008h-.033v.008h-.024v.008h-.024v.008h-.032v.009h-.033v.008h-.04v.008h-.033v.008h-.032v.008h-.032v.008h-.041v.008h-.032V76h-.049v.008h-.04v.008h-.049v.008h-.04v.009h-.048v.008h-.049v.008h-.065v.008h-.064v.008h-.065v.008h-.073v.008h-.113v.008h-.113v.008h-.202v.008" fill="url(#I)"/>
        </g>
    </g>
    <mask id="J" style="mask-type:luminance" maskUnits="userSpaceOnUse" x="188" y="65" width="11" height="16">
        <path d="M191.683 65.881c1.673-.194 4.072-.264 6.665.33-.854 4.464-.725 9.116.263 13.933h-7.315a2.37 2.37 0 0 1-2.342-2c-.365-2.308-.811-6.19-.336-9.306a3.51 3.51 0 0 1 3.065-2.957Z" fill="#fff"/>
    </mask>
    <g mask="url(#J)">
        <path d="M191.683 65.881c1.673-.194 4.072-.264 6.665.33-.854 4.464-.725 9.116.263 13.933h-7.315a2.37 2.37 0 0 1-2.342-2c-.365-2.308-.811-6.19-.336-9.306a3.51 3.51 0 0 1 3.065-2.957Z" fill="url(#K)"/>
    </g>
    <path d="M196.074 69.3h-5.699a.514.514 0 0 1-.457-.272.513.513 0 0 1 .02-.53.147.147 0 1 1 .246.16.226.226 0 0 0-.008.23c.04.074.114.119.199.119h5.699a.226.226 0 0 0 .226-.227v-.406a.226.226 0 0 0-.226-.226h-5.742a.147.147 0 0 1 0-.294h5.742a.52.52 0 0 1 .52.52v.406a.52.52 0 0 1-.52.52Zm-.508 2.524h-5.7a.51.51 0 0 1-.456-.272.511.511 0 0 1 .02-.53.148.148 0 0 1 .203-.044.147.147 0 0 1 .043.203.224.224 0 0 0-.009.231.225.225 0 0 0 .199.119h5.7a.227.227 0 0 0 .227-.227v-.405a.227.227 0 0 0-.227-.227h-5.742a.147.147 0 0 1 0-.293h5.742a.52.52 0 0 1 .519.52v.405a.52.52 0 0 1-.519.52Zm7.02-6.129a.145.145 0 0 1-.139-.102.145.145 0 0 1 .095-.184l26.931-8.57a.148.148 0 0 1 .185.095.147.147 0 0 1-.096.184l-26.932 8.57a.134.134 0 0 1-.044.007Zm-3.642 1.489a.147.147 0 0 1-.055-.282l1.386-.567a.147.147 0 1 1 .11.272l-1.385.567a.158.158 0 0 1-.056.01Zm-2.87 7.596h-5.699a.514.514 0 0 1-.457-.272.513.513 0 0 1 .02-.53.147.147 0 0 1 .203-.044.146.146 0 0 1 .043.203.226.226 0 0 0-.008.231c.04.075.114.12.199.12h5.699a.227.227 0 0 0 .226-.228v-.405a.227.227 0 0 0-.226-.227h-5.742a.146.146 0 0 1-.146-.147c0-.08.065-.146.146-.146h5.742a.52.52 0 0 1 .52.52v.405a.52.52 0 0 1-.52.52Zm.534 3.281h-5.699a.514.514 0 0 1-.457-.271.513.513 0 0 1 .02-.53.147.147 0 1 1 .246.16.221.221 0 0 0-.008.23.22.22 0 0 0 .199.118h5.699a.226.226 0 0 0 .226-.227v-.406a.226.226 0 0 0-.226-.226h-5.742a.147.147 0 0 1-.147-.146c0-.081.066-.147.147-.147h5.742a.52.52 0 0 1 .52.52v.405a.52.52 0 0 1-.52.52Zm5.09 17.84c-.263 0-.528-.028-.793-.086a3.667 3.667 0 0 1-2.588-2.097l-4.553-10.115a.147.147 0 0 1 .073-.194c.074-.034.16 0 .194.073l4.553 10.117a3.38 3.38 0 0 0 2.384 1.93 3.307 3.307 0 0 0 2.911-.745c.043-.037.086-.076.13-.116a.146.146 0 1 1 .197.216c-.044.042-.09.082-.134.12a3.586 3.586 0 0 1-2.374.897Zm-8.474-13.708a.147.147 0 0 1-.134-.086l-.508-1.128a.147.147 0 0 1 .074-.194c.074-.034.16 0 .193.073l.509 1.128a.147.147 0 0 1-.134.207Zm43.698-11.52a.147.147 0 0 1-.146-.137c-.101-1.428-.596-2.492-1.471-3.164-1.512-1.16-3.669-.761-3.691-.757a.147.147 0 1 1-.056-.288c.094-.018 2.31-.427 3.926.813.943.725 1.477 1.86 1.584 3.375a.147.147 0 0 1-.136.156l-.01.001Z" fill="#91B3FA"/>
    <path d="M177.766 81.398c.054-.252-.134-.54-.509-.839.54-.117.878-.314.936-.59.177-.831-2.26-2.056-5.443-2.733-3.185-.678-5.909-.553-6.086.28-.053.252.134.54.51.839-.54.117-.878.314-.937.59-.053.252.134.54.51.839-.54.116-.878.313-.936.59-.054.252.134.54.509.838-.539.117-.877.314-.936.59-.078.368.356.812 1.139 1.252a7.161 7.161 0 0 0-.241.885c-.326 1.533 1.008 3.21 3.235 3.876 2.228.665 4.634-.36 5.105-1.856.114-.366.196-.695.249-.993 1.171-.037 1.951-.278 2.042-.71.054-.253-.134-.54-.509-.84.539-.117.877-.314.936-.589.053-.252-.134-.54-.509-.839.539-.117.877-.315.935-.59Z" fill="#7D97F4"/>
    <path d="M169.109 84.18c-.923-.277-1.748-.597-2.405-.939a.078.078 0 1 1 .071-.138c1.03.535 2.475 1.016 4.07 1.356 1.304.277 2.556.428 3.621.435.044 0 .079.035.078.078a.077.077 0 0 1-.078.077c-1.076-.006-2.34-.157-3.654-.437a22.001 22.001 0 0 1-1.703-.433Zm.443-1.426c-1.199-.359-2.238-.791-2.93-1.233a.078.078 0 0 1-.024-.107.077.077 0 0 1 .107-.024c.987.629 2.693 1.242 4.566 1.64 1.852.395 3.649.531 4.806.367a.078.078 0 1 1 .022.153c-1.174.168-2.991.03-4.861-.367-.583-.125-1.15-.27-1.686-.43Zm.41-1.432c-1.294-.387-2.388-.858-3.076-1.338a.079.079 0 0 1-.02-.108.079.079 0 0 1 .109-.02c.957.668 2.722 1.32 4.723 1.746 1.852.394 3.648.53 4.805.366a.077.077 0 0 1 .088.066.077.077 0 0 1-.065.088c-1.175.168-2.992.03-4.861-.368a22.253 22.253 0 0 1-1.703-.432Zm.438-1.427c-1.028-.306-1.938-.668-2.616-1.047a.078.078 0 0 1-.03-.106.077.077 0 0 1 .106-.03c1.02.569 2.575 1.102 4.264 1.461 1.836.391 3.622.53 4.78.37a.078.078 0 0 1 .088.066.079.079 0 0 1-.067.088c-1.174.162-2.981.023-4.833-.372a21.816 21.816 0 0 1-1.692-.43Z" fill="#91B3FA"/>
    <mask id="L" style="mask-type:luminance" maskUnits="userSpaceOnUse" x="163" y="40" width="32" height="40">
        <path d="M173.838 79.87a6.75 6.75 0 0 1-1.627-.205c-5.006-1.234-5.682-6.446-5.637-9.463.022-1.45-.246-2.891-.784-4.238-1.155-2.885-2.758-8.53-1.196-15.115 1.662-7.009 7.334-10.079 13.168-10.079 2.139 0 4.3.413 6.293 1.195 7.43 2.916 13.256 10.836 9.817 19.351-2.117 5.24-6.355 8.427-9.303 10.104a13.024 13.024 0 0 0-4.579 4.412c-1.193 1.903-3.193 4.038-6.152 4.038Zm13.388-13.04a.494.494 0 0 0-.342.136 20.468 20.468 0 0 1-1.786 1.498.498.498 0 1 0 .597.799 21.306 21.306 0 0 0 1.873-1.573.5.5 0 0 0-.342-.86Zm5.512-13.733a.5.5 0 0 0-.494.567c.009.062.804 6.17-3.911 11.769a.5.5 0 0 0 .763.642c4.998-5.936 4.172-12.282 4.135-12.55a.498.498 0 0 0-.493-.428Zm-15.994 4.272.453 3.419v.003a.258.258 0 0 0 .084.152.31.31 0 0 0 .205.078.268.268 0 0 0 .177-.063l1.932-1.706.174 1.206.002.011.006.026c.031.117.151.2.28.2a.39.39 0 0 0 .042-.004l2.009-.298c.143-.02.23-.143.195-.272-.032-.116-.151-.198-.279-.198-.015 0-.029 0-.044.003l-1.691.25-.077-1.622a.334.334 0 0 0-.127-.236.408.408 0 0 0-.255-.09.344.344 0 0 0-.243.094l-.004.005-1.886 1.861-.187-3.508v-.005a.382.382 0 0 0-.114-.245.48.48 0 0 0-.339-.14.417.417 0 0 0-.254.083l-2.409 1.84c-.099.076-.113.212-.029.315.057.07.146.108.233.108.05 0 .099-.014.142-.04l2.004-1.227Z" fill="#fff"/>
    </mask>
    <g mask="url(#L)">
        <path d="M173.838 79.87a6.75 6.75 0 0 1-1.627-.205c-5.006-1.234-5.682-6.446-5.637-9.463.022-1.45-.246-2.891-.784-4.238-1.155-2.885-2.758-8.53-1.196-15.115 1.662-7.009 7.334-10.079 13.168-10.079 2.139 0 4.3.413 6.293 1.195 7.43 2.916 13.256 10.836 9.817 19.351-2.117 5.24-6.355 8.427-9.303 10.104a13.024 13.024 0 0 0-4.579 4.412c-1.193 1.903-3.193 4.038-6.152 4.038Zm13.388-13.04a.494.494 0 0 0-.342.136 20.468 20.468 0 0 1-1.786 1.498.498.498 0 1 0 .597.799 21.306 21.306 0 0 0 1.873-1.573.5.5 0 0 0-.342-.86Zm5.512-13.733a.5.5 0 0 0-.494.567c.009.062.804 6.17-3.911 11.769a.5.5 0 0 0 .763.642c4.998-5.936 4.172-12.282 4.135-12.55a.498.498 0 0 0-.493-.428Zm-15.994 4.272.453 3.419v.003a.258.258 0 0 0 .084.152.31.31 0 0 0 .205.078.268.268 0 0 0 .177-.063l1.932-1.706.174 1.206.002.011.006.026c.031.117.151.2.28.2a.39.39 0 0 0 .042-.004l2.009-.298c.143-.02.23-.143.195-.272-.032-.116-.151-.198-.279-.198-.015 0-.029 0-.044.003l-1.691.25-.077-1.622a.334.334 0 0 0-.127-.236.408.408 0 0 0-.255-.09.344.344 0 0 0-.243.094l-.004.005-1.886 1.861-.187-3.508v-.005a.382.382 0 0 0-.114-.245.48.48 0 0 0-.339-.14.417.417 0 0 0-.254.083l-2.409 1.84c-.099.076-.113.212-.029.315.057.07.146.108.233.108.05 0 .099-.014.142-.04l2.004-1.227Z" fill="url(#M)"/>
    </g>
    <mask id="N" style="mask-type:luminance" maskUnits="userSpaceOnUse" x="173" y="61" width="10" height="18">
        <path d="m174.032 78.164 7.846-16.548c.163-.342.411-.53.555-.42.144.11.129.477-.033.819-.005.008-.01.02-.014.029l-8.169 16.275c-.061.122-.152.185-.201.139-.048-.045-.041-.175.016-.294Z" fill="#fff"/>
    </mask>
    <g mask="url(#N)">
        <path d="m174.032 78.164 7.846-16.548c.163-.342.411-.53.555-.42.144.11.129.477-.033.819-.005.008-.01.02-.014.029l-8.169 16.275c-.061.122-.152.185-.201.139-.048-.045-.041-.175.016-.294Z" fill="url(#O)"/>
    </g>
    <mask id="P" style="mask-type:luminance" maskUnits="userSpaceOnUse" x="170" y="58" width="4" height="20">
        <path d="m171.224 77.475 2.512-18.14c.053-.375-.052-.669-.233-.656-.181.014-.369.328-.421.703l-.004.032-2.094 18.09c-.016.135.026.237.092.226.065-.011.13-.125.148-.255Z" fill="#fff"/>
    </mask>
    <g mask="url(#P)">
        <path d="m171.224 77.475 2.512-18.14c.053-.375-.052-.669-.233-.656-.181.014-.369.328-.421.703l-.004.032-2.094 18.09c-.016.135.026.237.092.226.065-.011.13-.125.148-.255Z" fill="url(#Q)"/>
    </g>
    <mask id="R" style="mask-type:luminance" maskUnits="userSpaceOnUse" x="174" y="56" width="9" height="6">
        <path d="M177.487 61.02a.31.31 0 0 1-.205-.077.253.253 0 0 1-.084-.152l-.001-.003-.453-3.419-2.003 1.228a.275.275 0 0 1-.142.038.308.308 0 0 1-.234-.107c-.084-.103-.069-.24.03-.315l2.408-1.84a.42.42 0 0 1 .255-.082c.122 0 .248.047.339.139.071.072.109.159.114.245v.005l.187 3.508 1.885-1.861.004-.004a.344.344 0 0 1 .244-.095c.089 0 .181.03.255.09a.334.334 0 0 1 .127.236l.076 1.622 1.692-.25a.263.263 0 0 1 .044-.003c.127 0 .247.082.279.198.035.13-.052.251-.195.272l-2.009.298a.389.389 0 0 1-.043.003c-.128 0-.248-.082-.28-.199l-.005-.026-.002-.01-.174-1.207-1.932 1.706a.27.27 0 0 1-.177.063Z" fill="#fff"/>
    </mask>
    <g mask="url(#R)">
        <path d="M177.487 61.02a.31.31 0 0 1-.205-.077.253.253 0 0 1-.084-.152l-.001-.003-.453-3.419-2.003 1.228a.275.275 0 0 1-.142.038.308.308 0 0 1-.234-.107c-.084-.103-.069-.24.03-.315l2.408-1.84a.42.42 0 0 1 .255-.082c.122 0 .248.047.339.139.071.072.109.159.114.245v.005l.187 3.508 1.885-1.861.004-.004a.344.344 0 0 1 .244-.095c.089 0 .181.03.255.09a.334.334 0 0 1 .127.236l.076 1.622 1.692-.25a.263.263 0 0 1 .044-.003c.127 0 .247.082.279.198.035.13-.052.251-.195.272l-2.009.298a.389.389 0 0 1-.043.003c-.128 0-.248-.082-.28-.199l-.005-.026-.002-.01-.174-1.207-1.932 1.706a.27.27 0 0 1-.177.063Z" fill="url(#S)"/>
    </g>
    <mask id="T" style="mask-type:luminance" maskUnits="userSpaceOnUse" x="184" y="66" width="4" height="4">
        <path d="M185.397 69.362a.492.492 0 0 1-.399-.2.498.498 0 0 1 .101-.698 20.453 20.453 0 0 0 1.785-1.498.494.494 0 0 1 .704.02c.19.2.181.515-.02.704a21.146 21.146 0 0 1-1.872 1.573.499.499 0 0 1-.299.1Z" fill="#fff"/>
    </mask>
    <g mask="url(#T)">
        <path d="M185.397 69.362a.492.492 0 0 1-.399-.2.498.498 0 0 1 .101-.698 20.453 20.453 0 0 0 1.785-1.498.494.494 0 0 1 .704.02c.19.2.181.515-.02.704a21.146 21.146 0 0 1-1.872 1.573.499.499 0 0 1-.299.1Z" fill="url(#U)"/>
    </g>
    <mask id="V" style="mask-type:luminance" maskUnits="userSpaceOnUse" x="188" y="53" width="6" height="14">
        <path d="M188.715 66.252a.495.495 0 0 1-.321-.117.499.499 0 0 1-.06-.703c4.714-5.598 3.92-11.707 3.911-11.768a.497.497 0 1 1 .987-.138c.037.267.863 6.613-4.135 12.548a.499.499 0 0 1-.382.178Z" fill="#fff"/>
    </mask>
    <g mask="url(#V)">
        <path d="M188.715 66.252a.495.495 0 0 1-.321-.117.499.499 0 0 1-.06-.703c4.714-5.598 3.92-11.707 3.911-11.768a.497.497 0 1 1 .987-.138c.037.267.863 6.613-4.135 12.548a.499.499 0 0 1-.382.178Z" fill="url(#W)"/>
    </g>
    <path d="M214.711 50.253c0 6.425-5.208 11.633-11.633 11.633-6.424 0-11.633-5.208-11.633-11.633 0-6.426 5.209-11.634 11.633-11.634 6.425 0 11.633 5.208 11.633 11.634Z" fill="#91B3FA"/>
    <path d="M203.078 44.18a6.08 6.08 0 0 0-6.072 6.073 6.08 6.08 0 0 0 6.072 6.072 6.08 6.08 0 0 0 6.074-6.072 6.08 6.08 0 0 0-6.074-6.074Zm0 13.368c-4.022 0-7.295-3.273-7.295-7.295 0-4.023 3.273-7.296 7.295-7.296 4.023 0 7.296 3.273 7.296 7.296 0 4.022-3.273 7.295-7.296 7.295Z" fill="#fff"/>
    <path fill-rule="evenodd" clip-rule="evenodd" d="M200.793 53.062v-5.245c0-.56.61-.908 1.092-.622l4.419 2.623a.722.722 0 0 1 0 1.243l-4.419 2.623a.723.723 0 0 1-1.092-.622Z" fill="#fff"/>
    <path d="M104.723 67.821c0 6.752-5.473 12.225-12.225 12.225-6.751 0-12.225-5.473-12.225-12.225s5.474-12.224 12.225-12.224c6.752 0 12.225 5.472 12.225 12.224Z" fill="#91B3FA"/>
    <path d="M92.498 60.105c-3.074 0-5.575 2.278-5.575 5.08 0 1.456 1.648 5.012 4.52 9.758.225.372.62.595 1.055.595.435 0 .83-.223 1.055-.595 2.873-4.746 4.52-8.302 4.52-9.758 0-2.802-2.5-5.08-5.575-5.08Zm0 16.257a2.04 2.04 0 0 1-1.76-.992c-2.115-3.497-4.638-8.102-4.638-10.185 0-3.256 2.87-5.904 6.398-5.904 3.529 0 6.4 2.648 6.4 5.904 0 2.083-2.523 6.688-4.64 10.185a2.04 2.04 0 0 1-1.76.992Z" fill="#fff"/>
    <path d="M92.003 69.308a3.972 3.972 0 0 1-3.968-3.968.412.412 0 1 1 .823 0 3.149 3.149 0 0 0 3.145 3.145 3.149 3.149 0 0 0 3.145-3.145 3.148 3.148 0 0 0-3.145-3.144 3.12 3.12 0 0 0-2.522 1.266.412.412 0 1 1-.66-.492 3.987 3.987 0 0 1 3.182-1.598 3.973 3.973 0 0 1 3.969 3.968 3.973 3.973 0 0 1-3.969 3.968Z" fill="#fff"/>
    <mask id="X" style="mask-type:luminance" maskUnits="userSpaceOnUse" x="94" y="87" width="149" height="55">
        <path d="M218.823 139.684c-33.664 2.193-68.007 2.044-102.955-.196a9.554 9.554 0 0 1-8.569-6.913L94.783 88.789a1.044 1.044 0 0 1 1.105-1.325c47.559 4.574 96.067 4.454 145.469-.008a1.051 1.051 0 0 1 1.106 1.338l-12.006 41.533a12.99 12.99 0 0 1-11.634 9.357Z" fill="#fff"/>
    </mask>
    <g mask="url(#X)">
        <path d="M218.823 139.684c-33.664 2.193-68.007 2.044-102.955-.196a9.554 9.554 0 0 1-8.569-6.913L94.783 88.789a1.044 1.044 0 0 1 1.105-1.325c47.559 4.574 96.067 4.454 145.469-.008a1.051 1.051 0 0 1 1.106 1.338l-12.006 41.533a12.99 12.99 0 0 1-11.634 9.357Z" fill="url(#Y)"/>
    </g>
    <mask id="Z" style="mask-type:luminance" maskUnits="userSpaceOnUse" x="185" y="184" width="35" height="35">
        <path d="M202.895 218.921c-7.234 0-13.412-4.518-15.868-10.886a16.893 16.893 0 0 1-1.132-6.114c0-.475.019-.946.058-1.411.716-8.729 8.028-15.589 16.942-15.589 4.153 0 7.958 1.489 10.911 3.963a16.963 16.963 0 0 1 6.089 13.037c0 8.465-6.188 15.485-14.287 16.785-.883.142-1.789.215-2.713.215Zm0-33.435c-9.077 0-16.435 7.358-16.435 16.435 0 9.077 7.358 16.435 16.435 16.435 9.076 0 16.435-7.358 16.435-16.435 0-9.077-7.359-16.435-16.435-16.435Z" fill="#fff"/>
    </mask>
    <g mask="url(#Z)">
        <path d="M202.895 218.921c-7.234 0-13.412-4.518-15.868-10.886a16.893 16.893 0 0 1-1.132-6.114c0-.475.019-.946.058-1.411.716-8.729 8.028-15.589 16.942-15.589 4.153 0 7.958 1.489 10.911 3.963a16.963 16.963 0 0 1 6.089 13.037c0 8.465-6.188 15.485-14.287 16.785-.883.142-1.789.215-2.713.215Zm0-33.435c-9.077 0-16.435 7.358-16.435 16.435 0 9.077 7.358 16.435 16.435 16.435 9.076 0 16.435-7.358 16.435-16.435 0-9.077-7.359-16.435-16.435-16.435Z" fill="url(#aa)"/>
    </g>
    <mask id="ab" style="mask-type:luminance" maskUnits="userSpaceOnUse" x="186" y="185" width="34" height="34">
        <path d="M202.894 218.356c-9.077 0-16.435-7.358-16.435-16.435 0-9.077 7.358-16.435 16.435-16.435 9.076 0 16.435 7.358 16.435 16.435 0 9.077-7.359 16.435-16.435 16.435Zm.358-29.987c-7.682 0-13.91 6.228-13.91 13.91s6.228 13.91 13.91 13.91c7.683 0 13.911-6.228 13.911-13.91s-6.228-13.91-13.911-13.91Zm-.358-1.997c-5.905 0-11.226 3.277-13.889 8.552a.377.377 0 0 0 .674.34 14.732 14.732 0 0 1 13.215-8.137c.897 0 1.795.081 2.669.24a.378.378 0 0 0 .136-.742 15.641 15.641 0 0 0-2.805-.253Z" fill="#fff"/>
    </mask>
    <g mask="url(#ab)">
        <path d="M202.894 218.356c-9.077 0-16.435-7.358-16.435-16.435 0-9.077 7.358-16.435 16.435-16.435 9.076 0 16.435 7.358 16.435 16.435 0 9.077-7.359 16.435-16.435 16.435Zm.358-29.987c-7.682 0-13.91 6.228-13.91 13.91s6.228 13.91 13.91 13.91c7.683 0 13.911-6.228 13.911-13.91s-6.228-13.91-13.911-13.91Zm-.358-1.997c-5.905 0-11.226 3.277-13.889 8.552a.377.377 0 0 0 .674.34 14.732 14.732 0 0 1 13.215-8.137c.897 0 1.795.081 2.669.24a.378.378 0 0 0 .136-.742 15.641 15.641 0 0 0-2.805-.253Z" fill="url(#ac)"/>
    </g>
    <mask id="ad" style="mask-type:luminance" maskUnits="userSpaceOnUse" x="188" y="186" width="19" height="10">
        <path d="M189.342 195.471a.377.377 0 0 1-.337-.547c2.663-5.275 7.984-8.552 13.889-8.552.942 0 1.886.085 2.805.253a.377.377 0 1 1-.136.742 14.951 14.951 0 0 0-2.669-.24 14.732 14.732 0 0 0-13.215 8.137.377.377 0 0 1-.337.207Z" fill="#fff"/>
    </mask>
    <g mask="url(#ad)">
        <path d="M189.342 195.471a.377.377 0 0 1-.337-.547c2.663-5.275 7.984-8.552 13.889-8.552.942 0 1.886.085 2.805.253a.377.377 0 1 1-.136.742 14.951 14.951 0 0 0-2.669-.24 14.732 14.732 0 0 0-13.215 8.137.377.377 0 0 1-.337.207Z" fill="url(#ae)"/>
    </g>
    <mask id="af" style="mask-type:luminance" maskUnits="userSpaceOnUse" x="189" y="188" width="29" height="29">
        <path d="M203.253 216.189c-7.682 0-13.909-6.228-13.909-13.91s6.227-13.91 13.909-13.91c7.683 0 13.911 6.228 13.911 13.91s-6.228 13.91-13.911 13.91Z" fill="#fff"/>
    </mask>
    <g mask="url(#af)">
        <path d="M203.253 216.189c-7.682 0-13.909-6.228-13.909-13.91s6.227-13.91 13.909-13.91c7.683 0 13.911 6.228 13.911 13.91s-6.228 13.91-13.911 13.91Z" fill="url(#ag)"/>
    </g>
    <mask id="ah" style="mask-type:luminance" maskUnits="userSpaceOnUse" x="197" y="192" width="13" height="22">
        <path d="M201.889 212.62v-1.513c-1.578-.063-3.139-.436-4.246-.921a.875.875 0 0 1-.485-1.034l.385-1.41a.883.883 0 0 1 1.198-.577c1.099.461 2.456.826 3.921.826 1.519 0 2.652-.516 2.652-1.572 0-.953-.876-1.519-2.987-2.086-3.014-.824-5.178-2.138-5.178-4.79 0-2.395 1.752-4.224 4.791-4.713v-1.514c0-.487.395-.881.882-.881h.889c.487 0 .882.394.882.881v1.359c1.46.058 2.522.308 3.366.604a.878.878 0 0 1 .548 1.06l-.353 1.304a.88.88 0 0 1-1.162.593 9.191 9.191 0 0 0-3.3-.599c-1.803 0-2.319.746-2.319 1.417 0 .824 1.082 1.39 3.426 2.111 3.348 1.004 4.739 2.395 4.739 4.894 0 2.292-1.7 4.352-4.996 4.868v1.693a.882.882 0 0 1-.883.882h-.888a.882.882 0 0 1-.882-.882Z" fill="#fff"/>
    </mask>
    <g mask="url(#ah)">
        <path d="M201.889 212.62v-1.513c-1.578-.063-3.139-.436-4.246-.921a.875.875 0 0 1-.485-1.034l.385-1.41a.883.883 0 0 1 1.198-.577c1.099.461 2.456.826 3.921.826 1.519 0 2.652-.516 2.652-1.572 0-.953-.876-1.519-2.987-2.086-3.014-.824-5.178-2.138-5.178-4.79 0-2.395 1.752-4.224 4.791-4.713v-1.514c0-.487.395-.881.882-.881h.889c.487 0 .882.394.882.881v1.359c1.46.058 2.522.308 3.366.604a.878.878 0 0 1 .548 1.06l-.353 1.304a.88.88 0 0 1-1.162.593 9.191 9.191 0 0 0-3.3-.599c-1.803 0-2.319.746-2.319 1.417 0 .824 1.082 1.39 3.426 2.111 3.348 1.004 4.739 2.395 4.739 4.894 0 2.292-1.7 4.352-4.996 4.868v1.693a.882.882 0 0 1-.883.882h-.888a.882.882 0 0 1-.882-.882Z" fill="url(#ai)"/>
    </g>
    <mask id="aj" style="mask-type:luminance" maskUnits="userSpaceOnUse" x="186" y="223" width="34" height="7">
        <path d="M219.257 229.674h-32.723a.294.294 0 0 1-.294-.294v-5.757c0-.162.131-.294.294-.294h32.723c.162 0 .294.132.294.294v5.757a.294.294 0 0 1-.294.294Z" fill="#fff"/>
    </mask>
    <g mask="url(#aj)">
        <path d="M219.257 229.674h-32.723a.294.294 0 0 1-.294-.294v-5.757c0-.162.131-.294.294-.294h32.723c.162 0 .294.132.294.294v5.757a.294.294 0 0 1-.294.294Z" fill="url(#ak)"/>
    </g>
    <mask id="al" style="mask-type:luminance" maskUnits="userSpaceOnUse" x="186" y="230" width="34" height="8">
        <path d="M219.283 237.209h-32.724a.294.294 0 0 1-.293-.294v-5.757c0-.163.131-.295.293-.295h32.724c.162 0 .293.132.293.295v5.757a.294.294 0 0 1-.293.294Z" fill="#fff"/>
    </mask>
    <g mask="url(#al)">
        <path d="M219.283 237.209h-32.724a.294.294 0 0 1-.293-.294v-5.757c0-.163.131-.295.293-.295h32.724c.162 0 .293.132.293.295v5.757a.294.294 0 0 1-.293.294Z" fill="url(#am)"/>
    </g>
    <mask id="an" style="mask-type:luminance" maskUnits="userSpaceOnUse" x="186" y="238" width="34" height="7">
        <path d="M219.308 244.743h-32.723a.294.294 0 0 1-.294-.293v-5.758c0-.162.132-.294.294-.294h32.723c.163 0 .294.132.294.294v5.758a.294.294 0 0 1-.294.293Z" fill="#fff"/>
    </mask>
    <g mask="url(#an)">
        <path d="M219.308 244.743h-32.723a.294.294 0 0 1-.294-.293v-5.758c0-.162.132-.294.294-.294h32.723c.163 0 .294.132.294.294v5.758a.294.294 0 0 1-.294.293Z" fill="url(#ao)"/>
    </g>
    <mask id="ap" style="mask-type:luminance" maskUnits="userSpaceOnUse" x="186" y="245" width="34" height="8">
        <path d="M219.335 252.278h-32.723a.294.294 0 0 1-.294-.294v-5.757c0-.163.131-.294.294-.294h32.723c.162 0 .294.131.294.294v5.757a.294.294 0 0 1-.294.294Z" fill="#fff"/>
    </mask>
    <g mask="url(#ap)">
        <path d="M219.335 252.278h-32.723a.294.294 0 0 1-.294-.294v-5.757c0-.163.131-.294.294-.294h32.723c.162 0 .294.131.294.294v5.757a.294.294 0 0 1-.294.294Z" fill="url(#aq)"/>
    </g>
    <mask id="ar" style="mask-type:luminance" maskUnits="userSpaceOnUse" x="186" y="253" width="34" height="7">
        <path d="M219.361 259.812h-32.724a.293.293 0 0 1-.293-.293v-5.757c0-.163.132-.295.293-.295h32.724c.162 0 .293.132.293.295v5.757a.293.293 0 0 1-.293.293Z" fill="#fff"/>
    </mask>
    <g mask="url(#ar)">
        <path d="M219.361 259.812h-32.724a.293.293 0 0 1-.293-.293v-5.757c0-.163.132-.295.293-.295h32.724c.162 0 .293.132.293.295v5.757a.293.293 0 0 1-.293.293Z" fill="url(#as)"/>
    </g>
    <mask id="at" style="mask-type:luminance" maskUnits="userSpaceOnUse" x="223" y="192" width="35" height="35">
        <path d="M240.113 226.52a16.965 16.965 0 0 1-13.384-6.518 16.926 16.926 0 0 1-3.616-10.482c0-9.388 7.612-17 17-17 2.297 0 4.487.455 6.485 1.28 6.172 2.549 10.515 8.628 10.515 15.72 0 9.389-7.611 17-17 17Zm0-33.435c-9.076 0-16.435 7.359-16.435 16.435 0 9.077 7.359 16.435 16.435 16.435 9.077 0 16.435-7.358 16.435-16.435 0-9.076-7.358-16.435-16.435-16.435Z" fill="#fff"/>
    </mask>
    <g mask="url(#at)">
        <path d="M240.113 226.52a16.965 16.965 0 0 1-13.384-6.518 16.926 16.926 0 0 1-3.616-10.482c0-9.388 7.612-17 17-17 2.297 0 4.487.455 6.485 1.28 6.172 2.549 10.515 8.628 10.515 15.72 0 9.389-7.611 17-17 17Zm0-33.435c-9.076 0-16.435 7.359-16.435 16.435 0 9.077 7.359 16.435 16.435 16.435 9.077 0 16.435-7.358 16.435-16.435 0-9.076-7.358-16.435-16.435-16.435Z" fill="url(#au)"/>
    </g>
    <mask id="av" style="mask-type:luminance" maskUnits="userSpaceOnUse" x="223" y="193" width="34" height="33">
        <path d="M240.113 225.955c-9.077 0-16.435-7.358-16.435-16.435 0-9.076 7.358-16.435 16.435-16.435 9.076 0 16.435 7.359 16.435 16.435 0 9.077-7.359 16.435-16.435 16.435Zm.358-29.987c-7.683 0-13.911 6.228-13.911 13.911 0 7.682 6.228 13.91 13.911 13.91 7.682 0 13.909-6.228 13.909-13.91 0-7.683-6.227-13.911-13.909-13.911Zm-.358-1.996c-5.905 0-11.226 3.277-13.889 8.551a.378.378 0 0 0 .673.34 14.733 14.733 0 0 1 13.216-8.137c.897 0 1.796.081 2.669.24a.38.38 0 0 0 .439-.303.377.377 0 0 0-.304-.438 15.622 15.622 0 0 0-2.804-.253Z" fill="#fff"/>
    </mask>
    <g mask="url(#av)">
        <path d="M240.113 225.955c-9.077 0-16.435-7.358-16.435-16.435 0-9.076 7.358-16.435 16.435-16.435 9.076 0 16.435 7.359 16.435 16.435 0 9.077-7.359 16.435-16.435 16.435Zm.358-29.987c-7.683 0-13.911 6.228-13.911 13.911 0 7.682 6.228 13.91 13.911 13.91 7.682 0 13.909-6.228 13.909-13.91 0-7.683-6.227-13.911-13.909-13.911Zm-.358-1.996c-5.905 0-11.226 3.277-13.889 8.551a.378.378 0 0 0 .673.34 14.733 14.733 0 0 1 13.216-8.137c.897 0 1.796.081 2.669.24a.38.38 0 0 0 .439-.303.377.377 0 0 0-.304-.438 15.622 15.622 0 0 0-2.804-.253Z" fill="url(#aw)"/>
    </g>
    <mask id="ax" style="mask-type:luminance" maskUnits="userSpaceOnUse" x="226" y="193" width="18" height="11">
        <path d="M226.561 203.07a.378.378 0 0 1-.337-.547c2.663-5.274 7.984-8.551 13.889-8.551.943 0 1.886.085 2.804.253a.377.377 0 1 1-.135.741 14.943 14.943 0 0 0-2.669-.24 14.734 14.734 0 0 0-13.216 8.137.375.375 0 0 1-.336.207Z" fill="#fff"/>
    </mask>
    <g mask="url(#ax)">
        <path d="M226.561 203.07a.378.378 0 0 1-.337-.547c2.663-5.274 7.984-8.551 13.889-8.551.943 0 1.886.085 2.804.253a.377.377 0 1 1-.135.741 14.943 14.943 0 0 0-2.669-.24 14.734 14.734 0 0 0-13.216 8.137.375.375 0 0 1-.336.207Z" fill="url(#ay)"/>
    </g>
    <mask id="az" style="mask-type:luminance" maskUnits="userSpaceOnUse" x="226" y="195" width="29" height="29">
        <path d="M240.471 223.789c-7.683 0-13.91-6.228-13.91-13.91 0-7.683 6.227-13.911 13.91-13.911s13.91 6.228 13.91 13.911c0 7.682-6.227 13.91-13.91 13.91Z" fill="#fff"/>
    </mask>
    <g mask="url(#az)">
        <path d="M240.471 223.789c-7.683 0-13.91-6.228-13.91-13.91 0-7.683 6.227-13.911 13.91-13.911s13.91 6.228 13.91 13.911c0 7.682-6.227 13.91-13.91 13.91Z" fill="url(#aA)"/>
    </g>
    <mask id="aB" style="mask-type:luminance" maskUnits="userSpaceOnUse" x="234" y="200" width="13" height="22">
        <path d="M239.106 220.22v-1.514c-1.578-.063-3.139-.436-4.247-.921a.875.875 0 0 1-.484-1.034l.384-1.409a.884.884 0 0 1 1.199-.578c1.099.461 2.456.826 3.92.826 1.52 0 2.653-.515 2.653-1.571 0-.953-.876-1.52-2.988-2.087-3.013-.824-5.177-2.137-5.177-4.79 0-2.395 1.752-4.224 4.791-4.713v-1.513c0-.488.395-.882.882-.882h.889c.487 0 .882.394.882.882v1.358c1.459.059 2.523.309 3.366.605a.877.877 0 0 1 .548 1.059l-.354 1.304a.88.88 0 0 1-1.16.594 9.179 9.179 0 0 0-3.302-.6c-1.802 0-2.317.748-2.317 1.417 0 .824 1.082 1.391 3.425 2.112 3.348 1.004 4.738 2.395 4.738 4.893 0 2.292-1.699 4.353-4.995 4.868v1.694a.882.882 0 0 1-.882.881h-.89a.88.88 0 0 1-.881-.881Z" fill="#fff"/>
    </mask>
    <g mask="url(#aB)">
        <path d="M239.106 220.22v-1.514c-1.578-.063-3.139-.436-4.247-.921a.875.875 0 0 1-.484-1.034l.384-1.409a.884.884 0 0 1 1.199-.578c1.099.461 2.456.826 3.92.826 1.52 0 2.653-.515 2.653-1.571 0-.953-.876-1.52-2.988-2.087-3.013-.824-5.177-2.137-5.177-4.79 0-2.395 1.752-4.224 4.791-4.713v-1.513c0-.488.395-.882.882-.882h.889c.487 0 .882.394.882.882v1.358c1.459.059 2.523.309 3.366.605a.877.877 0 0 1 .548 1.059l-.354 1.304a.88.88 0 0 1-1.16.594 9.179 9.179 0 0 0-3.302-.6c-1.802 0-2.317.748-2.317 1.417 0 .824 1.082 1.391 3.425 2.112 3.348 1.004 4.738 2.395 4.738 4.893 0 2.292-1.699 4.353-4.995 4.868v1.694a.882.882 0 0 1-.882.881h-.89a.88.88 0 0 1-.881-.881Z" fill="url(#aC)"/>
    </g>
    <mask id="aD" style="mask-type:luminance" maskUnits="userSpaceOnUse" x="223" y="230" width="34" height="8">
        <path d="M256.474 237.273h-32.723a.294.294 0 0 1-.294-.293v-5.757c0-.163.132-.295.294-.295h32.723c.163 0 .294.132.294.295v5.757a.293.293 0 0 1-.294.293Z" fill="#fff"/>
    </mask>
    <g mask="url(#aD)">
        <path d="M256.474 237.273h-32.723a.294.294 0 0 1-.294-.293v-5.757c0-.163.132-.295.294-.295h32.723c.163 0 .294.132.294.295v5.757a.293.293 0 0 1-.294.293Z" fill="url(#aE)"/>
    </g>
    <mask id="aF" style="mask-type:luminance" maskUnits="userSpaceOnUse" x="223" y="238" width="34" height="7">
        <path d="M256.501 244.808h-32.723a.293.293 0 0 1-.294-.294v-5.757c0-.162.131-.294.294-.294h32.723c.162 0 .294.132.294.294v5.757a.294.294 0 0 1-.294.294Z" fill="#fff"/>
    </mask>
    <g mask="url(#aF)">
        <path d="M256.501 244.808h-32.723a.293.293 0 0 1-.294-.294v-5.757c0-.162.131-.294.294-.294h32.723c.162 0 .294.132.294.294v5.757a.294.294 0 0 1-.294.294Z" fill="url(#aG)"/>
    </g>
    <mask id="aH" style="mask-type:luminance" maskUnits="userSpaceOnUse" x="223" y="245" width="34" height="8">
        <path d="M256.527 252.342h-32.724a.293.293 0 0 1-.293-.293v-5.757c0-.163.132-.294.293-.294h32.724c.162 0 .293.131.293.294v5.757a.293.293 0 0 1-.293.293Z" fill="#fff"/>
    </mask>
    <g mask="url(#aH)">
        <path d="M256.527 252.342h-32.724a.293.293 0 0 1-.293-.293v-5.757c0-.163.132-.294.293-.294h32.724c.162 0 .293.131.293.294v5.757a.293.293 0 0 1-.293.293Z" fill="url(#aI)"/>
    </g>
    <mask id="aJ" style="mask-type:luminance" maskUnits="userSpaceOnUse" x="223" y="253" width="34" height="7">
        <path d="M256.552 259.877h-32.723a.294.294 0 0 1-.294-.294v-5.757c0-.162.132-.294.294-.294h32.723c.163 0 .294.132.294.294v5.757a.293.293 0 0 1-.294.294Z" fill="#fff"/>
    </mask>
    <g mask="url(#aJ)">
        <path d="M256.552 259.877h-32.723a.294.294 0 0 1-.294-.294v-5.757c0-.162.132-.294.294-.294h32.723c.163 0 .294.132.294.294v5.757a.293.293 0 0 1-.294.294Z" fill="url(#aK)"/>
    </g>
    <mask id="aL" style="mask-type:luminance" maskUnits="userSpaceOnUse" x="60" y="256" width="13" height="2">
        <path d="M71.868 256.385c-1.967.17-5.38.446-8.072.565-1.617.071-2.549-.088-3.085-.303 0 .061.003.118.005.171.013.284.243.51.529.526 5.085.283 9.129.098 10.568.011a.397.397 0 0 0 .323-.596 3.229 3.229 0 0 0-.268-.374Z" fill="#fff"/>
    </mask>
    <g mask="url(#aL)">
        <path d="M71.868 256.385c-1.967.17-5.38.446-8.072.565-1.617.071-2.549-.088-3.085-.303 0 .061.003.118.005.171.013.284.243.51.529.526 5.085.283 9.129.098 10.568.011a.397.397 0 0 0 .323-.596 3.229 3.229 0 0 0-.268-.374Z" fill="url(#aM)"/>
    </g>
    <mask id="aN" style="mask-type:luminance" maskUnits="userSpaceOnUse" x="60" y="252" width="12" height="5">
        <path d="M63.795 256.95c2.691-.119 6.104-.395 8.071-.565-1.933-2.373-8.071-3.971-8.071-3.971h-1.733c-1.193 1.718-1.365 3.355-1.352 4.234.536.215 1.467.373 3.085.302Z" fill="#fff"/>
    </mask>
    <g mask="url(#aN)">
        <path d="M63.795 256.95c2.691-.119 6.104-.395 8.071-.565-1.933-2.373-8.071-3.971-8.071-3.971h-1.733c-1.193 1.718-1.365 3.355-1.352 4.234.536.215 1.467.373 3.085.302Z" fill="url(#aO)"/>
    </g>
    <mask id="aP" style="mask-type:luminance" maskUnits="userSpaceOnUse" x="61" y="249" width="5" height="5">
        <path d="m61.77 249.583.162 3.211a.733.733 0 0 0 .626.689c.346.05.81.056 1.302-.108a.867.867 0 0 0 .583-.666l.56-3.126H61.77Z" fill="#fff"/>
    </mask>
    <g mask="url(#aP)">
        <path d="m61.77 249.583.162 3.211a.733.733 0 0 0 .626.689c.346.05.81.056 1.302-.108a.867.867 0 0 0 .583-.666l.56-3.126H61.77Z" fill="url(#aQ)"/>
    </g>
    <mask id="aR" style="mask-type:luminance" maskUnits="userSpaceOnUse" x="40" y="258" width="5" height="3">
        <path d="M41.651 260.088c-.853-.154-1.238-.726-1.4-1.338l-.003.016a1.525 1.525 0 0 0 .747 1.633c.703.385 1.471.451 2.068.419a1.915 1.915 0 0 0 1.55-.925l.005-.008c-.642.411-1.544.459-2.967.203Z" fill="#fff"/>
    </mask>
    <g mask="url(#aR)">
        <path d="M41.651 260.088c-.853-.154-1.238-.726-1.4-1.338l-.003.016a1.525 1.525 0 0 0 .747 1.633c.703.385 1.471.451 2.068.419a1.915 1.915 0 0 0 1.55-.925l.005-.008c-.642.411-1.544.459-2.967.203Z" fill="url(#aS)"/>
    </g>
    <mask id="aT" style="mask-type:luminance" maskUnits="userSpaceOnUse" x="40" y="250" width="7" height="11">
        <path d="M45.672 250.572h-1.43c-2.177-.057-3.544 5.879-3.992 8.178.162.612.548 1.184 1.4 1.338 1.423.256 2.325.208 2.968-.203 1.176-2 1.76-4.931 2.04-6.641.319-1.945-.986-2.672-.986-2.672Z" fill="#fff"/>
    </mask>
    <g mask="url(#aT)">
        <path d="M45.672 250.572h-1.43c-2.177-.057-3.544 5.879-3.992 8.178.162.612.548 1.184 1.4 1.338 1.423.256 2.325.208 2.968-.203 1.176-2 1.76-4.931 2.04-6.641.319-1.945-.986-2.672-.986-2.672Z" fill="url(#aU)"/>
    </g>
    <mask id="aV" style="mask-type:luminance" maskUnits="userSpaceOnUse" x="43" y="247" width="5" height="6">
        <path d="m44.427 247.593-.794 3.157a.856.856 0 0 0 .446.971c.444.228 1.07.468 1.644.398a.714.714 0 0 0 .584-.477l1.165-3.322-3.045-.727Z" fill="#fff"/>
    </mask>
    <g mask="url(#aV)">
        <path d="m44.427 247.593-.794 3.157a.856.856 0 0 0 .446.971c.444.228 1.07.468 1.644.398a.714.714 0 0 0 .584-.477l1.165-3.322-3.045-.727Z" fill="url(#aW)"/>
    </g>
    <mask id="aX" style="mask-type:luminance" maskUnits="userSpaceOnUse" x="43" y="205" width="30" height="47">
        <path d="M72.35 206.01s-7.093 44.343-6.976 44.587c0 0-1.96.891-4.095.114 0 0 .641-23.705 2.144-32.794 0 0-12.107 21.187-15.951 31.744 0 0-2.005-.238-3.665-1.331 0 0 13.035-38.136 16.513-43.216l12.03.896Z" fill="#fff"/>
    </mask>
    <g mask="url(#aX)">
        <path d="M72.35 206.01s-7.093 44.343-6.976 44.587c0 0-1.96.891-4.095.114 0 0 .641-23.705 2.144-32.794 0 0-12.107 21.187-15.951 31.744 0 0-2.005-.238-3.665-1.331 0 0 13.035-38.136 16.513-43.216l12.03.896Z" fill="url(#aY)"/>
    </g>
    <mask id="aZ" style="mask-type:luminance" maskUnits="userSpaceOnUse" x="63" y="212" width="6" height="6">
        <path d="M63.707 217.686a.21.21 0 0 1-.177-.321l2.651-4.233c.03-.05.08-.084.136-.095l1.951-.392a.21.21 0 1 1 .083.411l-1.863.374-2.603 4.158a.208.208 0 0 1-.178.098Z" fill="#fff"/>
    </mask>
    <g mask="url(#aZ)">
        <path d="M63.707 217.686a.21.21 0 0 1-.177-.321l2.651-4.233c.03-.05.08-.084.136-.095l1.951-.392a.21.21 0 1 1 .083.411l-1.863.374-2.603 4.158a.208.208 0 0 1-.178.098Z" fill="url(#ba)"/>
    </g>
    <mask id="bb" style="mask-type:luminance" maskUnits="userSpaceOnUse" x="87" y="162" width="18" height="20">
        <path d="M104.905 162.589s-4.787 1.056-7.698 2.401a2.658 2.658 0 0 0-1.302 1.309c-.87 1.907-3.476 6.69-8.528 8.973.727.965 1.899 2.974 2.409 6.351 3.034-2.259 5.654-6.031 6.912-12.217 0 0 .958.521 2.152-.06.632-.306 1.36-.741 1.908-1.083.545-.341.951-.87 1.108-1.489.209-.817.086-1.535.086-2.306l2.461-.762s.74-.279.492-1.117Z" fill="#fff"/>
    </mask>
    <g mask="url(#bb)">
        <path d="M104.905 162.589s-4.787 1.056-7.698 2.401a2.658 2.658 0 0 0-1.302 1.309c-.87 1.907-3.476 6.69-8.528 8.973.727.965 1.899 2.974 2.409 6.351 3.034-2.259 5.654-6.031 6.912-12.217 0 0 .958.521 2.152-.06.632-.306 1.36-.741 1.908-1.083.545-.341.951-.87 1.108-1.489.209-.817.086-1.535.086-2.306l2.461-.762s.74-.279.492-1.117Z" fill="url(#bc)"/>
    </g>
    <mask id="bd" style="mask-type:luminance" maskUnits="userSpaceOnUse" x="48" y="174" width="42" height="34">
        <path d="M89.785 181.623c-.51-3.377-1.682-5.386-2.409-6.351-3.139 1.417-7.221 1.871-12.42.069a5.535 5.535 0 0 0-1.486-.292c-2.768-.163-11.888-.459-19.435 2.034a5.864 5.864 0 0 0-3.538 3.221c-2.041 4.685-5.346 15.354 3.83 20.741a22.732 22.732 0 0 1 2.214-4.191c-1.478-2.493-1.916-5.897.706-10.33 1.913 5.163 2.81 12.696 2.997 16.03a7.162 7.162 0 0 1-.562 3.206l-.047.111a.38.38 0 0 0 .267.518c5.165 1.161 10.538.845 12.143.713a.663.663 0 0 0 .59-.506c2.512-10.583 2.518-17.803 1.903-22.367 2.35.525 9.535 1.645 15.247-2.606Z" fill="#fff"/>
    </mask>
    <g mask="url(#bd)">
        <path d="M89.785 181.623c-.51-3.377-1.682-5.386-2.409-6.351-3.139 1.417-7.221 1.871-12.42.069a5.535 5.535 0 0 0-1.486-.292c-2.768-.163-11.888-.459-19.435 2.034a5.864 5.864 0 0 0-3.538 3.221c-2.041 4.685-5.346 15.354 3.83 20.741a22.732 22.732 0 0 1 2.214-4.191c-1.478-2.493-1.916-5.897.706-10.33 1.913 5.163 2.81 12.696 2.997 16.03a7.162 7.162 0 0 1-.562 3.206l-.047.111a.38.38 0 0 0 .267.518c5.165 1.161 10.538.845 12.143.713a.663.663 0 0 0 .59-.506c2.512-10.583 2.518-17.803 1.903-22.367 2.35.525 9.535 1.645 15.247-2.606Z" fill="url(#be)"/>
    </g>
    <mask id="bf" style="mask-type:luminance" maskUnits="userSpaceOnUse" x="72" y="177" width="3" height="8">
        <path d="M74.547 184.513a.21.21 0 0 1-.208-.182c-.59-4.456-1.79-6.4-1.803-6.42a.21.21 0 0 1 .354-.224c.052.081 1.261 2.028 1.865 6.59a.21.21 0 0 1-.18.235l-.028.001Z" fill="#fff"/>
    </mask>
    <g mask="url(#bf)">
        <path d="M74.547 184.513a.21.21 0 0 1-.208-.182c-.59-4.456-1.79-6.4-1.803-6.42a.21.21 0 0 1 .354-.224c.052.081 1.261 2.028 1.865 6.59a.21.21 0 0 1-.18.235l-.028.001Z" fill="url(#bg)"/>
    </g>
    <mask id="bh" style="mask-type:luminance" maskUnits="userSpaceOnUse" x="60" y="168" width="7" height="10">
        <path d="M61.8 168.883s-.522 5.525-.982 7.16a.56.56 0 0 0 .263.638c.781.446 2.654 1.174 5.216-.082.415-.203.664-.636.645-1.094l-.226-5.339-4.915-1.283Z" fill="#fff"/>
    </mask>
    <g mask="url(#bh)">
        <path d="M61.8 168.883s-.522 5.525-.982 7.16a.56.56 0 0 0 .263.638c.781.446 2.654 1.174 5.216-.082.415-.203.664-.636.645-1.094l-.226-5.339-4.915-1.283Z" fill="url(#bi)"/>
    </g>
    <mask id="bj" style="mask-type:luminance" maskUnits="userSpaceOnUse" x="60" y="161" width="9" height="11">
        <path d="M66.828 161.814s1.672 3.84 1.784 5.855c.112 2.015.547 3.323-1.784 3.729-2.33.406-4.293-.755-5.356-2.762 0 0-1.666-3.093-1.292-4.36.373-1.268 6.648-2.462 6.648-2.462Z" fill="#fff"/>
    </mask>
    <g mask="url(#bj)">
        <path d="M66.828 161.814s1.672 3.84 1.784 5.855c.112 2.015.547 3.323-1.784 3.729-2.33.406-4.293-.755-5.356-2.762 0 0-1.666-3.093-1.292-4.36.373-1.268 6.648-2.462 6.648-2.462Z" fill="url(#bk)"/>
    </g>
    <mask id="bl" style="mask-type:luminance" maskUnits="userSpaceOnUse" x="57" y="157" width="12" height="13">
        <path d="m62.269 167.192.133-.058a.32.32 0 0 0 .156-.44c-.329-.635-.97-2.089-.142-2.429 1.067-.437 5.29-1.298 6.202-2.798.876-1.44.1-3.3-1.066-3.828a.16.16 0 0 0-.21.068l-.098.184a.158.158 0 0 1-.292-.03.157.157 0 0 0-.285-.04c-.28.448-1.036 1.174-3.059 1.548-2.875.531-4.775 1.694-4.822 3.68a.159.159 0 0 1-.245.131c-.213-.129-.552-.19-1.006.192-.79.664-.467 2.385 1.264 3.802.082.067.081.195-.008.253-.313.204-.781.69.431 1.338 1.253.67 2.19.615 2.55.556a.158.158 0 0 0 .128-.19l-.385-1.746a.159.159 0 0 1 .155-.193h.599Z" fill="#fff"/>
    </mask>
    <g mask="url(#bl)">
        <path d="m62.269 167.192.133-.058a.32.32 0 0 0 .156-.44c-.329-.635-.97-2.089-.142-2.429 1.067-.437 5.29-1.298 6.202-2.798.876-1.44.1-3.3-1.066-3.828a.16.16 0 0 0-.21.068l-.098.184a.158.158 0 0 1-.292-.03.157.157 0 0 0-.285-.04c-.28.448-1.036 1.174-3.059 1.548-2.875.531-4.775 1.694-4.822 3.68a.159.159 0 0 1-.245.131c-.213-.129-.552-.19-1.006.192-.79.664-.467 2.385 1.264 3.802.082.067.081.195-.008.253-.313.204-.781.69.431 1.338 1.253.67 2.19.615 2.55.556a.158.158 0 0 0 .128-.19l-.385-1.746a.159.159 0 0 1 .155-.193h.599Z" fill="url(#bm)"/>
    </g>
    <mask id="bn" style="mask-type:luminance" maskUnits="userSpaceOnUse" x="60" y="165" width="3" height="4">
        <path d="M62.34 167.561s-.638-2.453-1.737-1.765c-1.1.687.57 2.747 1.454 2.84l.283-1.075Z" fill="#fff"/>
    </mask>
    <g mask="url(#bn)">
        <path d="M62.34 167.561s-.638-2.453-1.737-1.765c-1.1.687.57 2.747 1.454 2.84l.283-1.075Z" fill="url(#bo)"/>
    </g>
    <mask id="bp" style="mask-type:luminance" maskUnits="userSpaceOnUse" x="97" y="164" width="5" height="5">
        <path d="M97.974 168.835a.209.209 0 0 1-.163-.341c.182-.223 1.789-2.187 2.407-2.537.226-.126.36-.258.388-.38a.306.306 0 0 0-.028-.197l-1.887.379-1.07.917a.208.208 0 0 1-.295-.022.21.21 0 0 1 .022-.295l1.111-.954a.225.225 0 0 1 .096-.047l2.089-.419a.211.211 0 0 1 .215.089c.153.228.204.439.155.646-.058.245-.251.457-.59.648-.466.263-1.809 1.848-2.287 2.437a.21.21 0 0 1-.163.076Z" fill="#fff"/>
    </mask>
    <g mask="url(#bp)">
        <path d="M97.974 168.835a.209.209 0 0 1-.163-.341c.182-.223 1.789-2.187 2.407-2.537.226-.126.36-.258.388-.38a.306.306 0 0 0-.028-.197l-1.887.379-1.07.917a.208.208 0 0 1-.295-.022.21.21 0 0 1 .022-.295l1.111-.954a.225.225 0 0 1 .096-.047l2.089-.419a.211.211 0 0 1 .215.089c.153.228.204.439.155.646-.058.245-.251.457-.59.648-.466.263-1.809 1.848-2.287 2.437a.21.21 0 0 1-.163.076Z" fill="url(#bq)"/>
    </g>
    <mask id="br" style="mask-type:luminance" maskUnits="userSpaceOnUse" x="54" y="196" width="16" height="8">
        <path d="m62.26 203.7 7.387.091-2.585-2.434a1.931 1.931 0 0 0-2.365-.221 5.578 5.578 0 0 0-1.314 1.17s-4.608-1.684-6.843-5.452a22.732 22.732 0 0 0-2.214 4.191c2.003 1.175 4.599 2.099 7.934 2.655Z" fill="#fff"/>
    </mask>
    <g mask="url(#br)">
        <path d="m62.26 203.7 7.387.091-2.585-2.434a1.931 1.931 0 0 0-2.365-.221 5.578 5.578 0 0 0-1.314 1.17s-4.608-1.684-6.843-5.452a22.732 22.732 0 0 0-2.214 4.191c2.003 1.175 4.599 2.099 7.934 2.655Z" fill="url(#bs)"/>
    </g>
    <mask id="bt" style="mask-type:luminance" maskUnits="userSpaceOnUse" x="62" y="202" width="21" height="3">
        <path d="M63.055 204.653h.043l18.753-.02a.835.835 0 0 0 .839-.831.832.832 0 0 0-.84-.83l-18.754.02a.836.836 0 0 0-.838.832c0 .444.354.807.797.829Z" fill="#fff"/>
    </mask>
    <g mask="url(#bt)">
        <path d="M63.055 204.653h.043l18.753-.02a.835.835 0 0 0 .839-.831.832.832 0 0 0-.84-.83l-18.754.02a.836.836 0 0 0-.838.832c0 .444.354.807.797.829Z" fill="url(#bu)"/>
    </g>
    <mask id="bv" style="mask-type:luminance" maskUnits="userSpaceOnUse" x="73" y="187" width="27" height="18">
        <path d="M98.71 187.806H83.091a2.978 2.978 0 0 0-2.692 1.688l-7.22 15.149h19.408a1.81 1.81 0 0 0 1.683-1.132l5.599-14.017c.323-.811-.28-1.688-1.16-1.688Z" fill="#fff"/>
    </mask>
    <g mask="url(#bv)">
        <path d="M98.71 187.806H83.091a2.978 2.978 0 0 0-2.692 1.688l-7.22 15.149h19.408a1.81 1.81 0 0 0 1.683-1.132l5.599-14.017c.323-.811-.28-1.688-1.16-1.688Z" fill="url(#bw)"/>
    </g>
    <path d="M87.707 195.573c-.338 1.04-.088 2.05.559 2.256.647.207 1.446-.47 1.784-1.511.339-1.04.088-2.05-.559-2.256-.646-.206-1.445.47-1.784 1.511Z" fill="#7D97F4"/>
    <defs>
        <linearGradient id="b" x1="273.012" y1="284.636" x2="111.895" y2="110.73" gradientUnits="userSpaceOnUse">
            <stop stop-color="#DAE3FE"/>
            <stop offset="1" stop-color="#E9EFFD"/>
        </linearGradient>
        <linearGradient id="d" x1="192.137" y1="-39.631" x2="95.553" y2="106.452" gradientUnits="userSpaceOnUse">
            <stop stop-color="#FC2F58"/>
            <stop offset="1" stop-color="#FC2F58"/>
        </linearGradient>
        <linearGradient id="f" x1="192.137" y1="-39.632" x2="95.553" y2="106.452" gradientUnits="userSpaceOnUse">
            <stop stop-color="#FFC7C5"/>
            <stop offset="1" stop-color="#FEB6AF"/>
        </linearGradient>
        <linearGradient id="h" x1="192.137" y1="-39.631" x2="95.553" y2="106.452" gradientUnits="userSpaceOnUse">
            <stop stop-color="#FFC7C5"/>
            <stop offset="1" stop-color="#FEB6AF"/>
        </linearGradient>
        <linearGradient id="j" x1="192.137" y1="-39.631" x2="95.553" y2="106.452" gradientUnits="userSpaceOnUse">
            <stop stop-color="#FFC7C5"/>
            <stop offset="1" stop-color="#FEB6AF"/>
        </linearGradient>
        <linearGradient id="l" x1="92.828" y1="310.408" x2="127.035" y2="231.933" gradientUnits="userSpaceOnUse">
            <stop stop-color="#4F52FF"/>
            <stop offset="1" stop-color="#172755"/>
        </linearGradient>
        <linearGradient id="n" x1="92.829" y1="310.408" x2="127.036" y2="231.933" gradientUnits="userSpaceOnUse">
            <stop stop-color="#A5A7FF"/>
            <stop offset="1" stop-color="#9E9FF0"/>
        </linearGradient>
        <linearGradient id="p" x1="92.83" y1="310.408" x2="127.037" y2="231.933" gradientUnits="userSpaceOnUse">
            <stop stop-color="#A5A7FF"/>
            <stop offset="1" stop-color="#9E9FF0"/>
        </linearGradient>
        <linearGradient id="r" x1="92.829" y1="310.408" x2="127.036" y2="231.933" gradientUnits="userSpaceOnUse">
            <stop stop-color="#A5A7FF"/>
            <stop offset="1" stop-color="#9E9FF0"/>
        </linearGradient>
        <linearGradient id="t" x1="138.001" y1="282.87" x2="168.988" y2="205.201" gradientUnits="userSpaceOnUse">
            <stop stop-color="#4F52FF"/>
            <stop offset="1" stop-color="#4042E2"/>
        </linearGradient>
        <linearGradient id="v" x1="139.639" y1="194" x2="224.15" y2="278.108" gradientUnits="userSpaceOnUse">
            <stop stop-color="#172755"/>
            <stop offset="1" stop-color="#4042E2"/>
        </linearGradient>
        <linearGradient id="x" x1="236.055" y1="-22.43" x2="117.337" y2="171.543" gradientUnits="userSpaceOnUse">
            <stop stop-color="#E1473D"/>
            <stop offset="1" stop-color="#E9605A"/>
        </linearGradient>
        <linearGradient id="z" x1="118.071" y1="95.417" x2="126.136" y2="15.149" gradientUnits="userSpaceOnUse">
            <stop stop-color="#172755"/>
            <stop offset="1" stop-color="#4042E2"/>
        </linearGradient>
        <linearGradient id="B" x1="194.188" y1="78.214" x2="201.298" y2="95.117" gradientUnits="userSpaceOnUse">
            <stop stop-color="#09005D"/>
            <stop offset="1" stop-color="#1A0F91"/>
        </linearGradient>
        <linearGradient id="D" x1="194.735" y1="5.743" x2="208.418" y2="47.596" gradientUnits="userSpaceOnUse">
            <stop stop-color="#4F52FF"/>
            <stop offset="1" stop-color="#4042E2"/>
        </linearGradient>
        <linearGradient id="F" x1="265.872" y1="42.815" x2="243.693" y2="61.954" gradientUnits="userSpaceOnUse">
            <stop stop-color="#4F52FF"/>
            <stop offset="1" stop-color="#4042E2"/>
        </linearGradient>
        <linearGradient id="I" x1="237.739" y1="65.172" x2="227.007" y2="77.514" gradientUnits="userSpaceOnUse">
            <stop stop-color="#09005D"/>
            <stop offset="1" stop-color="#1A0F91"/>
        </linearGradient>
        <linearGradient id="K" x1="188.777" y1="63.76" x2="197.362" y2="78.919" gradientUnits="userSpaceOnUse">
            <stop stop-color="#09005D"/>
            <stop offset="1" stop-color="#1A0F91"/>
        </linearGradient>
        <linearGradient id="M" x1="160.241" y1="82.127" x2="189.218" y2="41.703" gradientUnits="userSpaceOnUse">
            <stop stop-color="#FF928E"/>
            <stop offset="1" stop-color="#FE7062"/>
        </linearGradient>
        <linearGradient id="O" x1="36.495" y1="211.767" x2="66.062" y2="182.14" gradientUnits="userSpaceOnUse">
            <stop stop-color="#E1473D"/>
            <stop offset="1" stop-color="#E9605A"/>
        </linearGradient>
        <linearGradient id="Q" x1="32.728" y1="208.023" x2="62.295" y2="178.396" gradientUnits="userSpaceOnUse">
            <stop stop-color="#E1473D"/>
            <stop offset="1" stop-color="#E9605A"/>
        </linearGradient>
        <linearGradient id="S" x1="160.241" y1="82.127" x2="189.218" y2="41.703" gradientUnits="userSpaceOnUse">
            <stop stop-color="#FFC7C5"/>
            <stop offset="1" stop-color="#FEB6AF"/>
        </linearGradient>
        <linearGradient id="U" x1="160.241" y1="82.127" x2="189.218" y2="41.703" gradientUnits="userSpaceOnUse">
            <stop stop-color="#FFC7C5"/>
            <stop offset="1" stop-color="#FEB6AF"/>
        </linearGradient>
        <linearGradient id="W" x1="160.242" y1="82.127" x2="189.218" y2="41.703" gradientUnits="userSpaceOnUse">
            <stop stop-color="#FFC7C5"/>
            <stop offset="1" stop-color="#FEB6AF"/>
        </linearGradient>
        <linearGradient id="Y" x1="167.812" y1="86.073" x2="190.351" y2="163.352" gradientUnits="userSpaceOnUse">
            <stop stop-color="#FC2F58"/>
            <stop offset=".601" stop-color="#FE7E74"/>
            <stop offset="1" stop-color="#FE7062"/>
        </linearGradient>
        <linearGradient id="aa" x1="179.644" y1="228.925" x2="202.446" y2="202.457" gradientUnits="userSpaceOnUse">
            <stop stop-color="#E1473D"/>
            <stop offset="1" stop-color="#E9605A"/>
        </linearGradient>
        <linearGradient id="ac" x1="215.357" y1="183.108" x2="147.93" y2="284.972" gradientUnits="userSpaceOnUse">
            <stop stop-color="#FF928E"/>
            <stop offset="1" stop-color="#FC2F58"/>
        </linearGradient>
        <linearGradient id="ae" x1="215.357" y1="183.108" x2="147.93" y2="284.972" gradientUnits="userSpaceOnUse">
            <stop stop-color="#FFC7C5"/>
            <stop offset="1" stop-color="#FEB6AF"/>
        </linearGradient>
        <linearGradient id="ag" x1="215.358" y1="183.108" x2="147.931" y2="284.972" gradientUnits="userSpaceOnUse">
            <stop stop-color="#FFE7E6"/>
            <stop offset="1" stop-color="#FFE0DD"/>
        </linearGradient>
        <linearGradient id="ai" x1="207.55" y1="184.129" x2="200.574" y2="215.252" gradientUnits="userSpaceOnUse">
            <stop stop-color="#FC2F58"/>
            <stop offset="1" stop-color="#FE7062"/>
        </linearGradient>
        <linearGradient id="ak" x1="168.652" y1="274.32" x2="212.275" y2="213.412" gradientUnits="userSpaceOnUse">
            <stop stop-color="#FF928E"/>
            <stop offset="1" stop-color="#FC2F58"/>
        </linearGradient>
        <linearGradient id="am" x1="172.352" y1="276.73" x2="215.976" y2="215.821" gradientUnits="userSpaceOnUse">
            <stop stop-color="#FF928E"/>
            <stop offset="1" stop-color="#FC2F58"/>
        </linearGradient>
        <linearGradient id="ao" x1="175.993" y1="279.17" x2="219.616" y2="218.262" gradientUnits="userSpaceOnUse">
            <stop stop-color="#FF928E"/>
            <stop offset="1" stop-color="#FC2F58"/>
        </linearGradient>
        <linearGradient id="aq" x1="179.634" y1="281.611" x2="223.258" y2="220.703" gradientUnits="userSpaceOnUse">
            <stop stop-color="#FF928E"/>
            <stop offset="1" stop-color="#FC2F58"/>
        </linearGradient>
        <linearGradient id="as" x1="183.305" y1="284.113" x2="226.929" y2="223.205" gradientUnits="userSpaceOnUse">
            <stop stop-color="#FF928E"/>
            <stop offset="1" stop-color="#FC2F58"/>
        </linearGradient>
        <linearGradient id="au" x1="216.856" y1="236.529" x2="239.659" y2="210.061" gradientUnits="userSpaceOnUse">
            <stop stop-color="#FC2F58"/>
            <stop offset="1" stop-color="#E9605A"/>
        </linearGradient>
        <linearGradient id="aw" x1="252.419" y1="190.761" x2="184.991" y2="292.626" gradientUnits="userSpaceOnUse">
            <stop stop-color="#FF928E"/>
            <stop offset="1" stop-color="#FE7062"/>
        </linearGradient>
        <linearGradient id="ay" x1="252.419" y1="190.761" x2="184.991" y2="292.626" gradientUnits="userSpaceOnUse">
            <stop stop-color="#FFC7C5"/>
            <stop offset="1" stop-color="#FEB6AF"/>
        </linearGradient>
        <linearGradient id="aA" x1="252.419" y1="190.761" x2="184.992" y2="292.626" gradientUnits="userSpaceOnUse">
            <stop stop-color="#FFE7E6"/>
            <stop offset="1" stop-color="#FFE0DD"/>
        </linearGradient>
        <linearGradient id="aC" x1="242.594" y1="195.292" x2="239.196" y2="220.334" gradientUnits="userSpaceOnUse">
            <stop stop-color="#FF928E"/>
            <stop offset="1" stop-color="#FC2F58"/>
        </linearGradient>
        <linearGradient id="aE" x1="253.307" y1="217.107" x2="216.282" y2="264.829" gradientUnits="userSpaceOnUse">
            <stop stop-color="#FF928E"/>
            <stop offset="1" stop-color="#FC2F58"/>
        </linearGradient>
        <linearGradient id="aG" x1="257.017" y1="219.846" x2="219.991" y2="267.569" gradientUnits="userSpaceOnUse">
            <stop stop-color="#FF928E"/>
            <stop offset="1" stop-color="#FC2F58"/>
        </linearGradient>
        <linearGradient id="aI" x1="260.773" y1="222.563" x2="223.747" y2="270.285" gradientUnits="userSpaceOnUse">
            <stop stop-color="#FF928E"/>
            <stop offset="1" stop-color="#FC2F58"/>
        </linearGradient>
        <linearGradient id="aK" x1="264.552" y1="225.326" x2="227.527" y2="273.049" gradientUnits="userSpaceOnUse">
            <stop stop-color="#FF928E"/>
            <stop offset="1" stop-color="#FC2F58"/>
        </linearGradient>
        <linearGradient id="aM" x1="60.711" y1="256.94" x2="72.192" y2="256.94" gradientUnits="userSpaceOnUse">
            <stop stop-color="#53D8FF"/>
            <stop offset="1" stop-color="#3840F7"/>
        </linearGradient>
        <linearGradient id="aO" x1="60.709" y1="254.69" x2="71.866" y2="254.69" gradientUnits="userSpaceOnUse">
            <stop stop-color="#09005D"/>
            <stop offset="1" stop-color="#1A0F91"/>
        </linearGradient>
        <linearGradient id="aQ" x1="61.77" y1="251.548" x2="65.003" y2="251.548" gradientUnits="userSpaceOnUse">
            <stop stop-color="#FEBBBA"/>
            <stop offset="1" stop-color="#FF928E"/>
        </linearGradient>
        <linearGradient id="aS" x1="40.219" y1="259.787" x2="44.618" y2="259.787" gradientUnits="userSpaceOnUse">
            <stop stop-color="#53D8FF"/>
            <stop offset="1" stop-color="#3840F7"/>
        </linearGradient>
        <linearGradient id="aU" x1="40.25" y1="255.409" x2="46.708" y2="255.409" gradientUnits="userSpaceOnUse">
            <stop stop-color="#09005D"/>
            <stop offset="1" stop-color="#1A0F91"/>
        </linearGradient>
        <linearGradient id="aW" x1="43.607" y1="249.862" x2="47.472" y2="249.862" gradientUnits="userSpaceOnUse">
            <stop stop-color="#FEBBBA"/>
            <stop offset="1" stop-color="#FF928E"/>
        </linearGradient>
        <linearGradient id="aY" x1="74.896" y1="208.151" x2="41.899" y2="262.203" gradientUnits="userSpaceOnUse">
            <stop stop-color="#09005D"/>
            <stop offset="1" stop-color="#1A0F91"/>
        </linearGradient>
        <linearGradient id="ba" x1="65.939" y1="138.363" x2="65.939" y2="196.716" gradientUnits="userSpaceOnUse">
            <stop stop-color="#4F52FF"/>
            <stop offset="1" stop-color="#4042E2"/>
        </linearGradient>
        <linearGradient id="bc" x1="96.763" y1="168.442" x2="81.456" y2="188.356" gradientUnits="userSpaceOnUse">
            <stop stop-color="#FEBBBA"/>
            <stop offset="1" stop-color="#FF928E"/>
        </linearGradient>
        <linearGradient id="be" x1="78.61" y1="173.112" x2="27.506" y2="233.68" gradientUnits="userSpaceOnUse">
            <stop stop-color="#4F52FF"/>
            <stop offset="1" stop-color="#4042E2"/>
        </linearGradient>
        <linearGradient id="bg" x1="97.648" y1="122.522" x2="76.32" y2="174.436" gradientUnits="userSpaceOnUse">
            <stop stop-color="#4F52FF"/>
            <stop offset="1" stop-color="#4042E2"/>
        </linearGradient>
        <linearGradient id="bi" x1="62.653" y1="181.323" x2="64.327" y2="172.531" gradientUnits="userSpaceOnUse">
            <stop stop-color="#FEBBBA"/>
            <stop offset="1" stop-color="#FF928E"/>
        </linearGradient>
        <linearGradient id="bk" x1="67.179" y1="165.191" x2="57.624" y2="172.502" gradientUnits="userSpaceOnUse">
            <stop stop-color="#FEBBBA"/>
            <stop offset="1" stop-color="#FF928E"/>
        </linearGradient>
        <linearGradient id="bm" x1="60.443" y1="159.402" x2="69.342" y2="170.859" gradientUnits="userSpaceOnUse">
            <stop stop-color="#09005D"/>
            <stop offset="1" stop-color="#1A0F91"/>
        </linearGradient>
        <linearGradient id="bo" x1="65.992" y1="163.64" x2="56.437" y2="170.951" gradientUnits="userSpaceOnUse">
            <stop stop-color="#FEBBBA"/>
            <stop offset="1" stop-color="#FF928E"/>
        </linearGradient>
        <linearGradient id="bq" x1="97.275" y1="166.886" x2="101.032" y2="166.886" gradientUnits="userSpaceOnUse">
            <stop stop-color="#FF928E"/>
            <stop offset="1" stop-color="#FE7062"/>
        </linearGradient>
        <linearGradient id="bs" x1="71.588" y1="187.577" x2="64.9" y2="197.608" gradientUnits="userSpaceOnUse">
            <stop stop-color="#FEBBBA"/>
            <stop offset="1" stop-color="#FF928E"/>
        </linearGradient>
        <linearGradient id="bu" x1="59.873" y1="199.681" x2="74.758" y2="204.563" gradientUnits="userSpaceOnUse">
            <stop stop-color="#09005D"/>
            <stop offset="1" stop-color="#1A0F91"/>
        </linearGradient>
        <linearGradient id="bw" x1="80.364" y1="190.038" x2="91.02" y2="201.302" gradientUnits="userSpaceOnUse">
            <stop stop-color="#09005D"/>
            <stop offset="1" stop-color="#1A0F91"/>
        </linearGradient>
    </defs>
</svg>
