<svg width="300" height="300" fill="none" xmlns="http://www.w3.org/2000/svg">
    <mask id="a" style="mask-type:luminance" maskUnits="userSpaceOnUse" x="36" y="36" width="220" height="202">
        <path d="M65.02 237.078a69.362 69.362 0 0 1-2.757-2.471c-37.818-35.764-31.994-110.519 4.209-154.531 4.631-5.63 36.506-43.14 86.222-43.14.332 0 .665.002.999.006 24.118.243 43.525 9.251 54.929 16.166-4.672 8.482-9.516 19.857-11.82 33.326h-17.721l-.657-4.525-93.546-1.193-19.859 156.362Zm174.684-38.021-3.068-60.25c6.331-10.486 10.627-21.736 13.694-32.843 8.242 25.533 6.724 55.147-3.918 80.022a105.003 105.003 0 0 1-6.708 13.071Zm-15.836-122.2c-1.063-5.463-1.865-10.293-2.463-14.536a97.89 97.89 0 0 1 6.476 6.2 76.633 76.633 0 0 0-4.013 8.336Z" fill="#fff"/>
    </mask>
    <g mask="url(#a)">
        <path d="M65.02 237.078a69.362 69.362 0 0 1-2.757-2.471c-37.818-35.764-31.994-110.519 4.209-154.531 4.631-5.63 36.506-43.14 86.222-43.14.332 0 .665.002.999.006 24.118.243 43.525 9.251 54.929 16.166-4.672 8.482-9.516 19.857-11.82 33.326h-17.721l-.657-4.525-93.546-1.193-19.859 156.362Zm174.684-38.021-3.068-60.25c6.331-10.486 10.627-21.736 13.694-32.843 8.242 25.533 6.724 55.147-3.918 80.022a105.003 105.003 0 0 1-6.708 13.071Zm-15.836-122.2c-1.063-5.463-1.865-10.293-2.463-14.536a97.89 97.89 0 0 1 6.476 6.2 76.633 76.633 0 0 0-4.013 8.336Z" fill="url(#b)"/>
    </g>
    <path d="M263.398 38.513c.513-1.023-.841-2.108-1.955-1.572-11.318 5.432-39.597 23.037-43.506 64.643-4.905 52.202-21.478 67.728-39.322 75.357 0 0 22.086-.325 39.645-15.903 43.109-38.248 36.015-104.321 45.138-122.525Z" fill="#BDD0FB"/>
    <path d="m234.729 101.36-.239-4.688a10.82 10.82 0 0 0-.273-1.93c.157-.526.318-1.052.479-1.578.425-1.413.881-2.817 1.335-4.221.468-1.4.946-2.797 1.437-4.19a247.619 247.619 0 0 1 6.525-16.485c2.404-5.407 4.975-10.748 7.784-15.98a.33.33 0 0 1 .296-.161c.056 0 .113.012.168.037.171.079.249.257.18.404-2.526 5.34-4.927 10.727-7.094 16.198a248.191 248.191 0 0 0-6.008 16.565c-1.685 5.301-3.26 10.635-4.59 16.029Z" fill="#DCE6FD"/>
    <path d="M209.752 153.546c.868 1.512 2.999 1.644 4.066.265 5.891-7.603 20.603-30.606 13.059-62.942-6.37-27.307-7.23-42.719-7.135-49.742.02-1.486-1.868-2.133-2.765-.95-9.91 13.052-38.718 58.614-7.225 113.369Z" fill="#91B3FA"/>
    <path d="M216.97 86.434h-1.367a153.888 153.888 0 0 0-1.914-13.914.682.682 0 0 1 1.339-.25c.875 4.7 1.507 9.448 1.942 14.164Z" fill="#C0D6FC"/>
    <mask id="c" style="mask-type:luminance" maskUnits="userSpaceOnUse" x="79" y="38" width="66" height="56">
        <path d="m80.571 93.743-.026-.001a.69.69 0 0 1-.664-.716c.004-.091.375-9.267 2.687-19.914 3.118-14.37 8.092-24.447 14.782-29.95 4.788-3.936 10.424-5.427 16.751-4.432 7.289 1.148 13.423 4.748 18.232 10.701 3.817 4.727 6.804 10.937 8.878 18.459 3.515 12.75 3.185 25.06 3.181 25.183a.683.683 0 0 1-.711.669.69.69 0 0 1-.668-.71c.004-.121.325-12.252-3.14-24.804-2.025-7.33-4.926-13.367-8.624-17.941-4.585-5.672-10.427-9.101-17.363-10.194-5.922-.932-11.19.46-15.66 4.136-8.026 6.602-12.212 19.51-14.31 29.176-2.285 10.53-2.652 19.583-2.656 19.674a.69.69 0 0 1-.689.664Z" fill="#fff"/>
    </mask>
    <g mask="url(#c)">
        <path d="m80.571 93.743-.026-.001a.69.69 0 0 1-.664-.716c.004-.091.375-9.267 2.687-19.914 3.118-14.37 8.092-24.447 14.782-29.95 4.788-3.936 10.424-5.427 16.751-4.432 7.289 1.148 13.423 4.748 18.232 10.701 3.817 4.727 6.804 10.937 8.878 18.459 3.515 12.75 3.185 25.06 3.181 25.183a.683.683 0 0 1-.711.669.69.69 0 0 1-.668-.71c.004-.121.325-12.252-3.14-24.804-2.025-7.33-4.926-13.367-8.624-17.941-4.585-5.672-10.427-9.101-17.363-10.194-5.922-.932-11.19.46-15.66 4.136-8.026 6.602-12.212 19.51-14.31 29.176-2.285 10.53-2.652 19.583-2.656 19.674a.69.69 0 0 1-.689.664Z" fill="url(#d)"/>
    </g>
    <mask id="e" style="mask-type:luminance" maskUnits="userSpaceOnUse" x="62" y="80" width="118" height="176">
        <path d="m109.529 255.909-46.892-.079 2.381-18.752L84.877 80.716l93.546 1.193.657 4.525h-49.5a589.089 589.089 0 0 1-9.664-1.224 3.56 3.56 0 0 0-3.494 1.639c-5.224 1.398-9.069 6.164-9.069 11.828v151.929c0 2.068.831 3.941 2.176 5.303Z" fill="#fff"/>
    </mask>
    <g mask="url(#e)">
        <path d="m109.529 255.909-46.892-.079 2.381-18.752L84.877 80.716l93.546 1.193.657 4.525h-49.5a589.089 589.089 0 0 1-9.664-1.224 3.56 3.56 0 0 0-3.494 1.639c-5.224 1.398-9.069 6.164-9.069 11.828v151.929c0 2.068.831 3.941 2.176 5.303Z" fill="url(#f)"/>
    </g>
    <mask id="g" style="mask-type:luminance" maskUnits="userSpaceOnUse" x="38" y="80" width="47" height="177">
        <path d="m67.748 82.199 17.13-1.483-22.24 175.114-20.377.222c-3.513 0-4.298-.982-3.582-4.481L67.75 82.199Z" fill="#fff"/>
    </mask>
    <g mask="url(#g)">
        <path d="m67.748 82.199 17.13-1.483-22.24 175.114-20.377.222c-3.513 0-4.298-.982-3.582-4.481L67.75 82.199Z" fill="url(#h)"/>
    </g>
    <mask id="i" style="mask-type:luminance" maskUnits="userSpaceOnUse" x="99" y="38" width="65" height="56">
        <path d="M99.882 93.364h-.027a.69.69 0 0 1-.663-.715c.004-.092.375-9.268 2.686-19.915 3.12-14.37 8.093-24.446 14.783-29.949 4.788-3.937 10.425-5.428 16.751-4.433 7.29 1.148 13.423 4.748 18.232 10.702 3.817 4.727 6.804 10.937 8.878 18.458 3.515 12.75 3.185 25.06 3.181 25.183a.681.681 0 0 1-.711.67.69.69 0 0 1-.668-.712c.004-.12.326-12.25-3.14-24.803-2.025-7.33-4.926-13.367-8.624-17.941-4.585-5.672-10.427-9.102-17.363-10.193-5.92-.933-11.189.459-15.658 4.134-8.023 6.598-12.209 19.496-14.307 29.155-2.289 10.532-2.657 19.606-2.661 19.696a.69.69 0 0 1-.689.663Z" fill="#fff"/>
    </mask>
    <g mask="url(#i)">
        <path d="M99.882 93.364h-.027a.69.69 0 0 1-.663-.715c.004-.092.375-9.268 2.686-19.915 3.12-14.37 8.093-24.446 14.783-29.949 4.788-3.937 10.425-5.428 16.751-4.433 7.29 1.148 13.423 4.748 18.232 10.702 3.817 4.727 6.804 10.937 8.878 18.458 3.515 12.75 3.185 25.06 3.181 25.183a.681.681 0 0 1-.711.67.69.69 0 0 1-.668-.712c.004-.12.326-12.25-3.14-24.803-2.025-7.33-4.926-13.367-8.624-17.941-4.585-5.672-10.427-9.102-17.363-10.193-5.92-.933-11.189.459-15.658 4.134-8.023 6.598-12.209 19.496-14.307 29.155-2.289 10.532-2.657 19.606-2.661 19.696a.69.69 0 0 1-.689.663Z" fill="url(#j)"/>
    </g>
    <mask id="k" style="mask-type:luminance" maskUnits="userSpaceOnUse" x="107" y="86" width="136" height="173">
        <path d="M114.901 258.156a7.528 7.528 0 0 1-5.372-2.247 7.527 7.527 0 0 1-2.175-5.303V98.678c0-5.665 3.845-10.43 9.069-11.829a3.537 3.537 0 0 0-.54 1.909l.937 159.263a3 3 0 0 0 2.683 2.968c6.096.638 14.868.889 24.906.889 31.084 0 74.238-2.409 87.09-3.169a3.784 3.784 0 0 0 3.556-3.98l-8.059-151.628a3.287 3.287 0 0 0-3.541-3.102c-8.088.62-16.511.879-24.932.879-26.731 0-53.396-2.6-68.942-4.444h94.136c.753 0 1.49.077 2.201.225a10.794 10.794 0 0 1 8.572 10.013l.239 4.688 1.907 37.447 3.068 60.25 2.472 48.57a7.954 7.954 0 0 1-7.8 8.358l-119.335 2.17-.14.001Z" fill="#fff"/>
    </mask>
    <g mask="url(#k)">
        <path d="M114.901 258.156a7.528 7.528 0 0 1-5.372-2.247 7.527 7.527 0 0 1-2.175-5.303V98.678c0-5.665 3.845-10.43 9.069-11.829a3.537 3.537 0 0 0-.54 1.909l.937 159.263a3 3 0 0 0 2.683 2.968c6.096.638 14.868.889 24.906.889 31.084 0 74.238-2.409 87.09-3.169a3.784 3.784 0 0 0 3.556-3.98l-8.059-151.628a3.287 3.287 0 0 0-3.541-3.102c-8.088.62-16.511.879-24.932.879-26.731 0-53.396-2.6-68.942-4.444h94.136c.753 0 1.49.077 2.201.225a10.794 10.794 0 0 1 8.572 10.013l.239 4.688 1.907 37.447 3.068 60.25 2.472 48.57a7.954 7.954 0 0 1-7.8 8.358l-119.335 2.17-.14.001Z" fill="url(#l)"/>
    </g>
    <path d="M115.883 88.758a3.556 3.556 0 0 1 4.033-3.548c14.219 1.929 63.113 7.892 103.538 4.789a3.289 3.289 0 0 1 3.542 3.102l8.058 151.628a3.783 3.783 0 0 1-3.555 3.98c-17.002 1.006-87.021 4.896-111.997 2.28a3 3 0 0 1-2.683-2.968l-.936-159.263Z" fill="#7D97F4"/>
    <path d="M117.559 92.557a3.422 3.422 0 0 1 3.882-3.414c13.683 1.856 60.736 7.596 99.639 4.608a3.165 3.165 0 0 1 3.408 2.986l7.755 145.918a3.642 3.642 0 0 1-3.422 3.831c-16.361.968-83.745 4.711-107.779 2.193a2.886 2.886 0 0 1-2.582-2.855l-.901-153.267Z" fill="#BDD0FB"/>
    <path d="M218.079 106.797h-38.321a.561.561 0 0 1-.494-.35l-.744-2.112c-.067-.19.041-.343.24-.343h.007l39.25.699a.393.393 0 0 1 .382.378l.039 1.357a.359.359 0 0 1-.359.371Zm0 8.756h-38.321a.561.561 0 0 1-.494-.35l-.744-2.112c-.067-.19.041-.343.241-.343h.006l39.25.7a.393.393 0 0 1 .382.377l.039 1.357a.358.358 0 0 1-.359.371Zm-.266 17.426h-38.321a.56.56 0 0 1-.494-.35l-.744-2.112c-.067-.19.041-.343.241-.343h.006l39.25.7a.394.394 0 0 1 .383.377l.039 1.357a.36.36 0 0 1-.36.371Zm.266-8.319h-38.321a.56.56 0 0 1-.494-.35l-.744-2.112c-.067-.19.041-.343.241-.343h.006l39.25.7a.393.393 0 0 1 .382.377l.039 1.357a.358.358 0 0 1-.359.371Zm2.318 28.8h-91.024a.897.897 0 0 1-.607-.286l-1.854-2.24c-.129-.156-.07-.283.131-.283h.004l93.206.707a.407.407 0 0 1 .396.373l.093 1.358a.342.342 0 0 1-.345.371Zm0 9.022h-91.024a.897.897 0 0 1-.607-.286l-1.854-2.24c-.129-.156-.07-.283.131-.283h.004l93.206.707c.204.001.382.17.396.373l.093 1.359a.341.341 0 0 1-.345.37Zm-90.753 35.136a1.844 1.844 0 0 1 0-3.688l.009.001 68.7.313a1.394 1.394 0 0 1 .006 2.788l-68.699.586h-.016Zm-.183-13.671a1.843 1.843 0 1 1 0-3.687h.008l68.701.314a1.394 1.394 0 0 1 .006 2.788l-68.7.585h-.015Zm.183 29.585a1.843 1.843 0 0 1 0-3.687h.009l68.7.313a1.395 1.395 0 0 1 .006 2.788l-68.699.586h-.016Zm.797 15.913a1.844 1.844 0 0 1 0-3.687h.009l68.701.314a1.395 1.395 0 0 1 .005 2.788l-68.699.585h-.016Z" fill="#E5ECFD"/>
    <path d="M209.087 176.783a1.05 1.05 0 0 0-.727.381.788.788 0 0 0-.172.597l.843 6.207c.09.667.74 1.158 1.511 1.141l7.424-.156h.014c.72-.022 1.3-.547 1.297-1.176-.015-2.842-.061-5.503-.469-6.847-.183-.603-.828-1.006-1.553-.986-1.354.059-3.779.34-5.727.566-.933.108-1.813.21-2.441.273Zm8.911 8.74h-.02l-7.424.156c-1.061.022-1.958-.68-2.088-1.635l-.842-6.206c-.05-.365.052-.73.288-1.027a1.625 1.625 0 0 1 1.118-.595c.624-.063 1.502-.165 2.432-.272 1.958-.227 4.395-.51 5.769-.569.997-.036 1.86.528 2.122 1.39.431 1.417.479 4.124.494 7.009.004.937-.823 1.717-1.849 1.749Z" fill="#fff"/>
    <path d="M211.061 184.509c-.714 0-1.318-.473-1.403-1.109l-.674-4.96c-.069-.513.345-.982.921-1.039 1.556-.154 4.933-.602 6.54-.671l.072-.002c.651 0 1.225.386 1.397.951.345 1.138.374 3.425.385 5.537.003.632-.562 1.154-1.271 1.169l-5.933.124h-.034Z" fill="#E5ECFD"/>
    <path d="M210.708 192.112a1.055 1.055 0 0 0-.727.381.784.784 0 0 0-.171.597l.842 6.207c.091.666.741 1.157 1.512 1.141l7.423-.155.015-.001c.72-.022 1.299-.547 1.296-1.176-.014-2.841-.061-5.502-.469-6.847-.183-.602-.838-1.019-1.552-.986-1.354.059-3.779.34-5.728.566-.932.109-1.813.211-2.441.273Zm8.912 8.74-.02.001-7.424.155c-1.061.023-1.959-.681-2.088-1.634l-.843-6.207c-.05-.365.053-.729.288-1.028.264-.333.671-.55 1.118-.595.625-.061 1.503-.163 2.433-.271 1.957-.228 4.394-.51 5.768-.57l.029-.001c.976-.029 1.834.539 2.094 1.391.43 1.419.479 4.125.493 7.01.005.937-.822 1.718-1.848 1.749Z" fill="#fff"/>
    <path d="M212.683 199.839c-.714 0-1.318-.474-1.404-1.11l-.674-4.96c-.069-.513.345-.982.922-1.039 1.556-.154 4.933-.602 6.54-.671l.071-.001c.652 0 1.226.385 1.398.951.345 1.137.374 3.424.384 5.535.004.633-.562 1.155-1.271 1.17l-5.932.125h-.034Z" fill="#E5ECFD"/>
    <path d="M211.196 208.018a1.055 1.055 0 0 0-.727.381.788.788 0 0 0-.171.597l.843 6.207c.09.667.739 1.158 1.511 1.141l7.424-.155.014-.001c.719-.022 1.3-.546 1.296-1.176-.014-2.841-.061-5.502-.469-6.847-.183-.601-.837-1.021-1.553-.986-1.353.059-3.778.34-5.726.566-.933.109-1.813.211-2.442.273Zm8.911 8.74-.02.001-7.424.155c-1.06.023-1.957-.68-2.088-1.634l-.842-6.207c-.05-.364.053-.729.288-1.028.264-.333.672-.55 1.119-.595.624-.061 1.502-.163 2.431-.271 1.959-.228 4.395-.51 5.769-.569l.03-.001c.976-.03 1.834.538 2.092 1.391.431 1.418.48 4.124.494 7.009.005.937-.823 1.718-1.849 1.749Z" fill="#fff"/>
    <path d="M213.169 215.745c-.715 0-1.317-.474-1.404-1.109l-.673-4.96c-.07-.514.344-.982.921-1.039 1.555-.155 4.934-.603 6.54-.672l.072-.001c.651 0 1.225.385 1.397.951.345 1.137.373 3.424.384 5.536.003.633-.561 1.154-1.27 1.169l-5.933.125h-.034Z" fill="#E5ECFD"/>
    <path d="M211.682 223.924a1.055 1.055 0 0 0-.727.381.784.784 0 0 0-.171.597l.843 6.207c.091.667.74 1.158 1.51 1.141l7.424-.155.016-.001c.718-.022 1.298-.546 1.295-1.176-.015-2.841-.061-5.502-.469-6.847-.183-.601-.838-1.023-1.553-.986-1.353.059-3.778.34-5.727.566-.931.109-1.812.211-2.441.273Zm8.912 8.74-.021.001-7.423.155c-1.061.023-1.959-.68-2.088-1.634l-.843-6.207a1.36 1.36 0 0 1 .288-1.028 1.639 1.639 0 0 1 1.119-.595c.624-.061 1.502-.163 2.432-.271 1.957-.228 4.394-.51 5.768-.569l.03-.001c.976-.03 1.834.539 2.093 1.391.43 1.418.479 4.124.493 7.009.005.937-.822 1.718-1.848 1.749Z" fill="#fff"/>
    <path d="M213.655 231.651c-.715 0-1.317-.474-1.404-1.109l-.673-4.96c-.07-.514.344-.982.921-1.039 1.556-.155 4.934-.603 6.54-.672l.071-.001c.652 0 1.226.385 1.397.951.346 1.137.375 3.424.385 5.536.003.633-.562 1.155-1.27 1.169l-5.933.125h-.034Z" fill="#E5ECFD"/>
    <path d="M160.153 130.848h-.016l-20.735-.278a.828.828 0 0 1-.781-.574l-6.272-20.042-3.466.082-.022.001c-.425 0-.765-.282-.765-.709 0-.435.352-.737.787-.748l4.056-.107h.022c.342 0 .642.209.743.533l.747 2.37 29.541-.62h.031c.313 0 .605.101.795.333a.89.89 0 0 1 .165.838l-3.491 11.288c-.127.41-.525.707-.978.707h-.001l-22.121-.034 1.615 5.204 20.13.217c.486.005.882.32.882.78 0 .456-.387.759-.866.759Zm-17.633 7.008-.084-.002c-1.707-.044-3.087-1.43-3.087-3.088 0-1.643 1.354-2.961 3.036-2.961l.051.001c1.716.027 3.12 1.413 3.12 3.09 0 1.648-1.358 2.96-3.036 2.96Zm-.112-4.438c-.785 0-1.417.615-1.417 1.382 0 .776.647 1.423 1.445 1.441l.035.001c.783 0 1.417-.613 1.417-1.382 0-.779-.653-1.426-1.452-1.441l-.028-.001Zm13.941 4.801-.091-.001c-1.791-.047-3.239-1.467-3.239-3.166 0-1.682 1.419-3.032 3.185-3.032h.054c1.801.029 3.275 1.449 3.275 3.168 0 1.689-1.424 3.031-3.184 3.031Zm-.121-4.546c-.823 0-1.486.628-1.486 1.414 0 .795.679 1.458 1.516 1.478l.038.001c.821 0 1.486-.628 1.486-1.415 0-.799-.685-1.462-1.524-1.478h-.03Z" fill="#F2F6FE"/>
    <path d="M147.9 145.749c-14.248 0-25.839-11.591-25.839-25.839 0-14.249 11.591-25.84 25.839-25.84 14.247 0 25.838 11.591 25.838 25.84 0 14.248-11.591 25.839-25.838 25.839Zm0-49.47c-13.03 0-23.632 10.6-23.632 23.631 0 13.03 10.602 23.631 23.632 23.631 13.03 0 23.631-10.601 23.631-23.631 0-13.031-10.601-23.632-23.631-23.632Z" fill="#F3F6FE"/>
    <mask id="m" style="mask-type:luminance" maskUnits="userSpaceOnUse" x="165" y="63" width="17" height="18">
        <path d="M172.92 74.594a2.947 2.947 0 1 1 .001-5.893 2.947 2.947 0 0 1-.001 5.893Zm5.195-8.742c-3.76-2.616-7.03-2.565-9.333-1.885a4.592 4.592 0 0 0-3.261 4.827l.992 10.836 11.814 1.049s7.164-9.695-.212-14.827Z" fill="#fff"/>
    </mask>
    <g mask="url(#m)">
        <path d="M172.92 74.594a2.947 2.947 0 1 1 .001-5.893 2.947 2.947 0 0 1-.001 5.893Zm5.195-8.742c-3.76-2.616-7.03-2.565-9.333-1.885a4.592 4.592 0 0 0-3.261 4.827l.992 10.836 11.814 1.049s7.164-9.695-.212-14.827Z" fill="url(#n)"/>
    </g>
    <path d="M167.384 71.69a.285.285 0 0 1-.284-.26l-.121-1.31a4.383 4.383 0 0 1 3.108-4.598 8.818 8.818 0 0 1 4.318-.177.284.284 0 1 1-.114.558 8.283 8.283 0 0 0-4.043.166 3.813 3.813 0 0 0-2.701 4l.12 1.31a.284.284 0 0 1-.283.311Zm.309 3.382a.286.286 0 0 1-.284-.259l-.157-1.726a.285.285 0 1 1 .567-.052l.158 1.726a.285.285 0 0 1-.258.31h-.026Z" fill="#fff"/>
    <mask id="o" style="mask-type:luminance" maskUnits="userSpaceOnUse" x="150" y="77" width="45" height="11">
        <path d="M150.389 86.633v-5.448a3.325 3.325 0 0 1 3.439-3.323l37.562 1.288a3.234 3.234 0 0 1 3.117 3.038l.314 5.235-44.432-.79Z" fill="#fff"/>
    </mask>
    <g mask="url(#o)">
        <path d="M150.389 86.633v-5.448a3.325 3.325 0 0 1 3.439-3.323l37.562 1.288a3.234 3.234 0 0 1 3.117 3.038l.314 5.235-44.432-.79Z" fill="url(#p)"/>
    </g>
    <path d="M164.395 79.915h-1.615a.286.286 0 1 1 0-.57h1.615a.285.285 0 0 1 0 .57Zm-11.973 5.007a.284.284 0 0 1-.285-.284v-2.205a3.091 3.091 0 0 1 3.088-3.088h5.939a.285.285 0 1 1 0 .57h-5.939a2.52 2.52 0 0 0-2.518 2.518v2.205a.285.285 0 0 1-.285.284Z" fill="#fff"/>
    <path d="M135.083 88.009a3.542 3.542 0 0 1 3.537-3.37l65.684-.001c2.362 0 4.381 1.7 4.784 4.027l.056.32a4.17 4.17 0 0 1-4.108 4.881h-67.389a2.71 2.71 0 0 1-2.708-2.84l.144-3.017Z" fill="#7D97F4"/>
    <mask id="q" style="mask-type:luminance" maskUnits="userSpaceOnUse" x="121" y="149" width="24" height="9">
        <path d="M129.025 154.246s-1.234-3.248-2.675-2.95c-1.441.297-3.017 1.404-3.017 1.404l-2.315 3.131s6.499 2.56 8.784 1.094c0 0 6.639 1.146 15.023-.229-1.214-2.562-1.938-5.128-2.362-7.118-4.246 2.403-8.82 4.198-13.438 4.668Z" fill="#fff"/>
    </mask>
    <g mask="url(#q)">
        <path d="M129.025 154.246s-1.234-3.248-2.675-2.95c-1.441.297-3.017 1.404-3.017 1.404l-2.315 3.131s6.499 2.56 8.784 1.094c0 0 6.639 1.146 15.023-.229-1.214-2.562-1.938-5.128-2.362-7.118-4.246 2.403-8.82 4.198-13.438 4.668Z" fill="url(#r)"/>
    </g>
    <mask id="s" style="mask-type:luminance" maskUnits="userSpaceOnUse" x="142" y="130" width="23" height="27">
        <path d="M164.189 130.688s-9.505 11.971-21.728 18.89c.424 1.99 1.148 4.556 2.362 7.118 6.34-1.041 13.679-3.523 19.9-9.041l-.534-16.967Z" fill="#fff"/>
    </mask>
    <g mask="url(#s)">
        <path d="M164.189 130.688s-9.505 11.971-21.728 18.89c.424 1.99 1.148 4.556 2.362 7.118 6.34-1.041 13.679-3.523 19.9-9.041l-.534-16.967Z" fill="url(#t)"/>
    </g>
    <mask id="u" style="mask-type:luminance" maskUnits="userSpaceOnUse" x="163" y="128" width="37" height="57">
        <path d="M176.043 183.748c-1.859-8.83-3.718-13.941-9.942-30.676-1.958-5.267-3.736-10.596-2.877-16.148l.966-6.236s12.095-4.093 25.502-.172c0 0 18.292 7.946 5.867 47.191-5.6 6.265-12.154 8.051-19.516 6.041Z" fill="#fff"/>
    </mask>
    <g mask="url(#u)">
        <path d="M176.043 183.748c-1.859-8.83-3.718-13.941-9.942-30.676-1.958-5.267-3.736-10.596-2.877-16.148l.966-6.236s12.095-4.093 25.502-.172c0 0 18.292 7.946 5.867 47.191-5.6 6.265-12.154 8.051-19.516 6.041Z" fill="url(#v)"/>
    </g>
    <mask id="w" style="mask-type:luminance" maskUnits="userSpaceOnUse" x="166" y="120" width="14" height="12">
        <path d="m166.248 122.728 3.137 7.535c.198.476.625.815 1.134.902 1.808.31 6.181.795 9.053-1.094a.73.73 0 0 0 .196-1.026l-5.795-8.319-7.725 2.002Z" fill="#fff"/>
    </mask>
    <g mask="url(#w)">
        <path d="m166.248 122.728 3.137 7.535c.198.476.625.815 1.134.902 1.808.31 6.181.795 9.053-1.094a.73.73 0 0 0 .196-1.026l-5.795-8.319-7.725 2.002Z" fill="url(#x)"/>
    </g>
    <mask id="y" style="mask-type:luminance" maskUnits="userSpaceOnUse" x="163" y="110" width="14" height="15">
        <path d="M169.491 111.2c-.132.124-5.559 10.782-5.559 10.782l6.152 2.97 6.644-9.337s-5.032-6.49-7.237-4.415Z" fill="#fff"/>
    </mask>
    <g mask="url(#y)">
        <path d="M169.491 111.2c-.132.124-5.559 10.782-5.559 10.782l6.152 2.97 6.644-9.337s-5.032-6.49-7.237-4.415Z" fill="url(#z)"/>
    </g>
    <mask id="A" style="mask-type:luminance" maskUnits="userSpaceOnUse" x="162" y="106" width="19" height="22">
        <path d="m173.934 116.734-3.068 5.115a.946.946 0 0 1-.168.209c-.366.34-1.615 1.329-2.581-.017-.823-1.148-1.596-2.191-2.424-2.621a.98.98 0 0 0-1.323.436c-.506 1.002-1.485 3.044-2.1 4.981a.976.976 0 0 0 .568 1.197c1.246.505 3.708 1.418 5.893 1.719a.98.98 0 0 0 .927-.394c.94-1.288 3.589-4.886 4.493-5.787.84-.837 2.39-.521 3.089-.321.265.077.547.04.783-.102.709-.427 1.946-1.49.814-3.29a.983.983 0 0 1 .304-1.334c.791-.52 1.65-1.497.832-3.079-.828-1.602-2.307-1.746-3.314-1.623-.446.055-.898-.179-1.069-.594-.076-.185-.226-.342-.506-.399-.528-.107-.875-.589-.771-1.118.177-.907.044-2.084-1.404-2.88-2.653-1.459-4.978.919-5.569 2.926-.592 2.007 2.375 3.426 4.243 3.662 1.371.175 2.122 1.671 2.425 2.453a.98.98 0 0 1-.074.861Z" fill="#fff"/>
    </mask>
    <g mask="url(#A)">
        <path d="m173.934 116.734-3.068 5.115a.946.946 0 0 1-.168.209c-.366.34-1.615 1.329-2.581-.017-.823-1.148-1.596-2.191-2.424-2.621a.98.98 0 0 0-1.323.436c-.506 1.002-1.485 3.044-2.1 4.981a.976.976 0 0 0 .568 1.197c1.246.505 3.708 1.418 5.893 1.719a.98.98 0 0 0 .927-.394c.94-1.288 3.589-4.886 4.493-5.787.84-.837 2.39-.521 3.089-.321.265.077.547.04.783-.102.709-.427 1.946-1.49.814-3.29a.983.983 0 0 1 .304-1.334c.791-.52 1.65-1.497.832-3.079-.828-1.602-2.307-1.746-3.314-1.623-.446.055-.898-.179-1.069-.594-.076-.185-.226-.342-.506-.399-.528-.107-.875-.589-.771-1.118.177-.907.044-2.084-1.404-2.88-2.653-1.459-4.978.919-5.569 2.926-.592 2.007 2.375 3.426 4.243 3.662 1.371.175 2.122 1.671 2.425 2.453a.98.98 0 0 1-.074.861Z" fill="url(#B)"/>
    </g>
    <mask id="C" style="mask-type:luminance" maskUnits="userSpaceOnUse" x="172" y="120" width="6" height="5">
        <path d="M172.857 123.103s1.321-3.106 2.831-2.979c1.511.127 2.7 1.632.828 3.324-2.329 2.104-3.659-.345-3.659-.345Z" fill="#fff"/>
    </mask>
    <g mask="url(#C)">
        <path d="M172.857 123.103s1.321-3.106 2.831-2.979c1.511.127 2.7 1.632.828 3.324-2.329 2.104-3.659-.345-3.659-.345Z" fill="url(#D)"/>
    </g>
    <mask id="E" style="mask-type:luminance" maskUnits="userSpaceOnUse" x="174" y="261" width="18" height="3">
        <path d="M174.853 261.559c2.921.252 7.991.662 11.988.838 2.402.106 3.786-.129 4.582-.448-.001.09-.004.174-.007.254a.827.827 0 0 1-.785.78c-7.553.422-13.56.146-15.698.016-.442-.027-.706-.508-.479-.885.113-.188.25-.372.399-.555Z" fill="#fff"/>
    </mask>
    <g mask="url(#E)">
        <path d="M174.853 261.559c2.921.252 7.991.662 11.988.838 2.402.106 3.786-.129 4.582-.448-.001.09-.004.174-.007.254a.827.827 0 0 1-.785.78c-7.553.422-13.56.146-15.698.016-.442-.027-.706-.508-.479-.885.113-.188.25-.372.399-.555Z" fill="url(#F)"/>
    </g>
    <mask id="G" style="mask-type:luminance" maskUnits="userSpaceOnUse" x="174" y="255" width="18" height="8">
        <path d="M186.84 262.397c-3.997-.176-9.067-.586-11.988-.838 2.872-3.524 11.988-5.899 11.988-5.899h2.575c1.77 2.553 2.027 4.983 2.007 6.289-.796.319-2.18.554-4.582.448Z" fill="#fff"/>
    </mask>
    <g mask="url(#G)">
        <path d="M186.84 262.397c-3.997-.176-9.067-.586-11.988-.838 2.872-3.524 11.988-5.899 11.988-5.899h2.575c1.77 2.553 2.027 4.983 2.007 6.289-.796.319-2.18.554-4.582.448Z" fill="url(#H)"/>
    </g>
    <mask id="I" style="mask-type:luminance" maskUnits="userSpaceOnUse" x="185" y="251" width="5" height="7">
        <path d="m189.848 251.457-.241 4.768c-.026.516-.412.95-.929 1.024a4.23 4.23 0 0 1-1.934-.16 1.287 1.287 0 0 1-.866-.991l-.833-4.641h4.803Z" fill="#fff"/>
    </mask>
    <g mask="url(#I)">
        <path d="m189.848 251.457-.241 4.768c-.026.516-.412.95-.929 1.024a4.23 4.23 0 0 1-1.934-.16 1.287 1.287 0 0 1-.866-.991l-.833-4.641h4.803Z" fill="url(#J)"/>
    </g>
    <mask id="K" style="mask-type:luminance" maskUnits="userSpaceOnUse" x="218" y="260" width="8" height="4">
        <path d="M223.29 262.362c1.267-.177 1.84-.835 2.08-1.539l.005.019c.186.743-.246 1.512-1.109 1.877-1.044.443-2.186.518-3.072.481-.951-.038-1.824-.432-2.304-1.062l-.007-.01c.955.472 2.295.528 4.407.234Z" fill="#fff"/>
    </mask>
    <g mask="url(#K)">
        <path d="M223.29 262.362c1.267-.177 1.84-.835 2.08-1.539l.005.019c.186.743-.246 1.512-1.109 1.877-1.044.443-2.186.518-3.072.481-.951-.038-1.824-.432-2.304-1.062l-.007-.01c.955.472 2.295.528 4.407.234Z" fill="url(#L)"/>
    </g>
    <mask id="M" style="mask-type:luminance" maskUnits="userSpaceOnUse" x="215" y="251" width="11" height="12">
        <path d="M217.318 251.426h2.123c3.234-.066 5.265 6.755 5.93 9.397-.24.704-.813 1.362-2.081 1.539-2.112.294-3.452.238-4.406-.234-1.747-2.299-2.614-5.667-3.03-7.631-.473-2.235 1.464-3.071 1.464-3.071Z" fill="#fff"/>
    </mask>
    <g mask="url(#M)">
        <path d="M217.318 251.426h2.123c3.234-.066 5.265 6.755 5.93 9.397-.24.704-.813 1.362-2.081 1.539-2.112.294-3.452.238-4.406-.234-1.747-2.299-2.614-5.667-3.03-7.631-.473-2.235 1.464-3.071 1.464-3.071Z" fill="url(#N)"/>
    </g>
    <mask id="O" style="mask-type:luminance" maskUnits="userSpaceOnUse" x="214" y="247" width="7" height="7">
        <path d="m219.168 247.001 1.179 4.69a1.27 1.27 0 0 1-.662 1.441c-.66.339-1.589.695-2.442.592a1.062 1.062 0 0 1-.867-.709l-1.731-4.934 4.523-1.08Z" fill="#fff"/>
    </mask>
    <g mask="url(#O)">
        <path d="m219.168 247.001 1.179 4.69a1.27 1.27 0 0 1-.662 1.441c-.66.339-1.589.695-2.442.592a1.062 1.062 0 0 1-.867-.709l-1.731-4.934 4.523-1.08Z" fill="url(#P)"/>
    </g>
    <mask id="Q" style="mask-type:luminance" maskUnits="userSpaceOnUse" x="175" y="177" width="46" height="77">
        <path d="M220.574 248.357c-1.467 1.301-6.238 1.472-6.238 1.472-17.188-41.25-24.353-52.606-24.353-52.606 2.482 15.57.536 55.535.536 55.535-2.837 1.252-6.493 0-6.493 0-.231-25.49-3.819-52.879-8.448-70.404 11.617-.261 17.929-2.794 19.947-4.389 9.683 15.611 25.049 70.392 25.049 70.392Z" fill="#fff"/>
    </mask>
    <g mask="url(#Q)">
        <path d="M220.574 248.357c-1.467 1.301-6.238 1.472-6.238 1.472-17.188-41.25-24.353-52.606-24.353-52.606 2.482 15.57.536 55.535.536 55.535-2.837 1.252-6.493 0-6.493 0-.231-25.49-3.819-52.879-8.448-70.404 11.617-.261 17.929-2.794 19.947-4.389 9.683 15.611 25.049 70.392 25.049 70.392Z" fill="url(#R)"/>
    </g>
    <mask id="S" style="mask-type:luminance" maskUnits="userSpaceOnUse" x="172" y="188" width="43" height="23">
        <path d="m172.652 193.88 2.137 13.295c.373 2.319 2.521 3.926 4.863 3.641l31.991-3.903a3.158 3.158 0 0 0 2.783-3.067c.068-3.435-.067-9.548-1.508-15.118l-40.266 5.152Z" fill="#fff"/>
    </mask>
    <g mask="url(#S)">
        <path d="m172.652 193.88 2.137 13.295c.373 2.319 2.521 3.926 4.863 3.641l31.991-3.903a3.158 3.158 0 0 0 2.783-3.067c.068-3.435-.067-9.548-1.508-15.118l-40.266 5.152Z" fill="url(#T)"/>
    </g>
    <path d="M209.105 189.311a.095.095 0 0 1-.012-.189l.752-.097c.057-.007.1.031.106.083a.095.095 0 0 1-.082.106l-.752.096-.012.001Zm2.949.039a.094.094 0 0 1-.092-.072c-.026-.108-.054-.215-.081-.322l-.257.033a.094.094 0 0 1-.106-.082.095.095 0 0 1 .082-.106l.423-.054.02.081c.036.134.07.269.103.404a.096.096 0 0 1-.092.118Zm-5.457.282a.096.096 0 0 1-.094-.083.094.094 0 0 1 .082-.106l.752-.097c.058-.006.1.031.106.083a.095.095 0 0 1-.082.106l-.752.096-.012.001Zm-2.507.321a.097.097 0 0 1-.095-.083.095.095 0 0 1 .083-.106l.752-.097a.092.092 0 0 1 .106.082c.007.053-.03.1-.082.107l-.752.096-.012.001Zm-2.508.32a.095.095 0 0 1-.094-.082.094.094 0 0 1 .081-.106l.753-.096a.09.09 0 0 1 .106.081c.007.052-.03.1-.082.106l-.752.096-.012.001Zm-2.507.321a.096.096 0 0 1-.095-.082.095.095 0 0 1 .082-.106l.753-.096a.09.09 0 0 1 .106.081c.006.052-.03.1-.082.106l-.753.096-.011.001Zm-2.508.321a.094.094 0 0 1-.094-.082.094.094 0 0 1 .081-.107l.752-.096c.06-.007.1.03.107.082a.095.095 0 0 1-.082.106l-.752.096-.012.001Zm-2.508.321a.095.095 0 0 1-.012-.189l.752-.096c.06-.008.099.03.107.082a.095.095 0 0 1-.083.106l-.752.096-.012.001Zm-2.507.321a.094.094 0 0 1-.094-.083.093.093 0 0 1 .081-.106l.752-.096c.061-.007.1.03.107.082a.095.095 0 0 1-.082.106l-.752.096-.012.001Zm21.022.266a.095.095 0 0 1-.093-.078c-.044-.248-.09-.496-.139-.743a.095.095 0 0 1 .186-.038c.049.25.096.499.14.748a.095.095 0 0 1-.077.11l-.017.001Zm-23.53.054a.094.094 0 0 1-.094-.082.094.094 0 0 1 .082-.106l.752-.096c.057-.008.099.031.107.081a.096.096 0 0 1-.083.107l-.752.096h-.012Zm-2.507.321a.093.093 0 0 1-.094-.082.094.094 0 0 1 .081-.106l.752-.096c.058-.007.101.03.107.081a.095.095 0 0 1-.082.106l-.752.097h-.012Zm-2.508.321a.093.093 0 0 1-.094-.082.094.094 0 0 1 .082-.106l.752-.096a.091.091 0 0 1 .106.081c.007.052-.03.1-.082.106l-.752.097h-.012Zm-2.507.321a.094.094 0 0 1-.095-.082.097.097 0 0 1 .083-.107l.752-.096a.09.09 0 0 1 .105.082.093.093 0 0 1-.081.106l-.752.097h-.012Zm-2.508.321a.093.093 0 0 1-.094-.082.096.096 0 0 1 .081-.107l.753-.096a.092.092 0 0 1 .106.083.094.094 0 0 1-.082.105l-.752.097h-.012Zm-2.508.321a.096.096 0 0 1-.094-.083.095.095 0 0 1 .083-.106l.752-.096c.059-.007.099.031.105.083a.092.092 0 0 1-.081.105l-.753.097h-.012Zm-2.508.322a.094.094 0 0 1-.093-.084.093.093 0 0 1 .081-.106l.752-.096c.061-.008.1.031.107.082a.096.096 0 0 1-.082.106l-.752.097-.013.001Zm38.952.52a.094.094 0 0 1-.093-.083c-.032-.249-.064-.5-.099-.751a.094.094 0 0 1 .08-.107c.055-.006.1.029.108.081.034.252.068.503.098.754a.094.094 0 0 1-.082.105l-.012.001Zm-39.197.275a.096.096 0 0 1-.094-.08l-.121-.749a.095.095 0 0 1 .079-.108c.055-.009.1.027.109.078l.12.749a.095.095 0 0 1-.078.109l-.015.001Zm39.451 2.24a.094.094 0 0 1-.095-.087c-.02-.249-.041-.501-.064-.755a.093.093 0 0 1 .086-.102.093.093 0 0 1 .103.085c.023.255.044.507.064.757a.094.094 0 0 1-.087.102h-.007Zm-39.05.256a.096.096 0 0 1-.094-.08l-.12-.748a.095.095 0 1 1 .187-.031l.12.749a.094.094 0 0 1-.078.109l-.015.001Zm39.196 2.268a.094.094 0 0 1-.095-.09c-.009-.248-.02-.501-.033-.757a.093.093 0 0 1 .09-.099c.054 0 .097.037.099.089.013.257.024.511.034.76a.093.093 0 0 1-.092.097h-.003Zm-38.795.228a.094.094 0 0 1-.093-.08l-.121-.748a.094.094 0 0 1 .079-.109c.054-.011.1.027.108.078l.12.749a.095.095 0 0 1-.078.109l-.015.001Zm38.845 2.301a.095.095 0 0 1-.095-.095c0-.244-.001-.497-.005-.757 0-.052.041-.096.094-.096.051.003.095.041.096.093.003.261.005.515.005.76a.094.094 0 0 1-.095.095Zm-38.443.195a.095.095 0 0 1-.094-.08l-.121-.749a.094.094 0 0 1 .079-.108c.053-.01.1.026.108.078l.121.749a.094.094 0 0 1-.078.108l-.015.002Zm38.214 2.305a.094.094 0 0 1-.088-.13c.092-.228.155-.466.185-.708a.096.096 0 0 1 .107-.082.095.095 0 0 1 .082.106c-.033.259-.1.513-.198.754a.095.095 0 0 1-.088.06Zm-37.813.191a.095.095 0 0 1-.094-.08l-.121-.749a.094.094 0 0 1 .079-.108.093.093 0 0 1 .109.078l.12.749a.093.093 0 0 1-.079.108l-.014.002Zm36.046 1.511a.092.092 0 0 1-.089-.062.095.095 0 0 1 .056-.121c.232-.084.451-.196.653-.334a.095.095 0 0 1 .132.024.096.096 0 0 1-.025.132 3.125 3.125 0 0 1-.695.356.09.09 0 0 1-.032.005Zm-2.494.382a.096.096 0 0 1-.095-.083.095.095 0 0 1 .083-.106l.753-.092a.093.093 0 0 1 .106.083.096.096 0 0 1-.083.106l-.753.091-.011.001Zm-2.51.306a.095.095 0 0 1-.094-.084.096.096 0 0 1 .083-.105l.752-.091a.09.09 0 0 1 .106.082.093.093 0 0 1-.082.105l-.753.093h-.012Zm-30.602.288a.095.095 0 0 1-.09-.067 4.157 4.157 0 0 1-.135-.581l-.029-.172a.096.096 0 0 1 .079-.109c.052-.01.1.028.109.079l.028.172c.03.188.074.376.129.555a.094.094 0 0 1-.091.123Zm28.093.018a.094.094 0 0 1-.011-.188l.752-.093c.057-.006.1.031.105.083a.095.095 0 0 1-.082.106l-.753.091-.011.001Zm-2.509.307a.096.096 0 0 1-.095-.084.097.097 0 0 1 .083-.106l.752-.092c.057-.007.1.032.106.083a.095.095 0 0 1-.082.106l-.753.092-.011.001Zm-2.51.305a.094.094 0 0 1-.094-.083.094.094 0 0 1 .083-.105l.752-.092a.09.09 0 0 1 .105.082c.007.053-.03.1-.082.106l-.753.091-.011.001Zm-2.509.307a.097.097 0 0 1-.095-.084.096.096 0 0 1 .083-.106l.752-.091c.057-.007.1.031.106.083a.094.094 0 0 1-.082.105l-.753.092-.011.001Zm-2.51.305a.095.095 0 0 1-.011-.188l.752-.092a.09.09 0 0 1 .105.082c.007.053-.03.1-.082.106l-.753.092h-.011Zm-2.509.307a.097.097 0 0 1-.095-.084.095.095 0 0 1 .083-.105l.752-.092c.058-.008.1.03.106.083a.094.094 0 0 1-.082.105l-.753.092-.011.001Zm-2.51.305a.095.095 0 0 1-.011-.188l.752-.092c.057-.007.1.031.106.082.007.053-.03.1-.082.106l-.753.092h-.012Zm-11.619.192a.098.098 0 0 1-.058-.019 4.297 4.297 0 0 1-.565-.53.093.093 0 0 1 .007-.133.094.094 0 0 1 .134.008c.163.183.345.353.54.505a.094.094 0 0 1-.058.169Zm9.11.115a.095.095 0 0 1-.012-.189l.753-.092a.09.09 0 0 1 .105.083.095.095 0 0 1-.082.106l-.753.091-.011.001Zm-2.509.306a.096.096 0 0 1-.095-.084.095.095 0 0 1 .083-.105l.752-.092c.058-.006.1.031.106.082.007.053-.03.1-.082.106l-.753.093h-.011Zm-2.51.306a.095.095 0 0 1-.012-.189l.753-.092c.057-.007.1.031.106.083a.094.094 0 0 1-.082.105l-.753.092-.012.001Zm-1.761.148h-.005a4.41 4.41 0 0 1-.766-.113.096.096 0 0 1-.07-.115.096.096 0 0 1 .115-.07c.24.059.485.095.731.109a.094.094 0 0 1 .09.099.094.094 0 0 1-.095.09Z" fill="#fff"/>
    <mask id="U" style="mask-type:luminance" maskUnits="userSpaceOnUse" x="180" y="180" width="7" height="3">
        <path d="m180.78 182.991-.036-1.042a.798.798 0 0 1 .541-.539c.975-.286 3.41-.881 4.713-.144l.33 1.173-5.548.552Z" fill="#fff"/>
    </mask>
    <g mask="url(#U)">
        <path d="m180.78 182.991-.036-1.042a.798.798 0 0 1 .541-.539c.975-.286 3.41-.881 4.713-.144l.33 1.173-5.548.552Z" fill="url(#V)"/>
    </g>
    <mask id="W" style="mask-type:luminance" maskUnits="userSpaceOnUse" x="182" y="177" width="3" height="5">
        <path d="M183.765 181.602a1.457 1.457 0 0 1-.689.088.628.628 0 0 1-.552-.543l-.413-3.224 1.641-.209.412 3.221a.63.63 0 0 1-.399.667Z" fill="#fff"/>
    </mask>
    <g mask="url(#W)">
        <path d="M183.765 181.602a1.457 1.457 0 0 1-.689.088.628.628 0 0 1-.552-.543l-.413-3.224 1.641-.209.412 3.221a.63.63 0 0 1-.399.667Z" fill="url(#X)"/>
    </g>
    <mask id="Y" style="mask-type:luminance" maskUnits="userSpaceOnUse" x="196" y="178" width="7" height="3">
        <path d="m196.67 180.957-.035-1.041a.799.799 0 0 1 .542-.54c.975-.285 3.409-.88 4.712-.144l.331 1.174-5.55.551Z" fill="#fff"/>
    </mask>
    <g mask="url(#Y)">
        <path d="m196.67 180.957-.035-1.041a.799.799 0 0 1 .542-.54c.975-.285 3.409-.88 4.712-.144l.331 1.174-5.55.551Z" fill="url(#Z)"/>
    </g>
    <mask id="aa" style="mask-type:luminance" maskUnits="userSpaceOnUse" x="197" y="175" width="4" height="5">
        <path d="M199.654 179.569a1.444 1.444 0 0 1-.689.087.627.627 0 0 1-.552-.542l-.456-3.564 1.641-.209.455 3.561a.63.63 0 0 1-.399.667Z" fill="#fff"/>
    </mask>
    <g mask="url(#aa)">
        <path d="M199.654 179.569a1.444 1.444 0 0 1-.689.087.627.627 0 0 1-.552-.542l-.456-3.564 1.641-.209.455 3.561a.63.63 0 0 1-.399.667Z" fill="url(#ab)"/>
    </g>
    <mask id="ac" style="mask-type:luminance" maskUnits="userSpaceOnUse" x="180" y="171" width="21" height="8">
        <path d="m182.046 178.735 17.568-2.842a.859.859 0 0 0 .724-.802c.026-.565.006-1.402-.231-2.243a2.051 2.051 0 0 0-2.193-1.47c-3.302.342-11.68 1.417-16.065 3.835a1.621 1.621 0 0 0-.831 1.243c-.057.501-.052 1.158.187 1.798.126.34.481.539.841.481Z" fill="#fff"/>
    </mask>
    <g mask="url(#ac)">
        <path d="m182.046 178.735 17.568-2.842a.859.859 0 0 0 .724-.802c.026-.565.006-1.402-.231-2.243a2.051 2.051 0 0 0-2.193-1.47c-3.302.342-11.68 1.417-16.065 3.835a1.621 1.621 0 0 0-.831 1.243c-.057.501-.052 1.158.187 1.798.126.34.481.539.841.481Z" fill="url(#ad)"/>
    </g>
    <path d="M181.612 178.032a.253.253 0 0 1-.246-.195 4.363 4.363 0 0 1-.068-1.406 1.662 1.662 0 0 1 .975-1.283c.954-.418 2.785-1.155 4.334-1.397a.252.252 0 0 1 .289.211.254.254 0 0 1-.211.289c-1.548.242-3.46 1.031-4.209 1.36a1.136 1.136 0 0 0-.677.888 3.849 3.849 0 0 0 .06 1.224.254.254 0 0 1-.247.309Z" fill="#BDD0FB"/>
    <mask id="ae" style="mask-type:luminance" maskUnits="userSpaceOnUse" x="171" y="179" width="44" height="20">
        <path d="M172.543 183.637c5.691-.802 30.316-4.216 37.59-4.269a1.47 1.47 0 0 1 1.398.969c.668 1.86 2.088 6.196 2.551 10.615.063.6-.312 1.163-.889 1.351l-15.955 5.185-5.807.743-17.865-1.233a1.373 1.373 0 0 1-1.26-1.124c-.397-2.202-1.239-7.381-1.069-10.806a1.521 1.521 0 0 1 1.306-1.431Z" fill="#fff"/>
    </mask>
    <g mask="url(#ae)">
        <path d="M172.543 183.637c5.691-.802 30.316-4.216 37.59-4.269a1.47 1.47 0 0 1 1.398.969c.668 1.86 2.088 6.196 2.551 10.615.063.6-.312 1.163-.889 1.351l-15.955 5.185-5.807.743-17.865-1.233a1.373 1.373 0 0 1-1.26-1.124c-.397-2.202-1.239-7.381-1.069-10.806a1.521 1.521 0 0 1 1.306-1.431Z" fill="url(#af)"/>
    </g>
    <path d="M207.317 181.007a.095.095 0 0 1-.006-.19c.264-.018.516-.033.758-.047.063-.005.097.038.1.089a.096.096 0 0 1-.089.101c-.242.013-.493.029-.756.046l-.007.001Zm-2.521.197a.095.095 0 0 1-.007-.189c.258-.023.51-.045.756-.065.058-.007.098.035.102.087a.095.095 0 0 1-.087.102c-.245.02-.497.041-.755.064l-.009.001Zm5.529.082a.094.094 0 0 1-.089-.064c-.042-.122-.083-.235-.12-.338l-.272.003c-.044.002-.095-.041-.097-.093a.094.094 0 0 1 .094-.096c.104-.002.204-.004.301-.004.064 0 .12.036.14.09l.133.376a.096.096 0 0 1-.058.121.09.09 0 0 1-.032.005Zm-8.045.152a.095.095 0 0 1-.01-.189l.756-.074a.098.098 0 0 1 .103.086.094.094 0 0 1-.085.104c-.247.023-.499.047-.754.073h-.01Zm-2.516.26a.095.095 0 0 1-.009-.189l.754-.08a.095.095 0 1 1 .019.188l-.753.08-.011.001Zm-2.512.276a.095.095 0 0 1-.095-.084.097.097 0 0 1 .084-.105l.754-.084a.093.093 0 0 1 .104.083.095.095 0 0 1-.083.105l-.754.085h-.01Zm-2.512.291a.095.095 0 0 1-.094-.084.096.096 0 0 1 .083-.106l.754-.088a.094.094 0 0 1 .105.084.097.097 0 0 1-.083.105l-.754.088-.011.001Zm-2.51.3a.095.095 0 0 1-.012-.189l.753-.091a.095.095 0 1 1 .023.188l-.752.091-.012.001Zm-2.509.309a.094.094 0 0 1-.094-.082.094.094 0 0 1 .082-.106l.753-.094c.053-.007.1.031.106.083a.096.096 0 0 1-.083.105l-.752.094h-.012Zm-2.508.318a.096.096 0 0 1-.095-.083.095.095 0 0 1 .083-.106l.753-.095c.054-.009.098.029.106.081a.095.095 0 0 1-.083.106l-.752.096-.012.001Zm-2.508.324a.095.095 0 0 1-.012-.189l.752-.098c.053-.008.1.03.106.082a.095.095 0 0 1-.081.106l-.753.098-.012.001Zm26.396.178a.094.094 0 0 1-.091-.068 59.267 59.267 0 0 0-.22-.725.094.094 0 0 1 .062-.118.096.096 0 0 1 .119.062c.072.232.146.474.221.727a.094.094 0 0 1-.091.122Zm-28.904.152a.096.096 0 0 1-.094-.083.095.095 0 0 1 .082-.106l.752-.099c.051-.007.1.03.107.081.006.052-.03.1-.082.106l-.752.1-.013.001Zm-2.506.335a.096.096 0 0 1-.094-.082.094.094 0 0 1 .081-.106l.752-.102c.055-.008.1.03.107.081.007.052-.03.1-.081.107l-.752.101-.013.001Zm-2.505.34a.095.095 0 0 1-.095-.081.096.096 0 0 1 .081-.107l.752-.103c.058-.007.1.029.107.081.007.052-.03.1-.081.107l-.752.103h-.012Zm-2.506.347a.095.095 0 0 1-.013-.19l.751-.104a.095.095 0 1 1 .026.188l-.751.104-.013.002Zm-2.04.798h-.003a.094.094 0 0 1-.092-.097c.003-.148.009-.293.015-.435a.194.194 0 0 1 .168-.184l.185-.027a.095.095 0 0 1 .107.081.096.096 0 0 1-.081.108l-.185.026a9.04 9.04 0 0 0-.02.435.094.094 0 0 1-.094.093Zm39.121.469a.094.094 0 0 1-.092-.072 65.518 65.518 0 0 0-.185-.735.094.094 0 0 1 .067-.115.096.096 0 0 1 .116.068c.063.241.125.487.186.737a.095.095 0 0 1-.07.115c-.007.002-.015.002-.022.002Zm-39.049 2.058a.094.094 0 0 1-.095-.088 41.041 41.041 0 0 1-.045-.759.096.096 0 0 1 .091-.1h.004c.051 0 .092.04.095.091.012.248.026.501.044.755a.094.094 0 0 1-.088.101h-.006Zm39.579.415a.095.095 0 0 1-.093-.077c-.046-.25-.094-.499-.144-.744a.098.098 0 0 1 .075-.112.093.093 0 0 1 .111.074c.05.247.099.496.145.747a.096.096 0 0 1-.077.111l-.017.001Zm-39.34 2.103a.095.095 0 0 1-.095-.083c-.029-.25-.057-.502-.084-.755a.095.095 0 0 1 .084-.104.094.094 0 0 1 .105.084c.026.252.055.503.084.752a.095.095 0 0 1-.084.106h-.01Zm39.676.376a.095.095 0 0 1-.091-.065.099.099 0 0 1 .019-.092 35.58 35.58 0 0 0-.08-.656.096.096 0 0 1 .081-.107c.051-.009.1.03.107.082.032.241.061.483.087.724l.009.076-.103.034c-.01.004-.02.004-.029.004Zm-2.405.782a.096.096 0 0 1-.09-.065.095.095 0 0 1 .061-.12l.721-.234a.096.096 0 0 1 .12.06.096.096 0 0 1-.061.12l-.721.234a.079.079 0 0 1-.03.005Zm-2.404.781a.095.095 0 0 1-.029-.185l.721-.234a.094.094 0 0 1 .119.061.093.093 0 0 1-.061.119l-.721.235a.097.097 0 0 1-.029.004Zm-34.528.569a.095.095 0 0 1-.094-.081 60.907 60.907 0 0 1-.11-.752.095.095 0 0 1 .08-.107c.049-.008.1.029.108.08.036.257.072.508.11.751a.095.095 0 0 1-.081.107l-.013.002Zm32.124.213a.095.095 0 0 1-.09-.066.094.094 0 0 1 .061-.119l.72-.234a.095.095 0 1 1 .059.18l-.721.234a.074.074 0 0 1-.029.005Zm-2.404.781a.095.095 0 0 1-.091-.065.096.096 0 0 1 .061-.12l.721-.234a.096.096 0 0 1 .12.06.095.095 0 0 1-.061.12l-.721.235a.097.097 0 0 1-.029.004Zm-2.405.782a.095.095 0 0 1-.029-.185l.721-.234a.095.095 0 1 1 .059.18l-.721.234a.105.105 0 0 1-.03.005Zm-26.871.685h-.007l-.111-.008-.013-.073c-.038-.208-.08-.447-.126-.71a.095.095 0 0 1 .078-.11.095.095 0 0 1 .11.077c.04.237.078.453.112.646a.094.094 0 0 1-.043.178Zm24.467.096a.095.095 0 0 1-.03-.185l.722-.234a.094.094 0 0 1 .119.06.095.095 0 0 1-.06.12l-.722.235a.092.092 0 0 1-.029.004Zm-21.945.078h-.007l-.757-.052a.097.097 0 0 1-.088-.102.097.097 0 0 1 .101-.088l.757.053a.095.095 0 0 1 .088.101.093.093 0 0 1-.094.088Zm2.522.175-.007-.001-.757-.052a.095.095 0 0 1 .014-.189l.756.052a.094.094 0 0 1 .088.101.095.095 0 0 1-.094.089Zm2.522.174h-.007l-.756-.053a.094.094 0 0 1-.088-.101.096.096 0 0 1 .101-.088l.756.052c.053.004.092.05.088.101a.094.094 0 0 1-.094.089Zm14.448.139a.096.096 0 0 1-.012-.19l.753-.096c.059-.005.099.031.106.083a.096.096 0 0 1-.082.106l-.753.096-.012.001Zm-11.926.035-.007-.001-.756-.051a.096.096 0 0 1-.088-.101.098.098 0 0 1 .101-.089l.756.052a.095.095 0 0 1-.006.19Zm2.522.174h-.007l-.757-.052a.097.097 0 0 1-.088-.102c.004-.051.054-.089.101-.088l.757.053a.095.095 0 0 1-.006.189Zm6.896.112a.096.096 0 0 1-.012-.19l.753-.096c.06-.006.1.031.106.082a.097.097 0 0 1-.082.107l-.752.096-.013.001Zm-4.374.062h-.007l-.756-.052a.097.097 0 0 1-.089-.102.096.096 0 0 1 .101-.087l.757.052a.094.094 0 0 1 .088.101.094.094 0 0 1-.094.088Zm2.534.174-.775-.052a.096.096 0 0 1-.089-.101.095.095 0 0 1 .102-.088l.756.052.08-.012a.092.092 0 0 1 .106.082.095.095 0 0 1-.082.106l-.098.013Z" fill="#fff"/>
    <mask id="ag" style="mask-type:luminance" maskUnits="userSpaceOnUse" x="189" y="192" width="10" height="9">
        <path d="m197.003 199.997-5.088.651a1.326 1.326 0 0 1-1.455-.989l-1.215-4.82a1.325 1.325 0 0 1 1.12-1.634l6.112-.782a1.325 1.325 0 0 1 1.495 1.259l.19 4.952a1.326 1.326 0 0 1-1.159 1.363Z" fill="#fff"/>
    </mask>
    <g mask="url(#ag)">
        <path d="m197.003 199.997-5.088.651a1.326 1.326 0 0 1-1.455-.989l-1.215-4.82a1.325 1.325 0 0 1 1.12-1.634l6.112-.782a1.325 1.325 0 0 1 1.495 1.259l.19 4.952a1.326 1.326 0 0 1-1.159 1.363Z" fill="url(#ah)"/>
    </g>
    <mask id="ai" style="mask-type:luminance" maskUnits="userSpaceOnUse" x="190" y="193" width="8" height="7">
        <path d="m196.261 199.176-3.872.496a1.01 1.01 0 0 1-1.108-.752l-.924-3.67a1.008 1.008 0 0 1 .852-1.243l4.653-.595a1.008 1.008 0 0 1 1.137.958l.144 3.769c.021.52-.363.971-.882 1.037Z" fill="#fff"/>
    </mask>
    <g mask="url(#ai)">
        <path d="m196.261 199.176-3.872.496a1.01 1.01 0 0 1-1.108-.752l-.924-3.67a1.008 1.008 0 0 1 .852-1.243l4.653-.595a1.008 1.008 0 0 1 1.137.958l.144 3.769c.021.52-.363.971-.882 1.037Z" fill="url(#aj)"/>
    </g>
    <mask id="ak" style="mask-type:luminance" maskUnits="userSpaceOnUse" x="186" y="159" width="17" height="22">
        <path d="M193.235 160.159c1.2 4.959 1.231 9.811 1.049 11.577a1.376 1.376 0 0 1-1.272 1.233c-.759.053-1.791.123-2.714.175-1.014.06-2.14-.582-2.893-1.118-.384-.273-.882.153-.667.573.37.723 1.012 1.293 1.65 1.778.383.291 1.658.809 1.57 1.383-.029.181-.138.338-.255.479-.709.85-1.781 1.304-2.838 1.629-.133.041-.273.084-.367.186-.026.685 2.078 1.445 2.622 1.625.813.27 1.676.385 2.531.294 2.117-.222 4.073-1.684 5.213-3.446 3.049-4.711 4.625-10.4 5.201-14.751-2.836-2.835-7.118-2.116-8.83-1.617Z" fill="#fff"/>
    </mask>
    <g mask="url(#ak)">
        <path d="M193.235 160.159c1.2 4.959 1.231 9.811 1.049 11.577a1.376 1.376 0 0 1-1.272 1.233c-.759.053-1.791.123-2.714.175-1.014.06-2.14-.582-2.893-1.118-.384-.273-.882.153-.667.573.37.723 1.012 1.293 1.65 1.778.383.291 1.658.809 1.57 1.383-.029.181-.138.338-.255.479-.709.85-1.781 1.304-2.838 1.629-.133.041-.273.084-.367.186-.026.685 2.078 1.445 2.622 1.625.813.27 1.676.385 2.531.294 2.117-.222 4.073-1.684 5.213-3.446 3.049-4.711 4.625-10.4 5.201-14.751-2.836-2.835-7.118-2.116-8.83-1.617Z" fill="url(#al)"/>
    </g>
    <mask id="am" style="mask-type:luminance" maskUnits="userSpaceOnUse" x="183" y="132" width="20" height="31">
        <path d="M202.065 162.224c2.261-17.086-10.905-30.223-10.905-30.223l-7.834 9.133c5.947 7.413 8.775 14.207 10.066 19.543 1.713-.499 5.837-1.288 8.673 1.547Z" fill="#fff"/>
    </mask>
    <g mask="url(#am)">
        <path d="M202.065 162.224c2.261-17.086-10.905-30.223-10.905-30.223l-7.834 9.133c5.947 7.413 8.775 14.207 10.066 19.543 1.713-.499 5.837-1.288 8.673 1.547Z" fill="url(#an)"/>
    </g>
    <mask id="ao" style="mask-type:luminance" maskUnits="userSpaceOnUse" x="182" y="140" width="12" height="21">
        <path d="M193.206 160.592a.485.485 0 0 1-.472-.371c-1.592-6.577-4.948-13.088-9.973-19.352a.485.485 0 1 1 .757-.607c5.115 6.375 8.534 13.015 10.159 19.731a.485.485 0 0 1-.471.599Z" fill="#fff"/>
    </mask>
    <g mask="url(#ao)">
        <path d="M193.206 160.592a.485.485 0 0 1-.472-.371c-1.592-6.577-4.948-13.088-9.973-19.352a.485.485 0 1 1 .757-.607c5.115 6.375 8.534 13.015 10.159 19.731a.485.485 0 0 1-.471.599Z" fill="url(#ap)"/>
    </g>
    <mask id="aq" style="mask-type:luminance" maskUnits="userSpaceOnUse" x="75" y="253" width="13" height="10">
        <path d="M87.108 261.882a1.01 1.01 0 0 0-.026-.254c-1.26-4.994-7.513-8.106-7.513-8.106l-2.478.194c-1.424 4.403-1.241 7.103-1.013 8.306.007.033.017.066.026.098 2.044.183 6.251.302 11.004-.238Z" fill="#fff"/>
    </mask>
    <g mask="url(#aq)">
        <path d="M87.108 261.882a1.01 1.01 0 0 0-.026-.254c-1.26-4.994-7.513-8.106-7.513-8.106l-2.478.194c-1.424 4.403-1.241 7.103-1.013 8.306.007.033.017.066.026.098 2.044.183 6.251.302 11.004-.238Z" fill="url(#ar)"/>
    </g>
    <mask id="as" style="mask-type:luminance" maskUnits="userSpaceOnUse" x="76" y="261" width="12" height="3">
        <path d="M76.103 262.12c.11.402.407.715.787.794 2.907.612 7.53.12 9.47-.134.428-.056.74-.452.748-.898-4.753.54-8.96.421-11.005.238Z" fill="#fff"/>
    </mask>
    <g mask="url(#as)">
        <path d="M76.103 262.12c.11.402.407.715.787.794 2.907.612 7.53.12 9.47-.134.428-.056.74-.452.748-.898-4.753.54-8.96.421-11.005.238Z" fill="url(#at)"/>
    </g>
    <mask id="au" style="mask-type:luminance" maskUnits="userSpaceOnUse" x="76" y="250" width="5" height="6">
        <path d="m76.096 250.026 1.05 5.052c.076.37.36.648.705.68a7.02 7.02 0 0 0 1.626-.026c.541-.08.918-.63.823-1.22l-.73-4.486h-3.474Z" fill="#fff"/>
    </mask>
    <g mask="url(#au)">
        <path d="m76.096 250.026 1.05 5.052c.076.37.36.648.705.68a7.02 7.02 0 0 0 1.626-.026c.541-.08.918-.63.823-1.22l-.73-4.486h-3.474Z" fill="url(#av)"/>
    </g>
    <mask id="aw" style="mask-type:luminance" maskUnits="userSpaceOnUse" x="92" y="261" width="18" height="2">
        <path d="M97.84 262.056c-2.737-.077-4.152-.398-4.884-.698-.002.272 0 .549.008.836.01.307.237.552.516.55l15.026-.098c.48-.003.76-.558.553-.998-1.971.162-6.988.527-11.219.408Z" fill="#fff"/>
    </mask>
    <g mask="url(#aw)">
        <path d="M97.84 262.056c-2.737-.077-4.152-.398-4.884-.698-.002.272 0 .549.008.836.01.307.237.552.516.55l15.026-.098c.48-.003.76-.558.553-.998-1.971.162-6.988.527-11.219.408Z" fill="url(#ax)"/>
    </g>
    <mask id="ay" style="mask-type:luminance" maskUnits="userSpaceOnUse" x="92" y="254" width="18" height="9">
        <path d="M109.06 261.648c-.019-.038-.034-.078-.06-.113-1.327-1.854-4.707-5.547-11.385-7.148l-3.205-.101s-1.426 2.479-1.453 7.072c.732.3 2.147.621 4.884.698 4.231.119 9.248-.246 11.219-.408Z" fill="#fff"/>
    </mask>
    <g mask="url(#ay)">
        <path d="M109.06 261.648c-.019-.038-.034-.078-.06-.113-1.327-1.854-4.707-5.547-11.385-7.148l-3.205-.101s-1.426 2.479-1.453 7.072c.732.3 2.147.621 4.884.698 4.231.119 9.248-.246 11.219-.408Z" fill="url(#az)"/>
    </g>
    <mask id="aA" style="mask-type:luminance" maskUnits="userSpaceOnUse" x="93" y="248" width="6" height="8">
        <path d="M93.672 249.579c.05.236.717 3.831.975 5.225.061.331.32.574.627.591.549.031 1.433.035 2.194-.172.411-.112.687-.53.657-.995l-.358-5.686-4.095 1.037Z" fill="#fff"/>
    </mask>
    <g mask="url(#aA)">
        <path d="M93.672 249.579c.05.236.717 3.831.975 5.225.061.331.32.574.627.591.549.031 1.433.035 2.194-.172.411-.112.687-.53.657-.995l-.358-5.686-4.095 1.037Z" fill="url(#aB)"/>
    </g>
    <mask id="aC" style="mask-type:luminance" maskUnits="userSpaceOnUse" x="70" y="178" width="29" height="74">
        <path d="M91.246 183.201s4.406 30.286 7.587 66.326c.06.671-.476 1.256-1.135 1.394-.972.205-2.4.448-3.582.415a1.328 1.328 0 0 1-1.265-1.109c-1.084-6.354-8.816-40.457-10.845-47.963 0 0-2.33 31.882-1.586 48.424a.784.784 0 0 1-.691.815c-.62.072-1.613.126-2.876-.008a1.05 1.05 0 0 1-.935-.89c-.772-5.378-5.214-37.389-5.025-60.449.01-1.3 1.525-11.984 1.525-11.984l18.828 5.029Z" fill="#fff"/>
    </mask>
    <g mask="url(#aC)">
        <path d="M91.246 183.201s4.406 30.286 7.587 66.326c.06.671-.476 1.256-1.135 1.394-.972.205-2.4.448-3.582.415a1.328 1.328 0 0 1-1.265-1.109c-1.084-6.354-8.816-40.457-10.845-47.963 0 0-2.33 31.882-1.586 48.424a.784.784 0 0 1-.691.815c-.62.072-1.613.126-2.876-.008a1.05 1.05 0 0 1-.935-.89c-.772-5.378-5.214-37.389-5.025-60.449.01-1.3 1.525-11.984 1.525-11.984l18.828 5.029Z" fill="url(#aD)"/>
    </g>
    <mask id="aE" style="mask-type:luminance" maskUnits="userSpaceOnUse" x="70" y="127" width="30" height="60">
        <path d="M71.756 184.947a1.247 1.247 0 0 1-.819-1.051c-.586-5.686-3.424-40.942 14.492-55.446 0 0 1.028-2.688 9.473 3.92 8.445 6.608 3.923 13.533 1.901 23.087-2.446 11.56-6.74 21.009-4.84 28.123a.986.986 0 0 1-.603 1.182c-6.56 2.418-13.096 2.498-19.604.185Z" fill="#fff"/>
    </mask>
    <g mask="url(#aE)">
        <path d="M71.756 184.947a1.247 1.247 0 0 1-.819-1.051c-.586-5.686-3.424-40.942 14.492-55.446 0 0 1.028-2.688 9.473 3.92 8.445 6.608 3.923 13.533 1.901 23.087-2.446 11.56-6.74 21.009-4.84 28.123a.986.986 0 0 1-.603 1.182c-6.56 2.418-13.096 2.498-19.604.185Z" fill="url(#aF)"/>
    </g>
    <mask id="aG" style="mask-type:luminance" maskUnits="userSpaceOnUse" x="85" y="117" width="13" height="17">
        <path d="M92.417 117.886c-.005.502-7.16 10.663-7.16 10.663s1.285 2.529 7.415 4.582l5.291-10.879-5.546-4.366Z" fill="#fff"/>
    </mask>
    <g mask="url(#aG)">
        <path d="M92.417 117.886c-.005.502-7.16 10.663-7.16 10.663s1.285 2.529 7.415 4.582l5.291-10.879-5.546-4.366Z" fill="url(#aH)"/>
    </g>
    <mask id="aI" style="mask-type:luminance" maskUnits="userSpaceOnUse" x="87" y="112" width="14" height="15">
        <path d="M98.051 112.063s2.546 5.848 2.716 8.918c.172 3.068.833 5.06-2.716 5.678-3.549.618-6.538-1.149-8.158-4.207 0 0-2.537-4.711-1.968-6.64.57-1.929 10.126-3.749 10.126-3.749Z" fill="#fff"/>
    </mask>
    <g mask="url(#aI)">
        <path d="M98.051 112.063s2.546 5.848 2.716 8.918c.172 3.068.833 5.06-2.716 5.678-3.549.618-6.538-1.149-8.158-4.207 0 0-2.537-4.711-1.968-6.64.57-1.929 10.126-3.749 10.126-3.749Z" fill="url(#aJ)"/>
    </g>
    <mask id="aK" style="mask-type:luminance" maskUnits="userSpaceOnUse" x="83" y="105" width="19" height="19">
        <path d="m91.105 120.254.202-.089a.487.487 0 0 0 .238-.669c-.5-.967-1.476-3.183-.216-3.7 1.624-.666 8.058-1.978 9.446-4.261 1.334-2.194.152-5.026-1.625-5.832a.245.245 0 0 0-.32.105l-.148.28a.24.24 0 0 1-.445-.046.24.24 0 0 0-.434-.062c-.427.683-1.578 1.79-4.659 2.359-4.378.808-7.273 2.579-7.344 5.605a.242.242 0 0 1-.374.199c-.323-.197-.84-.29-1.532.292-1.202 1.011-.71 3.633 1.926 5.79.125.103.124.299-.011.387-.478.311-1.19 1.051.655 2.037 1.91 1.021 3.335.938 3.884.846a.239.239 0 0 0 .194-.289l-.585-2.659a.241.241 0 0 1 .235-.293h.913Z" fill="#fff"/>
    </mask>
    <g mask="url(#aK)">
        <path d="m91.105 120.254.202-.089a.487.487 0 0 0 .238-.669c-.5-.967-1.476-3.183-.216-3.7 1.624-.666 8.058-1.978 9.446-4.261 1.334-2.194.152-5.026-1.625-5.832a.245.245 0 0 0-.32.105l-.148.28a.24.24 0 0 1-.445-.046.24.24 0 0 0-.434-.062c-.427.683-1.578 1.79-4.659 2.359-4.378.808-7.273 2.579-7.344 5.605a.242.242 0 0 1-.374.199c-.323-.197-.84-.29-1.532.292-1.202 1.011-.71 3.633 1.926 5.79.125.103.124.299-.011.387-.478.311-1.19 1.051.655 2.037 1.91 1.021 3.335.938 3.884.846a.239.239 0 0 0 .194-.289l-.585-2.659a.241.241 0 0 1 .235-.293h.913Z" fill="url(#aL)"/>
    </g>
    <mask id="aM" style="mask-type:luminance" maskUnits="userSpaceOnUse" x="88" y="117" width="4" height="6">
        <path d="M91.215 120.815s-.97-3.735-2.645-2.688c-1.675 1.047.869 4.185 2.215 4.325l.43-1.637Z" fill="#fff"/>
    </mask>
    <g mask="url(#aM)">
        <path d="M91.215 120.815s-.97-3.735-2.645-2.688c-1.675 1.047.869 4.185 2.215 4.325l.43-1.637Z" fill="url(#aN)"/>
    </g>
    <mask id="aO" style="mask-type:luminance" maskUnits="userSpaceOnUse" x="97" y="135" width="10" height="15">
        <path d="m97.62 135.436.492 13.247c1.402.482 2.735.857 4.005 1.137.794-2.557 2.544-5.696 3.976-8.031-5.263-1.86-8.474-6.353-8.474-6.353Z" fill="#fff"/>
    </mask>
    <g mask="url(#aO)">
        <path d="m97.62 135.436.492 13.247c1.402.482 2.735.857 4.005 1.137.794-2.557 2.544-5.696 3.976-8.031-5.263-1.86-8.474-6.353-8.474-6.353Z" fill="url(#aP)"/>
    </g>
    <mask id="aQ" style="mask-type:luminance" maskUnits="userSpaceOnUse" x="102" y="135" width="24" height="16">
        <path d="M123.895 135.211c-7.22 7.794-13.063 8.254-17.802 6.578-1.432 2.335-3.182 5.474-3.976 8.031 19.28 4.251 23.819-13.473 23.819-13.473l-2.041-1.136Z" fill="#fff"/>
    </mask>
    <g mask="url(#aQ)">
        <path d="M123.895 135.211c-7.22 7.794-13.063 8.254-17.802 6.578-1.432 2.335-3.182 5.474-3.976 8.031 19.28 4.251 23.819-13.473 23.819-13.473l-2.041-1.136Z" fill="url(#aR)"/>
    </g>
    <mask id="aS" style="mask-type:luminance" maskUnits="userSpaceOnUse" x="125" y="133" width="8" height="4">
        <path d="M125.359 134.383s.832-.893 2.371-.613c1.54.281 2.91.816 3.869 0 .959-.815 1.296.279 1.296.279l-2.872 2.183-4.664-1.849Z" fill="#fff"/>
    </mask>
    <g mask="url(#aS)">
        <path d="M125.359 134.383s.832-.893 2.371-.613c1.54.281 2.91.816 3.869 0 .959-.815 1.296.279 1.296.279l-2.872 2.183-4.664-1.849Z" fill="url(#aT)"/>
    </g>
    <mask id="aU" style="mask-type:luminance" maskUnits="userSpaceOnUse" x="123" y="133" width="15" height="6">
        <path d="M123.641 135.91s.57-2.383 2.286-2.057c1.718.327 5.616 2.447 6.621 2.057 1.005-.391 2.289-1.326 2.948-.996l-1.16 1.444s2.985-1.722 3.498-.664l-4.966 2.794s-7.266-.727-9.227-2.578Z" fill="#fff"/>
    </mask>
    <g mask="url(#aU)">
        <path d="M123.641 135.91s.57-2.383 2.286-2.057c1.718.327 5.616 2.447 6.621 2.057 1.005-.391 2.289-1.326 2.948-.996l-1.16 1.444s2.985-1.722 3.498-.664l-4.966 2.794s-7.266-.727-9.227-2.578Z" fill="url(#aV)"/>
    </g>
    <mask id="aW" style="mask-type:luminance" maskUnits="userSpaceOnUse" x="89" y="144" width="42" height="19">
        <path d="M89.606 152.774s13.573 11.367 28.229 6.407a3.487 3.487 0 0 1 2.751.207l4.214 2.226a3.761 3.761 0 0 0 4.985-1.396c.585-.979 1.085-2.097 1.185-3.169l-8.246-3.338.608-1.011s-4.025-.341-5.078 2.544c0 0-7.668 3.189-20.599-11.033 0 0-5.867 4.989-8.05 8.563Z" fill="#fff"/>
    </mask>
    <g mask="url(#aW)">
        <path d="M89.606 152.774s13.573 11.367 28.229 6.407a3.487 3.487 0 0 1 2.751.207l4.214 2.226a3.761 3.761 0 0 0 4.985-1.396c.585-.979 1.085-2.097 1.185-3.169l-8.246-3.338.608-1.011s-4.025-.341-5.078 2.544c0 0-7.668 3.189-20.599-11.033 0 0-5.867 4.989-8.05 8.563Z" fill="url(#aX)"/>
    </g>
    <mask id="aY" style="mask-type:luminance" maskUnits="userSpaceOnUse" x="80" y="142" width="10" height="11">
        <path d="M88.873 152.656a.222.222 0 0 1-.13-.04c-5.715-3.861-8.403-10.093-8.43-10.156a.233.233 0 0 1 .428-.182c.026.062 2.665 6.171 8.262 9.953a.232.232 0 0 1-.13.425Z" fill="#fff"/>
    </mask>
    <g mask="url(#aY)">
        <path d="M88.873 152.656a.222.222 0 0 1-.13-.04c-5.715-3.861-8.403-10.093-8.43-10.156a.233.233 0 0 1 .428-.182c.026.062 2.665 6.171 8.262 9.953a.232.232 0 0 1-.13.425Z" fill="url(#aZ)"/>
    </g>
    <mask id="ba" style="mask-type:luminance" maskUnits="userSpaceOnUse" x="82" y="131" width="16" height="14">
        <path d="M97.387 144.018a.23.23 0 0 1-.195-.107c-.017-.027-1.764-2.744-5.09-8.699-1.022-1.831-2.366-2.99-3.994-3.446-2.696-.753-5.294.692-5.32.706a.232.232 0 1 1-.23-.403c.113-.064 2.785-1.559 5.67-.751 1.755.489 3.195 1.723 4.28 3.667 3.318 5.94 5.057 8.648 5.074 8.674a.233.233 0 0 1-.195.359Z" fill="#fff"/>
    </mask>
    <g mask="url(#ba)">
        <path d="M97.387 144.018a.23.23 0 0 1-.195-.107c-.017-.027-1.764-2.744-5.09-8.699-1.022-1.831-2.366-2.99-3.994-3.446-2.696-.753-5.294.692-5.32.706a.232.232 0 1 1-.23-.403c.113-.064 2.785-1.559 5.67-.751 1.755.489 3.195 1.723 4.28 3.667 3.318 5.94 5.057 8.648 5.074 8.674a.233.233 0 0 1-.195.359Z" fill="url(#bb)"/>
    </g>
    <defs>
        <linearGradient id="b" x1="268.832" y1="285.361" x2="107.288" y2="110.995" gradientUnits="userSpaceOnUse">
            <stop stop-color="#DAE3FE"/>
            <stop offset="1" stop-color="#E9EFFD"/>
        </linearGradient>
        <linearGradient id="d" x1="144.402" y1="66.087" x2="79.881" y2="66.087" gradientUnits="userSpaceOnUse">
            <stop stop-color="#2B3582"/>
            <stop offset="1" stop-color="#150E42"/>
        </linearGradient>
        <linearGradient id="f" x1="60.832" y1="94.202" x2="205.461" y2="274.71" gradientUnits="userSpaceOnUse">
            <stop stop-color="#4F52FF"/>
            <stop offset="1" stop-color="#172755"/>
        </linearGradient>
        <linearGradient id="h" x1="258.144" y1="58.308" x2="145.532" y2="122.892" gradientUnits="userSpaceOnUse">
            <stop stop-color="#8794BA"/>
            <stop offset="1" stop-color="#4042E2"/>
        </linearGradient>
        <linearGradient id="j" x1="163.713" y1="65.709" x2="99.192" y2="65.709" gradientUnits="userSpaceOnUse">
            <stop stop-color="#2B3582"/>
            <stop offset="1" stop-color="#150E42"/>
        </linearGradient>
        <linearGradient id="l" x1="174.785" y1="247.974" x2="165.209" y2="-35.486" gradientUnits="userSpaceOnUse">
            <stop stop-color="#172755"/>
            <stop offset="1" stop-color="#1A0F91"/>
        </linearGradient>
        <linearGradient id="n" x1="189.76" y1="50.305" x2="141.869" y2="113.306" gradientUnits="userSpaceOnUse">
            <stop stop-color="#09005D"/>
            <stop offset="1" stop-color="#1A0F91"/>
        </linearGradient>
        <linearGradient id="p" x1="194.967" y1="54.316" x2="147.075" y2="117.317" gradientUnits="userSpaceOnUse">
            <stop stop-color="#09005D"/>
            <stop offset="1" stop-color="#1A0F91"/>
        </linearGradient>
        <linearGradient id="r" x1="152.114" y1="141.416" x2="124.881" y2="161.472" gradientUnits="userSpaceOnUse">
            <stop stop-color="#FEBBBA"/>
            <stop offset="1" stop-color="#FF928E"/>
        </linearGradient>
        <linearGradient id="t" x1="179.85" y1="89.169" x2="144.521" y2="169.211" gradientUnits="userSpaceOnUse">
            <stop stop-color="#FF928E"/>
            <stop offset="1" stop-color="#FC2F58"/>
        </linearGradient>
        <linearGradient id="v" x1="203.987" y1="99.782" x2="168.657" y2="179.824" gradientUnits="userSpaceOnUse">
            <stop stop-color="#FF928E"/>
            <stop offset="1" stop-color="#FC2F58"/>
        </linearGradient>
        <linearGradient id="x" x1="174.277" y1="129.67" x2="170.46" y2="118.217" gradientUnits="userSpaceOnUse">
            <stop stop-color="#FEBBBA"/>
            <stop offset="1" stop-color="#FF928E"/>
        </linearGradient>
        <linearGradient id="z" x1="165.368" y1="115.608" x2="179.089" y2="121.573" gradientUnits="userSpaceOnUse">
            <stop stop-color="#FEBBBA"/>
            <stop offset="1" stop-color="#FF928E"/>
        </linearGradient>
        <linearGradient id="B" x1="175.29" y1="123.84" x2="164.055" y2="111.906" gradientUnits="userSpaceOnUse">
            <stop stop-color="#09005D"/>
            <stop offset="1" stop-color="#1A0F91"/>
        </linearGradient>
        <linearGradient id="D" x1="164.516" y1="117.578" x2="178.237" y2="123.544" gradientUnits="userSpaceOnUse">
            <stop stop-color="#FEBBBA"/>
            <stop offset="1" stop-color="#FF928E"/>
        </linearGradient>
        <linearGradient id="F" x1="191.423" y1="262.384" x2="174.371" y2="262.384" gradientUnits="userSpaceOnUse">
            <stop stop-color="#09005D"/>
            <stop offset="1" stop-color="#1A0F91"/>
        </linearGradient>
        <linearGradient id="H" x1="232.586" y1="246.436" x2="170.841" y2="264.035" gradientUnits="userSpaceOnUse">
            <stop stop-color="#4F52FF"/>
            <stop offset="1" stop-color="#4042E2"/>
        </linearGradient>
        <linearGradient id="J" x1="189.848" y1="254.376" x2="185.045" y2="254.376" gradientUnits="userSpaceOnUse">
            <stop stop-color="#FEBBBA"/>
            <stop offset="1" stop-color="#FF928E"/>
        </linearGradient>
        <linearGradient id="L" x1="225.418" y1="262.016" x2="218.883" y2="262.016" gradientUnits="userSpaceOnUse">
            <stop stop-color="#09005D"/>
            <stop offset="1" stop-color="#1A0F91"/>
        </linearGradient>
        <linearGradient id="N" x1="198.168" y1="242.85" x2="236.646" y2="267.906" gradientUnits="userSpaceOnUse">
            <stop stop-color="#4F52FF"/>
            <stop offset="1" stop-color="#4042E2"/>
        </linearGradient>
        <linearGradient id="P" x1="220.385" y1="250.372" x2="214.644" y2="250.372" gradientUnits="userSpaceOnUse">
            <stop stop-color="#FEBBBA"/>
            <stop offset="1" stop-color="#FF928E"/>
        </linearGradient>
        <linearGradient id="R" x1="194.634" y1="168.807" x2="200.714" y2="251.504" gradientUnits="userSpaceOnUse">
            <stop stop-color="#172755"/>
            <stop offset="1" stop-color="#172755"/>
        </linearGradient>
        <linearGradient id="T" x1="193.546" y1="215.84" x2="193.546" y2="198.313" gradientUnits="userSpaceOnUse">
            <stop stop-color="#4F52FF"/>
            <stop offset="1" stop-color="#4042E2"/>
        </linearGradient>
        <linearGradient id="V" x1="418.48" y1="-300.569" x2="411.981" y2="-287.215" gradientUnits="userSpaceOnUse">
            <stop stop-color="#4F52FF"/>
            <stop offset="1" stop-color="#4042E2"/>
        </linearGradient>
        <linearGradient id="X" x1="417.125" y1="-301.252" x2="410.626" y2="-287.898" gradientUnits="userSpaceOnUse">
            <stop stop-color="#4F52FF"/>
            <stop offset="1" stop-color="#4042E2"/>
        </linearGradient>
        <linearGradient id="Z" x1="430.524" y1="-294.708" x2="424.025" y2="-281.354" gradientUnits="userSpaceOnUse">
            <stop stop-color="#4F52FF"/>
            <stop offset="1" stop-color="#4042E2"/>
        </linearGradient>
        <linearGradient id="ab" x1="429.083" y1="-295.414" x2="422.584" y2="-282.06" gradientUnits="userSpaceOnUse">
            <stop stop-color="#4F52FF"/>
            <stop offset="1" stop-color="#4042E2"/>
        </linearGradient>
        <linearGradient id="ad" x1="421.717" y1="-298.989" x2="415.218" y2="-285.635" gradientUnits="userSpaceOnUse">
            <stop stop-color="#4F52FF"/>
            <stop offset="1" stop-color="#4042E2"/>
        </linearGradient>
        <linearGradient id="af" x1="192.413" y1="175.508" x2="193.546" y2="230.488" gradientUnits="userSpaceOnUse">
            <stop stop-color="#4F52FF"/>
            <stop offset="1" stop-color="#4042E2"/>
        </linearGradient>
        <linearGradient id="ah" x1="235.019" y1="144.952" x2="206.314" y2="180.832" gradientUnits="userSpaceOnUse">
            <stop stop-color="#09005D"/>
            <stop offset="1" stop-color="#1A0F91"/>
        </linearGradient>
        <linearGradient id="aj" x1="223.421" y1="149.506" x2="197.752" y2="190.216" gradientUnits="userSpaceOnUse">
            <stop stop-color="#4F52FF"/>
            <stop offset="1" stop-color="#4042E2"/>
        </linearGradient>
        <linearGradient id="al" x1="211.987" y1="109.523" x2="190.906" y2="179.793" gradientUnits="userSpaceOnUse">
            <stop stop-color="#FEBBBA"/>
            <stop offset="1" stop-color="#FF928E"/>
        </linearGradient>
        <linearGradient id="an" x1="213.72" y1="104.044" x2="178.39" y2="184.086" gradientUnits="userSpaceOnUse">
            <stop stop-color="#FF928E"/>
            <stop offset="1" stop-color="#FC2F58"/>
        </linearGradient>
        <linearGradient id="ap" x1="249.246" y1="77.599" x2="186.87" y2="151.844" gradientUnits="userSpaceOnUse">
            <stop stop-color="#FF928E"/>
            <stop offset="1" stop-color="#FE7062"/>
        </linearGradient>
        <linearGradient id="ar" x1="75.922" y1="257.898" x2="87.108" y2="257.898" gradientUnits="userSpaceOnUse">
            <stop stop-color="#09005D"/>
            <stop offset="1" stop-color="#1A0F91"/>
        </linearGradient>
        <linearGradient id="at" x1="103.938" y1="244.681" x2="63.241" y2="276.636" gradientUnits="userSpaceOnUse">
            <stop stop-color="#4F52FF"/>
            <stop offset="1" stop-color="#4042E2"/>
        </linearGradient>
        <linearGradient id="av" x1="79.041" y1="245.17" x2="76.904" y2="263.819" gradientUnits="userSpaceOnUse">
            <stop stop-color="#FEBBBA"/>
            <stop offset="1" stop-color="#FF928E"/>
        </linearGradient>
        <linearGradient id="ax" x1="111.161" y1="253.882" x2="70.465" y2="285.837" gradientUnits="userSpaceOnUse">
            <stop stop-color="#4F52FF"/>
            <stop offset="1" stop-color="#4042E2"/>
        </linearGradient>
        <linearGradient id="az" x1="92.957" y1="258.182" x2="109.06" y2="258.182" gradientUnits="userSpaceOnUse">
            <stop stop-color="#09005D"/>
            <stop offset="1" stop-color="#1A0F91"/>
        </linearGradient>
        <linearGradient id="aB" x1="96.151" y1="247.13" x2="95.191" y2="265.876" gradientUnits="userSpaceOnUse">
            <stop stop-color="#FEBBBA"/>
            <stop offset="1" stop-color="#FF928E"/>
        </linearGradient>
        <linearGradient id="aD" x1="68.77" y1="272.18" x2="95.525" y2="179.749" gradientUnits="userSpaceOnUse">
            <stop stop-color="#172755"/>
            <stop offset="1" stop-color="#172755"/>
        </linearGradient>
        <linearGradient id="aF" x1="201.863" y1="-26.04" x2="152.39" y2="53.059" gradientUnits="userSpaceOnUse">
            <stop stop-color="#FF928E"/>
            <stop offset="1" stop-color="#FC2F58"/>
        </linearGradient>
        <linearGradient id="aH" x1="87.558" y1="136.463" x2="92.521" y2="122.911" gradientUnits="userSpaceOnUse">
            <stop stop-color="#FEBBBA"/>
            <stop offset="1" stop-color="#FF928E"/>
        </linearGradient>
        <linearGradient id="aJ" x1="97.739" y1="126.664" x2="90.93" y2="109.919" gradientUnits="userSpaceOnUse">
            <stop stop-color="#FEBBBA"/>
            <stop offset="1" stop-color="#FF928E"/>
        </linearGradient>
        <linearGradient id="aL" x1="120.274" y1="23.78" x2="100.462" y2="86.932" gradientUnits="userSpaceOnUse">
            <stop stop-color="#09005D"/>
            <stop offset="1" stop-color="#1A0F91"/>
        </linearGradient>
        <linearGradient id="aN" x1="93.067" y1="128.58" x2="86.259" y2="111.836" gradientUnits="userSpaceOnUse">
            <stop stop-color="#FEBBBA"/>
            <stop offset="1" stop-color="#FF928E"/>
        </linearGradient>
        <linearGradient id="aP" x1="86.682" y1="158.018" x2="107.658" y2="133.546" gradientUnits="userSpaceOnUse">
            <stop stop-color="#FF928E"/>
            <stop offset="1" stop-color="#FC2F58"/>
        </linearGradient>
        <linearGradient id="aR" x1="133.428" y1="134.105" x2="102.209" y2="149.635" gradientUnits="userSpaceOnUse">
            <stop stop-color="#FEBBBA"/>
            <stop offset="1" stop-color="#FF928E"/>
        </linearGradient>
        <linearGradient id="aT" x1="132.974" y1="130.211" x2="122.295" y2="141.364" gradientUnits="userSpaceOnUse">
            <stop stop-color="#FEBBBA"/>
            <stop offset="1" stop-color="#FF928E"/>
        </linearGradient>
        <linearGradient id="aV" x1="133.577" y1="133.907" x2="102.358" y2="149.436" gradientUnits="userSpaceOnUse">
            <stop stop-color="#FEBBBA"/>
            <stop offset="1" stop-color="#FF928E"/>
        </linearGradient>
        <linearGradient id="aX" x1="127.131" y1="163.708" x2="84.074" y2="141.628" gradientUnits="userSpaceOnUse">
            <stop stop-color="#FEBBBA"/>
            <stop offset="1" stop-color="#FF928E"/>
        </linearGradient>
        <linearGradient id="aZ" x1="200.244" y1="10.802" x2="-1.242" y2="249.271" gradientUnits="userSpaceOnUse">
            <stop stop-color="#E1473D"/>
            <stop offset="1" stop-color="#E9605A"/>
        </linearGradient>
        <linearGradient id="bb" x1="198.516" y1="9.576" x2="-2.97" y2="248.044" gradientUnits="userSpaceOnUse">
            <stop stop-color="#E1473D"/>
            <stop offset="1" stop-color="#E9605A"/>
        </linearGradient>
    </defs>
</svg>
