<?xml version="1.0" encoding="utf-8"?><svg viewBox="0 0 40 40" xmlns="http://www.w3.org/2000/svg" xmlns:xlink="http://www.w3.org/1999/xlink"><style>:root>svg{display:none}:root>svg:target{display:block}</style><svg viewBox="0 0 40 40" id="icon-mail" xmlns="http://www.w3.org/2000/svg"><path d="M39.925 18.44c0-1.037-.352-2.021-.966-2.702a.777.777 0 00-.077-.074l-2.157-1.816v-5.62a.781.781 0 00-.78-.781h-6.82L20.504.184a.781.781 0 00-1.007 0l-8.622 7.263h-6.82a.781.781 0 00-.78.78v5.62l-2.158 1.817a.776.776 0 00-.076.074c-.614.68-.967 1.665-.967 2.701v17.63A3.936 3.936 0 004.006 40h31.987a3.936 3.936 0 003.932-3.932V18.44zm-12.998 8.814L38.268 17.7c.063.241.095.49.095.738v17.63c0 .244-.038.488-.113.722l-11.323-9.537zm10.432-10.83l-.633.534V15.89l.633.533zM20 1.803l6.7 5.644H13.3L20 1.803zm-8.84 7.206h24.004v9.264l-9.449 7.96-5.21-4.39a.781.781 0 00-1.007 0l-5.211 4.39-9.45-7.96V9.01h6.322zM1.75 36.791a2.357 2.357 0 01-.112-.723V18.44c0-.249.032-.497.094-.738l11.342 9.553L1.75 36.79zm1.525-19.833l-.634-.534.634-.534v1.068zm.732 21.48c-.468 0-.925-.139-1.313-.399L20 23.462l17.307 14.577c-.389.26-.846.399-1.314.398H4.006z"/></svg><svg viewBox="0 0 40 40" id="icon-phone" xmlns="http://www.w3.org/2000/svg"><g clip-path="url(#ba)"><path d="M39.045 30.793l-5.75-5.764a3.168 3.168 0 00-2.318-.962h-.001a3.212 3.212 0 00-2.317.96l-2.854 2.854a1.689 1.689 0 01-2.098.255 34.626 34.626 0 01-11.843-11.843 1.689 1.689 0 01.255-2.098l2.855-2.854c.62-.611.967-1.448.959-2.318a3.168 3.168 0 00-.962-2.317L9.207.955a3.28 3.28 0 00-4.63.003l-1.53 1.53C.13 5.402-.713 9.545.606 14.467c1.32 4.925 4.828 10.501 9.626 15.3 4.799 4.798 10.375 8.307 15.3 9.626 1.51.405 2.947.606 4.298.606 3.05 0 5.661-1.026 7.683-3.047l1.53-1.53a3.28 3.28 0 00.002-4.63zm-1.108 3.525l-1.53 1.53c-3.156 3.157-7.436 2.85-10.47 2.037C16.103 35.25 4.75 23.896 2.114 14.064 1.302 11.029.995 6.749 4.152 3.592l1.53-1.53a1.715 1.715 0 012.42 0l5.765 5.75c.67.668.671 1.753.003 2.423l-.002.001-2.854 2.854a3.27 3.27 0 00-.487 4.01 36.17 36.17 0 0012.372 12.373 3.27 3.27 0 004.01-.487l2.855-2.854a1.63 1.63 0 011.211-.502h.001c.457-.009.896.174 1.212.503l5.75 5.764c.667.67.667 1.752 0 2.421zM21.25 3.753a17.86 17.86 0 0114.997 14.996.781.781 0 101.546-.231 19.423 19.423 0 00-16.31-16.31.781.781 0 10-.232 1.545z"/><path d="M20.315 7.9A13.622 13.622 0 0132.1 19.684a.781.781 0 001.55-.197A15.184 15.184 0 0020.512 6.35a.781.781 0 10-.197 1.55z"/><path d="M19.392 12.06a9.384 9.384 0 018.547 8.548.781.781 0 001.557-.133 10.947 10.947 0 00-9.971-9.971.781.781 0 00-.133 1.556z"/></g><defs><clipPath id="ba"><path d="M0 0h40v40H0z"/></clipPath></defs></svg><svg viewBox="0 0 40 40" id="icon-phones" xmlns="http://www.w3.org/2000/svg"><path d="M6.119 17.664a3.769 3.769 0 00-2.508 3.547v6.875a3.767 3.767 0 003.763 3.763h2.179a1.586 1.586 0 001.585-1.584V19.033a1.586 1.586 0 00-1.585-1.585h-.184v-3.567C9.369 8.02 14.138 3.25 20 3.25c5.863 0 10.632 4.77 10.632 10.632v3.567h-.185a1.587 1.587 0 00-1.584 1.585v11.232a1.586 1.586 0 001.584 1.584h1.16v3.88a1.71 1.71 0 01-1.707 1.707h-3.71v-.689a.625.625 0 00-.625-.625h-3.941a1.94 1.94 0 000 3.878h3.941a.625.625 0 00.625-.625v-.689h3.71a2.96 2.96 0 002.957-2.958v-3.887a3.768 3.768 0 003.532-3.755v-6.874a3.769 3.769 0 00-2.508-3.547V13.88C33.881 6.227 27.654 0 20 0S6.119 6.227 6.119 13.881v3.783zM24.94 38.75h-3.316a.689.689 0 010-1.378h3.316v1.378zM4.86 28.086v-6.874a2.516 2.516 0 012.514-2.514h.744V30.6h-.744a2.516 2.516 0 01-2.513-2.513zm4.693-9.388a.335.335 0 01.334.335v11.232a.335.335 0 01-.334.334h-.185V18.7h.185zm20.56 11.567V19.033a.335.335 0 01.334-.335h.185V30.6h-.185a.335.335 0 01-.334-.334zm5.026-9.053v6.874a2.516 2.516 0 01-2.513 2.513h-.744V18.7h.744a2.516 2.516 0 012.513 2.512zM20 1.25c6.965 0 12.631 5.666 12.631 12.631v3.567h-.75v-3.567a11.882 11.882 0 00-23.763 0v3.567H7.37v-3.567C7.369 6.916 13.035 1.25 20 1.25z"/></svg><svg viewBox="0 0 28 40" id="icon-pin" xmlns="http://www.w3.org/2000/svg"><path d="M27.136 13.203c.09-3.584-1.18-6.797-3.672-9.289a13.455 13.455 0 00-18.975 0C-.976 9.38.327 17.568 4.44 22.831l4.559 5.836c-3.772.991-6.156 3.037-6.156 5.359 0 3.35 4.89 5.974 11.135 5.974 6.244 0 11.135-2.624 11.135-5.974 0-2.323-2.385-4.368-6.156-5.359l4.559-5.836c2.252-2.883 3.538-6.302 3.621-9.628zm-3.274 20.823c0 2.56-4.527 4.724-9.885 4.724-5.359 0-9.886-2.164-9.886-4.724 0-1.802 2.295-3.497 5.75-4.28l3.643 4.664a.624.624 0 00.985 0l3.643-4.663c3.455.782 5.75 2.477 5.75 4.279zm-9.885-1.016L5.424 22.062C1.65 17.232.42 9.75 5.374 4.798a12.204 12.204 0 0117.206 0c4.441 4.441 4.42 11.54-.05 17.264L13.976 33.01zm9.058-22.808a.625.625 0 01-.807-.36 8.08 8.08 0 00-1.858-2.834 8.926 8.926 0 00-2.658-1.836.625.625 0 01.512-1.14 10.172 10.172 0 013.03 2.092 9.322 9.322 0 012.141 3.27.625.625 0 01-.36.808zM14 7.404a6.045 6.045 0 106.045 6.045A6.051 6.051 0 0014 7.404zm0 10.84a4.795 4.795 0 110-9.59 4.795 4.795 0 010 9.59z"/></svg></svg>