<?xml version="1.0" encoding="utf-8"?><svg viewBox="0 0 876 833" xmlns="http://www.w3.org/2000/svg" xmlns:xlink="http://www.w3.org/1999/xlink"><style>:root>svg{display:none}:root>svg:target{display:block}</style><svg viewBox="0 0 40 40" id="icon-arrow" xmlns="http://www.w3.org/2000/svg"><g clip-path="url(#aa)"><path d="M30 20a.833.833 0 01-.23.576L11.435 39.743a.834.834 0 01-1.204-1.152L28.014 20 10.232 1.41A.835.835 0 0111.436.257l18.333 19.167A.833.833 0 0130 20z"/><path d="M30 20a.833.833 0 01-.23.576L11.435 39.743a.834.834 0 01-1.204-1.152L28.014 20 10.232 1.41A.835.835 0 0111.436.257l18.333 19.167A.833.833 0 0130 20z"/></g><defs><linearGradient id="ab" x1="7" y1="38.298" x2="22.388" y2="5.301" gradientUnits="userSpaceOnUse"><stop stop-color="#fff" stop-opacity=".2"/><stop offset="1" stop-color="#fff" stop-opacity="0"/></linearGradient><clipPath id="aa"><path transform="rotate(-90 20 20)" d="M0 0h40v40H0z"/></clipPath></defs></svg><svg viewBox="0 0 24 24" id="icon-chat" xmlns="http://www.w3.org/2000/svg"><path d="M19.078 2.133H4.922A4.927 4.927 0 000 7.055v7.601a4.842 4.842 0 003.482 4.656l2.377 2.377a.704.704 0 00.995 0l2.18-2.18h10.044A4.927 4.927 0 0024 14.585v-7.53a4.927 4.927 0 00-4.922-4.922zm-12.246 9.93c0-.388.315-.703.704-.703h8.929a.703.703 0 010 1.407h-8.93a.703.703 0 01-.703-.704zm9.633-1.782h-8.93a.703.703 0 110-1.406h8.93a.703.703 0 010 1.406z"/></svg><svg viewBox="0 0 40 40" id="icon-check" xmlns="http://www.w3.org/2000/svg"><path d="M33.32 9.063a1.257 1.257 0 00-1.765.117L14.938 28.172l-6.555-6.555a1.254 1.254 0 00-1.766 0 1.254 1.254 0 000 1.766l7.5 7.5c.235.234.555.367.883.367h.04a1.22 1.22 0 00.898-.43l17.5-20a1.234 1.234 0 00-.118-1.757z"/></svg><svg viewBox="0 0 40 40" id="icon-closer" xmlns="http://www.w3.org/2000/svg"><g clip-path="url(#da)"><path d="M39.734 38.146a1.103 1.103 0 00-.121-.12L21.567 19.969 39.624 1.924A1.112 1.112 0 1038.05.351L20.005 18.407 1.96.351A1.112 1.112 0 10.387 1.924l18.056 18.045L.387 38.015a1.108 1.108 0 101.562 1.562L20.006 21.53 38.05 39.587a1.108 1.108 0 101.683-1.44z"/></g><defs><clipPath id="da"><path d="M0 0h40v40H0z"/></clipPath></defs></svg><svg viewBox="0 0 20 20" id="icon-cross" xmlns="http://www.w3.org/2000/svg"><path d="M11.664 10l7.991-7.992A1.175 1.175 0 1017.991.345L10 8.337 2.008.345A1.175 1.175 0 10.345 2.008L8.337 10 .345 17.991a1.175 1.175 0 101.663 1.664L10 11.663l7.991 7.992a1.173 1.173 0 001.664 0c.46-.46.46-1.204 0-1.664L11.663 10z"/></svg><svg viewBox="0 0 876 833" id="icon-decor" xmlns="http://www.w3.org/2000/svg"><path opacity=".03" fill-rule="evenodd" clip-rule="evenodd" d="M729.345 682.149c-5.657-5.189-14.38-4.918-19.484.588-130.093 140.322-349.534 161.924-510.442 50.248C20.723 608.964-25.974 365.876 95.322 191.107 204.073 34.414 417.09-17.58 590.822 70.161c6.845 3.457 15.107.81 18.45-5.911 3.343-6.722.504-14.99-6.343-18.435-89.791-45.35-192.743-57.534-289.898-34.31-98.098 23.45-183.522 81.607-240.538 163.758-62.897 90.625-85.947 200.87-64.9 310.428 21.046 109.557 83.668 205.311 176.33 269.622 84.257 58.477 186.248 84.951 287.185 74.539 99.996-10.31 192.061-55.896 259.238-128.358 5.105-5.502 4.657-14.166-1.001-19.345zM547.402 124.73c-141.911-63.928-308.046-19.358-395.03 105.972-99.945 144.006-61.466 344.3 85.771 446.488 128.897 89.459 301.703 76.253 410.896-31.403 5.348-5.273 5.284-13.94-.143-19.358-5.428-5.41-14.162-5.534-19.51-.261-99.846 98.439-257.87 110.507-375.748 28.696C118.988 561.411 83.8 378.242 175.2 246.548c79.548-114.617 231.467-155.381 361.232-96.929 6.992 3.15 15.115.131 18.145-6.743 3.027-6.873-.184-14.991-7.175-18.146zm-48.048 97.216c-2.4 7.125-10.208 10.848-17.44 8.315-83.864-29.366-177.143.129-226.833 71.722-61.503 88.616-37.826 211.869 52.781 274.753 73.844 51.251 172.745 47.887 240.51-8.176 5.79-4.792 14.505-3.939 19.452 1.913 4.95 5.848 4.268 14.474-1.523 19.265-77.189 63.861-189.835 67.697-273.936 9.327-103.195-71.62-130.162-211.997-60.115-312.925 56.59-81.537 162.832-115.125 258.36-81.676 7.23 2.533 11.145 10.36 8.744 17.482zm144.345-31.561c-5.483-5.357-14.217-5.382-19.508-.051-5.288 5.333-5.128 14.001.356 19.36 89.017 86.98 114.96 219.98 64.554 330.954-2.768 6.089-.593 13.23 4.834 16.997.665.461 1.38.871 2.139 1.225 6.959 3.225 15.115.296 18.221-6.543 55.129-121.365 26.758-266.819-70.596-361.942zm65.479-117.892C878.284 214.538 924.373 454.462 818.77 642.977c-7.075 12.636-19.336 21.668-33.639 24.787-14.327 3.122-29.536.062-41.727-8.399L552.317 526.743c-13.978-9.701-18.569-28.062-10.678-42.711.308-.574.611-1.146.909-1.716 29.275-56.246 15.945-125.641-32.42-168.755-.489-.438-.986-.873-1.486-1.308-12.85-11.144-15.379-29.854-5.892-43.525L632.458 81.84c8.274-11.922 21.387-19.774 35.974-21.545 14.564-1.764 29.419 2.684 40.746 12.198zm49.725 564.544c5.861 4.067 12.884 5.482 19.775 3.978 6.866-1.498 12.516-5.657 15.909-11.715 99.232-177.141 55.923-402.586-102.979-536.061a26.466 26.466 0 00-1.917-1.468c-5.083-3.528-11.158-5.045-17.35-4.295-7.017.85-13.072 4.476-17.05 10.208L525.582 284.575c-1.575 2.27-1.158 5.377.97 7.224a196.96 196.96 0 011.778 1.564c57.869 51.587 73.818 134.618 38.791 201.917a117.176 117.176 0 01-1.088 2.052c-1.306 2.425-.541 5.47 1.783 7.083l191.087 132.622z"/></svg><svg viewBox="0 0 515 205" id="icon-logo" xmlns="http://www.w3.org/2000/svg"><g clip-path="url(#ga)"><path d="M214.86 117.037c-8.05-4.327-14.377-10.33-18.982-18.006-4.607-7.677-6.908-16.353-6.908-26.032 0-9.677 2.301-18.354 6.908-26.032 4.605-7.676 10.932-13.678 18.982-18.005 8.048-4.327 17.099-6.49 27.148-6.49 8.466 0 16.123 1.49 22.962 4.466 6.838 2.979 12.584 7.259 17.237 12.843l-14.515 13.398c-6.609-7.629-14.797-11.445-24.566-11.445-6.051 0-11.446 1.325-16.192 3.977s-8.444 6.352-11.098 11.098c-2.65 4.745-3.976 10.144-3.976 16.19 0 6.05 1.326 11.446 3.976 16.192 2.654 4.746 6.352 8.444 11.098 11.096 4.746 2.652 10.141 3.978 16.192 3.978 9.769 0 17.957-3.86 24.566-11.584l14.515 13.4c-4.653 5.676-10.421 10.002-17.308 12.98-6.887 2.976-14.564 4.466-23.031 4.466-9.957 0-18.96-2.164-27.008-6.49zm141.41-70.069c-3.538-2.931-8.702-4.397-15.494-4.397h-18.424V76.63h18.424c6.792 0 11.956-1.488 15.494-4.467 3.536-2.977 5.304-7.165 5.304-12.563 0-5.489-1.768-9.7-5.304-12.631zm5.722 74.885l-18.844-27.219h-20.796v27.219H299.74V24.147h42.291c8.656 0 16.168 1.444 22.544 4.327 6.372 2.885 11.281 6.979 14.725 12.283 3.442 5.304 5.164 11.585 5.164 18.842 0 7.26-1.745 13.52-5.233 18.774-3.489 5.258-8.445 9.282-14.867 12.074l21.915 31.406h-24.287zm131.568 0l-.138-58.624-28.754 48.294h-10.19l-28.614-47.038v57.368h-21.216V24.147h18.704l36.57 60.718 36.012-60.717h18.564l.278 97.705H493.56zM213.568 183.205c1.854-1.894 2.782-4.387 2.782-7.478 0-3.09-.928-5.582-2.782-7.478-1.854-1.895-4.205-2.843-7.046-2.843-2.843 0-5.183.948-7.015 2.843-1.833 1.896-2.751 4.388-2.751 7.478 0 3.091.918 5.584 2.751 7.478 1.832 1.897 4.172 2.844 7.015 2.844 2.841 0 5.192-.947 7.046-2.844zm10.383-23.98v33.005h-7.356v-4.265a11.926 11.926 0 01-4.728 3.522c-1.875.783-3.945 1.175-6.211 1.175-3.214 0-6.086-.7-8.622-2.101-2.534-1.4-4.511-3.379-5.934-5.934-1.42-2.554-2.13-5.521-2.13-8.9 0-3.378.71-6.334 2.13-8.869 1.423-2.533 3.4-4.501 5.934-5.903 2.536-1.4 5.408-2.101 8.622-2.101 2.143 0 4.11.371 5.903 1.113a12.95 12.95 0 014.665 3.275v-4.017h7.727zm41.205 3.276c2.514 2.432 3.77 6.036 3.77 10.816v18.913H261.2v-17.924c0-2.884-.679-5.057-2.039-6.521-1.359-1.462-3.298-2.194-5.808-2.194-2.844 0-5.091.855-6.738 2.564-1.648 1.712-2.473 4.174-2.473 7.387v16.688h-7.725v-33.005h7.354v4.264c1.278-1.523 2.884-2.676 4.82-3.46 1.938-.783 4.12-1.175 6.552-1.175 4.163 0 7.499 1.216 10.013 3.647zm38.116 20.704c1.855-1.894 2.782-4.387 2.782-7.478 0-3.09-.927-5.582-2.782-7.478-1.854-1.895-4.204-2.843-7.046-2.843-2.843 0-5.183.948-7.015 2.843-1.833 1.896-2.751 4.388-2.751 7.478 0 3.091.918 5.584 2.751 7.478 1.832 1.897 4.172 2.844 7.015 2.844 2.842 0 5.192-.947 7.046-2.844zm10.383-23.98v33.005H306.3v-4.265a11.933 11.933 0 01-4.728 3.522c-1.876.783-3.946 1.175-6.212 1.175-3.214 0-6.088-.7-8.621-2.101-2.535-1.4-4.512-3.379-5.933-5.934-1.423-2.554-2.132-5.521-2.132-8.9 0-3.378.709-6.334 2.132-8.869 1.421-2.533 3.398-4.501 5.933-5.903 2.533-1.4 5.407-2.101 8.621-2.101 2.143 0 4.111.371 5.903 1.113a12.95 12.95 0 014.665 3.275v-4.017h7.727zm15.946 30.625c-1.914-1.875-2.872-4.521-2.872-7.941v-34.388h7.725v33.83c0 3.298 1.546 4.944 4.635 4.944 1.03 0 1.957-.204 2.779-.617l.373 6.18c-1.442.536-2.989.804-4.636.804-3.418 0-6.086-.937-8.004-2.812zm54.063-30.625v27.998c0 11.619-5.708 17.43-17.12 17.43-3.009 0-5.882-.402-8.622-1.206-2.74-.804-4.998-1.968-6.77-3.492l3.463-5.809c1.401 1.195 3.112 2.141 5.129 2.841 2.018.702 4.142 1.052 6.367 1.052 3.377 0 5.861-.814 7.448-2.441 1.585-1.628 2.379-4.131 2.379-7.509v-1.546c-1.236 1.36-2.742 2.4-4.514 3.122-1.77.721-3.686 1.081-5.745 1.081-4.411 0-7.88-1.215-10.415-3.647-2.534-2.429-3.801-6.077-3.801-10.94v-16.934h7.725v15.946c0 2.926.671 5.12 2.008 6.583 1.339 1.463 3.246 2.193 5.719 2.193 2.76 0 4.953-.844 6.581-2.534 1.628-1.688 2.442-4.14 2.442-7.355v-14.833h7.726zm32.894 31.212c-.908.742-2.01 1.298-3.308 1.669a14.87 14.87 0 01-4.11.556c-3.626 0-6.426-.947-8.405-2.843-1.979-1.894-2.968-4.656-2.968-8.282v-29.606h7.727v7.542h8.837v6.18h-8.837v15.698c0 1.607.401 2.834 1.205 3.679.804.844 1.927 1.265 3.368 1.265 1.732 0 3.173-.452 4.328-1.358l2.163 5.5zm10.583-31.212h7.724v33.005h-7.724v-33.005zm.37-6.768c-.948-.886-1.421-1.987-1.421-3.307 0-1.317.473-2.419 1.421-3.305.947-.886 2.122-1.33 3.522-1.33 1.188 0 2.213.304 3.074.91 1.346.945 2.047 2.661 1.822 4.29a4.583 4.583 0 01-1.342 2.682c-.926.926-2.112 1.389-3.554 1.389-1.4 0-2.575-.443-3.522-1.329zm27.639 38.042c-2.72-1.442-4.843-3.45-6.366-6.026-1.526-2.575-2.286-5.491-2.286-8.746 0-3.254.76-6.158 2.286-8.714 1.523-2.555 3.635-4.554 6.335-5.995 2.699-1.443 5.78-2.164 9.24-2.164 3.255 0 6.109.66 8.56 1.979 2.451 1.318 4.295 3.213 5.532 5.685l-5.935 3.463c-.948-1.526-2.132-2.668-3.553-3.431-1.421-.763-2.977-1.144-4.665-1.144-2.886 0-5.275.937-7.17 2.812-1.896 1.875-2.844 4.377-2.844 7.509 0 3.132.938 5.635 2.812 7.51 1.875 1.876 4.275 2.812 7.202 2.812 1.688 0 3.244-.38 4.665-1.143 1.421-.763 2.605-1.905 3.553-3.431l5.935 3.462c-1.277 2.472-3.144 4.378-5.593 5.716-2.454 1.34-5.284 2.009-8.499 2.009-3.42 0-6.491-.721-9.209-2.163zm36.54 1.112c-2.556-.7-4.595-1.585-6.119-2.657l2.966-5.872c1.485.988 3.265 1.784 5.348 2.38 2.078.597 4.129.896 6.149.896 4.613 0 6.921-1.215 6.921-3.647 0-1.153-.588-1.956-1.761-2.41-1.173-.454-3.059-.886-5.656-1.298-2.719-.412-4.933-.885-6.643-1.421-1.709-.536-3.194-1.473-4.45-2.812-1.256-1.339-1.886-3.204-1.886-5.593 0-3.132 1.307-5.635 3.926-7.511 2.614-1.875 6.149-2.812 10.598-2.812 2.267 0 4.534.257 6.8.773 2.264.516 4.119 1.206 5.563 2.071l-2.969 5.871c-2.802-1.647-5.951-2.472-9.454-2.472-2.268 0-3.986.34-5.162 1.02-1.174.68-1.762 1.576-1.762 2.688 0 1.236.628 2.112 1.886 2.626 1.257.516 3.205 1 5.841 1.454 2.637.412 4.8.886 6.489 1.421a10.16 10.16 0 014.358 2.72c1.214 1.277 1.822 3.091 1.822 5.439 0 3.089-1.338 5.562-4.018 7.416-2.676 1.854-6.324 2.781-10.939 2.781-2.677 0-5.295-.351-7.848-1.051zM9.074 56.736L157.91 9.025c.772-.248 1.356.71.783 1.284L86.778 82.225a6.188 6.188 0 00-1.45 6.467l23.634 65.847c.278.778-.692 1.392-1.276.808L9.074 56.735zm-8.166.74l110.619 110.618c1.636 1.637 4.427.963 5.133-1.243L168.85 4.043c.768-2.396-1.494-4.66-3.891-3.89L2.151 52.343c-2.205.706-2.881 3.495-1.243 5.134z"/></g><defs><clipPath id="ga"><path d="M0 0h515v205H0z"/></clipPath></defs></svg><svg viewBox="0 0 40 40" id="icon-mail" xmlns="http://www.w3.org/2000/svg"><path d="M39.925 18.44c0-1.037-.352-2.021-.966-2.702a.777.777 0 00-.077-.074l-2.157-1.816v-5.62a.781.781 0 00-.78-.781h-6.82L20.504.184a.781.781 0 00-1.007 0l-8.622 7.263h-6.82a.781.781 0 00-.78.78v5.62l-2.158 1.817a.776.776 0 00-.076.074c-.614.68-.967 1.665-.967 2.701v17.63A3.936 3.936 0 004.006 40h31.987a3.936 3.936 0 003.932-3.932V18.44zm-12.998 8.814L38.268 17.7c.063.241.095.49.095.738v17.63c0 .244-.038.488-.113.722l-11.323-9.537zm10.432-10.83l-.633.534V15.89l.633.533zM20 1.803l6.7 5.644H13.3L20 1.803zm-8.84 7.206h24.004v9.264l-9.449 7.96-5.21-4.39a.781.781 0 00-1.007 0l-5.211 4.39-9.45-7.96V9.01h6.322zM1.75 36.791a2.357 2.357 0 01-.112-.723V18.44c0-.249.032-.497.094-.738l11.342 9.553L1.75 36.79zm1.525-19.833l-.634-.534.634-.534v1.068zm.732 21.48c-.468 0-.925-.139-1.313-.399L20 23.462l17.307 14.577c-.389.26-.846.399-1.314.398H4.006z"/></svg><svg viewBox="0 0 40 40" id="icon-phone" xmlns="http://www.w3.org/2000/svg"><g clip-path="url(#ia)"><path d="M39.045 30.793l-5.75-5.764a3.168 3.168 0 00-2.318-.962h-.001a3.212 3.212 0 00-2.317.96l-2.854 2.854a1.689 1.689 0 01-2.098.255 34.626 34.626 0 01-11.843-11.843 1.689 1.689 0 01.255-2.098l2.855-2.854c.62-.611.967-1.448.959-2.318a3.168 3.168 0 00-.962-2.317L9.207.955a3.28 3.28 0 00-4.63.003l-1.53 1.53C.13 5.402-.713 9.545.606 14.467c1.32 4.925 4.828 10.501 9.626 15.3 4.799 4.798 10.375 8.307 15.3 9.626 1.51.405 2.947.606 4.298.606 3.05 0 5.661-1.026 7.683-3.047l1.53-1.53a3.28 3.28 0 00.002-4.63zm-1.108 3.525l-1.53 1.53c-3.156 3.157-7.436 2.85-10.47 2.037C16.103 35.25 4.75 23.896 2.114 14.064 1.302 11.029.995 6.749 4.152 3.592l1.53-1.53a1.715 1.715 0 012.42 0l5.765 5.75c.67.668.671 1.753.003 2.423l-.002.001-2.854 2.854a3.27 3.27 0 00-.487 4.01 36.17 36.17 0 0012.372 12.373 3.27 3.27 0 004.01-.487l2.855-2.854a1.63 1.63 0 011.211-.502h.001c.457-.009.896.174 1.212.503l5.75 5.764c.667.67.667 1.752 0 2.421zM21.25 3.753a17.86 17.86 0 0114.997 14.996.781.781 0 101.546-.231 19.423 19.423 0 00-16.31-16.31.781.781 0 10-.232 1.545z"/><path d="M20.315 7.9A13.622 13.622 0 0132.1 19.684a.781.781 0 001.55-.197A15.184 15.184 0 0020.512 6.35a.781.781 0 10-.197 1.55z"/><path d="M19.392 12.06a9.384 9.384 0 018.547 8.548.781.781 0 001.557-.133 10.947 10.947 0 00-9.971-9.971.781.781 0 00-.133 1.556z"/></g><defs><clipPath id="ia"><path d="M0 0h40v40H0z"/></clipPath></defs></svg><svg viewBox="0 0 40 40" id="icon-phones" xmlns="http://www.w3.org/2000/svg"><path d="M6.119 17.664a3.769 3.769 0 00-2.508 3.547v6.875a3.767 3.767 0 003.763 3.763h2.179a1.586 1.586 0 001.585-1.584V19.033a1.586 1.586 0 00-1.585-1.585h-.184v-3.567C9.369 8.02 14.138 3.25 20 3.25c5.863 0 10.632 4.77 10.632 10.632v3.567h-.185a1.587 1.587 0 00-1.584 1.585v11.232a1.586 1.586 0 001.584 1.584h1.16v3.88a1.71 1.71 0 01-1.707 1.707h-3.71v-.689a.625.625 0 00-.625-.625h-3.941a1.94 1.94 0 000 3.878h3.941a.625.625 0 00.625-.625v-.689h3.71a2.96 2.96 0 002.957-2.958v-3.887a3.768 3.768 0 003.532-3.755v-6.874a3.769 3.769 0 00-2.508-3.547V13.88C33.881 6.227 27.654 0 20 0S6.119 6.227 6.119 13.881v3.783zM24.94 38.75h-3.316a.689.689 0 010-1.378h3.316v1.378zM4.86 28.086v-6.874a2.516 2.516 0 012.514-2.514h.744V30.6h-.744a2.516 2.516 0 01-2.513-2.513zm4.693-9.388a.335.335 0 01.334.335v11.232a.335.335 0 01-.334.334h-.185V18.7h.185zm20.56 11.567V19.033a.335.335 0 01.334-.335h.185V30.6h-.185a.335.335 0 01-.334-.334zm5.026-9.053v6.874a2.516 2.516 0 01-2.513 2.513h-.744V18.7h.744a2.516 2.516 0 012.513 2.512zM20 1.25c6.965 0 12.631 5.666 12.631 12.631v3.567h-.75v-3.567a11.882 11.882 0 00-23.763 0v3.567H7.37v-3.567C7.369 6.916 13.035 1.25 20 1.25z"/></svg><svg viewBox="0 0 28 40" id="icon-pin" xmlns="http://www.w3.org/2000/svg"><path d="M27.136 13.203c.09-3.584-1.18-6.797-3.672-9.289a13.455 13.455 0 00-18.975 0C-.976 9.38.327 17.568 4.44 22.831l4.559 5.836c-3.772.991-6.156 3.037-6.156 5.359 0 3.35 4.89 5.974 11.135 5.974 6.244 0 11.135-2.624 11.135-5.974 0-2.323-2.385-4.368-6.156-5.359l4.559-5.836c2.252-2.883 3.538-6.302 3.621-9.628zm-3.274 20.823c0 2.56-4.527 4.724-9.885 4.724-5.359 0-9.886-2.164-9.886-4.724 0-1.802 2.295-3.497 5.75-4.28l3.643 4.664a.624.624 0 00.985 0l3.643-4.663c3.455.782 5.75 2.477 5.75 4.279zm-9.885-1.016L5.424 22.062C1.65 17.232.42 9.75 5.374 4.798a12.204 12.204 0 0117.206 0c4.441 4.441 4.42 11.54-.05 17.264L13.976 33.01zm9.058-22.808a.625.625 0 01-.807-.36 8.08 8.08 0 00-1.858-2.834 8.926 8.926 0 00-2.658-1.836.625.625 0 01.512-1.14 10.172 10.172 0 013.03 2.092 9.322 9.322 0 012.141 3.27.625.625 0 01-.36.808zM14 7.404a6.045 6.045 0 106.045 6.045A6.051 6.051 0 0014 7.404zm0 10.84a4.795 4.795 0 110-9.59 4.795 4.795 0 010 9.59z"/></svg><svg viewBox="0 0 40 40" id="icon-plus" xmlns="http://www.w3.org/2000/svg"><path d="M20 0C8.972 0 0 8.972 0 20c0 11.029 8.972 20 20 20s20-8.971 20-20C40 8.972 31.028 0 20 0zm0 38.462C9.82 38.462 1.538 30.178 1.538 20 1.538 9.82 9.821 1.538 20 1.538c10.18 0 18.462 8.283 18.462 18.462 0 10.18-8.283 18.462-18.462 18.462z"/><path d="M29.617 19.23h-8.846v-8.46a.769.769 0 10-1.538 0v8.46h-8.847a.769.769 0 100 1.54h8.847V30a.769.769 0 101.538 0v-9.23h8.846a.769.769 0 100-1.54z"/></svg><svg viewBox="0 0 16 15" id="icon-tg" xmlns="http://www.w3.org/2000/svg"><path d="M14.816.001a1.83 1.83 0 00-.575.137h-.002c-.176.07-1.01.421-2.277.953L7.417 3.004C4.157 4.377.952 5.73.952 5.73l.038-.015s-.22.072-.452.231a1.25 1.25 0 00-.36.349c-.113.166-.205.42-.17.682.054.445.343.712.55.859.209.149.408.219.408.219h.005l3.006 1.012c.134.433.916 3 1.103 3.592.11.354.22.575.354.743a.87.87 0 00.233.216.698.698 0 00.151.065l-.03-.007c.009.002.016.01.023.012.024.007.041.01.072.014.476.145.859-.151.859-.151l.021-.017 1.775-1.615 2.974 2.281.067.03c.62.27 1.248.12 1.58-.148a1.61 1.61 0 00.464-.613l.022-.055L15.943 1.64c.065-.291.082-.563.01-.827a1.112 1.112 0 00-.48-.645 1.152 1.152 0 00-.657-.166zm-.063 1.263c-.002.038.005.033-.012.108v.007l-2.277 11.652c-.01.016-.026.053-.072.089-.048.038-.086.062-.286-.017l-3.638-2.79-2.198 2.004.462-2.948 5.944-5.54c.245-.228.163-.276.163-.276.017-.28-.37-.082-.37-.082L4.975 8.114l-.003-.012-3.592-1.21V6.89l-.01-.003.02-.007.019-.01.02-.007L7.895 4.14l4.542-1.914c1.264-.531 2.2-.92 2.253-.942.05-.02.026-.02.062-.02z"/></svg><svg viewBox="0 0 16 17" id="icon-whatsapp" xmlns="http://www.w3.org/2000/svg"><path d="M13.608 2.321A7.856 7.856 0 008.005.002a7.945 7.945 0 00-6.884 11.896L0 16.01l4.203-1.1c1.16.645 2.464.99 3.792 1A8.005 8.005 0 0016 7.975a8.004 8.004 0 00-2.392-5.654zM8.005 14.54a6.583 6.583 0 01-3.362-.92l-.24-.15-2.492.66.66-2.432-.16-.25a6.604 6.604 0 0110.257-8.175 6.654 6.654 0 012.001 4.663 6.664 6.664 0 01-6.664 6.604zm3.612-4.943c-.2-.1-1.17-.58-1.35-.64-.18-.06-.32-.1-.45.1a9.01 9.01 0 01-.631.77c-.11.14-.23.15-.43 0a5.333 5.333 0 01-2.692-2.351c-.21-.35.2-.33.58-1.08a.38.38 0 000-.351c0-.1-.45-1.08-.61-1.471-.16-.39-.32-.33-.45-.34h-.39a.71.71 0 00-.531.25 2.191 2.191 0 00-.66 1.69c.062.75.344 1.463.81 2.052a8.896 8.896 0 003.392 3.002c.72.42 1.555.595 2.382.5a2 2 0 001.33-.94 1.62 1.62 0 00.12-.94c-.09-.1-.22-.15-.42-.25z"/></svg></svg>